<?xml version="1.0" standalone="no"?>
 <!DOCTYPE svg PUBLIC "-//W3C//DTD SVG 1.1//EN" 
 "http://www.w3.org/Graphics/SVG/1.1/DTD/svg11.dtd"> 
<svg xmlns="http://www.w3.org/2000/svg" version="1.1" 
    width="5.33908cm" height="5.2705cm" viewBox="0 0 21020 20750 ">
<title>SVG Picture created as ATM90E3x_fw-Edge.Cuts.svg date 2017/06/19 23:58:52 </title>
  <desc>Picture generated by PCBNEW </desc>
<g style="fill:#000000; fill-opacity:1;stroke:#000000; stroke-opacity:1;
stroke-linecap:round; stroke-linejoin:round; "
 transform="translate(0 0) scale(1 1)">
</g>
<g style="fill:#C2C200; fill-opacity:0.0; 
stroke:#C2C200; stroke-width:-0.000393701; stroke-opacity:1; 
stroke-linecap:round; stroke-linejoin:round;">
</g>
<g style="fill:#C2C200; fill-opacity:0.0; 
stroke:#C2C200; stroke-width:39.3701; stroke-opacity:1; 
stroke-linecap:round; stroke-linejoin:round;">
<path d="M19054.3 20617 A1111.11 1111.11 0.0 0 0 20165.4 19505.9 " />
<path d="M165.424 19505.9 A1111.11 1111.11 0.0 0 0 1276.54 20617 " />
<path d="M20165.4 1728.16 A1111.11 1111.11 0.0 0 0 19054.3 617.047 " />
<path d="M1276.54 617.047 A1111.11 1111.11 0.0 0 0 165.424 1728.16 " />
<path d="M165 19505
L165 1728
" />
<path d="M1276 617
L1276 617
" />
<path d="M20165 1728
L20165 19505
" />
<path d="M19054 20617
L1276 20617
" />
<path d="M1276 617
L19054 617
" />
</g> 
</svg>
