G04 #@! TF.GenerationSoftware,KiCad,Pcbnew,(2017-06-19 revision 6733101c6)-makepkg*
G04 #@! TF.CreationDate,2017-08-21T23:10:13+09:30*
G04 #@! TF.ProjectId,ATM90E3x_fw,41544D39304533785F66772E6B696361,rev?*
G04 #@! TF.SameCoordinates,Original
G04 #@! TF.FileFunction,Legend,Bot*
G04 #@! TF.FilePolarity,Positive*
%FSLAX46Y46*%
G04 Gerber Fmt 4.6, Leading zero omitted, Abs format (unit mm)*
G04 Created by KiCad (PCBNEW (2017-06-19 revision 6733101c6)-makepkg) date 08/21/17 23:10:13*
%MOMM*%
%LPD*%
G01*
G04 APERTURE LIST*
%ADD10C,0.100000*%
%ADD11C,0.200000*%
%ADD12C,0.250000*%
%ADD13C,0.120000*%
%ADD14C,0.010000*%
G04 APERTURE END LIST*
D10*
D11*
X128771523Y-48113904D02*
X128771523Y-47313904D01*
X128581047Y-47313904D01*
X128466761Y-47352000D01*
X128390571Y-47428190D01*
X128352476Y-47504380D01*
X128314380Y-47656761D01*
X128314380Y-47771047D01*
X128352476Y-47923428D01*
X128390571Y-47999619D01*
X128466761Y-48075809D01*
X128581047Y-48113904D01*
X128771523Y-48113904D01*
X127971523Y-48113904D02*
X127971523Y-47313904D01*
X127704857Y-47885333D01*
X127438190Y-47313904D01*
X127438190Y-48113904D01*
X127095333Y-47885333D02*
X126714380Y-47885333D01*
X127171523Y-48113904D02*
X126904857Y-47313904D01*
X126638190Y-48113904D01*
X124999619Y-48113904D02*
X124999619Y-47313904D01*
X124694857Y-47313904D01*
X124618666Y-47352000D01*
X124580571Y-47390095D01*
X124542476Y-47466285D01*
X124542476Y-47580571D01*
X124580571Y-47656761D01*
X124618666Y-47694857D01*
X124694857Y-47732952D01*
X124999619Y-47732952D01*
X124199619Y-48113904D02*
X124199619Y-47313904D01*
X123932952Y-47885333D01*
X123666285Y-47313904D01*
X123666285Y-48113904D01*
X122866285Y-48113904D02*
X123323428Y-48113904D01*
X123094857Y-48113904D02*
X123094857Y-47313904D01*
X123171047Y-47428190D01*
X123247238Y-47504380D01*
X123323428Y-47542476D01*
X121189619Y-48113904D02*
X121189619Y-47313904D01*
X120884857Y-47313904D01*
X120808666Y-47352000D01*
X120770571Y-47390095D01*
X120732476Y-47466285D01*
X120732476Y-47580571D01*
X120770571Y-47656761D01*
X120808666Y-47694857D01*
X120884857Y-47732952D01*
X121189619Y-47732952D01*
X120389619Y-48113904D02*
X120389619Y-47313904D01*
X120122952Y-47885333D01*
X119856285Y-47313904D01*
X119856285Y-48113904D01*
X119322952Y-47313904D02*
X119246761Y-47313904D01*
X119170571Y-47352000D01*
X119132476Y-47390095D01*
X119094380Y-47466285D01*
X119056285Y-47618666D01*
X119056285Y-47809142D01*
X119094380Y-47961523D01*
X119132476Y-48037714D01*
X119170571Y-48075809D01*
X119246761Y-48113904D01*
X119322952Y-48113904D01*
X119399142Y-48075809D01*
X119437238Y-48037714D01*
X119475333Y-47961523D01*
X119513428Y-47809142D01*
X119513428Y-47618666D01*
X119475333Y-47466285D01*
X119437238Y-47390095D01*
X119399142Y-47352000D01*
X119322952Y-47313904D01*
X140087333Y-75469714D02*
X140125428Y-75507809D01*
X140239714Y-75545904D01*
X140315904Y-75545904D01*
X140430190Y-75507809D01*
X140506380Y-75431619D01*
X140544476Y-75355428D01*
X140582571Y-75203047D01*
X140582571Y-75088761D01*
X140544476Y-74936380D01*
X140506380Y-74860190D01*
X140430190Y-74784000D01*
X140315904Y-74745904D01*
X140239714Y-74745904D01*
X140125428Y-74784000D01*
X140087333Y-74822095D01*
X139782571Y-75507809D02*
X139668285Y-75545904D01*
X139477809Y-75545904D01*
X139401619Y-75507809D01*
X139363523Y-75469714D01*
X139325428Y-75393523D01*
X139325428Y-75317333D01*
X139363523Y-75241142D01*
X139401619Y-75203047D01*
X139477809Y-75164952D01*
X139630190Y-75126857D01*
X139706380Y-75088761D01*
X139744476Y-75050666D01*
X139782571Y-74974476D01*
X139782571Y-74898285D01*
X139744476Y-74822095D01*
X139706380Y-74784000D01*
X139630190Y-74745904D01*
X139439714Y-74745904D01*
X139325428Y-74784000D01*
D12*
X148842952Y-78200666D02*
X148366761Y-78200666D01*
X148938190Y-78486380D02*
X148604857Y-77486380D01*
X148271523Y-78486380D01*
X148081047Y-77486380D02*
X147509619Y-77486380D01*
X147795333Y-78486380D02*
X147795333Y-77486380D01*
X147176285Y-78486380D02*
X147176285Y-77486380D01*
X146842952Y-78200666D01*
X146509619Y-77486380D01*
X146509619Y-78486380D01*
X145985809Y-78486380D02*
X145795333Y-78486380D01*
X145700095Y-78438761D01*
X145652476Y-78391142D01*
X145557238Y-78248285D01*
X145509619Y-78057809D01*
X145509619Y-77676857D01*
X145557238Y-77581619D01*
X145604857Y-77534000D01*
X145700095Y-77486380D01*
X145890571Y-77486380D01*
X145985809Y-77534000D01*
X146033428Y-77581619D01*
X146081047Y-77676857D01*
X146081047Y-77914952D01*
X146033428Y-78010190D01*
X145985809Y-78057809D01*
X145890571Y-78105428D01*
X145700095Y-78105428D01*
X145604857Y-78057809D01*
X145557238Y-78010190D01*
X145509619Y-77914952D01*
X144890571Y-77486380D02*
X144795333Y-77486380D01*
X144700095Y-77534000D01*
X144652476Y-77581619D01*
X144604857Y-77676857D01*
X144557238Y-77867333D01*
X144557238Y-78105428D01*
X144604857Y-78295904D01*
X144652476Y-78391142D01*
X144700095Y-78438761D01*
X144795333Y-78486380D01*
X144890571Y-78486380D01*
X144985809Y-78438761D01*
X145033428Y-78391142D01*
X145081047Y-78295904D01*
X145128666Y-78105428D01*
X145128666Y-77867333D01*
X145081047Y-77676857D01*
X145033428Y-77581619D01*
X144985809Y-77534000D01*
X144890571Y-77486380D01*
X144128666Y-77962571D02*
X143795333Y-77962571D01*
X143652476Y-78486380D02*
X144128666Y-78486380D01*
X144128666Y-77486380D01*
X143652476Y-77486380D01*
X143319142Y-77486380D02*
X142700095Y-77486380D01*
X143033428Y-77867333D01*
X142890571Y-77867333D01*
X142795333Y-77914952D01*
X142747714Y-77962571D01*
X142700095Y-78057809D01*
X142700095Y-78295904D01*
X142747714Y-78391142D01*
X142795333Y-78438761D01*
X142890571Y-78486380D01*
X143176285Y-78486380D01*
X143271523Y-78438761D01*
X143319142Y-78391142D01*
X142366761Y-77486380D02*
X141700095Y-78486380D01*
X141700095Y-77486380D02*
X142366761Y-78486380D01*
X140223904Y-77962571D02*
X140557238Y-77962571D01*
X140557238Y-78486380D02*
X140557238Y-77486380D01*
X140081047Y-77486380D01*
X139319142Y-78438761D02*
X139414380Y-78486380D01*
X139604857Y-78486380D01*
X139700095Y-78438761D01*
X139747714Y-78343523D01*
X139747714Y-77962571D01*
X139700095Y-77867333D01*
X139604857Y-77819714D01*
X139414380Y-77819714D01*
X139319142Y-77867333D01*
X139271523Y-77962571D01*
X139271523Y-78057809D01*
X139747714Y-78153047D01*
X138414380Y-78486380D02*
X138414380Y-77962571D01*
X138462000Y-77867333D01*
X138557238Y-77819714D01*
X138747714Y-77819714D01*
X138842952Y-77867333D01*
X138414380Y-78438761D02*
X138509619Y-78486380D01*
X138747714Y-78486380D01*
X138842952Y-78438761D01*
X138890571Y-78343523D01*
X138890571Y-78248285D01*
X138842952Y-78153047D01*
X138747714Y-78105428D01*
X138509619Y-78105428D01*
X138414380Y-78057809D01*
X138081047Y-77819714D02*
X137700095Y-77819714D01*
X137938190Y-77486380D02*
X137938190Y-78343523D01*
X137890571Y-78438761D01*
X137795333Y-78486380D01*
X137700095Y-78486380D01*
X137366761Y-78486380D02*
X137366761Y-77486380D01*
X136938190Y-78486380D02*
X136938190Y-77962571D01*
X136985809Y-77867333D01*
X137081047Y-77819714D01*
X137223904Y-77819714D01*
X137319142Y-77867333D01*
X137366761Y-77914952D01*
X136081047Y-78438761D02*
X136176285Y-78486380D01*
X136366761Y-78486380D01*
X136462000Y-78438761D01*
X136509619Y-78343523D01*
X136509619Y-77962571D01*
X136462000Y-77867333D01*
X136366761Y-77819714D01*
X136176285Y-77819714D01*
X136081047Y-77867333D01*
X136033428Y-77962571D01*
X136033428Y-78057809D01*
X136509619Y-78153047D01*
X135604857Y-78486380D02*
X135604857Y-77819714D01*
X135604857Y-78010190D02*
X135557238Y-77914952D01*
X135509619Y-77867333D01*
X135414380Y-77819714D01*
X135319142Y-77819714D01*
X135081047Y-77819714D02*
X134890571Y-78486380D01*
X134700095Y-78010190D01*
X134509619Y-78486380D01*
X134319142Y-77819714D01*
X133938190Y-78486380D02*
X133938190Y-77819714D01*
X133938190Y-77486380D02*
X133985809Y-77534000D01*
X133938190Y-77581619D01*
X133890571Y-77534000D01*
X133938190Y-77486380D01*
X133938190Y-77581619D01*
X133462000Y-77819714D02*
X133462000Y-78486380D01*
X133462000Y-77914952D02*
X133414380Y-77867333D01*
X133319142Y-77819714D01*
X133176285Y-77819714D01*
X133081047Y-77867333D01*
X133033428Y-77962571D01*
X133033428Y-78486380D01*
X132128666Y-77819714D02*
X132128666Y-78629238D01*
X132176285Y-78724476D01*
X132223904Y-78772095D01*
X132319142Y-78819714D01*
X132462000Y-78819714D01*
X132557238Y-78772095D01*
X132128666Y-78438761D02*
X132223904Y-78486380D01*
X132414380Y-78486380D01*
X132509619Y-78438761D01*
X132557238Y-78391142D01*
X132604857Y-78295904D01*
X132604857Y-78010190D01*
X132557238Y-77914952D01*
X132509619Y-77867333D01*
X132414380Y-77819714D01*
X132223904Y-77819714D01*
X132128666Y-77867333D01*
X147128666Y-79569714D02*
X146890571Y-80236380D01*
X146652476Y-79569714D01*
X145747714Y-80236380D02*
X146319142Y-80236380D01*
X146033428Y-80236380D02*
X146033428Y-79236380D01*
X146128666Y-79379238D01*
X146223904Y-79474476D01*
X146319142Y-79522095D01*
X145319142Y-80141142D02*
X145271523Y-80188761D01*
X145319142Y-80236380D01*
X145366761Y-80188761D01*
X145319142Y-80141142D01*
X145319142Y-80236380D01*
X144652476Y-79236380D02*
X144557238Y-79236380D01*
X144462000Y-79284000D01*
X144414380Y-79331619D01*
X144366761Y-79426857D01*
X144319142Y-79617333D01*
X144319142Y-79855428D01*
X144366761Y-80045904D01*
X144414380Y-80141142D01*
X144462000Y-80188761D01*
X144557238Y-80236380D01*
X144652476Y-80236380D01*
X144747714Y-80188761D01*
X144795333Y-80141142D01*
X144842952Y-80045904D01*
X144890571Y-79855428D01*
X144890571Y-79617333D01*
X144842952Y-79426857D01*
X144795333Y-79331619D01*
X144747714Y-79284000D01*
X144652476Y-79236380D01*
X143223904Y-79236380D02*
X142604857Y-79236380D01*
X142938190Y-79617333D01*
X142795333Y-79617333D01*
X142700095Y-79664952D01*
X142652476Y-79712571D01*
X142604857Y-79807809D01*
X142604857Y-80045904D01*
X142652476Y-80141142D01*
X142700095Y-80188761D01*
X142795333Y-80236380D01*
X143081047Y-80236380D01*
X143176285Y-80188761D01*
X143223904Y-80141142D01*
X141985809Y-79236380D02*
X141890571Y-79236380D01*
X141795333Y-79284000D01*
X141747714Y-79331619D01*
X141700095Y-79426857D01*
X141652476Y-79617333D01*
X141652476Y-79855428D01*
X141700095Y-80045904D01*
X141747714Y-80141142D01*
X141795333Y-80188761D01*
X141890571Y-80236380D01*
X141985809Y-80236380D01*
X142081047Y-80188761D01*
X142128666Y-80141142D01*
X142176285Y-80045904D01*
X142223904Y-79855428D01*
X142223904Y-79617333D01*
X142176285Y-79426857D01*
X142128666Y-79331619D01*
X142081047Y-79284000D01*
X141985809Y-79236380D01*
X140509619Y-79188761D02*
X141366761Y-80474476D01*
X139985809Y-79236380D02*
X139890571Y-79236380D01*
X139795333Y-79284000D01*
X139747714Y-79331619D01*
X139700095Y-79426857D01*
X139652476Y-79617333D01*
X139652476Y-79855428D01*
X139700095Y-80045904D01*
X139747714Y-80141142D01*
X139795333Y-80188761D01*
X139890571Y-80236380D01*
X139985809Y-80236380D01*
X140081047Y-80188761D01*
X140128666Y-80141142D01*
X140176285Y-80045904D01*
X140223904Y-79855428D01*
X140223904Y-79617333D01*
X140176285Y-79426857D01*
X140128666Y-79331619D01*
X140081047Y-79284000D01*
X139985809Y-79236380D01*
X139319142Y-79236380D02*
X138652476Y-79236380D01*
X139081047Y-80236380D01*
X137557238Y-79188761D02*
X138414380Y-80474476D01*
X137271523Y-79331619D02*
X137223904Y-79284000D01*
X137128666Y-79236380D01*
X136890571Y-79236380D01*
X136795333Y-79284000D01*
X136747714Y-79331619D01*
X136700095Y-79426857D01*
X136700095Y-79522095D01*
X136747714Y-79664952D01*
X137319142Y-80236380D01*
X136700095Y-80236380D01*
X136081047Y-79236380D02*
X135985809Y-79236380D01*
X135890571Y-79284000D01*
X135842952Y-79331619D01*
X135795333Y-79426857D01*
X135747714Y-79617333D01*
X135747714Y-79855428D01*
X135795333Y-80045904D01*
X135842952Y-80141142D01*
X135890571Y-80188761D01*
X135985809Y-80236380D01*
X136081047Y-80236380D01*
X136176285Y-80188761D01*
X136223904Y-80141142D01*
X136271523Y-80045904D01*
X136319142Y-79855428D01*
X136319142Y-79617333D01*
X136271523Y-79426857D01*
X136223904Y-79331619D01*
X136176285Y-79284000D01*
X136081047Y-79236380D01*
X134795333Y-80236380D02*
X135366761Y-80236380D01*
X135081047Y-80236380D02*
X135081047Y-79236380D01*
X135176285Y-79379238D01*
X135271523Y-79474476D01*
X135366761Y-79522095D01*
X134462000Y-79236380D02*
X133795333Y-79236380D01*
X134223904Y-80236380D01*
X149223904Y-81986380D02*
X149223904Y-80986380D01*
X148985809Y-80986380D01*
X148842952Y-81034000D01*
X148747714Y-81129238D01*
X148700095Y-81224476D01*
X148652476Y-81414952D01*
X148652476Y-81557809D01*
X148700095Y-81748285D01*
X148747714Y-81843523D01*
X148842952Y-81938761D01*
X148985809Y-81986380D01*
X149223904Y-81986380D01*
X147842952Y-81938761D02*
X147938190Y-81986380D01*
X148128666Y-81986380D01*
X148223904Y-81938761D01*
X148271523Y-81843523D01*
X148271523Y-81462571D01*
X148223904Y-81367333D01*
X148128666Y-81319714D01*
X147938190Y-81319714D01*
X147842952Y-81367333D01*
X147795333Y-81462571D01*
X147795333Y-81557809D01*
X148271523Y-81653047D01*
X147414380Y-81938761D02*
X147319142Y-81986380D01*
X147128666Y-81986380D01*
X147033428Y-81938761D01*
X146985809Y-81843523D01*
X146985809Y-81795904D01*
X147033428Y-81700666D01*
X147128666Y-81653047D01*
X147271523Y-81653047D01*
X147366761Y-81605428D01*
X147414380Y-81510190D01*
X147414380Y-81462571D01*
X147366761Y-81367333D01*
X147271523Y-81319714D01*
X147128666Y-81319714D01*
X147033428Y-81367333D01*
X146557238Y-81986380D02*
X146557238Y-81319714D01*
X146557238Y-80986380D02*
X146604857Y-81034000D01*
X146557238Y-81081619D01*
X146509619Y-81034000D01*
X146557238Y-80986380D01*
X146557238Y-81081619D01*
X145652476Y-81319714D02*
X145652476Y-82129238D01*
X145700095Y-82224476D01*
X145747714Y-82272095D01*
X145842952Y-82319714D01*
X145985809Y-82319714D01*
X146081047Y-82272095D01*
X145652476Y-81938761D02*
X145747714Y-81986380D01*
X145938190Y-81986380D01*
X146033428Y-81938761D01*
X146081047Y-81891142D01*
X146128666Y-81795904D01*
X146128666Y-81510190D01*
X146081047Y-81414952D01*
X146033428Y-81367333D01*
X145938190Y-81319714D01*
X145747714Y-81319714D01*
X145652476Y-81367333D01*
X145176285Y-81319714D02*
X145176285Y-81986380D01*
X145176285Y-81414952D02*
X145128666Y-81367333D01*
X145033428Y-81319714D01*
X144890571Y-81319714D01*
X144795333Y-81367333D01*
X144747714Y-81462571D01*
X144747714Y-81986380D01*
X143509619Y-81986380D02*
X143509619Y-80986380D01*
X143509619Y-81367333D02*
X143414380Y-81319714D01*
X143223904Y-81319714D01*
X143128666Y-81367333D01*
X143081047Y-81414952D01*
X143033428Y-81510190D01*
X143033428Y-81795904D01*
X143081047Y-81891142D01*
X143128666Y-81938761D01*
X143223904Y-81986380D01*
X143414380Y-81986380D01*
X143509619Y-81938761D01*
X142700095Y-81319714D02*
X142462000Y-81986380D01*
X142223904Y-81319714D02*
X142462000Y-81986380D01*
X142557238Y-82224476D01*
X142604857Y-82272095D01*
X142700095Y-82319714D01*
X141842952Y-81891142D02*
X141795333Y-81938761D01*
X141842952Y-81986380D01*
X141890571Y-81938761D01*
X141842952Y-81891142D01*
X141842952Y-81986380D01*
X141842952Y-81367333D02*
X141795333Y-81414952D01*
X141842952Y-81462571D01*
X141890571Y-81414952D01*
X141842952Y-81367333D01*
X141842952Y-81462571D01*
X140747714Y-80986380D02*
X140176285Y-80986380D01*
X140462000Y-81986380D02*
X140462000Y-80986380D01*
X139842952Y-81986380D02*
X139842952Y-81319714D01*
X139842952Y-80986380D02*
X139890571Y-81034000D01*
X139842952Y-81081619D01*
X139795333Y-81034000D01*
X139842952Y-80986380D01*
X139842952Y-81081619D01*
X139414380Y-81938761D02*
X139319142Y-81986380D01*
X139128666Y-81986380D01*
X139033428Y-81938761D01*
X138985809Y-81843523D01*
X138985809Y-81795904D01*
X139033428Y-81700666D01*
X139128666Y-81653047D01*
X139271523Y-81653047D01*
X139366761Y-81605428D01*
X139414380Y-81510190D01*
X139414380Y-81462571D01*
X139366761Y-81367333D01*
X139271523Y-81319714D01*
X139128666Y-81319714D01*
X139033428Y-81367333D01*
X138557238Y-81986380D02*
X138557238Y-80986380D01*
X138128666Y-81986380D02*
X138128666Y-81462571D01*
X138176285Y-81367333D01*
X138271523Y-81319714D01*
X138414380Y-81319714D01*
X138509619Y-81367333D01*
X138557238Y-81414952D01*
X137223904Y-81986380D02*
X137223904Y-81462571D01*
X137271523Y-81367333D01*
X137366761Y-81319714D01*
X137557238Y-81319714D01*
X137652476Y-81367333D01*
X137223904Y-81938761D02*
X137319142Y-81986380D01*
X137557238Y-81986380D01*
X137652476Y-81938761D01*
X137700095Y-81843523D01*
X137700095Y-81748285D01*
X137652476Y-81653047D01*
X137557238Y-81605428D01*
X137319142Y-81605428D01*
X137223904Y-81557809D01*
X136747714Y-81986380D02*
X136747714Y-81319714D01*
X136747714Y-81414952D02*
X136700095Y-81367333D01*
X136604857Y-81319714D01*
X136462000Y-81319714D01*
X136366761Y-81367333D01*
X136319142Y-81462571D01*
X136319142Y-81986380D01*
X136319142Y-81462571D02*
X136271523Y-81367333D01*
X136176285Y-81319714D01*
X136033428Y-81319714D01*
X135938190Y-81367333D01*
X135890571Y-81462571D01*
X135890571Y-81986380D01*
X134652476Y-81986380D02*
X134652476Y-80986380D01*
X134414380Y-80986380D01*
X134271523Y-81034000D01*
X134176285Y-81129238D01*
X134128666Y-81224476D01*
X134081047Y-81414952D01*
X134081047Y-81557809D01*
X134128666Y-81748285D01*
X134176285Y-81843523D01*
X134271523Y-81938761D01*
X134414380Y-81986380D01*
X134652476Y-81986380D01*
X133652476Y-81986380D02*
X133652476Y-80986380D01*
X133223904Y-81986380D02*
X133223904Y-81462571D01*
X133271523Y-81367333D01*
X133366761Y-81319714D01*
X133509619Y-81319714D01*
X133604857Y-81367333D01*
X133652476Y-81414952D01*
X132319142Y-81986380D02*
X132319142Y-81462571D01*
X132366761Y-81367333D01*
X132462000Y-81319714D01*
X132652476Y-81319714D01*
X132747714Y-81367333D01*
X132319142Y-81938761D02*
X132414380Y-81986380D01*
X132652476Y-81986380D01*
X132747714Y-81938761D01*
X132795333Y-81843523D01*
X132795333Y-81748285D01*
X132747714Y-81653047D01*
X132652476Y-81605428D01*
X132414380Y-81605428D01*
X132319142Y-81557809D01*
X131842952Y-81986380D02*
X131842952Y-81319714D01*
X131842952Y-81510190D02*
X131795333Y-81414952D01*
X131747714Y-81367333D01*
X131652476Y-81319714D01*
X131557238Y-81319714D01*
X148009619Y-83736380D02*
X148009619Y-82736380D01*
X147581047Y-83736380D02*
X147581047Y-83212571D01*
X147628666Y-83117333D01*
X147723904Y-83069714D01*
X147866761Y-83069714D01*
X147962000Y-83117333D01*
X148009619Y-83164952D01*
X147247714Y-83069714D02*
X146866761Y-83069714D01*
X147104857Y-82736380D02*
X147104857Y-83593523D01*
X147057238Y-83688761D01*
X146962000Y-83736380D01*
X146866761Y-83736380D01*
X146676285Y-83069714D02*
X146295333Y-83069714D01*
X146533428Y-82736380D02*
X146533428Y-83593523D01*
X146485809Y-83688761D01*
X146390571Y-83736380D01*
X146295333Y-83736380D01*
X145962000Y-83069714D02*
X145962000Y-84069714D01*
X145962000Y-83117333D02*
X145866761Y-83069714D01*
X145676285Y-83069714D01*
X145581047Y-83117333D01*
X145533428Y-83164952D01*
X145485809Y-83260190D01*
X145485809Y-83545904D01*
X145533428Y-83641142D01*
X145581047Y-83688761D01*
X145676285Y-83736380D01*
X145866761Y-83736380D01*
X145962000Y-83688761D01*
X145057238Y-83641142D02*
X145009619Y-83688761D01*
X145057238Y-83736380D01*
X145104857Y-83688761D01*
X145057238Y-83641142D01*
X145057238Y-83736380D01*
X145057238Y-83117333D02*
X145009619Y-83164952D01*
X145057238Y-83212571D01*
X145104857Y-83164952D01*
X145057238Y-83117333D01*
X145057238Y-83212571D01*
X143866761Y-82688761D02*
X144723904Y-83974476D01*
X142819142Y-82688761D02*
X143676285Y-83974476D01*
X142581047Y-83069714D02*
X142390571Y-83736380D01*
X142200095Y-83260190D01*
X142009619Y-83736380D01*
X141819142Y-83069714D01*
X141438190Y-83736380D02*
X141438190Y-82736380D01*
X141009619Y-83736380D02*
X141009619Y-83212571D01*
X141057238Y-83117333D01*
X141152476Y-83069714D01*
X141295333Y-83069714D01*
X141390571Y-83117333D01*
X141438190Y-83164952D01*
X140104857Y-83736380D02*
X140104857Y-83212571D01*
X140152476Y-83117333D01*
X140247714Y-83069714D01*
X140438190Y-83069714D01*
X140533428Y-83117333D01*
X140104857Y-83688761D02*
X140200095Y-83736380D01*
X140438190Y-83736380D01*
X140533428Y-83688761D01*
X140581047Y-83593523D01*
X140581047Y-83498285D01*
X140533428Y-83403047D01*
X140438190Y-83355428D01*
X140200095Y-83355428D01*
X140104857Y-83307809D01*
X139771523Y-83069714D02*
X139390571Y-83069714D01*
X139628666Y-82736380D02*
X139628666Y-83593523D01*
X139581047Y-83688761D01*
X139485809Y-83736380D01*
X139390571Y-83736380D01*
X139057238Y-83069714D02*
X139057238Y-83736380D01*
X139057238Y-83164952D02*
X139009619Y-83117333D01*
X138914380Y-83069714D01*
X138771523Y-83069714D01*
X138676285Y-83117333D01*
X138628666Y-83212571D01*
X138628666Y-83736380D01*
X138152476Y-83736380D02*
X138152476Y-83069714D01*
X138152476Y-82736380D02*
X138200095Y-82784000D01*
X138152476Y-82831619D01*
X138104857Y-82784000D01*
X138152476Y-82736380D01*
X138152476Y-82831619D01*
X137247714Y-83688761D02*
X137342952Y-83736380D01*
X137533428Y-83736380D01*
X137628666Y-83688761D01*
X137676285Y-83641142D01*
X137723904Y-83545904D01*
X137723904Y-83260190D01*
X137676285Y-83164952D01*
X137628666Y-83117333D01*
X137533428Y-83069714D01*
X137342952Y-83069714D01*
X137247714Y-83117333D01*
X136819142Y-83736380D02*
X136819142Y-82736380D01*
X136723904Y-83355428D02*
X136438190Y-83736380D01*
X136438190Y-83069714D02*
X136819142Y-83450666D01*
X136009619Y-83641142D02*
X135962000Y-83688761D01*
X136009619Y-83736380D01*
X136057238Y-83688761D01*
X136009619Y-83641142D01*
X136009619Y-83736380D01*
X135104857Y-83688761D02*
X135200095Y-83736380D01*
X135390571Y-83736380D01*
X135485809Y-83688761D01*
X135533428Y-83641142D01*
X135581047Y-83545904D01*
X135581047Y-83260190D01*
X135533428Y-83164952D01*
X135485809Y-83117333D01*
X135390571Y-83069714D01*
X135200095Y-83069714D01*
X135104857Y-83117333D01*
X134533428Y-83736380D02*
X134628666Y-83688761D01*
X134676285Y-83641142D01*
X134723904Y-83545904D01*
X134723904Y-83260190D01*
X134676285Y-83164952D01*
X134628666Y-83117333D01*
X134533428Y-83069714D01*
X134390571Y-83069714D01*
X134295333Y-83117333D01*
X134247714Y-83164952D01*
X134200095Y-83260190D01*
X134200095Y-83545904D01*
X134247714Y-83641142D01*
X134295333Y-83688761D01*
X134390571Y-83736380D01*
X134533428Y-83736380D01*
X133771523Y-83736380D02*
X133771523Y-83069714D01*
X133771523Y-83164952D02*
X133723904Y-83117333D01*
X133628666Y-83069714D01*
X133485809Y-83069714D01*
X133390571Y-83117333D01*
X133342952Y-83212571D01*
X133342952Y-83736380D01*
X133342952Y-83212571D02*
X133295333Y-83117333D01*
X133200095Y-83069714D01*
X133057238Y-83069714D01*
X132962000Y-83117333D01*
X132914380Y-83212571D01*
X132914380Y-83736380D01*
X147842952Y-85867333D02*
X147890571Y-85819714D01*
X147985809Y-85676857D01*
X148033428Y-85581619D01*
X148081047Y-85438761D01*
X148128666Y-85200666D01*
X148128666Y-85010190D01*
X148081047Y-84772095D01*
X148033428Y-84629238D01*
X147985809Y-84534000D01*
X147890571Y-84391142D01*
X147842952Y-84343523D01*
X146890571Y-85391142D02*
X146938190Y-85438761D01*
X147081047Y-85486380D01*
X147176285Y-85486380D01*
X147319142Y-85438761D01*
X147414380Y-85343523D01*
X147462000Y-85248285D01*
X147509619Y-85057809D01*
X147509619Y-84914952D01*
X147462000Y-84724476D01*
X147414380Y-84629238D01*
X147319142Y-84534000D01*
X147176285Y-84486380D01*
X147081047Y-84486380D01*
X146938190Y-84534000D01*
X146890571Y-84581619D01*
X146509619Y-85438761D02*
X146366761Y-85486380D01*
X146128666Y-85486380D01*
X146033428Y-85438761D01*
X145985809Y-85391142D01*
X145938190Y-85295904D01*
X145938190Y-85200666D01*
X145985809Y-85105428D01*
X146033428Y-85057809D01*
X146128666Y-85010190D01*
X146319142Y-84962571D01*
X146414380Y-84914952D01*
X146462000Y-84867333D01*
X146509619Y-84772095D01*
X146509619Y-84676857D01*
X146462000Y-84581619D01*
X146414380Y-84534000D01*
X146319142Y-84486380D01*
X146081047Y-84486380D01*
X145938190Y-84534000D01*
X144747714Y-84819714D02*
X144747714Y-85819714D01*
X144747714Y-84867333D02*
X144652476Y-84819714D01*
X144462000Y-84819714D01*
X144366761Y-84867333D01*
X144319142Y-84914952D01*
X144271523Y-85010190D01*
X144271523Y-85295904D01*
X144319142Y-85391142D01*
X144366761Y-85438761D01*
X144462000Y-85486380D01*
X144652476Y-85486380D01*
X144747714Y-85438761D01*
X143842952Y-85486380D02*
X143842952Y-84819714D01*
X143842952Y-84486380D02*
X143890571Y-84534000D01*
X143842952Y-84581619D01*
X143795333Y-84534000D01*
X143842952Y-84486380D01*
X143842952Y-84581619D01*
X143366761Y-84819714D02*
X143366761Y-85486380D01*
X143366761Y-84914952D02*
X143319142Y-84867333D01*
X143223904Y-84819714D01*
X143081047Y-84819714D01*
X142985809Y-84867333D01*
X142938190Y-84962571D01*
X142938190Y-85486380D01*
X142509619Y-85438761D02*
X142414380Y-85486380D01*
X142223904Y-85486380D01*
X142128666Y-85438761D01*
X142081047Y-85343523D01*
X142081047Y-85295904D01*
X142128666Y-85200666D01*
X142223904Y-85153047D01*
X142366761Y-85153047D01*
X142462000Y-85105428D01*
X142509619Y-85010190D01*
X142509619Y-84962571D01*
X142462000Y-84867333D01*
X142366761Y-84819714D01*
X142223904Y-84819714D01*
X142128666Y-84867333D01*
X140890571Y-85105428D02*
X140128666Y-85105428D01*
X138842952Y-85486380D02*
X138652476Y-85486380D01*
X138557238Y-85438761D01*
X138509619Y-85391142D01*
X138414380Y-85248285D01*
X138366761Y-85057809D01*
X138366761Y-84676857D01*
X138414380Y-84581619D01*
X138462000Y-84534000D01*
X138557238Y-84486380D01*
X138747714Y-84486380D01*
X138842952Y-84534000D01*
X138890571Y-84581619D01*
X138938190Y-84676857D01*
X138938190Y-84914952D01*
X138890571Y-85010190D01*
X138842952Y-85057809D01*
X138747714Y-85105428D01*
X138557238Y-85105428D01*
X138462000Y-85057809D01*
X138414380Y-85010190D01*
X138366761Y-84914952D01*
X137033428Y-85486380D02*
X137128666Y-85438761D01*
X137176285Y-85391142D01*
X137223904Y-85295904D01*
X137223904Y-85010190D01*
X137176285Y-84914952D01*
X137128666Y-84867333D01*
X137033428Y-84819714D01*
X136890571Y-84819714D01*
X136795333Y-84867333D01*
X136747714Y-84914952D01*
X136700095Y-85010190D01*
X136700095Y-85295904D01*
X136747714Y-85391142D01*
X136795333Y-85438761D01*
X136890571Y-85486380D01*
X137033428Y-85486380D01*
X136271523Y-85486380D02*
X136271523Y-84819714D01*
X136271523Y-85010190D02*
X136223904Y-84914952D01*
X136176285Y-84867333D01*
X136081047Y-84819714D01*
X135985809Y-84819714D01*
X134366761Y-85486380D02*
X134938190Y-85486380D01*
X134652476Y-85486380D02*
X134652476Y-84486380D01*
X134747714Y-84629238D01*
X134842952Y-84724476D01*
X134938190Y-84772095D01*
X133747714Y-84486380D02*
X133652476Y-84486380D01*
X133557238Y-84534000D01*
X133509619Y-84581619D01*
X133462000Y-84676857D01*
X133414380Y-84867333D01*
X133414380Y-85105428D01*
X133462000Y-85295904D01*
X133509619Y-85391142D01*
X133557238Y-85438761D01*
X133652476Y-85486380D01*
X133747714Y-85486380D01*
X133842952Y-85438761D01*
X133890571Y-85391142D01*
X133938190Y-85295904D01*
X133985809Y-85105428D01*
X133985809Y-84867333D01*
X133938190Y-84676857D01*
X133890571Y-84581619D01*
X133842952Y-84534000D01*
X133747714Y-84486380D01*
X133081047Y-85867333D02*
X133033428Y-85819714D01*
X132938190Y-85676857D01*
X132890571Y-85581619D01*
X132842952Y-85438761D01*
X132795333Y-85200666D01*
X132795333Y-85010190D01*
X132842952Y-84772095D01*
X132890571Y-84629238D01*
X132938190Y-84534000D01*
X133033428Y-84391142D01*
X133081047Y-84343523D01*
D13*
X119252000Y-46614000D02*
X119252000Y-42794000D01*
X119252000Y-42794000D02*
X121032000Y-42794000D01*
X121032000Y-42794000D02*
X121032000Y-46614000D01*
X119252000Y-46614000D02*
X121032000Y-46614000D01*
X126872000Y-46614000D02*
X126872000Y-42794000D01*
X126872000Y-42794000D02*
X128652000Y-42794000D01*
X128652000Y-42794000D02*
X128652000Y-46614000D01*
X126872000Y-46614000D02*
X128652000Y-46614000D01*
X123062000Y-46614000D02*
X123062000Y-42794000D01*
X123062000Y-42794000D02*
X124842000Y-42794000D01*
X124842000Y-42794000D02*
X124842000Y-46614000D01*
X123062000Y-46614000D02*
X124842000Y-46614000D01*
D14*
G36*
X118848812Y-80098021D02*
X118949546Y-80021590D01*
X119023612Y-79953418D01*
X119172105Y-79829308D01*
X119253676Y-79808891D01*
X119265865Y-79826347D01*
X119304684Y-79812243D01*
X119383359Y-79717528D01*
X119481882Y-79573600D01*
X119580245Y-79411853D01*
X119658442Y-79263683D01*
X119696466Y-79160488D01*
X119697500Y-79149015D01*
X119657820Y-79155444D01*
X119558002Y-79232745D01*
X119507662Y-79279115D01*
X119380809Y-79381865D01*
X119290026Y-79421745D01*
X119273206Y-79416373D01*
X119223427Y-79443988D01*
X119133342Y-79549720D01*
X119024950Y-79701020D01*
X118920250Y-79865338D01*
X118841240Y-80010124D01*
X118809934Y-80101831D01*
X118848812Y-80098021D01*
X118848812Y-80098021D01*
G37*
X118848812Y-80098021D02*
X118949546Y-80021590D01*
X119023612Y-79953418D01*
X119172105Y-79829308D01*
X119253676Y-79808891D01*
X119265865Y-79826347D01*
X119304684Y-79812243D01*
X119383359Y-79717528D01*
X119481882Y-79573600D01*
X119580245Y-79411853D01*
X119658442Y-79263683D01*
X119696466Y-79160488D01*
X119697500Y-79149015D01*
X119657820Y-79155444D01*
X119558002Y-79232745D01*
X119507662Y-79279115D01*
X119380809Y-79381865D01*
X119290026Y-79421745D01*
X119273206Y-79416373D01*
X119223427Y-79443988D01*
X119133342Y-79549720D01*
X119024950Y-79701020D01*
X118920250Y-79865338D01*
X118841240Y-80010124D01*
X118809934Y-80101831D01*
X118848812Y-80098021D01*
G36*
X118972002Y-78096539D02*
X119084484Y-78283857D01*
X119189778Y-78421094D01*
X119251252Y-78470972D01*
X119360957Y-78534946D01*
X119502681Y-78647636D01*
X119522875Y-78665938D01*
X119641216Y-78762373D01*
X119687115Y-78764355D01*
X119660393Y-78669094D01*
X119560867Y-78473798D01*
X119503872Y-78372691D01*
X119392534Y-78201855D01*
X119297253Y-78096602D01*
X119245308Y-78078003D01*
X119162434Y-78064137D01*
X119033987Y-77980380D01*
X118984465Y-77937311D01*
X118789752Y-77755750D01*
X118972002Y-78096539D01*
X118972002Y-78096539D01*
G37*
X118972002Y-78096539D02*
X119084484Y-78283857D01*
X119189778Y-78421094D01*
X119251252Y-78470972D01*
X119360957Y-78534946D01*
X119502681Y-78647636D01*
X119522875Y-78665938D01*
X119641216Y-78762373D01*
X119687115Y-78764355D01*
X119660393Y-78669094D01*
X119560867Y-78473798D01*
X119503872Y-78372691D01*
X119392534Y-78201855D01*
X119297253Y-78096602D01*
X119245308Y-78078003D01*
X119162434Y-78064137D01*
X119033987Y-77980380D01*
X118984465Y-77937311D01*
X118789752Y-77755750D01*
X118972002Y-78096539D01*
G36*
X120873818Y-79122247D02*
X120988325Y-79250628D01*
X121074467Y-79302002D01*
X121258860Y-79343004D01*
X121421096Y-79285837D01*
X121542867Y-79159277D01*
X121605867Y-78992097D01*
X121591789Y-78813071D01*
X121486374Y-78654591D01*
X121304547Y-78560617D01*
X121114893Y-78568718D01*
X120953214Y-78663297D01*
X120855311Y-78828762D01*
X120841472Y-78935500D01*
X120873818Y-79122247D01*
X120873818Y-79122247D01*
G37*
X120873818Y-79122247D02*
X120988325Y-79250628D01*
X121074467Y-79302002D01*
X121258860Y-79343004D01*
X121421096Y-79285837D01*
X121542867Y-79159277D01*
X121605867Y-78992097D01*
X121591789Y-78813071D01*
X121486374Y-78654591D01*
X121304547Y-78560617D01*
X121114893Y-78568718D01*
X120953214Y-78663297D01*
X120855311Y-78828762D01*
X120841472Y-78935500D01*
X120873818Y-79122247D01*
G36*
X119780447Y-78611966D02*
X119894933Y-78659779D01*
X120117977Y-78675790D01*
X120209779Y-78676500D01*
X120442501Y-78674424D01*
X120573031Y-78662378D01*
X120626172Y-78631631D01*
X120626724Y-78573455D01*
X120615714Y-78533625D01*
X120544279Y-78378423D01*
X120487568Y-78300901D01*
X120441097Y-78221526D01*
X120469319Y-78124388D01*
X120530255Y-78031310D01*
X120658243Y-77851567D01*
X121161511Y-78234673D01*
X121467070Y-78488391D01*
X121656834Y-78707132D01*
X121730754Y-78907267D01*
X121688776Y-79105162D01*
X121530850Y-79317188D01*
X121256926Y-79559712D01*
X121157118Y-79637072D01*
X120934562Y-79804044D01*
X120788640Y-79903201D01*
X120695480Y-79944371D01*
X120631214Y-79937379D01*
X120571971Y-79892051D01*
X120561667Y-79882192D01*
X120490522Y-79801454D01*
X120474898Y-79719837D01*
X120512831Y-79589997D01*
X120546038Y-79505255D01*
X120606011Y-79340296D01*
X120613334Y-79254857D01*
X120569077Y-79213376D01*
X120554995Y-79207557D01*
X120474474Y-79120876D01*
X120459500Y-79050706D01*
X120417921Y-78951541D01*
X120364250Y-78930500D01*
X120286678Y-78983439D01*
X120269000Y-79057500D01*
X120242407Y-79160685D01*
X120205500Y-79184500D01*
X120153907Y-79131315D01*
X120142000Y-79057500D01*
X120102295Y-78954071D01*
X120046750Y-78930500D01*
X119969178Y-78983439D01*
X119951500Y-79057500D01*
X119908894Y-79163154D01*
X119849366Y-79184500D01*
X119781752Y-79229011D01*
X119785888Y-79344028D01*
X119853088Y-79501777D01*
X119974666Y-79674484D01*
X120017435Y-79721914D01*
X120168822Y-79885857D01*
X120348094Y-80086862D01*
X120437121Y-80189223D01*
X120774580Y-80494228D01*
X121156713Y-80693143D01*
X121565202Y-80790153D01*
X121981728Y-80789445D01*
X122387975Y-80695205D01*
X122765624Y-80511621D01*
X123096357Y-80242878D01*
X123361858Y-79893163D01*
X123539875Y-79480083D01*
X123623995Y-79001182D01*
X123584635Y-78536712D01*
X123541172Y-78373083D01*
X123348308Y-77962705D01*
X123047384Y-77599695D01*
X122653904Y-77302076D01*
X122586750Y-77263576D01*
X122423573Y-77188938D01*
X122242742Y-77145395D01*
X122003374Y-77125662D01*
X121793000Y-77122142D01*
X121553923Y-77139573D01*
X121553923Y-77415035D01*
X121946634Y-77419954D01*
X122332645Y-77512729D01*
X122678094Y-77684918D01*
X122949116Y-77928080D01*
X122965981Y-77949576D01*
X123182873Y-78330158D01*
X123291196Y-78745225D01*
X123289019Y-79168815D01*
X123174410Y-79574964D01*
X123098019Y-79724399D01*
X122840477Y-80049944D01*
X122512254Y-80291047D01*
X122137923Y-80439953D01*
X121742056Y-80488909D01*
X121349226Y-80430159D01*
X121133680Y-80344294D01*
X120950611Y-80252005D01*
X121228930Y-80093076D01*
X121614147Y-79881545D01*
X121933877Y-79728236D01*
X122225923Y-79617478D01*
X122528093Y-79533605D01*
X122639258Y-79508557D01*
X122892257Y-79451484D01*
X123048462Y-79403575D01*
X123135654Y-79349302D01*
X123181617Y-79273137D01*
X123205855Y-79191878D01*
X123228139Y-78991136D01*
X123214215Y-78762275D01*
X123207463Y-78723414D01*
X123155615Y-78461239D01*
X122717820Y-78380439D01*
X122354485Y-78284751D01*
X121936791Y-78128641D01*
X121509781Y-77930729D01*
X121164747Y-77738414D01*
X120949244Y-77606331D01*
X121188377Y-77506415D01*
X121553923Y-77415035D01*
X121553923Y-77139573D01*
X121337722Y-77155337D01*
X120966198Y-77264456D01*
X120653394Y-77459891D01*
X120424568Y-77690160D01*
X120261405Y-77883339D01*
X120100581Y-78072373D01*
X120045413Y-78136750D01*
X119859979Y-78364548D01*
X119770226Y-78518255D01*
X119780447Y-78611966D01*
X119780447Y-78611966D01*
G37*
X119780447Y-78611966D02*
X119894933Y-78659779D01*
X120117977Y-78675790D01*
X120209779Y-78676500D01*
X120442501Y-78674424D01*
X120573031Y-78662378D01*
X120626172Y-78631631D01*
X120626724Y-78573455D01*
X120615714Y-78533625D01*
X120544279Y-78378423D01*
X120487568Y-78300901D01*
X120441097Y-78221526D01*
X120469319Y-78124388D01*
X120530255Y-78031310D01*
X120658243Y-77851567D01*
X121161511Y-78234673D01*
X121467070Y-78488391D01*
X121656834Y-78707132D01*
X121730754Y-78907267D01*
X121688776Y-79105162D01*
X121530850Y-79317188D01*
X121256926Y-79559712D01*
X121157118Y-79637072D01*
X120934562Y-79804044D01*
X120788640Y-79903201D01*
X120695480Y-79944371D01*
X120631214Y-79937379D01*
X120571971Y-79892051D01*
X120561667Y-79882192D01*
X120490522Y-79801454D01*
X120474898Y-79719837D01*
X120512831Y-79589997D01*
X120546038Y-79505255D01*
X120606011Y-79340296D01*
X120613334Y-79254857D01*
X120569077Y-79213376D01*
X120554995Y-79207557D01*
X120474474Y-79120876D01*
X120459500Y-79050706D01*
X120417921Y-78951541D01*
X120364250Y-78930500D01*
X120286678Y-78983439D01*
X120269000Y-79057500D01*
X120242407Y-79160685D01*
X120205500Y-79184500D01*
X120153907Y-79131315D01*
X120142000Y-79057500D01*
X120102295Y-78954071D01*
X120046750Y-78930500D01*
X119969178Y-78983439D01*
X119951500Y-79057500D01*
X119908894Y-79163154D01*
X119849366Y-79184500D01*
X119781752Y-79229011D01*
X119785888Y-79344028D01*
X119853088Y-79501777D01*
X119974666Y-79674484D01*
X120017435Y-79721914D01*
X120168822Y-79885857D01*
X120348094Y-80086862D01*
X120437121Y-80189223D01*
X120774580Y-80494228D01*
X121156713Y-80693143D01*
X121565202Y-80790153D01*
X121981728Y-80789445D01*
X122387975Y-80695205D01*
X122765624Y-80511621D01*
X123096357Y-80242878D01*
X123361858Y-79893163D01*
X123539875Y-79480083D01*
X123623995Y-79001182D01*
X123584635Y-78536712D01*
X123541172Y-78373083D01*
X123348308Y-77962705D01*
X123047384Y-77599695D01*
X122653904Y-77302076D01*
X122586750Y-77263576D01*
X122423573Y-77188938D01*
X122242742Y-77145395D01*
X122003374Y-77125662D01*
X121793000Y-77122142D01*
X121553923Y-77139573D01*
X121553923Y-77415035D01*
X121946634Y-77419954D01*
X122332645Y-77512729D01*
X122678094Y-77684918D01*
X122949116Y-77928080D01*
X122965981Y-77949576D01*
X123182873Y-78330158D01*
X123291196Y-78745225D01*
X123289019Y-79168815D01*
X123174410Y-79574964D01*
X123098019Y-79724399D01*
X122840477Y-80049944D01*
X122512254Y-80291047D01*
X122137923Y-80439953D01*
X121742056Y-80488909D01*
X121349226Y-80430159D01*
X121133680Y-80344294D01*
X120950611Y-80252005D01*
X121228930Y-80093076D01*
X121614147Y-79881545D01*
X121933877Y-79728236D01*
X122225923Y-79617478D01*
X122528093Y-79533605D01*
X122639258Y-79508557D01*
X122892257Y-79451484D01*
X123048462Y-79403575D01*
X123135654Y-79349302D01*
X123181617Y-79273137D01*
X123205855Y-79191878D01*
X123228139Y-78991136D01*
X123214215Y-78762275D01*
X123207463Y-78723414D01*
X123155615Y-78461239D01*
X122717820Y-78380439D01*
X122354485Y-78284751D01*
X121936791Y-78128641D01*
X121509781Y-77930729D01*
X121164747Y-77738414D01*
X120949244Y-77606331D01*
X121188377Y-77506415D01*
X121553923Y-77415035D01*
X121553923Y-77139573D01*
X121337722Y-77155337D01*
X120966198Y-77264456D01*
X120653394Y-77459891D01*
X120424568Y-77690160D01*
X120261405Y-77883339D01*
X120100581Y-78072373D01*
X120045413Y-78136750D01*
X119859979Y-78364548D01*
X119770226Y-78518255D01*
X119780447Y-78611966D01*
G36*
X124214658Y-82942594D02*
X124263720Y-82982726D01*
X124387813Y-82977589D01*
X124475875Y-82964960D01*
X124745750Y-82924257D01*
X124523500Y-83116420D01*
X124381390Y-83231440D01*
X124277938Y-83301026D01*
X124253625Y-83310291D01*
X124220504Y-83366937D01*
X124206024Y-83501537D01*
X124206000Y-83507896D01*
X124206000Y-83703793D01*
X124500898Y-83444213D01*
X124685371Y-83299658D01*
X124817231Y-83233163D01*
X124866023Y-83236956D01*
X124951057Y-83302908D01*
X125099263Y-83420056D01*
X125237875Y-83530539D01*
X125539500Y-83771798D01*
X125539500Y-83578828D01*
X125510585Y-83425511D01*
X125403291Y-83306088D01*
X125324388Y-83252911D01*
X125161088Y-83139143D01*
X125036645Y-83030622D01*
X125022763Y-83014983D01*
X124982698Y-82953909D01*
X125012415Y-82930316D01*
X125134039Y-82937625D01*
X125237875Y-82951035D01*
X125419072Y-82971427D01*
X125507769Y-82959245D01*
X125536902Y-82901770D01*
X125539500Y-82834535D01*
X125539500Y-82677000D01*
X124206000Y-82677000D01*
X124206000Y-82841331D01*
X124214658Y-82942594D01*
X124214658Y-82942594D01*
G37*
X124214658Y-82942594D02*
X124263720Y-82982726D01*
X124387813Y-82977589D01*
X124475875Y-82964960D01*
X124745750Y-82924257D01*
X124523500Y-83116420D01*
X124381390Y-83231440D01*
X124277938Y-83301026D01*
X124253625Y-83310291D01*
X124220504Y-83366937D01*
X124206024Y-83501537D01*
X124206000Y-83507896D01*
X124206000Y-83703793D01*
X124500898Y-83444213D01*
X124685371Y-83299658D01*
X124817231Y-83233163D01*
X124866023Y-83236956D01*
X124951057Y-83302908D01*
X125099263Y-83420056D01*
X125237875Y-83530539D01*
X125539500Y-83771798D01*
X125539500Y-83578828D01*
X125510585Y-83425511D01*
X125403291Y-83306088D01*
X125324388Y-83252911D01*
X125161088Y-83139143D01*
X125036645Y-83030622D01*
X125022763Y-83014983D01*
X124982698Y-82953909D01*
X125012415Y-82930316D01*
X125134039Y-82937625D01*
X125237875Y-82951035D01*
X125419072Y-82971427D01*
X125507769Y-82959245D01*
X125536902Y-82901770D01*
X125539500Y-82834535D01*
X125539500Y-82677000D01*
X124206000Y-82677000D01*
X124206000Y-82841331D01*
X124214658Y-82942594D01*
G36*
X124229656Y-82384689D02*
X124300785Y-82510345D01*
X124404503Y-82550000D01*
X124498778Y-82526733D01*
X124491046Y-82440474D01*
X124490377Y-82438875D01*
X124426206Y-82176420D01*
X124466299Y-81966106D01*
X124602211Y-81823329D01*
X124825495Y-81763486D01*
X124861410Y-81762600D01*
X125105644Y-81812180D01*
X125272107Y-81944982D01*
X125345833Y-82137094D01*
X125311857Y-82364606D01*
X125280555Y-82432239D01*
X125245041Y-82525422D01*
X125301873Y-82545684D01*
X125359930Y-82539189D01*
X125448046Y-82511647D01*
X125496134Y-82438879D01*
X125519955Y-82287484D01*
X125526928Y-82185292D01*
X125529098Y-81972002D01*
X125495319Y-81833176D01*
X125411372Y-81718150D01*
X125389522Y-81695750D01*
X125144243Y-81525912D01*
X124878765Y-81479511D01*
X124604361Y-81556942D01*
X124440928Y-81662371D01*
X124316413Y-81810820D01*
X124238805Y-82002384D01*
X124209441Y-82204521D01*
X124229656Y-82384689D01*
X124229656Y-82384689D01*
G37*
X124229656Y-82384689D02*
X124300785Y-82510345D01*
X124404503Y-82550000D01*
X124498778Y-82526733D01*
X124491046Y-82440474D01*
X124490377Y-82438875D01*
X124426206Y-82176420D01*
X124466299Y-81966106D01*
X124602211Y-81823329D01*
X124825495Y-81763486D01*
X124861410Y-81762600D01*
X125105644Y-81812180D01*
X125272107Y-81944982D01*
X125345833Y-82137094D01*
X125311857Y-82364606D01*
X125280555Y-82432239D01*
X125245041Y-82525422D01*
X125301873Y-82545684D01*
X125359930Y-82539189D01*
X125448046Y-82511647D01*
X125496134Y-82438879D01*
X125519955Y-82287484D01*
X125526928Y-82185292D01*
X125529098Y-81972002D01*
X125495319Y-81833176D01*
X125411372Y-81718150D01*
X125389522Y-81695750D01*
X125144243Y-81525912D01*
X124878765Y-81479511D01*
X124604361Y-81556942D01*
X124440928Y-81662371D01*
X124316413Y-81810820D01*
X124238805Y-82002384D01*
X124209441Y-82204521D01*
X124229656Y-82384689D01*
G36*
X124211540Y-81232472D02*
X124243230Y-81273699D01*
X124323670Y-81297399D01*
X124475462Y-81308414D01*
X124721207Y-81311589D01*
X124872750Y-81311750D01*
X125169539Y-81310562D01*
X125361932Y-81303772D01*
X125472531Y-81286534D01*
X125523936Y-81254008D01*
X125538749Y-81201348D01*
X125539500Y-81168875D01*
X125533959Y-81105277D01*
X125502269Y-81064050D01*
X125421829Y-81040350D01*
X125270037Y-81029335D01*
X125024292Y-81026160D01*
X124872750Y-81026000D01*
X124575960Y-81027187D01*
X124383567Y-81033977D01*
X124272968Y-81051215D01*
X124221563Y-81083741D01*
X124206750Y-81136401D01*
X124206000Y-81168875D01*
X124211540Y-81232472D01*
X124211540Y-81232472D01*
G37*
X124211540Y-81232472D02*
X124243230Y-81273699D01*
X124323670Y-81297399D01*
X124475462Y-81308414D01*
X124721207Y-81311589D01*
X124872750Y-81311750D01*
X125169539Y-81310562D01*
X125361932Y-81303772D01*
X125472531Y-81286534D01*
X125523936Y-81254008D01*
X125538749Y-81201348D01*
X125539500Y-81168875D01*
X125533959Y-81105277D01*
X125502269Y-81064050D01*
X125421829Y-81040350D01*
X125270037Y-81029335D01*
X125024292Y-81026160D01*
X124872750Y-81026000D01*
X124575960Y-81027187D01*
X124383567Y-81033977D01*
X124272968Y-81051215D01*
X124221563Y-81083741D01*
X124206750Y-81136401D01*
X124206000Y-81168875D01*
X124211540Y-81232472D01*
G36*
X124650500Y-80196071D02*
X124849835Y-80348215D01*
X125002921Y-80472518D01*
X125086356Y-80549644D01*
X125095000Y-80563262D01*
X125037142Y-80576440D01*
X124884826Y-80576754D01*
X124669933Y-80564248D01*
X124650500Y-80562654D01*
X124418562Y-80545515D01*
X124285584Y-80547011D01*
X124224128Y-80573433D01*
X124206753Y-80631074D01*
X124206000Y-80664569D01*
X124212103Y-80726541D01*
X124245469Y-80766717D01*
X124328678Y-80789811D01*
X124484314Y-80800536D01*
X124734957Y-80803608D01*
X124872750Y-80803750D01*
X125169908Y-80802291D01*
X125362594Y-80794947D01*
X125473328Y-80777262D01*
X125524628Y-80744784D01*
X125539014Y-80693058D01*
X125539500Y-80671882D01*
X125482495Y-80548455D01*
X125310297Y-80381193D01*
X125151115Y-80259132D01*
X124762731Y-79978250D01*
X125151115Y-79959344D01*
X125367639Y-79943597D01*
X125485483Y-79916213D01*
X125532959Y-79866776D01*
X125539500Y-79816469D01*
X125529179Y-79757357D01*
X125482102Y-79720690D01*
X125374094Y-79701190D01*
X125180983Y-79693580D01*
X124971747Y-79692500D01*
X124652493Y-79681583D01*
X124439206Y-79650151D01*
X124337820Y-79600178D01*
X124354272Y-79533639D01*
X124397470Y-79501400D01*
X124448591Y-79406588D01*
X124443300Y-79317999D01*
X124433458Y-79254547D01*
X124459699Y-79215233D01*
X124544926Y-79194294D01*
X124712039Y-79185971D01*
X124973944Y-79184500D01*
X125242854Y-79183014D01*
X125409315Y-79174194D01*
X125497877Y-79151494D01*
X125533087Y-79108371D01*
X125539495Y-79038279D01*
X125539500Y-79033722D01*
X125535138Y-78962871D01*
X125505867Y-78920268D01*
X125427406Y-78900944D01*
X125275472Y-78899926D01*
X125025786Y-78912246D01*
X124963421Y-78915791D01*
X124387342Y-78948637D01*
X124429930Y-78721627D01*
X124450924Y-78573986D01*
X124427714Y-78519457D01*
X124345994Y-78527722D01*
X124339258Y-78529464D01*
X124279101Y-78553887D01*
X124240379Y-78605324D01*
X124218413Y-78707849D01*
X124208522Y-78885538D01*
X124206026Y-79162465D01*
X124206000Y-79214925D01*
X124206000Y-79865537D01*
X124650500Y-80196071D01*
X124650500Y-80196071D01*
G37*
X124650500Y-80196071D02*
X124849835Y-80348215D01*
X125002921Y-80472518D01*
X125086356Y-80549644D01*
X125095000Y-80563262D01*
X125037142Y-80576440D01*
X124884826Y-80576754D01*
X124669933Y-80564248D01*
X124650500Y-80562654D01*
X124418562Y-80545515D01*
X124285584Y-80547011D01*
X124224128Y-80573433D01*
X124206753Y-80631074D01*
X124206000Y-80664569D01*
X124212103Y-80726541D01*
X124245469Y-80766717D01*
X124328678Y-80789811D01*
X124484314Y-80800536D01*
X124734957Y-80803608D01*
X124872750Y-80803750D01*
X125169908Y-80802291D01*
X125362594Y-80794947D01*
X125473328Y-80777262D01*
X125524628Y-80744784D01*
X125539014Y-80693058D01*
X125539500Y-80671882D01*
X125482495Y-80548455D01*
X125310297Y-80381193D01*
X125151115Y-80259132D01*
X124762731Y-79978250D01*
X125151115Y-79959344D01*
X125367639Y-79943597D01*
X125485483Y-79916213D01*
X125532959Y-79866776D01*
X125539500Y-79816469D01*
X125529179Y-79757357D01*
X125482102Y-79720690D01*
X125374094Y-79701190D01*
X125180983Y-79693580D01*
X124971747Y-79692500D01*
X124652493Y-79681583D01*
X124439206Y-79650151D01*
X124337820Y-79600178D01*
X124354272Y-79533639D01*
X124397470Y-79501400D01*
X124448591Y-79406588D01*
X124443300Y-79317999D01*
X124433458Y-79254547D01*
X124459699Y-79215233D01*
X124544926Y-79194294D01*
X124712039Y-79185971D01*
X124973944Y-79184500D01*
X125242854Y-79183014D01*
X125409315Y-79174194D01*
X125497877Y-79151494D01*
X125533087Y-79108371D01*
X125539495Y-79038279D01*
X125539500Y-79033722D01*
X125535138Y-78962871D01*
X125505867Y-78920268D01*
X125427406Y-78900944D01*
X125275472Y-78899926D01*
X125025786Y-78912246D01*
X124963421Y-78915791D01*
X124387342Y-78948637D01*
X124429930Y-78721627D01*
X124450924Y-78573986D01*
X124427714Y-78519457D01*
X124345994Y-78527722D01*
X124339258Y-78529464D01*
X124279101Y-78553887D01*
X124240379Y-78605324D01*
X124218413Y-78707849D01*
X124208522Y-78885538D01*
X124206026Y-79162465D01*
X124206000Y-79214925D01*
X124206000Y-79865537D01*
X124650500Y-80196071D01*
G36*
X124298131Y-77872548D02*
X124457140Y-77954978D01*
X124681192Y-78066378D01*
X124902692Y-78173693D01*
X125539500Y-78478835D01*
X125539500Y-78299855D01*
X125517007Y-78167029D01*
X125423950Y-78101633D01*
X125345118Y-78081998D01*
X125218022Y-78044542D01*
X125168643Y-77972992D01*
X125169127Y-77823436D01*
X125170493Y-77806694D01*
X125201228Y-77640428D01*
X125274291Y-77558850D01*
X125349000Y-77533496D01*
X125479275Y-77460944D01*
X125528510Y-77317693D01*
X125527725Y-77198818D01*
X125496760Y-77164788D01*
X125421108Y-77201607D01*
X125256866Y-77281099D01*
X125029841Y-77390786D01*
X124848749Y-77478185D01*
X124848749Y-77728146D01*
X124901735Y-77779069D01*
X124904500Y-77813305D01*
X124857959Y-77875473D01*
X124772132Y-77867995D01*
X124687053Y-77830366D01*
X124719513Y-77782889D01*
X124724507Y-77779662D01*
X124848749Y-77728146D01*
X124848749Y-77478185D01*
X124818242Y-77492909D01*
X124569871Y-77617352D01*
X124375069Y-77723870D01*
X124255437Y-77800042D01*
X124229060Y-77831727D01*
X124298131Y-77872548D01*
X124298131Y-77872548D01*
G37*
X124298131Y-77872548D02*
X124457140Y-77954978D01*
X124681192Y-78066378D01*
X124902692Y-78173693D01*
X125539500Y-78478835D01*
X125539500Y-78299855D01*
X125517007Y-78167029D01*
X125423950Y-78101633D01*
X125345118Y-78081998D01*
X125218022Y-78044542D01*
X125168643Y-77972992D01*
X125169127Y-77823436D01*
X125170493Y-77806694D01*
X125201228Y-77640428D01*
X125274291Y-77558850D01*
X125349000Y-77533496D01*
X125479275Y-77460944D01*
X125528510Y-77317693D01*
X125527725Y-77198818D01*
X125496760Y-77164788D01*
X125421108Y-77201607D01*
X125256866Y-77281099D01*
X125029841Y-77390786D01*
X124848749Y-77478185D01*
X124848749Y-77728146D01*
X124901735Y-77779069D01*
X124904500Y-77813305D01*
X124857959Y-77875473D01*
X124772132Y-77867995D01*
X124687053Y-77830366D01*
X124719513Y-77782889D01*
X124724507Y-77779662D01*
X124848749Y-77728146D01*
X124848749Y-77478185D01*
X124818242Y-77492909D01*
X124569871Y-77617352D01*
X124375069Y-77723870D01*
X124255437Y-77800042D01*
X124229060Y-77831727D01*
X124298131Y-77872548D01*
G36*
X124210458Y-76941718D02*
X124238917Y-76985256D01*
X124314000Y-77010285D01*
X124458331Y-77021929D01*
X124694534Y-77025308D01*
X124872750Y-77025500D01*
X125169433Y-77024490D01*
X125361741Y-77018047D01*
X125472298Y-77001049D01*
X125523727Y-76968373D01*
X125538653Y-76914897D01*
X125539500Y-76874550D01*
X125529299Y-76783058D01*
X125476216Y-76744919D01*
X125346524Y-76746119D01*
X125253750Y-76755808D01*
X124968000Y-76788016D01*
X124968000Y-76246983D01*
X125253750Y-76279191D01*
X125429121Y-76293570D01*
X125512645Y-76274942D01*
X125538046Y-76209295D01*
X125539500Y-76160449D01*
X125535041Y-76093281D01*
X125506582Y-76049743D01*
X125431499Y-76024714D01*
X125287168Y-76013070D01*
X125050965Y-76009691D01*
X124872750Y-76009500D01*
X124576066Y-76010509D01*
X124383758Y-76016952D01*
X124273201Y-76033950D01*
X124221772Y-76066626D01*
X124206846Y-76120102D01*
X124206000Y-76160449D01*
X124216200Y-76251941D01*
X124269283Y-76290080D01*
X124398975Y-76288880D01*
X124491750Y-76279191D01*
X124777500Y-76246983D01*
X124777500Y-76788016D01*
X124491750Y-76755808D01*
X124316378Y-76741429D01*
X124232854Y-76760057D01*
X124207453Y-76825704D01*
X124206000Y-76874550D01*
X124210458Y-76941718D01*
X124210458Y-76941718D01*
G37*
X124210458Y-76941718D02*
X124238917Y-76985256D01*
X124314000Y-77010285D01*
X124458331Y-77021929D01*
X124694534Y-77025308D01*
X124872750Y-77025500D01*
X125169433Y-77024490D01*
X125361741Y-77018047D01*
X125472298Y-77001049D01*
X125523727Y-76968373D01*
X125538653Y-76914897D01*
X125539500Y-76874550D01*
X125529299Y-76783058D01*
X125476216Y-76744919D01*
X125346524Y-76746119D01*
X125253750Y-76755808D01*
X124968000Y-76788016D01*
X124968000Y-76246983D01*
X125253750Y-76279191D01*
X125429121Y-76293570D01*
X125512645Y-76274942D01*
X125538046Y-76209295D01*
X125539500Y-76160449D01*
X125535041Y-76093281D01*
X125506582Y-76049743D01*
X125431499Y-76024714D01*
X125287168Y-76013070D01*
X125050965Y-76009691D01*
X124872750Y-76009500D01*
X124576066Y-76010509D01*
X124383758Y-76016952D01*
X124273201Y-76033950D01*
X124221772Y-76066626D01*
X124206846Y-76120102D01*
X124206000Y-76160449D01*
X124216200Y-76251941D01*
X124269283Y-76290080D01*
X124398975Y-76288880D01*
X124491750Y-76279191D01*
X124777500Y-76246983D01*
X124777500Y-76788016D01*
X124491750Y-76755808D01*
X124316378Y-76741429D01*
X124232854Y-76760057D01*
X124207453Y-76825704D01*
X124206000Y-76874550D01*
X124210458Y-76941718D01*
G36*
X124224986Y-75854033D02*
X124306220Y-75866588D01*
X124348875Y-75855589D01*
X124475354Y-75820171D01*
X124685273Y-75762902D01*
X124939312Y-75694485D01*
X125015625Y-75674086D01*
X125317069Y-75581328D01*
X125493439Y-75495102D01*
X125546245Y-75411728D01*
X125477001Y-75327523D01*
X125287220Y-75238806D01*
X125206125Y-75210468D01*
X124872750Y-75099730D01*
X125190250Y-74993545D01*
X125419617Y-74897992D01*
X125522071Y-74806690D01*
X125497590Y-74718891D01*
X125346154Y-74633845D01*
X125178460Y-74579361D01*
X124917171Y-74504477D01*
X124654099Y-74425513D01*
X124528063Y-74385900D01*
X124357617Y-74332090D01*
X124246631Y-74299482D01*
X124226438Y-74295000D01*
X124211124Y-74349574D01*
X124206000Y-74455742D01*
X124214694Y-74554459D01*
X124258640Y-74617050D01*
X124364629Y-74658104D01*
X124559454Y-74692208D01*
X124667604Y-74707084D01*
X124835535Y-74740539D01*
X124929060Y-74781039D01*
X124936305Y-74802910D01*
X124860966Y-74849301D01*
X124701402Y-74912148D01*
X124545611Y-74961820D01*
X124365931Y-75023813D01*
X124258832Y-75080310D01*
X124245159Y-75113513D01*
X124331822Y-75157411D01*
X124500456Y-75223021D01*
X124677701Y-75283903D01*
X125054152Y-75406250D01*
X124630076Y-75499720D01*
X124403966Y-75554202D01*
X124275957Y-75602819D01*
X124218989Y-75661240D01*
X124206000Y-75745132D01*
X124206000Y-75745251D01*
X124224986Y-75854033D01*
X124224986Y-75854033D01*
G37*
X124224986Y-75854033D02*
X124306220Y-75866588D01*
X124348875Y-75855589D01*
X124475354Y-75820171D01*
X124685273Y-75762902D01*
X124939312Y-75694485D01*
X125015625Y-75674086D01*
X125317069Y-75581328D01*
X125493439Y-75495102D01*
X125546245Y-75411728D01*
X125477001Y-75327523D01*
X125287220Y-75238806D01*
X125206125Y-75210468D01*
X124872750Y-75099730D01*
X125190250Y-74993545D01*
X125419617Y-74897992D01*
X125522071Y-74806690D01*
X125497590Y-74718891D01*
X125346154Y-74633845D01*
X125178460Y-74579361D01*
X124917171Y-74504477D01*
X124654099Y-74425513D01*
X124528063Y-74385900D01*
X124357617Y-74332090D01*
X124246631Y-74299482D01*
X124226438Y-74295000D01*
X124211124Y-74349574D01*
X124206000Y-74455742D01*
X124214694Y-74554459D01*
X124258640Y-74617050D01*
X124364629Y-74658104D01*
X124559454Y-74692208D01*
X124667604Y-74707084D01*
X124835535Y-74740539D01*
X124929060Y-74781039D01*
X124936305Y-74802910D01*
X124860966Y-74849301D01*
X124701402Y-74912148D01*
X124545611Y-74961820D01*
X124365931Y-75023813D01*
X124258832Y-75080310D01*
X124245159Y-75113513D01*
X124331822Y-75157411D01*
X124500456Y-75223021D01*
X124677701Y-75283903D01*
X125054152Y-75406250D01*
X124630076Y-75499720D01*
X124403966Y-75554202D01*
X124275957Y-75602819D01*
X124218989Y-75661240D01*
X124206000Y-75745132D01*
X124206000Y-75745251D01*
X124224986Y-75854033D01*
D13*
X138676000Y-54692000D02*
X137676000Y-54692000D01*
X137676000Y-56052000D02*
X138676000Y-56052000D01*
X138044000Y-72262000D02*
X141864000Y-72262000D01*
X141864000Y-72262000D02*
X141864000Y-74042000D01*
X141864000Y-74042000D02*
X138044000Y-74042000D01*
X138044000Y-72262000D02*
X138044000Y-74042000D01*
D14*
G36*
X116727918Y-76847744D02*
X116755568Y-76903201D01*
X116806480Y-76952148D01*
X116825338Y-76965629D01*
X116850015Y-76980314D01*
X116876816Y-76989842D01*
X116912587Y-76995293D01*
X116964169Y-76997747D01*
X117032267Y-76998286D01*
X117125588Y-76995852D01*
X117195657Y-76987394D01*
X117247931Y-76971174D01*
X117287869Y-76945454D01*
X117320929Y-76908497D01*
X117322886Y-76905782D01*
X117342908Y-76869360D01*
X117352815Y-76825502D01*
X117355257Y-76769724D01*
X117355257Y-76679048D01*
X117443283Y-76679010D01*
X117492308Y-76678166D01*
X117521065Y-76673024D01*
X117538311Y-76659587D01*
X117552808Y-76633858D01*
X117555769Y-76627679D01*
X117569648Y-76598764D01*
X117578414Y-76576376D01*
X117579171Y-76559729D01*
X117569023Y-76548036D01*
X117545073Y-76540510D01*
X117504426Y-76536366D01*
X117444186Y-76534815D01*
X117361455Y-76535071D01*
X117253339Y-76536349D01*
X117221000Y-76536748D01*
X117109524Y-76538185D01*
X117036603Y-76539472D01*
X117036603Y-76678971D01*
X117098499Y-76679755D01*
X117138997Y-76683240D01*
X117165708Y-76691124D01*
X117186244Y-76705105D01*
X117196260Y-76714597D01*
X117225567Y-76753404D01*
X117227952Y-76787763D01*
X117203750Y-76823216D01*
X117202857Y-76824114D01*
X117184153Y-76838539D01*
X117158732Y-76847313D01*
X117119584Y-76851739D01*
X117059697Y-76853118D01*
X117046430Y-76853143D01*
X116963901Y-76849812D01*
X116906691Y-76838969D01*
X116871766Y-76819340D01*
X116856094Y-76789650D01*
X116854514Y-76772491D01*
X116861926Y-76731766D01*
X116886330Y-76703832D01*
X116930980Y-76687017D01*
X116999130Y-76679650D01*
X117036603Y-76678971D01*
X117036603Y-76539472D01*
X117023245Y-76539708D01*
X116958333Y-76541677D01*
X116910958Y-76544450D01*
X116877290Y-76548388D01*
X116853498Y-76553849D01*
X116835753Y-76561192D01*
X116820224Y-76570777D01*
X116814381Y-76574887D01*
X116759185Y-76629405D01*
X116727890Y-76698336D01*
X116719165Y-76778072D01*
X116727918Y-76847744D01*
X116727918Y-76847744D01*
G37*
X116727918Y-76847744D02*
X116755568Y-76903201D01*
X116806480Y-76952148D01*
X116825338Y-76965629D01*
X116850015Y-76980314D01*
X116876816Y-76989842D01*
X116912587Y-76995293D01*
X116964169Y-76997747D01*
X117032267Y-76998286D01*
X117125588Y-76995852D01*
X117195657Y-76987394D01*
X117247931Y-76971174D01*
X117287869Y-76945454D01*
X117320929Y-76908497D01*
X117322886Y-76905782D01*
X117342908Y-76869360D01*
X117352815Y-76825502D01*
X117355257Y-76769724D01*
X117355257Y-76679048D01*
X117443283Y-76679010D01*
X117492308Y-76678166D01*
X117521065Y-76673024D01*
X117538311Y-76659587D01*
X117552808Y-76633858D01*
X117555769Y-76627679D01*
X117569648Y-76598764D01*
X117578414Y-76576376D01*
X117579171Y-76559729D01*
X117569023Y-76548036D01*
X117545073Y-76540510D01*
X117504426Y-76536366D01*
X117444186Y-76534815D01*
X117361455Y-76535071D01*
X117253339Y-76536349D01*
X117221000Y-76536748D01*
X117109524Y-76538185D01*
X117036603Y-76539472D01*
X117036603Y-76678971D01*
X117098499Y-76679755D01*
X117138997Y-76683240D01*
X117165708Y-76691124D01*
X117186244Y-76705105D01*
X117196260Y-76714597D01*
X117225567Y-76753404D01*
X117227952Y-76787763D01*
X117203750Y-76823216D01*
X117202857Y-76824114D01*
X117184153Y-76838539D01*
X117158732Y-76847313D01*
X117119584Y-76851739D01*
X117059697Y-76853118D01*
X117046430Y-76853143D01*
X116963901Y-76849812D01*
X116906691Y-76838969D01*
X116871766Y-76819340D01*
X116856094Y-76789650D01*
X116854514Y-76772491D01*
X116861926Y-76731766D01*
X116886330Y-76703832D01*
X116930980Y-76687017D01*
X116999130Y-76679650D01*
X117036603Y-76678971D01*
X117036603Y-76539472D01*
X117023245Y-76539708D01*
X116958333Y-76541677D01*
X116910958Y-76544450D01*
X116877290Y-76548388D01*
X116853498Y-76553849D01*
X116835753Y-76561192D01*
X116820224Y-76570777D01*
X116814381Y-76574887D01*
X116759185Y-76629405D01*
X116727890Y-76698336D01*
X116719165Y-76778072D01*
X116727918Y-76847744D01*
G36*
X116735780Y-77964093D02*
X116762723Y-78010672D01*
X116789466Y-78043057D01*
X116817484Y-78066742D01*
X116851748Y-78083059D01*
X116897227Y-78093339D01*
X116958892Y-78098914D01*
X117041711Y-78101116D01*
X117101246Y-78101371D01*
X117320391Y-78101371D01*
X117348044Y-78039686D01*
X117375697Y-77978000D01*
X117135670Y-77970743D01*
X117046028Y-77967744D01*
X116980962Y-77964598D01*
X116936026Y-77960701D01*
X116906770Y-77955447D01*
X116888748Y-77948231D01*
X116877511Y-77938450D01*
X116875079Y-77935312D01*
X116856083Y-77887761D01*
X116863600Y-77839697D01*
X116883543Y-77811086D01*
X116897675Y-77799447D01*
X116916220Y-77791391D01*
X116944334Y-77786271D01*
X116987173Y-77783441D01*
X117049895Y-77782256D01*
X117115261Y-77782057D01*
X117197268Y-77782018D01*
X117255316Y-77780614D01*
X117294465Y-77775914D01*
X117319780Y-77765987D01*
X117336323Y-77748903D01*
X117349156Y-77722732D01*
X117362491Y-77687775D01*
X117377007Y-77649596D01*
X117119389Y-77654141D01*
X117026519Y-77655971D01*
X116957889Y-77658112D01*
X116908711Y-77661181D01*
X116874198Y-77665794D01*
X116849562Y-77672568D01*
X116830016Y-77682119D01*
X116812770Y-77693634D01*
X116757680Y-77749190D01*
X116725822Y-77816980D01*
X116718191Y-77890713D01*
X116735780Y-77964093D01*
X116735780Y-77964093D01*
G37*
X116735780Y-77964093D02*
X116762723Y-78010672D01*
X116789466Y-78043057D01*
X116817484Y-78066742D01*
X116851748Y-78083059D01*
X116897227Y-78093339D01*
X116958892Y-78098914D01*
X117041711Y-78101116D01*
X117101246Y-78101371D01*
X117320391Y-78101371D01*
X117348044Y-78039686D01*
X117375697Y-77978000D01*
X117135670Y-77970743D01*
X117046028Y-77967744D01*
X116980962Y-77964598D01*
X116936026Y-77960701D01*
X116906770Y-77955447D01*
X116888748Y-77948231D01*
X116877511Y-77938450D01*
X116875079Y-77935312D01*
X116856083Y-77887761D01*
X116863600Y-77839697D01*
X116883543Y-77811086D01*
X116897675Y-77799447D01*
X116916220Y-77791391D01*
X116944334Y-77786271D01*
X116987173Y-77783441D01*
X117049895Y-77782256D01*
X117115261Y-77782057D01*
X117197268Y-77782018D01*
X117255316Y-77780614D01*
X117294465Y-77775914D01*
X117319780Y-77765987D01*
X117336323Y-77748903D01*
X117349156Y-77722732D01*
X117362491Y-77687775D01*
X117377007Y-77649596D01*
X117119389Y-77654141D01*
X117026519Y-77655971D01*
X116957889Y-77658112D01*
X116908711Y-77661181D01*
X116874198Y-77665794D01*
X116849562Y-77672568D01*
X116830016Y-77682119D01*
X116812770Y-77693634D01*
X116757680Y-77749190D01*
X116725822Y-77816980D01*
X116718191Y-77890713D01*
X116735780Y-77964093D01*
G36*
X116729962Y-76289115D02*
X116765733Y-76357145D01*
X116823301Y-76407351D01*
X116860312Y-76425185D01*
X116915882Y-76439063D01*
X116986096Y-76446167D01*
X117062727Y-76446840D01*
X117137552Y-76441427D01*
X117202342Y-76430270D01*
X117248873Y-76413714D01*
X117256887Y-76408626D01*
X117316707Y-76348355D01*
X117352535Y-76276769D01*
X117363020Y-76199092D01*
X117346810Y-76120548D01*
X117337092Y-76098689D01*
X117307143Y-76056122D01*
X117267433Y-76018763D01*
X117262397Y-76015232D01*
X117238124Y-76000881D01*
X117212178Y-75991394D01*
X117178022Y-75985790D01*
X117129119Y-75983086D01*
X117058935Y-75982299D01*
X117043200Y-75982286D01*
X117038192Y-75982322D01*
X117038192Y-76127429D01*
X117104430Y-76128273D01*
X117148386Y-76131596D01*
X117176779Y-76138583D01*
X117196325Y-76150416D01*
X117202857Y-76156457D01*
X117227680Y-76191186D01*
X117226548Y-76224903D01*
X117205016Y-76258995D01*
X117182029Y-76279329D01*
X117148478Y-76291371D01*
X117095569Y-76298134D01*
X117089399Y-76298598D01*
X116993513Y-76299752D01*
X116922299Y-76287688D01*
X116876194Y-76262570D01*
X116855635Y-76224560D01*
X116854514Y-76210992D01*
X116860152Y-76175364D01*
X116879686Y-76150994D01*
X116917042Y-76136093D01*
X116976150Y-76128875D01*
X117038192Y-76127429D01*
X117038192Y-75982322D01*
X116968413Y-75982826D01*
X116916159Y-75985096D01*
X116879949Y-75990068D01*
X116853299Y-75998713D01*
X116829722Y-76012005D01*
X116825338Y-76014943D01*
X116766249Y-76064313D01*
X116731947Y-76118109D01*
X116718331Y-76183602D01*
X116717665Y-76205842D01*
X116729962Y-76289115D01*
X116729962Y-76289115D01*
G37*
X116729962Y-76289115D02*
X116765733Y-76357145D01*
X116823301Y-76407351D01*
X116860312Y-76425185D01*
X116915882Y-76439063D01*
X116986096Y-76446167D01*
X117062727Y-76446840D01*
X117137552Y-76441427D01*
X117202342Y-76430270D01*
X117248873Y-76413714D01*
X117256887Y-76408626D01*
X117316707Y-76348355D01*
X117352535Y-76276769D01*
X117363020Y-76199092D01*
X117346810Y-76120548D01*
X117337092Y-76098689D01*
X117307143Y-76056122D01*
X117267433Y-76018763D01*
X117262397Y-76015232D01*
X117238124Y-76000881D01*
X117212178Y-75991394D01*
X117178022Y-75985790D01*
X117129119Y-75983086D01*
X117058935Y-75982299D01*
X117043200Y-75982286D01*
X117038192Y-75982322D01*
X117038192Y-76127429D01*
X117104430Y-76128273D01*
X117148386Y-76131596D01*
X117176779Y-76138583D01*
X117196325Y-76150416D01*
X117202857Y-76156457D01*
X117227680Y-76191186D01*
X117226548Y-76224903D01*
X117205016Y-76258995D01*
X117182029Y-76279329D01*
X117148478Y-76291371D01*
X117095569Y-76298134D01*
X117089399Y-76298598D01*
X116993513Y-76299752D01*
X116922299Y-76287688D01*
X116876194Y-76262570D01*
X116855635Y-76224560D01*
X116854514Y-76210992D01*
X116860152Y-76175364D01*
X116879686Y-76150994D01*
X116917042Y-76136093D01*
X116976150Y-76128875D01*
X117038192Y-76127429D01*
X117038192Y-75982322D01*
X116968413Y-75982826D01*
X116916159Y-75985096D01*
X116879949Y-75990068D01*
X116853299Y-75998713D01*
X116829722Y-76012005D01*
X116825338Y-76014943D01*
X116766249Y-76064313D01*
X116731947Y-76118109D01*
X116718331Y-76183602D01*
X116717665Y-76205842D01*
X116729962Y-76289115D01*
G36*
X116739239Y-77416303D02*
X116777735Y-77473527D01*
X116833335Y-77517749D01*
X116904086Y-77544167D01*
X116956162Y-77549510D01*
X116977893Y-77548903D01*
X116994531Y-77543822D01*
X117009437Y-77529855D01*
X117025973Y-77502589D01*
X117047498Y-77457612D01*
X117077374Y-77390511D01*
X117077524Y-77390171D01*
X117105813Y-77328407D01*
X117130933Y-77277759D01*
X117150179Y-77243404D01*
X117160848Y-77230518D01*
X117160934Y-77230514D01*
X117184166Y-77241872D01*
X117209774Y-77268431D01*
X117228221Y-77298923D01*
X117231886Y-77314370D01*
X117219212Y-77356515D01*
X117187471Y-77392808D01*
X117152572Y-77410517D01*
X117126845Y-77427552D01*
X117097546Y-77460922D01*
X117072235Y-77500149D01*
X117058471Y-77534756D01*
X117057714Y-77541993D01*
X117070160Y-77550139D01*
X117101972Y-77550630D01*
X117144866Y-77544643D01*
X117190558Y-77533357D01*
X117230761Y-77517950D01*
X117232322Y-77517171D01*
X117297062Y-77470804D01*
X117341097Y-77410711D01*
X117362711Y-77342465D01*
X117360185Y-77271638D01*
X117331804Y-77203804D01*
X117329808Y-77200788D01*
X117281448Y-77147427D01*
X117218352Y-77112340D01*
X117135387Y-77092922D01*
X117112078Y-77090316D01*
X117002055Y-77085701D01*
X116950748Y-77091233D01*
X116950748Y-77230514D01*
X116982753Y-77232324D01*
X116992093Y-77242222D01*
X116985105Y-77266898D01*
X116968587Y-77305795D01*
X116947881Y-77349275D01*
X116947333Y-77350356D01*
X116927949Y-77387209D01*
X116915013Y-77402000D01*
X116901451Y-77398353D01*
X116883632Y-77382995D01*
X116857845Y-77343923D01*
X116855950Y-77301846D01*
X116874717Y-77264103D01*
X116910915Y-77238034D01*
X116950748Y-77230514D01*
X116950748Y-77091233D01*
X116914027Y-77095194D01*
X116844212Y-77119550D01*
X116795302Y-77153456D01*
X116745878Y-77214653D01*
X116721359Y-77282063D01*
X116719797Y-77350880D01*
X116739239Y-77416303D01*
X116739239Y-77416303D01*
G37*
X116739239Y-77416303D02*
X116777735Y-77473527D01*
X116833335Y-77517749D01*
X116904086Y-77544167D01*
X116956162Y-77549510D01*
X116977893Y-77548903D01*
X116994531Y-77543822D01*
X117009437Y-77529855D01*
X117025973Y-77502589D01*
X117047498Y-77457612D01*
X117077374Y-77390511D01*
X117077524Y-77390171D01*
X117105813Y-77328407D01*
X117130933Y-77277759D01*
X117150179Y-77243404D01*
X117160848Y-77230518D01*
X117160934Y-77230514D01*
X117184166Y-77241872D01*
X117209774Y-77268431D01*
X117228221Y-77298923D01*
X117231886Y-77314370D01*
X117219212Y-77356515D01*
X117187471Y-77392808D01*
X117152572Y-77410517D01*
X117126845Y-77427552D01*
X117097546Y-77460922D01*
X117072235Y-77500149D01*
X117058471Y-77534756D01*
X117057714Y-77541993D01*
X117070160Y-77550139D01*
X117101972Y-77550630D01*
X117144866Y-77544643D01*
X117190558Y-77533357D01*
X117230761Y-77517950D01*
X117232322Y-77517171D01*
X117297062Y-77470804D01*
X117341097Y-77410711D01*
X117362711Y-77342465D01*
X117360185Y-77271638D01*
X117331804Y-77203804D01*
X117329808Y-77200788D01*
X117281448Y-77147427D01*
X117218352Y-77112340D01*
X117135387Y-77092922D01*
X117112078Y-77090316D01*
X117002055Y-77085701D01*
X116950748Y-77091233D01*
X116950748Y-77230514D01*
X116982753Y-77232324D01*
X116992093Y-77242222D01*
X116985105Y-77266898D01*
X116968587Y-77305795D01*
X116947881Y-77349275D01*
X116947333Y-77350356D01*
X116927949Y-77387209D01*
X116915013Y-77402000D01*
X116901451Y-77398353D01*
X116883632Y-77382995D01*
X116857845Y-77343923D01*
X116855950Y-77301846D01*
X116874717Y-77264103D01*
X116910915Y-77238034D01*
X116950748Y-77230514D01*
X116950748Y-77091233D01*
X116914027Y-77095194D01*
X116844212Y-77119550D01*
X116795302Y-77153456D01*
X116745878Y-77214653D01*
X116721359Y-77282063D01*
X116719797Y-77350880D01*
X116739239Y-77416303D01*
G36*
X116659289Y-78623886D02*
X116718613Y-78628139D01*
X116753572Y-78633025D01*
X116768820Y-78639795D01*
X116769015Y-78649702D01*
X116767195Y-78652914D01*
X116754015Y-78695644D01*
X116754785Y-78751227D01*
X116768333Y-78807737D01*
X116785861Y-78843082D01*
X116813861Y-78879321D01*
X116845549Y-78905813D01*
X116885813Y-78923999D01*
X116939543Y-78935322D01*
X117011626Y-78941222D01*
X117106951Y-78943143D01*
X117125237Y-78943177D01*
X117330646Y-78943200D01*
X117346580Y-78897491D01*
X117357420Y-78865027D01*
X117362468Y-78847215D01*
X117362514Y-78846691D01*
X117348828Y-78844937D01*
X117311076Y-78843444D01*
X117254224Y-78842326D01*
X117183234Y-78841697D01*
X117140073Y-78841600D01*
X117054973Y-78841398D01*
X116993981Y-78840358D01*
X116952177Y-78837831D01*
X116924642Y-78833164D01*
X116906456Y-78825707D01*
X116892698Y-78814811D01*
X116886073Y-78808007D01*
X116859375Y-78761272D01*
X116857375Y-78710272D01*
X116879955Y-78664001D01*
X116888107Y-78655444D01*
X116903436Y-78642893D01*
X116921618Y-78634188D01*
X116947909Y-78628631D01*
X116987562Y-78625526D01*
X117045832Y-78624176D01*
X117126173Y-78623886D01*
X117330646Y-78623886D01*
X117346580Y-78578177D01*
X117357420Y-78545713D01*
X117362468Y-78527901D01*
X117362514Y-78527377D01*
X117348623Y-78526037D01*
X117309439Y-78524828D01*
X117248700Y-78523801D01*
X117170141Y-78523002D01*
X117077498Y-78522481D01*
X116974509Y-78522286D01*
X116577342Y-78522286D01*
X116557444Y-78569457D01*
X116537547Y-78616629D01*
X116659289Y-78623886D01*
X116659289Y-78623886D01*
G37*
X116659289Y-78623886D02*
X116718613Y-78628139D01*
X116753572Y-78633025D01*
X116768820Y-78639795D01*
X116769015Y-78649702D01*
X116767195Y-78652914D01*
X116754015Y-78695644D01*
X116754785Y-78751227D01*
X116768333Y-78807737D01*
X116785861Y-78843082D01*
X116813861Y-78879321D01*
X116845549Y-78905813D01*
X116885813Y-78923999D01*
X116939543Y-78935322D01*
X117011626Y-78941222D01*
X117106951Y-78943143D01*
X117125237Y-78943177D01*
X117330646Y-78943200D01*
X117346580Y-78897491D01*
X117357420Y-78865027D01*
X117362468Y-78847215D01*
X117362514Y-78846691D01*
X117348828Y-78844937D01*
X117311076Y-78843444D01*
X117254224Y-78842326D01*
X117183234Y-78841697D01*
X117140073Y-78841600D01*
X117054973Y-78841398D01*
X116993981Y-78840358D01*
X116952177Y-78837831D01*
X116924642Y-78833164D01*
X116906456Y-78825707D01*
X116892698Y-78814811D01*
X116886073Y-78808007D01*
X116859375Y-78761272D01*
X116857375Y-78710272D01*
X116879955Y-78664001D01*
X116888107Y-78655444D01*
X116903436Y-78642893D01*
X116921618Y-78634188D01*
X116947909Y-78628631D01*
X116987562Y-78625526D01*
X117045832Y-78624176D01*
X117126173Y-78623886D01*
X117330646Y-78623886D01*
X117346580Y-78578177D01*
X117357420Y-78545713D01*
X117362468Y-78527901D01*
X117362514Y-78527377D01*
X117348623Y-78526037D01*
X117309439Y-78524828D01*
X117248700Y-78523801D01*
X117170141Y-78523002D01*
X117077498Y-78522481D01*
X116974509Y-78522286D01*
X116577342Y-78522286D01*
X116557444Y-78569457D01*
X116537547Y-78616629D01*
X116659289Y-78623886D01*
G36*
X116758968Y-79287744D02*
X116780087Y-79344616D01*
X116780493Y-79345267D01*
X116806380Y-79380440D01*
X116836633Y-79406407D01*
X116876058Y-79424670D01*
X116929462Y-79436732D01*
X117001651Y-79444096D01*
X117097432Y-79448264D01*
X117111078Y-79448629D01*
X117316842Y-79453876D01*
X117339678Y-79409716D01*
X117355110Y-79377763D01*
X117362423Y-79358470D01*
X117362514Y-79357578D01*
X117349022Y-79354239D01*
X117312626Y-79351587D01*
X117259452Y-79349956D01*
X117216393Y-79349600D01*
X117146641Y-79349592D01*
X117102837Y-79346403D01*
X117081944Y-79335288D01*
X117080925Y-79311501D01*
X117096741Y-79270296D01*
X117125815Y-79208086D01*
X117149963Y-79162341D01*
X117170913Y-79138813D01*
X117193747Y-79131896D01*
X117194877Y-79131886D01*
X117234212Y-79143299D01*
X117255462Y-79177092D01*
X117258539Y-79228809D01*
X117258006Y-79266061D01*
X117268735Y-79285703D01*
X117294505Y-79297952D01*
X117327337Y-79305002D01*
X117345966Y-79294842D01*
X117348632Y-79291017D01*
X117359340Y-79255001D01*
X117360856Y-79204566D01*
X117353759Y-79152626D01*
X117340788Y-79115822D01*
X117297585Y-79064938D01*
X117237446Y-79036014D01*
X117190462Y-79030286D01*
X117148082Y-79034657D01*
X117113488Y-79050475D01*
X117082763Y-79081797D01*
X117051990Y-79132678D01*
X117017252Y-79207176D01*
X117015288Y-79211714D01*
X116984287Y-79278821D01*
X116958862Y-79320232D01*
X116936014Y-79337981D01*
X116912745Y-79334107D01*
X116886056Y-79310643D01*
X116879914Y-79303627D01*
X116856100Y-79256630D01*
X116857103Y-79207933D01*
X116880451Y-79165522D01*
X116923675Y-79137384D01*
X116932160Y-79134769D01*
X116973308Y-79109308D01*
X116993128Y-79077001D01*
X117012770Y-79030286D01*
X116961950Y-79030286D01*
X116888082Y-79044496D01*
X116820327Y-79086675D01*
X116797661Y-79108624D01*
X116768569Y-79158517D01*
X116755400Y-79221967D01*
X116758968Y-79287744D01*
X116758968Y-79287744D01*
G37*
X116758968Y-79287744D02*
X116780087Y-79344616D01*
X116780493Y-79345267D01*
X116806380Y-79380440D01*
X116836633Y-79406407D01*
X116876058Y-79424670D01*
X116929462Y-79436732D01*
X117001651Y-79444096D01*
X117097432Y-79448264D01*
X117111078Y-79448629D01*
X117316842Y-79453876D01*
X117339678Y-79409716D01*
X117355110Y-79377763D01*
X117362423Y-79358470D01*
X117362514Y-79357578D01*
X117349022Y-79354239D01*
X117312626Y-79351587D01*
X117259452Y-79349956D01*
X117216393Y-79349600D01*
X117146641Y-79349592D01*
X117102837Y-79346403D01*
X117081944Y-79335288D01*
X117080925Y-79311501D01*
X117096741Y-79270296D01*
X117125815Y-79208086D01*
X117149963Y-79162341D01*
X117170913Y-79138813D01*
X117193747Y-79131896D01*
X117194877Y-79131886D01*
X117234212Y-79143299D01*
X117255462Y-79177092D01*
X117258539Y-79228809D01*
X117258006Y-79266061D01*
X117268735Y-79285703D01*
X117294505Y-79297952D01*
X117327337Y-79305002D01*
X117345966Y-79294842D01*
X117348632Y-79291017D01*
X117359340Y-79255001D01*
X117360856Y-79204566D01*
X117353759Y-79152626D01*
X117340788Y-79115822D01*
X117297585Y-79064938D01*
X117237446Y-79036014D01*
X117190462Y-79030286D01*
X117148082Y-79034657D01*
X117113488Y-79050475D01*
X117082763Y-79081797D01*
X117051990Y-79132678D01*
X117017252Y-79207176D01*
X117015288Y-79211714D01*
X116984287Y-79278821D01*
X116958862Y-79320232D01*
X116936014Y-79337981D01*
X116912745Y-79334107D01*
X116886056Y-79310643D01*
X116879914Y-79303627D01*
X116856100Y-79256630D01*
X116857103Y-79207933D01*
X116880451Y-79165522D01*
X116923675Y-79137384D01*
X116932160Y-79134769D01*
X116973308Y-79109308D01*
X116993128Y-79077001D01*
X117012770Y-79030286D01*
X116961950Y-79030286D01*
X116888082Y-79044496D01*
X116820327Y-79086675D01*
X116797661Y-79108624D01*
X116768569Y-79158517D01*
X116755400Y-79221967D01*
X116758968Y-79287744D01*
G36*
X116757755Y-79777926D02*
X116782084Y-79843858D01*
X116825117Y-79897273D01*
X116855409Y-79918164D01*
X116910994Y-79940939D01*
X116951186Y-79940466D01*
X116978217Y-79916562D01*
X116982813Y-79907717D01*
X116997144Y-79869530D01*
X116993472Y-79850028D01*
X116969407Y-79843422D01*
X116956114Y-79843086D01*
X116907210Y-79830992D01*
X116872999Y-79799471D01*
X116856476Y-79755659D01*
X116860634Y-79706695D01*
X116882227Y-79666894D01*
X116894544Y-79653450D01*
X116909487Y-79643921D01*
X116932075Y-79637485D01*
X116967328Y-79633317D01*
X117020266Y-79630597D01*
X117095907Y-79628502D01*
X117119857Y-79627960D01*
X117201790Y-79625981D01*
X117259455Y-79623731D01*
X117297608Y-79620357D01*
X117321004Y-79615006D01*
X117334398Y-79606824D01*
X117342545Y-79594959D01*
X117346144Y-79587362D01*
X117358452Y-79555102D01*
X117362514Y-79536111D01*
X117348948Y-79529836D01*
X117307934Y-79526006D01*
X117238999Y-79524600D01*
X117141669Y-79525598D01*
X117126657Y-79525908D01*
X117037859Y-79528101D01*
X116973019Y-79530693D01*
X116927067Y-79534382D01*
X116894935Y-79539864D01*
X116871553Y-79547835D01*
X116851852Y-79558993D01*
X116843410Y-79564830D01*
X116806057Y-79598296D01*
X116777003Y-79635727D01*
X116774467Y-79640309D01*
X116754443Y-79707426D01*
X116757755Y-79777926D01*
X116757755Y-79777926D01*
G37*
X116757755Y-79777926D02*
X116782084Y-79843858D01*
X116825117Y-79897273D01*
X116855409Y-79918164D01*
X116910994Y-79940939D01*
X116951186Y-79940466D01*
X116978217Y-79916562D01*
X116982813Y-79907717D01*
X116997144Y-79869530D01*
X116993472Y-79850028D01*
X116969407Y-79843422D01*
X116956114Y-79843086D01*
X116907210Y-79830992D01*
X116872999Y-79799471D01*
X116856476Y-79755659D01*
X116860634Y-79706695D01*
X116882227Y-79666894D01*
X116894544Y-79653450D01*
X116909487Y-79643921D01*
X116932075Y-79637485D01*
X116967328Y-79633317D01*
X117020266Y-79630597D01*
X117095907Y-79628502D01*
X117119857Y-79627960D01*
X117201790Y-79625981D01*
X117259455Y-79623731D01*
X117297608Y-79620357D01*
X117321004Y-79615006D01*
X117334398Y-79606824D01*
X117342545Y-79594959D01*
X117346144Y-79587362D01*
X117358452Y-79555102D01*
X117362514Y-79536111D01*
X117348948Y-79529836D01*
X117307934Y-79526006D01*
X117238999Y-79524600D01*
X117141669Y-79525598D01*
X117126657Y-79525908D01*
X117037859Y-79528101D01*
X116973019Y-79530693D01*
X116927067Y-79534382D01*
X116894935Y-79539864D01*
X116871553Y-79547835D01*
X116851852Y-79558993D01*
X116843410Y-79564830D01*
X116806057Y-79598296D01*
X116777003Y-79635727D01*
X116774467Y-79640309D01*
X116754443Y-79707426D01*
X116757755Y-79777926D01*
G36*
X116873358Y-80438117D02*
X116981837Y-80437933D01*
X117065287Y-80437219D01*
X117127704Y-80435675D01*
X117173085Y-80433001D01*
X117205429Y-80428894D01*
X117228733Y-80423055D01*
X117246995Y-80415182D01*
X117257418Y-80409221D01*
X117313945Y-80359855D01*
X117349377Y-80297264D01*
X117362090Y-80228013D01*
X117350463Y-80158668D01*
X117329568Y-80117375D01*
X117293422Y-80074025D01*
X117249276Y-80044481D01*
X117191462Y-80026655D01*
X117114313Y-80018463D01*
X117057714Y-80017302D01*
X117053647Y-80017458D01*
X117053647Y-80118857D01*
X117118550Y-80119476D01*
X117161514Y-80122314D01*
X117189622Y-80128840D01*
X117209953Y-80140523D01*
X117225288Y-80154483D01*
X117254890Y-80201365D01*
X117257419Y-80251701D01*
X117232705Y-80299276D01*
X117229356Y-80302979D01*
X117211935Y-80318783D01*
X117191209Y-80328693D01*
X117160362Y-80334058D01*
X117112577Y-80336228D01*
X117059748Y-80336571D01*
X116993381Y-80335827D01*
X116949106Y-80332748D01*
X116920009Y-80326061D01*
X116899173Y-80314496D01*
X116888107Y-80305013D01*
X116860198Y-80260960D01*
X116856843Y-80210224D01*
X116878159Y-80161796D01*
X116886073Y-80152450D01*
X116903647Y-80136540D01*
X116924587Y-80126610D01*
X116955782Y-80121278D01*
X117004122Y-80119163D01*
X117053647Y-80118857D01*
X117053647Y-80017458D01*
X116966568Y-80020810D01*
X116898086Y-80032726D01*
X116846600Y-80055135D01*
X116806443Y-80090124D01*
X116785861Y-80117375D01*
X116763625Y-80166907D01*
X116753304Y-80224316D01*
X116756067Y-80277682D01*
X116767212Y-80307543D01*
X116770383Y-80319261D01*
X116758557Y-80327037D01*
X116726866Y-80332465D01*
X116678593Y-80336571D01*
X116624829Y-80341067D01*
X116592482Y-80347313D01*
X116573985Y-80358676D01*
X116561770Y-80378528D01*
X116556362Y-80391000D01*
X116536601Y-80438171D01*
X116873358Y-80438117D01*
X116873358Y-80438117D01*
G37*
X116873358Y-80438117D02*
X116981837Y-80437933D01*
X117065287Y-80437219D01*
X117127704Y-80435675D01*
X117173085Y-80433001D01*
X117205429Y-80428894D01*
X117228733Y-80423055D01*
X117246995Y-80415182D01*
X117257418Y-80409221D01*
X117313945Y-80359855D01*
X117349377Y-80297264D01*
X117362090Y-80228013D01*
X117350463Y-80158668D01*
X117329568Y-80117375D01*
X117293422Y-80074025D01*
X117249276Y-80044481D01*
X117191462Y-80026655D01*
X117114313Y-80018463D01*
X117057714Y-80017302D01*
X117053647Y-80017458D01*
X117053647Y-80118857D01*
X117118550Y-80119476D01*
X117161514Y-80122314D01*
X117189622Y-80128840D01*
X117209953Y-80140523D01*
X117225288Y-80154483D01*
X117254890Y-80201365D01*
X117257419Y-80251701D01*
X117232705Y-80299276D01*
X117229356Y-80302979D01*
X117211935Y-80318783D01*
X117191209Y-80328693D01*
X117160362Y-80334058D01*
X117112577Y-80336228D01*
X117059748Y-80336571D01*
X116993381Y-80335827D01*
X116949106Y-80332748D01*
X116920009Y-80326061D01*
X116899173Y-80314496D01*
X116888107Y-80305013D01*
X116860198Y-80260960D01*
X116856843Y-80210224D01*
X116878159Y-80161796D01*
X116886073Y-80152450D01*
X116903647Y-80136540D01*
X116924587Y-80126610D01*
X116955782Y-80121278D01*
X117004122Y-80119163D01*
X117053647Y-80118857D01*
X117053647Y-80017458D01*
X116966568Y-80020810D01*
X116898086Y-80032726D01*
X116846600Y-80055135D01*
X116806443Y-80090124D01*
X116785861Y-80117375D01*
X116763625Y-80166907D01*
X116753304Y-80224316D01*
X116756067Y-80277682D01*
X116767212Y-80307543D01*
X116770383Y-80319261D01*
X116758557Y-80327037D01*
X116726866Y-80332465D01*
X116678593Y-80336571D01*
X116624829Y-80341067D01*
X116592482Y-80347313D01*
X116573985Y-80358676D01*
X116561770Y-80378528D01*
X116556362Y-80391000D01*
X116536601Y-80438171D01*
X116873358Y-80438117D01*
G36*
X116766663Y-81027833D02*
X116804850Y-81030048D01*
X116862886Y-81031784D01*
X116936180Y-81032899D01*
X117013055Y-81033257D01*
X117273196Y-81033257D01*
X117319127Y-80987326D01*
X117347429Y-80955675D01*
X117358893Y-80927890D01*
X117358168Y-80889915D01*
X117356321Y-80874840D01*
X117350948Y-80827726D01*
X117347869Y-80788756D01*
X117347585Y-80779257D01*
X117349445Y-80747233D01*
X117354114Y-80701432D01*
X117356321Y-80683674D01*
X117359735Y-80640057D01*
X117352320Y-80610745D01*
X117329427Y-80581680D01*
X117319127Y-80571188D01*
X117273196Y-80525257D01*
X116786602Y-80525257D01*
X116769758Y-80562226D01*
X116757282Y-80594059D01*
X116752914Y-80612683D01*
X116766718Y-80617458D01*
X116805286Y-80621921D01*
X116864356Y-80625775D01*
X116939663Y-80628722D01*
X117003286Y-80630143D01*
X117253657Y-80634114D01*
X117258556Y-80668759D01*
X117255131Y-80700268D01*
X117244041Y-80715708D01*
X117223308Y-80720023D01*
X117179145Y-80723708D01*
X117117146Y-80726469D01*
X117042909Y-80728012D01*
X117004706Y-80728235D01*
X116784783Y-80728457D01*
X116768849Y-80774166D01*
X116758015Y-80806518D01*
X116752962Y-80824115D01*
X116752914Y-80824623D01*
X116766648Y-80826388D01*
X116804730Y-80828329D01*
X116862482Y-80830282D01*
X116935227Y-80832084D01*
X117003286Y-80833343D01*
X117253657Y-80837314D01*
X117253657Y-80924400D01*
X117025240Y-80928396D01*
X116796822Y-80932392D01*
X116774868Y-80974847D01*
X116759793Y-81006192D01*
X116752951Y-81024744D01*
X116752914Y-81025279D01*
X116766663Y-81027833D01*
X116766663Y-81027833D01*
G37*
X116766663Y-81027833D02*
X116804850Y-81030048D01*
X116862886Y-81031784D01*
X116936180Y-81032899D01*
X117013055Y-81033257D01*
X117273196Y-81033257D01*
X117319127Y-80987326D01*
X117347429Y-80955675D01*
X117358893Y-80927890D01*
X117358168Y-80889915D01*
X117356321Y-80874840D01*
X117350948Y-80827726D01*
X117347869Y-80788756D01*
X117347585Y-80779257D01*
X117349445Y-80747233D01*
X117354114Y-80701432D01*
X117356321Y-80683674D01*
X117359735Y-80640057D01*
X117352320Y-80610745D01*
X117329427Y-80581680D01*
X117319127Y-80571188D01*
X117273196Y-80525257D01*
X116786602Y-80525257D01*
X116769758Y-80562226D01*
X116757282Y-80594059D01*
X116752914Y-80612683D01*
X116766718Y-80617458D01*
X116805286Y-80621921D01*
X116864356Y-80625775D01*
X116939663Y-80628722D01*
X117003286Y-80630143D01*
X117253657Y-80634114D01*
X117258556Y-80668759D01*
X117255131Y-80700268D01*
X117244041Y-80715708D01*
X117223308Y-80720023D01*
X117179145Y-80723708D01*
X117117146Y-80726469D01*
X117042909Y-80728012D01*
X117004706Y-80728235D01*
X116784783Y-80728457D01*
X116768849Y-80774166D01*
X116758015Y-80806518D01*
X116752962Y-80824115D01*
X116752914Y-80824623D01*
X116766648Y-80826388D01*
X116804730Y-80828329D01*
X116862482Y-80830282D01*
X116935227Y-80832084D01*
X117003286Y-80833343D01*
X117253657Y-80837314D01*
X117253657Y-80924400D01*
X117025240Y-80928396D01*
X116796822Y-80932392D01*
X116774868Y-80974847D01*
X116759793Y-81006192D01*
X116752951Y-81024744D01*
X116752914Y-81025279D01*
X116766663Y-81027833D01*
G36*
X116764335Y-81392876D02*
X116783344Y-81434667D01*
X116806378Y-81467469D01*
X116832133Y-81491503D01*
X116865358Y-81508097D01*
X116910800Y-81518577D01*
X116973207Y-81524271D01*
X117057327Y-81526507D01*
X117112721Y-81526743D01*
X117328826Y-81526743D01*
X117345670Y-81489774D01*
X117357981Y-81460656D01*
X117362514Y-81446231D01*
X117349025Y-81443472D01*
X117312653Y-81441282D01*
X117259542Y-81439942D01*
X117217372Y-81439657D01*
X117156447Y-81438434D01*
X117108115Y-81435136D01*
X117078518Y-81430321D01*
X117072229Y-81426496D01*
X117078652Y-81400783D01*
X117095125Y-81360418D01*
X117117458Y-81313679D01*
X117141457Y-81268845D01*
X117162930Y-81234193D01*
X117177685Y-81218002D01*
X117177845Y-81217938D01*
X117205152Y-81219330D01*
X117231219Y-81231818D01*
X117252392Y-81253743D01*
X117259474Y-81285743D01*
X117258649Y-81313092D01*
X117258042Y-81351826D01*
X117267116Y-81372158D01*
X117291092Y-81384369D01*
X117295613Y-81385909D01*
X117329806Y-81391203D01*
X117350568Y-81377047D01*
X117360462Y-81340148D01*
X117362292Y-81300289D01*
X117348727Y-81228562D01*
X117329355Y-81191432D01*
X117283845Y-81145576D01*
X117227983Y-81121256D01*
X117168957Y-81119073D01*
X117113953Y-81139629D01*
X117079486Y-81170549D01*
X117060189Y-81201420D01*
X117035759Y-81249942D01*
X117010985Y-81306485D01*
X117007199Y-81315910D01*
X116979791Y-81378019D01*
X116955634Y-81413822D01*
X116931619Y-81425337D01*
X116904635Y-81414580D01*
X116883543Y-81396114D01*
X116857572Y-81352469D01*
X116855624Y-81304446D01*
X116875637Y-81260406D01*
X116915551Y-81228709D01*
X116925848Y-81224549D01*
X116963724Y-81200327D01*
X116991842Y-81164965D01*
X117014917Y-81120343D01*
X116949485Y-81120343D01*
X116909506Y-81122969D01*
X116877997Y-81134230D01*
X116844378Y-81159199D01*
X116818484Y-81183169D01*
X116781817Y-81220441D01*
X116762121Y-81249401D01*
X116754220Y-81280505D01*
X116752914Y-81315713D01*
X116764335Y-81392876D01*
X116764335Y-81392876D01*
G37*
X116764335Y-81392876D02*
X116783344Y-81434667D01*
X116806378Y-81467469D01*
X116832133Y-81491503D01*
X116865358Y-81508097D01*
X116910800Y-81518577D01*
X116973207Y-81524271D01*
X117057327Y-81526507D01*
X117112721Y-81526743D01*
X117328826Y-81526743D01*
X117345670Y-81489774D01*
X117357981Y-81460656D01*
X117362514Y-81446231D01*
X117349025Y-81443472D01*
X117312653Y-81441282D01*
X117259542Y-81439942D01*
X117217372Y-81439657D01*
X117156447Y-81438434D01*
X117108115Y-81435136D01*
X117078518Y-81430321D01*
X117072229Y-81426496D01*
X117078652Y-81400783D01*
X117095125Y-81360418D01*
X117117458Y-81313679D01*
X117141457Y-81268845D01*
X117162930Y-81234193D01*
X117177685Y-81218002D01*
X117177845Y-81217938D01*
X117205152Y-81219330D01*
X117231219Y-81231818D01*
X117252392Y-81253743D01*
X117259474Y-81285743D01*
X117258649Y-81313092D01*
X117258042Y-81351826D01*
X117267116Y-81372158D01*
X117291092Y-81384369D01*
X117295613Y-81385909D01*
X117329806Y-81391203D01*
X117350568Y-81377047D01*
X117360462Y-81340148D01*
X117362292Y-81300289D01*
X117348727Y-81228562D01*
X117329355Y-81191432D01*
X117283845Y-81145576D01*
X117227983Y-81121256D01*
X117168957Y-81119073D01*
X117113953Y-81139629D01*
X117079486Y-81170549D01*
X117060189Y-81201420D01*
X117035759Y-81249942D01*
X117010985Y-81306485D01*
X117007199Y-81315910D01*
X116979791Y-81378019D01*
X116955634Y-81413822D01*
X116931619Y-81425337D01*
X116904635Y-81414580D01*
X116883543Y-81396114D01*
X116857572Y-81352469D01*
X116855624Y-81304446D01*
X116875637Y-81260406D01*
X116915551Y-81228709D01*
X116925848Y-81224549D01*
X116963724Y-81200327D01*
X116991842Y-81164965D01*
X117014917Y-81120343D01*
X116949485Y-81120343D01*
X116909506Y-81122969D01*
X116877997Y-81134230D01*
X116844378Y-81159199D01*
X116818484Y-81183169D01*
X116781817Y-81220441D01*
X116762121Y-81249401D01*
X116754220Y-81280505D01*
X116752914Y-81315713D01*
X116764335Y-81392876D01*
G36*
X116766752Y-81900600D02*
X116774334Y-81917948D01*
X116807128Y-81959356D01*
X116854547Y-81994765D01*
X116905151Y-82016664D01*
X116930098Y-82020229D01*
X116964927Y-82008279D01*
X116983357Y-81982067D01*
X116994516Y-81953964D01*
X116996572Y-81941095D01*
X116981649Y-81934829D01*
X116949175Y-81922456D01*
X116934502Y-81917028D01*
X116883744Y-81886590D01*
X116858427Y-81842520D01*
X116859206Y-81786010D01*
X116860203Y-81781825D01*
X116874507Y-81751655D01*
X116902393Y-81729476D01*
X116947287Y-81714327D01*
X117012615Y-81705250D01*
X117101804Y-81701286D01*
X117149261Y-81700914D01*
X117224071Y-81700730D01*
X117275069Y-81699522D01*
X117307471Y-81696309D01*
X117326495Y-81690109D01*
X117337356Y-81679940D01*
X117345272Y-81664819D01*
X117345670Y-81663946D01*
X117357981Y-81634828D01*
X117362514Y-81620403D01*
X117348809Y-81618186D01*
X117310925Y-81616289D01*
X117253715Y-81614847D01*
X117182027Y-81613998D01*
X117129565Y-81613829D01*
X117028047Y-81614692D01*
X116951032Y-81618070D01*
X116894023Y-81625142D01*
X116852526Y-81637088D01*
X116822043Y-81655090D01*
X116798080Y-81680327D01*
X116781355Y-81705247D01*
X116759097Y-81765171D01*
X116754076Y-81834911D01*
X116766752Y-81900600D01*
X116766752Y-81900600D01*
G37*
X116766752Y-81900600D02*
X116774334Y-81917948D01*
X116807128Y-81959356D01*
X116854547Y-81994765D01*
X116905151Y-82016664D01*
X116930098Y-82020229D01*
X116964927Y-82008279D01*
X116983357Y-81982067D01*
X116994516Y-81953964D01*
X116996572Y-81941095D01*
X116981649Y-81934829D01*
X116949175Y-81922456D01*
X116934502Y-81917028D01*
X116883744Y-81886590D01*
X116858427Y-81842520D01*
X116859206Y-81786010D01*
X116860203Y-81781825D01*
X116874507Y-81751655D01*
X116902393Y-81729476D01*
X116947287Y-81714327D01*
X117012615Y-81705250D01*
X117101804Y-81701286D01*
X117149261Y-81700914D01*
X117224071Y-81700730D01*
X117275069Y-81699522D01*
X117307471Y-81696309D01*
X117326495Y-81690109D01*
X117337356Y-81679940D01*
X117345272Y-81664819D01*
X117345670Y-81663946D01*
X117357981Y-81634828D01*
X117362514Y-81620403D01*
X117348809Y-81618186D01*
X117310925Y-81616289D01*
X117253715Y-81614847D01*
X117182027Y-81613998D01*
X117129565Y-81613829D01*
X117028047Y-81614692D01*
X116951032Y-81618070D01*
X116894023Y-81625142D01*
X116852526Y-81637088D01*
X116822043Y-81655090D01*
X116798080Y-81680327D01*
X116781355Y-81705247D01*
X116759097Y-81765171D01*
X116754076Y-81834911D01*
X116766752Y-81900600D01*
G36*
X116774966Y-82401595D02*
X116812497Y-82459021D01*
X116846096Y-82486719D01*
X116907064Y-82508662D01*
X116955308Y-82510405D01*
X117019816Y-82506457D01*
X117084934Y-82357686D01*
X117118202Y-82285349D01*
X117144964Y-82238084D01*
X117168144Y-82213507D01*
X117190667Y-82209237D01*
X117215455Y-82222889D01*
X117231886Y-82237943D01*
X117258235Y-82281746D01*
X117260081Y-82329389D01*
X117239546Y-82373145D01*
X117198752Y-82405289D01*
X117184347Y-82411038D01*
X117139356Y-82438576D01*
X117120182Y-82470258D01*
X117103779Y-82513714D01*
X117165966Y-82513714D01*
X117208283Y-82509872D01*
X117243969Y-82494823D01*
X117284943Y-82463280D01*
X117290267Y-82458592D01*
X117326720Y-82423506D01*
X117346283Y-82393347D01*
X117355283Y-82355615D01*
X117358230Y-82324335D01*
X117358965Y-82268385D01*
X117349660Y-82228555D01*
X117335846Y-82203708D01*
X117305467Y-82164656D01*
X117272613Y-82137625D01*
X117231294Y-82120517D01*
X117175521Y-82111238D01*
X117099305Y-82107693D01*
X117060622Y-82107410D01*
X117014247Y-82108372D01*
X117014247Y-82196007D01*
X117039126Y-82197023D01*
X117043200Y-82199556D01*
X117037665Y-82216274D01*
X117023017Y-82252249D01*
X117002190Y-82300331D01*
X116997714Y-82310386D01*
X116966814Y-82371152D01*
X116939657Y-82404632D01*
X116914220Y-82411990D01*
X116888481Y-82394391D01*
X116877109Y-82379856D01*
X116854364Y-82327410D01*
X116858122Y-82278322D01*
X116885884Y-82237227D01*
X116935152Y-82208758D01*
X116974257Y-82199631D01*
X117014247Y-82196007D01*
X117014247Y-82108372D01*
X116970249Y-82109285D01*
X116903384Y-82116196D01*
X116854695Y-82129884D01*
X116818849Y-82152096D01*
X116790513Y-82184574D01*
X116781355Y-82198733D01*
X116757507Y-82263053D01*
X116756006Y-82333473D01*
X116774966Y-82401595D01*
X116774966Y-82401595D01*
G37*
X116774966Y-82401595D02*
X116812497Y-82459021D01*
X116846096Y-82486719D01*
X116907064Y-82508662D01*
X116955308Y-82510405D01*
X117019816Y-82506457D01*
X117084934Y-82357686D01*
X117118202Y-82285349D01*
X117144964Y-82238084D01*
X117168144Y-82213507D01*
X117190667Y-82209237D01*
X117215455Y-82222889D01*
X117231886Y-82237943D01*
X117258235Y-82281746D01*
X117260081Y-82329389D01*
X117239546Y-82373145D01*
X117198752Y-82405289D01*
X117184347Y-82411038D01*
X117139356Y-82438576D01*
X117120182Y-82470258D01*
X117103779Y-82513714D01*
X117165966Y-82513714D01*
X117208283Y-82509872D01*
X117243969Y-82494823D01*
X117284943Y-82463280D01*
X117290267Y-82458592D01*
X117326720Y-82423506D01*
X117346283Y-82393347D01*
X117355283Y-82355615D01*
X117358230Y-82324335D01*
X117358965Y-82268385D01*
X117349660Y-82228555D01*
X117335846Y-82203708D01*
X117305467Y-82164656D01*
X117272613Y-82137625D01*
X117231294Y-82120517D01*
X117175521Y-82111238D01*
X117099305Y-82107693D01*
X117060622Y-82107410D01*
X117014247Y-82108372D01*
X117014247Y-82196007D01*
X117039126Y-82197023D01*
X117043200Y-82199556D01*
X117037665Y-82216274D01*
X117023017Y-82252249D01*
X117002190Y-82300331D01*
X116997714Y-82310386D01*
X116966814Y-82371152D01*
X116939657Y-82404632D01*
X116914220Y-82411990D01*
X116888481Y-82394391D01*
X116877109Y-82379856D01*
X116854364Y-82327410D01*
X116858122Y-82278322D01*
X116885884Y-82237227D01*
X116935152Y-82208758D01*
X116974257Y-82199631D01*
X117014247Y-82196007D01*
X117014247Y-82108372D01*
X116970249Y-82109285D01*
X116903384Y-82116196D01*
X116854695Y-82129884D01*
X116818849Y-82152096D01*
X116790513Y-82184574D01*
X116781355Y-82198733D01*
X116757507Y-82263053D01*
X116756006Y-82333473D01*
X116774966Y-82401595D01*
G36*
X112050348Y-79351910D02*
X112050778Y-79430454D01*
X112051942Y-79487298D01*
X112054207Y-79526105D01*
X112057940Y-79550538D01*
X112063506Y-79564262D01*
X112071273Y-79570940D01*
X112081605Y-79574236D01*
X112082943Y-79574556D01*
X112107079Y-79579562D01*
X112154701Y-79588829D01*
X112220741Y-79601392D01*
X112300128Y-79616287D01*
X112387796Y-79632551D01*
X112390875Y-79633119D01*
X112476789Y-79649410D01*
X112552696Y-79664652D01*
X112614045Y-79677861D01*
X112656282Y-79688054D01*
X112674855Y-79694248D01*
X112675184Y-79694543D01*
X112684253Y-79712788D01*
X112699367Y-79750405D01*
X112717262Y-79799271D01*
X112717358Y-79799543D01*
X112740493Y-79861093D01*
X112769965Y-79933657D01*
X112799597Y-80002057D01*
X112801062Y-80005294D01*
X112851626Y-80116702D01*
X112683160Y-80363399D01*
X112631803Y-80439077D01*
X112585889Y-80507631D01*
X112548030Y-80565088D01*
X112520837Y-80607476D01*
X112506921Y-80630825D01*
X112505889Y-80633042D01*
X112510484Y-80650010D01*
X112532655Y-80681701D01*
X112573447Y-80729352D01*
X112633905Y-80794198D01*
X112698227Y-80860397D01*
X112761612Y-80924214D01*
X112819451Y-80981329D01*
X112868175Y-81028305D01*
X112904210Y-81061703D01*
X112923984Y-81078085D01*
X112925002Y-81078694D01*
X112938572Y-81080505D01*
X112960733Y-81073683D01*
X112994478Y-81056540D01*
X113042800Y-81027393D01*
X113108692Y-80984555D01*
X113193517Y-80927448D01*
X113268177Y-80876766D01*
X113335140Y-80831461D01*
X113390516Y-80794150D01*
X113430420Y-80767452D01*
X113450962Y-80753985D01*
X113452356Y-80753137D01*
X113472038Y-80754781D01*
X113510293Y-80767245D01*
X113559889Y-80788048D01*
X113575728Y-80795462D01*
X113646290Y-80827814D01*
X113726353Y-80862328D01*
X113795629Y-80890365D01*
X113847045Y-80910568D01*
X113886119Y-80926615D01*
X113906541Y-80935888D01*
X113908114Y-80937041D01*
X113910721Y-80954096D01*
X113917863Y-80994298D01*
X113928523Y-81052302D01*
X113941685Y-81122763D01*
X113956333Y-81200335D01*
X113971449Y-81279672D01*
X113986018Y-81355431D01*
X113999022Y-81422264D01*
X114009445Y-81474828D01*
X114016270Y-81507776D01*
X114018199Y-81515857D01*
X114022962Y-81524205D01*
X114033718Y-81530506D01*
X114054098Y-81535045D01*
X114087734Y-81538104D01*
X114138255Y-81539967D01*
X114209292Y-81540918D01*
X114304476Y-81541240D01*
X114343492Y-81541257D01*
X114660799Y-81541257D01*
X114675839Y-81465057D01*
X114683995Y-81422663D01*
X114695899Y-81359400D01*
X114710116Y-81282962D01*
X114725210Y-81201043D01*
X114729355Y-81178400D01*
X114744053Y-81102806D01*
X114758505Y-81036953D01*
X114771375Y-80986366D01*
X114781322Y-80956574D01*
X114784287Y-80951612D01*
X114805283Y-80939426D01*
X114845967Y-80921953D01*
X114898322Y-80902577D01*
X114909600Y-80898734D01*
X114979523Y-80873339D01*
X115058418Y-80841817D01*
X115129266Y-80810969D01*
X115129595Y-80810817D01*
X115240733Y-80759447D01*
X115489253Y-80928399D01*
X115737772Y-81097352D01*
X115955058Y-80880429D01*
X116019726Y-80814819D01*
X116076733Y-80754979D01*
X116123033Y-80704267D01*
X116155584Y-80666046D01*
X116171343Y-80643675D01*
X116172343Y-80640466D01*
X116164469Y-80621626D01*
X116142578Y-80583180D01*
X116109267Y-80529330D01*
X116067131Y-80464276D01*
X116019943Y-80393940D01*
X115971810Y-80322555D01*
X115929928Y-80258908D01*
X115896871Y-80207041D01*
X115875218Y-80170995D01*
X115867543Y-80154867D01*
X115874037Y-80135189D01*
X115891150Y-80097875D01*
X115915326Y-80050621D01*
X115918013Y-80045612D01*
X115949927Y-79981977D01*
X115965579Y-79938341D01*
X115965745Y-79911202D01*
X115951204Y-79897057D01*
X115951000Y-79896975D01*
X115933779Y-79889905D01*
X115892899Y-79873042D01*
X115831525Y-79847695D01*
X115752819Y-79815171D01*
X115659947Y-79776778D01*
X115556072Y-79733822D01*
X115455502Y-79692222D01*
X115344516Y-79646504D01*
X115241703Y-79604526D01*
X115150215Y-79567548D01*
X115073201Y-79536827D01*
X115013815Y-79513622D01*
X114975209Y-79499190D01*
X114960800Y-79494743D01*
X114944272Y-79505896D01*
X114917930Y-79535069D01*
X114888887Y-79573971D01*
X114797039Y-79684757D01*
X114691759Y-79771351D01*
X114575266Y-79832716D01*
X114449776Y-79867815D01*
X114317507Y-79875608D01*
X114256457Y-79869943D01*
X114129795Y-79839078D01*
X114017941Y-79785920D01*
X113922001Y-79713767D01*
X113843076Y-79625917D01*
X113782270Y-79525665D01*
X113740687Y-79416310D01*
X113719428Y-79301147D01*
X113719599Y-79183475D01*
X113742301Y-79066590D01*
X113788638Y-78953789D01*
X113859713Y-78848369D01*
X113899911Y-78804368D01*
X114003129Y-78719979D01*
X114115925Y-78661222D01*
X114235010Y-78627704D01*
X114357095Y-78619035D01*
X114478893Y-78634823D01*
X114597116Y-78674678D01*
X114708475Y-78738207D01*
X114809684Y-78825021D01*
X114888887Y-78922029D01*
X114919162Y-78962437D01*
X114945219Y-78990982D01*
X114960825Y-79001257D01*
X114977843Y-78995877D01*
X115018500Y-78980575D01*
X115079642Y-78956612D01*
X115158119Y-78925244D01*
X115250780Y-78887732D01*
X115354472Y-78845333D01*
X115455526Y-78803663D01*
X115566607Y-78757690D01*
X115669541Y-78715107D01*
X115761165Y-78677221D01*
X115838316Y-78645340D01*
X115897831Y-78620771D01*
X115936544Y-78604820D01*
X115951000Y-78598910D01*
X115965685Y-78584948D01*
X115965642Y-78557940D01*
X115950099Y-78514413D01*
X115918284Y-78450890D01*
X115918013Y-78450388D01*
X115893323Y-78402560D01*
X115875338Y-78363897D01*
X115867614Y-78342095D01*
X115867543Y-78341133D01*
X115875378Y-78324721D01*
X115897165Y-78288487D01*
X115930328Y-78236474D01*
X115972291Y-78172725D01*
X116019943Y-78102060D01*
X116068191Y-78030116D01*
X116110151Y-77965274D01*
X116143227Y-77911735D01*
X116164821Y-77873697D01*
X116172343Y-77855533D01*
X116162457Y-77838808D01*
X116134826Y-77805180D01*
X116092495Y-77758010D01*
X116038505Y-77700658D01*
X115975899Y-77636484D01*
X115954983Y-77615497D01*
X115737623Y-77398499D01*
X115495220Y-77563668D01*
X115420781Y-77613864D01*
X115353972Y-77657919D01*
X115298665Y-77693362D01*
X115258729Y-77717719D01*
X115238036Y-77728522D01*
X115236563Y-77728838D01*
X115217058Y-77723143D01*
X115177822Y-77707826D01*
X115125430Y-77685537D01*
X115090355Y-77669893D01*
X115023201Y-77640641D01*
X114955358Y-77613094D01*
X114898034Y-77591737D01*
X114880572Y-77585935D01*
X114833938Y-77569452D01*
X114797905Y-77553340D01*
X114784287Y-77544490D01*
X114775952Y-77524960D01*
X114764137Y-77482334D01*
X114750181Y-77422145D01*
X114735422Y-77349922D01*
X114729355Y-77317600D01*
X114714273Y-77235522D01*
X114699669Y-77156795D01*
X114686980Y-77089109D01*
X114677642Y-77040160D01*
X114675839Y-77030943D01*
X114660799Y-76954743D01*
X114343492Y-76954743D01*
X114239154Y-76954914D01*
X114160213Y-76955616D01*
X114103038Y-76957134D01*
X114063999Y-76959749D01*
X114039465Y-76963746D01*
X114025805Y-76969409D01*
X114019389Y-76977020D01*
X114018199Y-76980143D01*
X114013980Y-76998978D01*
X114005562Y-77040588D01*
X113993961Y-77099630D01*
X113980195Y-77170757D01*
X113965280Y-77248625D01*
X113950232Y-77327887D01*
X113936069Y-77403198D01*
X113923806Y-77469213D01*
X113914461Y-77520587D01*
X113909050Y-77551975D01*
X113908114Y-77558959D01*
X113895596Y-77565285D01*
X113862246Y-77579290D01*
X113814377Y-77598355D01*
X113795629Y-77605634D01*
X113723195Y-77634996D01*
X113643170Y-77669571D01*
X113575728Y-77700537D01*
X113524159Y-77723323D01*
X113481785Y-77738482D01*
X113455834Y-77743542D01*
X113452356Y-77742736D01*
X113435936Y-77732041D01*
X113399417Y-77707620D01*
X113346687Y-77672095D01*
X113281635Y-77628087D01*
X113208151Y-77578217D01*
X113193645Y-77568356D01*
X113107704Y-77510492D01*
X113042261Y-77467956D01*
X112994304Y-77439054D01*
X112960820Y-77422090D01*
X112938795Y-77415367D01*
X112925217Y-77417190D01*
X112925131Y-77417236D01*
X112907297Y-77431586D01*
X112872817Y-77463323D01*
X112825268Y-77509010D01*
X112768222Y-77565204D01*
X112705255Y-77628468D01*
X112698227Y-77635602D01*
X112621020Y-77715330D01*
X112564330Y-77776857D01*
X112527110Y-77821421D01*
X112508315Y-77850257D01*
X112505889Y-77862958D01*
X112516471Y-77881494D01*
X112540916Y-77919961D01*
X112576612Y-77974386D01*
X112620947Y-78040798D01*
X112671311Y-78115225D01*
X112683160Y-78132601D01*
X112851626Y-78379297D01*
X112801062Y-78490706D01*
X112771595Y-78558457D01*
X112741959Y-78631183D01*
X112718330Y-78693703D01*
X112717358Y-78696457D01*
X112699457Y-78745360D01*
X112684320Y-78783057D01*
X112675210Y-78801425D01*
X112675184Y-78801456D01*
X112658717Y-78807285D01*
X112618219Y-78817192D01*
X112558242Y-78830195D01*
X112483340Y-78845309D01*
X112398064Y-78861552D01*
X112390875Y-78862881D01*
X112303014Y-78879175D01*
X112223260Y-78894133D01*
X112156681Y-78906791D01*
X112108347Y-78916186D01*
X112083325Y-78921354D01*
X112082943Y-78921444D01*
X112072299Y-78924589D01*
X112064262Y-78930704D01*
X112058467Y-78943453D01*
X112054547Y-78966500D01*
X112052135Y-79003509D01*
X112050865Y-79058144D01*
X112050371Y-79134067D01*
X112050286Y-79234944D01*
X112050286Y-79248000D01*
X112050348Y-79351910D01*
X112050348Y-79351910D01*
G37*
X112050348Y-79351910D02*
X112050778Y-79430454D01*
X112051942Y-79487298D01*
X112054207Y-79526105D01*
X112057940Y-79550538D01*
X112063506Y-79564262D01*
X112071273Y-79570940D01*
X112081605Y-79574236D01*
X112082943Y-79574556D01*
X112107079Y-79579562D01*
X112154701Y-79588829D01*
X112220741Y-79601392D01*
X112300128Y-79616287D01*
X112387796Y-79632551D01*
X112390875Y-79633119D01*
X112476789Y-79649410D01*
X112552696Y-79664652D01*
X112614045Y-79677861D01*
X112656282Y-79688054D01*
X112674855Y-79694248D01*
X112675184Y-79694543D01*
X112684253Y-79712788D01*
X112699367Y-79750405D01*
X112717262Y-79799271D01*
X112717358Y-79799543D01*
X112740493Y-79861093D01*
X112769965Y-79933657D01*
X112799597Y-80002057D01*
X112801062Y-80005294D01*
X112851626Y-80116702D01*
X112683160Y-80363399D01*
X112631803Y-80439077D01*
X112585889Y-80507631D01*
X112548030Y-80565088D01*
X112520837Y-80607476D01*
X112506921Y-80630825D01*
X112505889Y-80633042D01*
X112510484Y-80650010D01*
X112532655Y-80681701D01*
X112573447Y-80729352D01*
X112633905Y-80794198D01*
X112698227Y-80860397D01*
X112761612Y-80924214D01*
X112819451Y-80981329D01*
X112868175Y-81028305D01*
X112904210Y-81061703D01*
X112923984Y-81078085D01*
X112925002Y-81078694D01*
X112938572Y-81080505D01*
X112960733Y-81073683D01*
X112994478Y-81056540D01*
X113042800Y-81027393D01*
X113108692Y-80984555D01*
X113193517Y-80927448D01*
X113268177Y-80876766D01*
X113335140Y-80831461D01*
X113390516Y-80794150D01*
X113430420Y-80767452D01*
X113450962Y-80753985D01*
X113452356Y-80753137D01*
X113472038Y-80754781D01*
X113510293Y-80767245D01*
X113559889Y-80788048D01*
X113575728Y-80795462D01*
X113646290Y-80827814D01*
X113726353Y-80862328D01*
X113795629Y-80890365D01*
X113847045Y-80910568D01*
X113886119Y-80926615D01*
X113906541Y-80935888D01*
X113908114Y-80937041D01*
X113910721Y-80954096D01*
X113917863Y-80994298D01*
X113928523Y-81052302D01*
X113941685Y-81122763D01*
X113956333Y-81200335D01*
X113971449Y-81279672D01*
X113986018Y-81355431D01*
X113999022Y-81422264D01*
X114009445Y-81474828D01*
X114016270Y-81507776D01*
X114018199Y-81515857D01*
X114022962Y-81524205D01*
X114033718Y-81530506D01*
X114054098Y-81535045D01*
X114087734Y-81538104D01*
X114138255Y-81539967D01*
X114209292Y-81540918D01*
X114304476Y-81541240D01*
X114343492Y-81541257D01*
X114660799Y-81541257D01*
X114675839Y-81465057D01*
X114683995Y-81422663D01*
X114695899Y-81359400D01*
X114710116Y-81282962D01*
X114725210Y-81201043D01*
X114729355Y-81178400D01*
X114744053Y-81102806D01*
X114758505Y-81036953D01*
X114771375Y-80986366D01*
X114781322Y-80956574D01*
X114784287Y-80951612D01*
X114805283Y-80939426D01*
X114845967Y-80921953D01*
X114898322Y-80902577D01*
X114909600Y-80898734D01*
X114979523Y-80873339D01*
X115058418Y-80841817D01*
X115129266Y-80810969D01*
X115129595Y-80810817D01*
X115240733Y-80759447D01*
X115489253Y-80928399D01*
X115737772Y-81097352D01*
X115955058Y-80880429D01*
X116019726Y-80814819D01*
X116076733Y-80754979D01*
X116123033Y-80704267D01*
X116155584Y-80666046D01*
X116171343Y-80643675D01*
X116172343Y-80640466D01*
X116164469Y-80621626D01*
X116142578Y-80583180D01*
X116109267Y-80529330D01*
X116067131Y-80464276D01*
X116019943Y-80393940D01*
X115971810Y-80322555D01*
X115929928Y-80258908D01*
X115896871Y-80207041D01*
X115875218Y-80170995D01*
X115867543Y-80154867D01*
X115874037Y-80135189D01*
X115891150Y-80097875D01*
X115915326Y-80050621D01*
X115918013Y-80045612D01*
X115949927Y-79981977D01*
X115965579Y-79938341D01*
X115965745Y-79911202D01*
X115951204Y-79897057D01*
X115951000Y-79896975D01*
X115933779Y-79889905D01*
X115892899Y-79873042D01*
X115831525Y-79847695D01*
X115752819Y-79815171D01*
X115659947Y-79776778D01*
X115556072Y-79733822D01*
X115455502Y-79692222D01*
X115344516Y-79646504D01*
X115241703Y-79604526D01*
X115150215Y-79567548D01*
X115073201Y-79536827D01*
X115013815Y-79513622D01*
X114975209Y-79499190D01*
X114960800Y-79494743D01*
X114944272Y-79505896D01*
X114917930Y-79535069D01*
X114888887Y-79573971D01*
X114797039Y-79684757D01*
X114691759Y-79771351D01*
X114575266Y-79832716D01*
X114449776Y-79867815D01*
X114317507Y-79875608D01*
X114256457Y-79869943D01*
X114129795Y-79839078D01*
X114017941Y-79785920D01*
X113922001Y-79713767D01*
X113843076Y-79625917D01*
X113782270Y-79525665D01*
X113740687Y-79416310D01*
X113719428Y-79301147D01*
X113719599Y-79183475D01*
X113742301Y-79066590D01*
X113788638Y-78953789D01*
X113859713Y-78848369D01*
X113899911Y-78804368D01*
X114003129Y-78719979D01*
X114115925Y-78661222D01*
X114235010Y-78627704D01*
X114357095Y-78619035D01*
X114478893Y-78634823D01*
X114597116Y-78674678D01*
X114708475Y-78738207D01*
X114809684Y-78825021D01*
X114888887Y-78922029D01*
X114919162Y-78962437D01*
X114945219Y-78990982D01*
X114960825Y-79001257D01*
X114977843Y-78995877D01*
X115018500Y-78980575D01*
X115079642Y-78956612D01*
X115158119Y-78925244D01*
X115250780Y-78887732D01*
X115354472Y-78845333D01*
X115455526Y-78803663D01*
X115566607Y-78757690D01*
X115669541Y-78715107D01*
X115761165Y-78677221D01*
X115838316Y-78645340D01*
X115897831Y-78620771D01*
X115936544Y-78604820D01*
X115951000Y-78598910D01*
X115965685Y-78584948D01*
X115965642Y-78557940D01*
X115950099Y-78514413D01*
X115918284Y-78450890D01*
X115918013Y-78450388D01*
X115893323Y-78402560D01*
X115875338Y-78363897D01*
X115867614Y-78342095D01*
X115867543Y-78341133D01*
X115875378Y-78324721D01*
X115897165Y-78288487D01*
X115930328Y-78236474D01*
X115972291Y-78172725D01*
X116019943Y-78102060D01*
X116068191Y-78030116D01*
X116110151Y-77965274D01*
X116143227Y-77911735D01*
X116164821Y-77873697D01*
X116172343Y-77855533D01*
X116162457Y-77838808D01*
X116134826Y-77805180D01*
X116092495Y-77758010D01*
X116038505Y-77700658D01*
X115975899Y-77636484D01*
X115954983Y-77615497D01*
X115737623Y-77398499D01*
X115495220Y-77563668D01*
X115420781Y-77613864D01*
X115353972Y-77657919D01*
X115298665Y-77693362D01*
X115258729Y-77717719D01*
X115238036Y-77728522D01*
X115236563Y-77728838D01*
X115217058Y-77723143D01*
X115177822Y-77707826D01*
X115125430Y-77685537D01*
X115090355Y-77669893D01*
X115023201Y-77640641D01*
X114955358Y-77613094D01*
X114898034Y-77591737D01*
X114880572Y-77585935D01*
X114833938Y-77569452D01*
X114797905Y-77553340D01*
X114784287Y-77544490D01*
X114775952Y-77524960D01*
X114764137Y-77482334D01*
X114750181Y-77422145D01*
X114735422Y-77349922D01*
X114729355Y-77317600D01*
X114714273Y-77235522D01*
X114699669Y-77156795D01*
X114686980Y-77089109D01*
X114677642Y-77040160D01*
X114675839Y-77030943D01*
X114660799Y-76954743D01*
X114343492Y-76954743D01*
X114239154Y-76954914D01*
X114160213Y-76955616D01*
X114103038Y-76957134D01*
X114063999Y-76959749D01*
X114039465Y-76963746D01*
X114025805Y-76969409D01*
X114019389Y-76977020D01*
X114018199Y-76980143D01*
X114013980Y-76998978D01*
X114005562Y-77040588D01*
X113993961Y-77099630D01*
X113980195Y-77170757D01*
X113965280Y-77248625D01*
X113950232Y-77327887D01*
X113936069Y-77403198D01*
X113923806Y-77469213D01*
X113914461Y-77520587D01*
X113909050Y-77551975D01*
X113908114Y-77558959D01*
X113895596Y-77565285D01*
X113862246Y-77579290D01*
X113814377Y-77598355D01*
X113795629Y-77605634D01*
X113723195Y-77634996D01*
X113643170Y-77669571D01*
X113575728Y-77700537D01*
X113524159Y-77723323D01*
X113481785Y-77738482D01*
X113455834Y-77743542D01*
X113452356Y-77742736D01*
X113435936Y-77732041D01*
X113399417Y-77707620D01*
X113346687Y-77672095D01*
X113281635Y-77628087D01*
X113208151Y-77578217D01*
X113193645Y-77568356D01*
X113107704Y-77510492D01*
X113042261Y-77467956D01*
X112994304Y-77439054D01*
X112960820Y-77422090D01*
X112938795Y-77415367D01*
X112925217Y-77417190D01*
X112925131Y-77417236D01*
X112907297Y-77431586D01*
X112872817Y-77463323D01*
X112825268Y-77509010D01*
X112768222Y-77565204D01*
X112705255Y-77628468D01*
X112698227Y-77635602D01*
X112621020Y-77715330D01*
X112564330Y-77776857D01*
X112527110Y-77821421D01*
X112508315Y-77850257D01*
X112505889Y-77862958D01*
X112516471Y-77881494D01*
X112540916Y-77919961D01*
X112576612Y-77974386D01*
X112620947Y-78040798D01*
X112671311Y-78115225D01*
X112683160Y-78132601D01*
X112851626Y-78379297D01*
X112801062Y-78490706D01*
X112771595Y-78558457D01*
X112741959Y-78631183D01*
X112718330Y-78693703D01*
X112717358Y-78696457D01*
X112699457Y-78745360D01*
X112684320Y-78783057D01*
X112675210Y-78801425D01*
X112675184Y-78801456D01*
X112658717Y-78807285D01*
X112618219Y-78817192D01*
X112558242Y-78830195D01*
X112483340Y-78845309D01*
X112398064Y-78861552D01*
X112390875Y-78862881D01*
X112303014Y-78879175D01*
X112223260Y-78894133D01*
X112156681Y-78906791D01*
X112108347Y-78916186D01*
X112083325Y-78921354D01*
X112082943Y-78921444D01*
X112072299Y-78924589D01*
X112064262Y-78930704D01*
X112058467Y-78943453D01*
X112054547Y-78966500D01*
X112052135Y-79003509D01*
X112050865Y-79058144D01*
X112050371Y-79134067D01*
X112050286Y-79234944D01*
X112050286Y-79248000D01*
X112050348Y-79351910D01*
D13*
X119796000Y-50184000D02*
X119796000Y-50884000D01*
X120996000Y-50884000D02*
X120996000Y-50184000D01*
X140050000Y-47914000D02*
X139350000Y-47914000D01*
X139350000Y-49114000D02*
X140050000Y-49114000D01*
X138776000Y-63342000D02*
X138776000Y-62642000D01*
X137576000Y-62642000D02*
X137576000Y-63342000D01*
X140050000Y-64678000D02*
X139350000Y-64678000D01*
X139350000Y-65878000D02*
X140050000Y-65878000D01*
X136490000Y-55976000D02*
X136490000Y-55276000D01*
X135290000Y-55276000D02*
X135290000Y-55976000D01*
X136490000Y-52420000D02*
X136490000Y-51720000D01*
X135290000Y-51720000D02*
X135290000Y-52420000D01*
X119796000Y-56939000D02*
X119796000Y-57639000D01*
X120996000Y-57639000D02*
X120996000Y-56939000D01*
X119796000Y-53486000D02*
X119796000Y-54186000D01*
X120996000Y-54186000D02*
X120996000Y-53486000D01*
X136490000Y-62580000D02*
X136490000Y-61880000D01*
X135290000Y-61880000D02*
X135290000Y-62580000D01*
X136490000Y-59024000D02*
X136490000Y-58324000D01*
X135290000Y-58324000D02*
X135290000Y-59024000D01*
X137576000Y-50450000D02*
X137576000Y-51150000D01*
X138776000Y-51150000D02*
X138776000Y-50450000D01*
X138676000Y-59772000D02*
X137676000Y-59772000D01*
X137676000Y-61132000D02*
X138676000Y-61132000D01*
X138676000Y-57994000D02*
X137676000Y-57994000D01*
X137676000Y-59354000D02*
X138676000Y-59354000D01*
X141216000Y-49612000D02*
X140216000Y-49612000D01*
X140216000Y-50972000D02*
X141216000Y-50972000D01*
X117938000Y-50034000D02*
X117938000Y-51034000D01*
X119298000Y-51034000D02*
X119298000Y-50034000D01*
X122854000Y-51034000D02*
X122854000Y-50034000D01*
X121494000Y-50034000D02*
X121494000Y-51034000D01*
X147070000Y-53676000D02*
X146070000Y-53676000D01*
X146070000Y-55036000D02*
X147070000Y-55036000D01*
X144190000Y-51300000D02*
X144190000Y-50300000D01*
X142830000Y-50300000D02*
X142830000Y-51300000D01*
X150094000Y-53676000D02*
X149094000Y-53676000D01*
X149094000Y-55036000D02*
X150094000Y-55036000D01*
X117938000Y-56650000D02*
X117938000Y-57650000D01*
X119298000Y-57650000D02*
X119298000Y-56650000D01*
X147070000Y-57486000D02*
X146070000Y-57486000D01*
X146070000Y-58846000D02*
X147070000Y-58846000D01*
X122854000Y-57765000D02*
X122854000Y-56765000D01*
X121494000Y-56765000D02*
X121494000Y-57765000D01*
X117938000Y-53336000D02*
X117938000Y-54336000D01*
X119298000Y-54336000D02*
X119298000Y-53336000D01*
X122854000Y-54336000D02*
X122854000Y-53336000D01*
X121494000Y-53336000D02*
X121494000Y-54336000D01*
X150094000Y-57486000D02*
X149094000Y-57486000D01*
X149094000Y-58846000D02*
X150094000Y-58846000D01*
X138676000Y-52914000D02*
X137676000Y-52914000D01*
X137676000Y-54274000D02*
X138676000Y-54274000D01*
X150118000Y-59264000D02*
X149118000Y-59264000D01*
X149118000Y-60624000D02*
X150118000Y-60624000D01*
X147070000Y-59264000D02*
X146070000Y-59264000D01*
X146070000Y-60624000D02*
X147070000Y-60624000D01*
X150118000Y-55454000D02*
X149118000Y-55454000D01*
X149118000Y-56814000D02*
X150118000Y-56814000D01*
X147070000Y-55454000D02*
X146070000Y-55454000D01*
X146070000Y-56814000D02*
X147070000Y-56814000D01*
X143502000Y-63328000D02*
X142502000Y-63328000D01*
X142502000Y-64688000D02*
X143502000Y-64688000D01*
X139528000Y-62238000D02*
X139528000Y-63238000D01*
X140888000Y-63238000D02*
X140888000Y-62238000D01*
D11*
X118880095Y-44970666D02*
X118308666Y-44970666D01*
X118194380Y-45008761D01*
X118118190Y-45084952D01*
X118080095Y-45199238D01*
X118080095Y-45275428D01*
X118880095Y-44665904D02*
X118880095Y-44132571D01*
X118080095Y-44475428D01*
X126500095Y-44970666D02*
X125928666Y-44970666D01*
X125814380Y-45008761D01*
X125738190Y-45084952D01*
X125700095Y-45199238D01*
X125700095Y-45275428D01*
X126423904Y-44627809D02*
X126462000Y-44589714D01*
X126500095Y-44513523D01*
X126500095Y-44323047D01*
X126462000Y-44246857D01*
X126423904Y-44208761D01*
X126347714Y-44170666D01*
X126271523Y-44170666D01*
X126157238Y-44208761D01*
X125700095Y-44665904D01*
X125700095Y-44170666D01*
X122690095Y-44970666D02*
X122118666Y-44970666D01*
X122004380Y-45008761D01*
X121928190Y-45084952D01*
X121890095Y-45199238D01*
X121890095Y-45275428D01*
X122690095Y-44246857D02*
X122690095Y-44399238D01*
X122652000Y-44475428D01*
X122613904Y-44513523D01*
X122499619Y-44589714D01*
X122347238Y-44627809D01*
X122042476Y-44627809D01*
X121966285Y-44589714D01*
X121928190Y-44551619D01*
X121890095Y-44475428D01*
X121890095Y-44323047D01*
X121928190Y-44246857D01*
X121966285Y-44208761D01*
X122042476Y-44170666D01*
X122232952Y-44170666D01*
X122309142Y-44208761D01*
X122347238Y-44246857D01*
X122385333Y-44323047D01*
X122385333Y-44475428D01*
X122347238Y-44551619D01*
X122309142Y-44589714D01*
X122232952Y-44627809D01*
X134981904Y-55492666D02*
X134600952Y-55226000D01*
X134981904Y-55035523D02*
X134181904Y-55035523D01*
X134181904Y-55340285D01*
X134220000Y-55416476D01*
X134258095Y-55454571D01*
X134334285Y-55492666D01*
X134448571Y-55492666D01*
X134524761Y-55454571D01*
X134562857Y-55416476D01*
X134600952Y-55340285D01*
X134600952Y-55035523D01*
X134181904Y-55759333D02*
X134181904Y-56292666D01*
X134981904Y-55949809D01*
X140220666Y-71013904D02*
X140220666Y-71585333D01*
X140258761Y-71699619D01*
X140334952Y-71775809D01*
X140449238Y-71813904D01*
X140525428Y-71813904D01*
X139801619Y-71813904D02*
X139649238Y-71813904D01*
X139573047Y-71775809D01*
X139534952Y-71737714D01*
X139458761Y-71623428D01*
X139420666Y-71471047D01*
X139420666Y-71166285D01*
X139458761Y-71090095D01*
X139496857Y-71052000D01*
X139573047Y-71013904D01*
X139725428Y-71013904D01*
X139801619Y-71052000D01*
X139839714Y-71090095D01*
X139877809Y-71166285D01*
X139877809Y-71356761D01*
X139839714Y-71432952D01*
X139801619Y-71471047D01*
X139725428Y-71509142D01*
X139573047Y-71509142D01*
X139496857Y-71471047D01*
X139458761Y-71432952D01*
X139420666Y-71356761D01*
X125253714Y-50285714D02*
X125291809Y-50247619D01*
X125329904Y-50133333D01*
X125329904Y-50057142D01*
X125291809Y-49942857D01*
X125215619Y-49866666D01*
X125139428Y-49828571D01*
X124987047Y-49790476D01*
X124872761Y-49790476D01*
X124720380Y-49828571D01*
X124644190Y-49866666D01*
X124568000Y-49942857D01*
X124529904Y-50057142D01*
X124529904Y-50133333D01*
X124568000Y-50247619D01*
X124606095Y-50285714D01*
X125329904Y-51047619D02*
X125329904Y-50590476D01*
X125329904Y-50819047D02*
X124529904Y-50819047D01*
X124644190Y-50742857D01*
X124720380Y-50666666D01*
X124758476Y-50590476D01*
X125329904Y-51809523D02*
X125329904Y-51352380D01*
X125329904Y-51580952D02*
X124529904Y-51580952D01*
X124644190Y-51504761D01*
X124720380Y-51428571D01*
X124758476Y-51352380D01*
X142119333Y-48799714D02*
X142157428Y-48837809D01*
X142271714Y-48875904D01*
X142347904Y-48875904D01*
X142462190Y-48837809D01*
X142538380Y-48761619D01*
X142576476Y-48685428D01*
X142614571Y-48533047D01*
X142614571Y-48418761D01*
X142576476Y-48266380D01*
X142538380Y-48190190D01*
X142462190Y-48114000D01*
X142347904Y-48075904D01*
X142271714Y-48075904D01*
X142157428Y-48114000D01*
X142119333Y-48152095D01*
X141738380Y-48875904D02*
X141586000Y-48875904D01*
X141509809Y-48837809D01*
X141471714Y-48799714D01*
X141395523Y-48685428D01*
X141357428Y-48533047D01*
X141357428Y-48228285D01*
X141395523Y-48152095D01*
X141433619Y-48114000D01*
X141509809Y-48075904D01*
X141662190Y-48075904D01*
X141738380Y-48114000D01*
X141776476Y-48152095D01*
X141814571Y-48228285D01*
X141814571Y-48418761D01*
X141776476Y-48494952D01*
X141738380Y-48533047D01*
X141662190Y-48571142D01*
X141509809Y-48571142D01*
X141433619Y-48533047D01*
X141395523Y-48494952D01*
X141357428Y-48418761D01*
X133635714Y-62350666D02*
X133673809Y-62312571D01*
X133711904Y-62198285D01*
X133711904Y-62122095D01*
X133673809Y-62007809D01*
X133597619Y-61931619D01*
X133521428Y-61893523D01*
X133369047Y-61855428D01*
X133254761Y-61855428D01*
X133102380Y-61893523D01*
X133026190Y-61931619D01*
X132950000Y-62007809D01*
X132911904Y-62122095D01*
X132911904Y-62198285D01*
X132950000Y-62312571D01*
X132988095Y-62350666D01*
X132988095Y-62655428D02*
X132950000Y-62693523D01*
X132911904Y-62769714D01*
X132911904Y-62960190D01*
X132950000Y-63036380D01*
X132988095Y-63074476D01*
X133064285Y-63112571D01*
X133140476Y-63112571D01*
X133254761Y-63074476D01*
X133711904Y-62617333D01*
X133711904Y-63112571D01*
X142119333Y-65817714D02*
X142157428Y-65855809D01*
X142271714Y-65893904D01*
X142347904Y-65893904D01*
X142462190Y-65855809D01*
X142538380Y-65779619D01*
X142576476Y-65703428D01*
X142614571Y-65551047D01*
X142614571Y-65436761D01*
X142576476Y-65284380D01*
X142538380Y-65208190D01*
X142462190Y-65132000D01*
X142347904Y-65093904D01*
X142271714Y-65093904D01*
X142157428Y-65132000D01*
X142119333Y-65170095D01*
X141357428Y-65893904D02*
X141814571Y-65893904D01*
X141586000Y-65893904D02*
X141586000Y-65093904D01*
X141662190Y-65208190D01*
X141738380Y-65284380D01*
X141814571Y-65322476D01*
X133635714Y-55492666D02*
X133673809Y-55454571D01*
X133711904Y-55340285D01*
X133711904Y-55264095D01*
X133673809Y-55149809D01*
X133597619Y-55073619D01*
X133521428Y-55035523D01*
X133369047Y-54997428D01*
X133254761Y-54997428D01*
X133102380Y-55035523D01*
X133026190Y-55073619D01*
X132950000Y-55149809D01*
X132911904Y-55264095D01*
X132911904Y-55340285D01*
X132950000Y-55454571D01*
X132988095Y-55492666D01*
X132911904Y-55759333D02*
X132911904Y-56254571D01*
X133216666Y-55987904D01*
X133216666Y-56102190D01*
X133254761Y-56178380D01*
X133292857Y-56216476D01*
X133369047Y-56254571D01*
X133559523Y-56254571D01*
X133635714Y-56216476D01*
X133673809Y-56178380D01*
X133711904Y-56102190D01*
X133711904Y-55873619D01*
X133673809Y-55797428D01*
X133635714Y-55759333D01*
X132111714Y-52190666D02*
X132149809Y-52152571D01*
X132187904Y-52038285D01*
X132187904Y-51962095D01*
X132149809Y-51847809D01*
X132073619Y-51771619D01*
X131997428Y-51733523D01*
X131845047Y-51695428D01*
X131730761Y-51695428D01*
X131578380Y-51733523D01*
X131502190Y-51771619D01*
X131426000Y-51847809D01*
X131387904Y-51962095D01*
X131387904Y-52038285D01*
X131426000Y-52152571D01*
X131464095Y-52190666D01*
X131654571Y-52876380D02*
X132187904Y-52876380D01*
X131349809Y-52685904D02*
X131921238Y-52495428D01*
X131921238Y-52990666D01*
X125253714Y-57270666D02*
X125291809Y-57232571D01*
X125329904Y-57118285D01*
X125329904Y-57042095D01*
X125291809Y-56927809D01*
X125215619Y-56851619D01*
X125139428Y-56813523D01*
X124987047Y-56775428D01*
X124872761Y-56775428D01*
X124720380Y-56813523D01*
X124644190Y-56851619D01*
X124568000Y-56927809D01*
X124529904Y-57042095D01*
X124529904Y-57118285D01*
X124568000Y-57232571D01*
X124606095Y-57270666D01*
X124529904Y-57994476D02*
X124529904Y-57613523D01*
X124910857Y-57575428D01*
X124872761Y-57613523D01*
X124834666Y-57689714D01*
X124834666Y-57880190D01*
X124872761Y-57956380D01*
X124910857Y-57994476D01*
X124987047Y-58032571D01*
X125177523Y-58032571D01*
X125253714Y-57994476D01*
X125291809Y-57956380D01*
X125329904Y-57880190D01*
X125329904Y-57689714D01*
X125291809Y-57613523D01*
X125253714Y-57575428D01*
X125253714Y-53702666D02*
X125291809Y-53664571D01*
X125329904Y-53550285D01*
X125329904Y-53474095D01*
X125291809Y-53359809D01*
X125215619Y-53283619D01*
X125139428Y-53245523D01*
X124987047Y-53207428D01*
X124872761Y-53207428D01*
X124720380Y-53245523D01*
X124644190Y-53283619D01*
X124568000Y-53359809D01*
X124529904Y-53474095D01*
X124529904Y-53550285D01*
X124568000Y-53664571D01*
X124606095Y-53702666D01*
X124529904Y-54388380D02*
X124529904Y-54236000D01*
X124568000Y-54159809D01*
X124606095Y-54121714D01*
X124720380Y-54045523D01*
X124872761Y-54007428D01*
X125177523Y-54007428D01*
X125253714Y-54045523D01*
X125291809Y-54083619D01*
X125329904Y-54159809D01*
X125329904Y-54312190D01*
X125291809Y-54388380D01*
X125253714Y-54426476D01*
X125177523Y-54464571D01*
X124987047Y-54464571D01*
X124910857Y-54426476D01*
X124872761Y-54388380D01*
X124834666Y-54312190D01*
X124834666Y-54159809D01*
X124872761Y-54083619D01*
X124910857Y-54045523D01*
X124987047Y-54007428D01*
X132365714Y-62350666D02*
X132403809Y-62312571D01*
X132441904Y-62198285D01*
X132441904Y-62122095D01*
X132403809Y-62007809D01*
X132327619Y-61931619D01*
X132251428Y-61893523D01*
X132099047Y-61855428D01*
X131984761Y-61855428D01*
X131832380Y-61893523D01*
X131756190Y-61931619D01*
X131680000Y-62007809D01*
X131641904Y-62122095D01*
X131641904Y-62198285D01*
X131680000Y-62312571D01*
X131718095Y-62350666D01*
X131641904Y-62617333D02*
X131641904Y-63150666D01*
X132441904Y-62807809D01*
X132111714Y-58794666D02*
X132149809Y-58756571D01*
X132187904Y-58642285D01*
X132187904Y-58566095D01*
X132149809Y-58451809D01*
X132073619Y-58375619D01*
X131997428Y-58337523D01*
X131845047Y-58299428D01*
X131730761Y-58299428D01*
X131578380Y-58337523D01*
X131502190Y-58375619D01*
X131426000Y-58451809D01*
X131387904Y-58566095D01*
X131387904Y-58642285D01*
X131426000Y-58756571D01*
X131464095Y-58794666D01*
X131730761Y-59251809D02*
X131692666Y-59175619D01*
X131654571Y-59137523D01*
X131578380Y-59099428D01*
X131540285Y-59099428D01*
X131464095Y-59137523D01*
X131426000Y-59175619D01*
X131387904Y-59251809D01*
X131387904Y-59404190D01*
X131426000Y-59480380D01*
X131464095Y-59518476D01*
X131540285Y-59556571D01*
X131578380Y-59556571D01*
X131654571Y-59518476D01*
X131692666Y-59480380D01*
X131730761Y-59404190D01*
X131730761Y-59251809D01*
X131768857Y-59175619D01*
X131806952Y-59137523D01*
X131883142Y-59099428D01*
X132035523Y-59099428D01*
X132111714Y-59137523D01*
X132149809Y-59175619D01*
X132187904Y-59251809D01*
X132187904Y-59404190D01*
X132149809Y-59480380D01*
X132111714Y-59518476D01*
X132035523Y-59556571D01*
X131883142Y-59556571D01*
X131806952Y-59518476D01*
X131768857Y-59480380D01*
X131730761Y-59404190D01*
X133381714Y-51809714D02*
X133419809Y-51771619D01*
X133457904Y-51657333D01*
X133457904Y-51581142D01*
X133419809Y-51466857D01*
X133343619Y-51390666D01*
X133267428Y-51352571D01*
X133115047Y-51314476D01*
X133000761Y-51314476D01*
X132848380Y-51352571D01*
X132772190Y-51390666D01*
X132696000Y-51466857D01*
X132657904Y-51581142D01*
X132657904Y-51657333D01*
X132696000Y-51771619D01*
X132734095Y-51809714D01*
X133457904Y-52571619D02*
X133457904Y-52114476D01*
X133457904Y-52343047D02*
X132657904Y-52343047D01*
X132772190Y-52266857D01*
X132848380Y-52190666D01*
X132886476Y-52114476D01*
X132657904Y-53066857D02*
X132657904Y-53143047D01*
X132696000Y-53219238D01*
X132734095Y-53257333D01*
X132810285Y-53295428D01*
X132962666Y-53333523D01*
X133153142Y-53333523D01*
X133305523Y-53295428D01*
X133381714Y-53257333D01*
X133419809Y-53219238D01*
X133457904Y-53143047D01*
X133457904Y-53066857D01*
X133419809Y-52990666D01*
X133381714Y-52952571D01*
X133305523Y-52914476D01*
X133153142Y-52876380D01*
X132962666Y-52876380D01*
X132810285Y-52914476D01*
X132734095Y-52952571D01*
X132696000Y-52990666D01*
X132657904Y-53066857D01*
X134727904Y-58413714D02*
X134346952Y-58147047D01*
X134727904Y-57956571D02*
X133927904Y-57956571D01*
X133927904Y-58261333D01*
X133966000Y-58337523D01*
X134004095Y-58375619D01*
X134080285Y-58413714D01*
X134194571Y-58413714D01*
X134270761Y-58375619D01*
X134308857Y-58337523D01*
X134346952Y-58261333D01*
X134346952Y-57956571D01*
X134727904Y-59175619D02*
X134727904Y-58718476D01*
X134727904Y-58947047D02*
X133927904Y-58947047D01*
X134042190Y-58870857D01*
X134118380Y-58794666D01*
X134156476Y-58718476D01*
X133927904Y-59442285D02*
X133927904Y-59975619D01*
X134727904Y-59632761D01*
X133457904Y-58413714D02*
X133076952Y-58147047D01*
X133457904Y-57956571D02*
X132657904Y-57956571D01*
X132657904Y-58261333D01*
X132696000Y-58337523D01*
X132734095Y-58375619D01*
X132810285Y-58413714D01*
X132924571Y-58413714D01*
X133000761Y-58375619D01*
X133038857Y-58337523D01*
X133076952Y-58261333D01*
X133076952Y-57956571D01*
X133457904Y-59175619D02*
X133457904Y-58718476D01*
X133457904Y-58947047D02*
X132657904Y-58947047D01*
X132772190Y-58870857D01*
X132848380Y-58794666D01*
X132886476Y-58718476D01*
X133000761Y-59632761D02*
X132962666Y-59556571D01*
X132924571Y-59518476D01*
X132848380Y-59480380D01*
X132810285Y-59480380D01*
X132734095Y-59518476D01*
X132696000Y-59556571D01*
X132657904Y-59632761D01*
X132657904Y-59785142D01*
X132696000Y-59861333D01*
X132734095Y-59899428D01*
X132810285Y-59937523D01*
X132848380Y-59937523D01*
X132924571Y-59899428D01*
X132962666Y-59861333D01*
X133000761Y-59785142D01*
X133000761Y-59632761D01*
X133038857Y-59556571D01*
X133076952Y-59518476D01*
X133153142Y-59480380D01*
X133305523Y-59480380D01*
X133381714Y-59518476D01*
X133419809Y-59556571D01*
X133457904Y-59632761D01*
X133457904Y-59785142D01*
X133419809Y-59861333D01*
X133381714Y-59899428D01*
X133305523Y-59937523D01*
X133153142Y-59937523D01*
X133076952Y-59899428D01*
X133038857Y-59861333D01*
X133000761Y-59785142D01*
X142601904Y-51555714D02*
X142220952Y-51289047D01*
X142601904Y-51098571D02*
X141801904Y-51098571D01*
X141801904Y-51403333D01*
X141840000Y-51479523D01*
X141878095Y-51517619D01*
X141954285Y-51555714D01*
X142068571Y-51555714D01*
X142144761Y-51517619D01*
X142182857Y-51479523D01*
X142220952Y-51403333D01*
X142220952Y-51098571D01*
X141878095Y-51860476D02*
X141840000Y-51898571D01*
X141801904Y-51974761D01*
X141801904Y-52165238D01*
X141840000Y-52241428D01*
X141878095Y-52279523D01*
X141954285Y-52317619D01*
X142030476Y-52317619D01*
X142144761Y-52279523D01*
X142601904Y-51822380D01*
X142601904Y-52317619D01*
X141801904Y-52812857D02*
X141801904Y-52889047D01*
X141840000Y-52965238D01*
X141878095Y-53003333D01*
X141954285Y-53041428D01*
X142106666Y-53079523D01*
X142297142Y-53079523D01*
X142449523Y-53041428D01*
X142525714Y-53003333D01*
X142563809Y-52965238D01*
X142601904Y-52889047D01*
X142601904Y-52812857D01*
X142563809Y-52736666D01*
X142525714Y-52698571D01*
X142449523Y-52660476D01*
X142297142Y-52622380D01*
X142106666Y-52622380D01*
X141954285Y-52660476D01*
X141878095Y-52698571D01*
X141840000Y-52736666D01*
X141801904Y-52812857D01*
X124059904Y-50285714D02*
X123678952Y-50019047D01*
X124059904Y-49828571D02*
X123259904Y-49828571D01*
X123259904Y-50133333D01*
X123298000Y-50209523D01*
X123336095Y-50247619D01*
X123412285Y-50285714D01*
X123526571Y-50285714D01*
X123602761Y-50247619D01*
X123640857Y-50209523D01*
X123678952Y-50133333D01*
X123678952Y-49828571D01*
X123336095Y-50590476D02*
X123298000Y-50628571D01*
X123259904Y-50704761D01*
X123259904Y-50895238D01*
X123298000Y-50971428D01*
X123336095Y-51009523D01*
X123412285Y-51047619D01*
X123488476Y-51047619D01*
X123602761Y-51009523D01*
X124059904Y-50552380D01*
X124059904Y-51047619D01*
X124059904Y-51809523D02*
X124059904Y-51352380D01*
X124059904Y-51580952D02*
X123259904Y-51580952D01*
X123374190Y-51504761D01*
X123450380Y-51428571D01*
X123488476Y-51352380D01*
X126599904Y-50285714D02*
X126218952Y-50019047D01*
X126599904Y-49828571D02*
X125799904Y-49828571D01*
X125799904Y-50133333D01*
X125838000Y-50209523D01*
X125876095Y-50247619D01*
X125952285Y-50285714D01*
X126066571Y-50285714D01*
X126142761Y-50247619D01*
X126180857Y-50209523D01*
X126218952Y-50133333D01*
X126218952Y-49828571D01*
X125876095Y-50590476D02*
X125838000Y-50628571D01*
X125799904Y-50704761D01*
X125799904Y-50895238D01*
X125838000Y-50971428D01*
X125876095Y-51009523D01*
X125952285Y-51047619D01*
X126028476Y-51047619D01*
X126142761Y-51009523D01*
X126599904Y-50552380D01*
X126599904Y-51047619D01*
X125876095Y-51352380D02*
X125838000Y-51390476D01*
X125799904Y-51466666D01*
X125799904Y-51657142D01*
X125838000Y-51733333D01*
X125876095Y-51771428D01*
X125952285Y-51809523D01*
X126028476Y-51809523D01*
X126142761Y-51771428D01*
X126599904Y-51314285D01*
X126599904Y-51809523D01*
X152253904Y-53587714D02*
X151872952Y-53321047D01*
X152253904Y-53130571D02*
X151453904Y-53130571D01*
X151453904Y-53435333D01*
X151492000Y-53511523D01*
X151530095Y-53549619D01*
X151606285Y-53587714D01*
X151720571Y-53587714D01*
X151796761Y-53549619D01*
X151834857Y-53511523D01*
X151872952Y-53435333D01*
X151872952Y-53130571D01*
X152253904Y-54349619D02*
X152253904Y-53892476D01*
X152253904Y-54121047D02*
X151453904Y-54121047D01*
X151568190Y-54044857D01*
X151644380Y-53968666D01*
X151682476Y-53892476D01*
X151453904Y-55035333D02*
X151453904Y-54882952D01*
X151492000Y-54806761D01*
X151530095Y-54768666D01*
X151644380Y-54692476D01*
X151796761Y-54654380D01*
X152101523Y-54654380D01*
X152177714Y-54692476D01*
X152215809Y-54730571D01*
X152253904Y-54806761D01*
X152253904Y-54959142D01*
X152215809Y-55035333D01*
X152177714Y-55073428D01*
X152101523Y-55111523D01*
X151911047Y-55111523D01*
X151834857Y-55073428D01*
X151796761Y-55035333D01*
X151758666Y-54959142D01*
X151758666Y-54806761D01*
X151796761Y-54730571D01*
X151834857Y-54692476D01*
X151911047Y-54654380D01*
X145395904Y-50285714D02*
X145014952Y-50019047D01*
X145395904Y-49828571D02*
X144595904Y-49828571D01*
X144595904Y-50133333D01*
X144634000Y-50209523D01*
X144672095Y-50247619D01*
X144748285Y-50285714D01*
X144862571Y-50285714D01*
X144938761Y-50247619D01*
X144976857Y-50209523D01*
X145014952Y-50133333D01*
X145014952Y-49828571D01*
X145395904Y-51047619D02*
X145395904Y-50590476D01*
X145395904Y-50819047D02*
X144595904Y-50819047D01*
X144710190Y-50742857D01*
X144786380Y-50666666D01*
X144824476Y-50590476D01*
X145395904Y-51428571D02*
X145395904Y-51580952D01*
X145357809Y-51657142D01*
X145319714Y-51695238D01*
X145205428Y-51771428D01*
X145053047Y-51809523D01*
X144748285Y-51809523D01*
X144672095Y-51771428D01*
X144634000Y-51733333D01*
X144595904Y-51657142D01*
X144595904Y-51504761D01*
X144634000Y-51428571D01*
X144672095Y-51390476D01*
X144748285Y-51352380D01*
X144938761Y-51352380D01*
X145014952Y-51390476D01*
X145053047Y-51428571D01*
X145091142Y-51504761D01*
X145091142Y-51657142D01*
X145053047Y-51733333D01*
X145014952Y-51771428D01*
X144938761Y-51809523D01*
X153523904Y-53587714D02*
X153142952Y-53321047D01*
X153523904Y-53130571D02*
X152723904Y-53130571D01*
X152723904Y-53435333D01*
X152762000Y-53511523D01*
X152800095Y-53549619D01*
X152876285Y-53587714D01*
X152990571Y-53587714D01*
X153066761Y-53549619D01*
X153104857Y-53511523D01*
X153142952Y-53435333D01*
X153142952Y-53130571D01*
X153523904Y-54349619D02*
X153523904Y-53892476D01*
X153523904Y-54121047D02*
X152723904Y-54121047D01*
X152838190Y-54044857D01*
X152914380Y-53968666D01*
X152952476Y-53892476D01*
X152723904Y-55073428D02*
X152723904Y-54692476D01*
X153104857Y-54654380D01*
X153066761Y-54692476D01*
X153028666Y-54768666D01*
X153028666Y-54959142D01*
X153066761Y-55035333D01*
X153104857Y-55073428D01*
X153181047Y-55111523D01*
X153371523Y-55111523D01*
X153447714Y-55073428D01*
X153485809Y-55035333D01*
X153523904Y-54959142D01*
X153523904Y-54768666D01*
X153485809Y-54692476D01*
X153447714Y-54654380D01*
X124059904Y-57270666D02*
X123678952Y-57004000D01*
X124059904Y-56813523D02*
X123259904Y-56813523D01*
X123259904Y-57118285D01*
X123298000Y-57194476D01*
X123336095Y-57232571D01*
X123412285Y-57270666D01*
X123526571Y-57270666D01*
X123602761Y-57232571D01*
X123640857Y-57194476D01*
X123678952Y-57118285D01*
X123678952Y-56813523D01*
X124059904Y-57651619D02*
X124059904Y-57804000D01*
X124021809Y-57880190D01*
X123983714Y-57918285D01*
X123869428Y-57994476D01*
X123717047Y-58032571D01*
X123412285Y-58032571D01*
X123336095Y-57994476D01*
X123298000Y-57956380D01*
X123259904Y-57880190D01*
X123259904Y-57727809D01*
X123298000Y-57651619D01*
X123336095Y-57613523D01*
X123412285Y-57575428D01*
X123602761Y-57575428D01*
X123678952Y-57613523D01*
X123717047Y-57651619D01*
X123755142Y-57727809D01*
X123755142Y-57880190D01*
X123717047Y-57956380D01*
X123678952Y-57994476D01*
X123602761Y-58032571D01*
X152253904Y-57651714D02*
X151872952Y-57385047D01*
X152253904Y-57194571D02*
X151453904Y-57194571D01*
X151453904Y-57499333D01*
X151492000Y-57575523D01*
X151530095Y-57613619D01*
X151606285Y-57651714D01*
X151720571Y-57651714D01*
X151796761Y-57613619D01*
X151834857Y-57575523D01*
X151872952Y-57499333D01*
X151872952Y-57194571D01*
X152253904Y-58413619D02*
X152253904Y-57956476D01*
X152253904Y-58185047D02*
X151453904Y-58185047D01*
X151568190Y-58108857D01*
X151644380Y-58032666D01*
X151682476Y-57956476D01*
X151720571Y-59099333D02*
X152253904Y-59099333D01*
X151415809Y-58908857D02*
X151987238Y-58718380D01*
X151987238Y-59213619D01*
X126599904Y-56889714D02*
X126218952Y-56623047D01*
X126599904Y-56432571D02*
X125799904Y-56432571D01*
X125799904Y-56737333D01*
X125838000Y-56813523D01*
X125876095Y-56851619D01*
X125952285Y-56889714D01*
X126066571Y-56889714D01*
X126142761Y-56851619D01*
X126180857Y-56813523D01*
X126218952Y-56737333D01*
X126218952Y-56432571D01*
X126599904Y-57651619D02*
X126599904Y-57194476D01*
X126599904Y-57423047D02*
X125799904Y-57423047D01*
X125914190Y-57346857D01*
X125990380Y-57270666D01*
X126028476Y-57194476D01*
X125799904Y-58146857D02*
X125799904Y-58223047D01*
X125838000Y-58299238D01*
X125876095Y-58337333D01*
X125952285Y-58375428D01*
X126104666Y-58413523D01*
X126295142Y-58413523D01*
X126447523Y-58375428D01*
X126523714Y-58337333D01*
X126561809Y-58299238D01*
X126599904Y-58223047D01*
X126599904Y-58146857D01*
X126561809Y-58070666D01*
X126523714Y-58032571D01*
X126447523Y-57994476D01*
X126295142Y-57956380D01*
X126104666Y-57956380D01*
X125952285Y-57994476D01*
X125876095Y-58032571D01*
X125838000Y-58070666D01*
X125799904Y-58146857D01*
X124059904Y-53321714D02*
X123678952Y-53055047D01*
X124059904Y-52864571D02*
X123259904Y-52864571D01*
X123259904Y-53169333D01*
X123298000Y-53245523D01*
X123336095Y-53283619D01*
X123412285Y-53321714D01*
X123526571Y-53321714D01*
X123602761Y-53283619D01*
X123640857Y-53245523D01*
X123678952Y-53169333D01*
X123678952Y-52864571D01*
X124059904Y-54083619D02*
X124059904Y-53626476D01*
X124059904Y-53855047D02*
X123259904Y-53855047D01*
X123374190Y-53778857D01*
X123450380Y-53702666D01*
X123488476Y-53626476D01*
X124059904Y-54845523D02*
X124059904Y-54388380D01*
X124059904Y-54616952D02*
X123259904Y-54616952D01*
X123374190Y-54540761D01*
X123450380Y-54464571D01*
X123488476Y-54388380D01*
X126599904Y-53321714D02*
X126218952Y-53055047D01*
X126599904Y-52864571D02*
X125799904Y-52864571D01*
X125799904Y-53169333D01*
X125838000Y-53245523D01*
X125876095Y-53283619D01*
X125952285Y-53321714D01*
X126066571Y-53321714D01*
X126142761Y-53283619D01*
X126180857Y-53245523D01*
X126218952Y-53169333D01*
X126218952Y-52864571D01*
X126599904Y-54083619D02*
X126599904Y-53626476D01*
X126599904Y-53855047D02*
X125799904Y-53855047D01*
X125914190Y-53778857D01*
X125990380Y-53702666D01*
X126028476Y-53626476D01*
X125876095Y-54388380D02*
X125838000Y-54426476D01*
X125799904Y-54502666D01*
X125799904Y-54693142D01*
X125838000Y-54769333D01*
X125876095Y-54807428D01*
X125952285Y-54845523D01*
X126028476Y-54845523D01*
X126142761Y-54807428D01*
X126599904Y-54350285D01*
X126599904Y-54845523D01*
X153523904Y-57651714D02*
X153142952Y-57385047D01*
X153523904Y-57194571D02*
X152723904Y-57194571D01*
X152723904Y-57499333D01*
X152762000Y-57575523D01*
X152800095Y-57613619D01*
X152876285Y-57651714D01*
X152990571Y-57651714D01*
X153066761Y-57613619D01*
X153104857Y-57575523D01*
X153142952Y-57499333D01*
X153142952Y-57194571D01*
X153523904Y-58413619D02*
X153523904Y-57956476D01*
X153523904Y-58185047D02*
X152723904Y-58185047D01*
X152838190Y-58108857D01*
X152914380Y-58032666D01*
X152952476Y-57956476D01*
X152723904Y-58680285D02*
X152723904Y-59175523D01*
X153028666Y-58908857D01*
X153028666Y-59023142D01*
X153066761Y-59099333D01*
X153104857Y-59137428D01*
X153181047Y-59175523D01*
X153371523Y-59175523D01*
X153447714Y-59137428D01*
X153485809Y-59099333D01*
X153523904Y-59023142D01*
X153523904Y-58794571D01*
X153485809Y-58718380D01*
X153447714Y-58680285D01*
X134727904Y-52190666D02*
X134346952Y-51924000D01*
X134727904Y-51733523D02*
X133927904Y-51733523D01*
X133927904Y-52038285D01*
X133966000Y-52114476D01*
X134004095Y-52152571D01*
X134080285Y-52190666D01*
X134194571Y-52190666D01*
X134270761Y-52152571D01*
X134308857Y-52114476D01*
X134346952Y-52038285D01*
X134346952Y-51733523D01*
X134270761Y-52647809D02*
X134232666Y-52571619D01*
X134194571Y-52533523D01*
X134118380Y-52495428D01*
X134080285Y-52495428D01*
X134004095Y-52533523D01*
X133966000Y-52571619D01*
X133927904Y-52647809D01*
X133927904Y-52800190D01*
X133966000Y-52876380D01*
X134004095Y-52914476D01*
X134080285Y-52952571D01*
X134118380Y-52952571D01*
X134194571Y-52914476D01*
X134232666Y-52876380D01*
X134270761Y-52800190D01*
X134270761Y-52647809D01*
X134308857Y-52571619D01*
X134346952Y-52533523D01*
X134423142Y-52495428D01*
X134575523Y-52495428D01*
X134651714Y-52533523D01*
X134689809Y-52571619D01*
X134727904Y-52647809D01*
X134727904Y-52800190D01*
X134689809Y-52876380D01*
X134651714Y-52914476D01*
X134575523Y-52952571D01*
X134423142Y-52952571D01*
X134346952Y-52914476D01*
X134308857Y-52876380D01*
X134270761Y-52800190D01*
X153523904Y-60064666D02*
X153142952Y-59798000D01*
X153523904Y-59607523D02*
X152723904Y-59607523D01*
X152723904Y-59912285D01*
X152762000Y-59988476D01*
X152800095Y-60026571D01*
X152876285Y-60064666D01*
X152990571Y-60064666D01*
X153066761Y-60026571D01*
X153104857Y-59988476D01*
X153142952Y-59912285D01*
X153142952Y-59607523D01*
X153523904Y-60826571D02*
X153523904Y-60369428D01*
X153523904Y-60598000D02*
X152723904Y-60598000D01*
X152838190Y-60521809D01*
X152914380Y-60445619D01*
X152952476Y-60369428D01*
X152253904Y-60064666D02*
X151872952Y-59798000D01*
X152253904Y-59607523D02*
X151453904Y-59607523D01*
X151453904Y-59912285D01*
X151492000Y-59988476D01*
X151530095Y-60026571D01*
X151606285Y-60064666D01*
X151720571Y-60064666D01*
X151796761Y-60026571D01*
X151834857Y-59988476D01*
X151872952Y-59912285D01*
X151872952Y-59607523D01*
X151530095Y-60369428D02*
X151492000Y-60407523D01*
X151453904Y-60483714D01*
X151453904Y-60674190D01*
X151492000Y-60750380D01*
X151530095Y-60788476D01*
X151606285Y-60826571D01*
X151682476Y-60826571D01*
X151796761Y-60788476D01*
X152253904Y-60331333D01*
X152253904Y-60826571D01*
X153523904Y-56000666D02*
X153142952Y-55734000D01*
X153523904Y-55543523D02*
X152723904Y-55543523D01*
X152723904Y-55848285D01*
X152762000Y-55924476D01*
X152800095Y-55962571D01*
X152876285Y-56000666D01*
X152990571Y-56000666D01*
X153066761Y-55962571D01*
X153104857Y-55924476D01*
X153142952Y-55848285D01*
X153142952Y-55543523D01*
X152723904Y-56267333D02*
X152723904Y-56762571D01*
X153028666Y-56495904D01*
X153028666Y-56610190D01*
X153066761Y-56686380D01*
X153104857Y-56724476D01*
X153181047Y-56762571D01*
X153371523Y-56762571D01*
X153447714Y-56724476D01*
X153485809Y-56686380D01*
X153523904Y-56610190D01*
X153523904Y-56381619D01*
X153485809Y-56305428D01*
X153447714Y-56267333D01*
X152253904Y-56000666D02*
X151872952Y-55734000D01*
X152253904Y-55543523D02*
X151453904Y-55543523D01*
X151453904Y-55848285D01*
X151492000Y-55924476D01*
X151530095Y-55962571D01*
X151606285Y-56000666D01*
X151720571Y-56000666D01*
X151796761Y-55962571D01*
X151834857Y-55924476D01*
X151872952Y-55848285D01*
X151872952Y-55543523D01*
X151720571Y-56686380D02*
X152253904Y-56686380D01*
X151415809Y-56495904D02*
X151987238Y-56305428D01*
X151987238Y-56800666D01*
X145421333Y-64369904D02*
X145688000Y-63988952D01*
X145878476Y-64369904D02*
X145878476Y-63569904D01*
X145573714Y-63569904D01*
X145497523Y-63608000D01*
X145459428Y-63646095D01*
X145421333Y-63722285D01*
X145421333Y-63836571D01*
X145459428Y-63912761D01*
X145497523Y-63950857D01*
X145573714Y-63988952D01*
X145878476Y-63988952D01*
X144697523Y-63569904D02*
X145078476Y-63569904D01*
X145116571Y-63950857D01*
X145078476Y-63912761D01*
X145002285Y-63874666D01*
X144811809Y-63874666D01*
X144735619Y-63912761D01*
X144697523Y-63950857D01*
X144659428Y-64027047D01*
X144659428Y-64217523D01*
X144697523Y-64293714D01*
X144735619Y-64331809D01*
X144811809Y-64369904D01*
X145002285Y-64369904D01*
X145078476Y-64331809D01*
X145116571Y-64293714D01*
X134981904Y-62350666D02*
X134600952Y-62084000D01*
X134981904Y-61893523D02*
X134181904Y-61893523D01*
X134181904Y-62198285D01*
X134220000Y-62274476D01*
X134258095Y-62312571D01*
X134334285Y-62350666D01*
X134448571Y-62350666D01*
X134524761Y-62312571D01*
X134562857Y-62274476D01*
X134600952Y-62198285D01*
X134600952Y-61893523D01*
X134181904Y-63036380D02*
X134181904Y-62884000D01*
X134220000Y-62807809D01*
X134258095Y-62769714D01*
X134372380Y-62693523D01*
X134524761Y-62655428D01*
X134829523Y-62655428D01*
X134905714Y-62693523D01*
X134943809Y-62731619D01*
X134981904Y-62807809D01*
X134981904Y-62960190D01*
X134943809Y-63036380D01*
X134905714Y-63074476D01*
X134829523Y-63112571D01*
X134639047Y-63112571D01*
X134562857Y-63074476D01*
X134524761Y-63036380D01*
X134486666Y-62960190D01*
X134486666Y-62807809D01*
X134524761Y-62731619D01*
X134562857Y-62693523D01*
X134639047Y-62655428D01*
M02*
