G04 #@! TF.GenerationSoftware,KiCad,Pcbnew,(2017-06-19 revision 6733101c6)-makepkg*
G04 #@! TF.CreationDate,2017-08-21T23:10:13+09:30*
G04 #@! TF.ProjectId,ATM90E3x_fw,41544D39304533785F66772E6B696361,rev?*
G04 #@! TF.SameCoordinates,Original
G04 #@! TF.FileFunction,Copper,L1,Top,Signal*
G04 #@! TF.FilePolarity,Positive*
%FSLAX46Y46*%
G04 Gerber Fmt 4.6, Leading zero omitted, Abs format (unit mm)*
G04 Created by KiCad (PCBNEW (2017-06-19 revision 6733101c6)-makepkg) date 08/21/17 23:10:13*
%MOMM*%
%LPD*%
G01*
G04 APERTURE LIST*
%ADD10C,0.100000*%
%ADD11O,3.600000X1.800000*%
%ADD12R,3.600000X1.800000*%
%ADD13R,1.200000X1.800000*%
%ADD14R,0.600000X1.550000*%
%ADD15R,1.000000X1.250000*%
%ADD16R,2.500000X1.800000*%
%ADD17R,2.999740X1.498600*%
%ADD18R,2.738120X1.008380*%
%ADD19R,1.600000X3.000000*%
%ADD20R,2.500000X4.000000*%
%ADD21R,0.800000X0.750000*%
%ADD22R,0.750000X0.800000*%
%ADD23R,0.970000X1.270000*%
%ADD24C,2.000000*%
%ADD25C,3.650000*%
%ADD26R,1.500000X1.500000*%
%ADD27C,1.500000*%
%ADD28R,0.900000X0.400000*%
%ADD29R,0.900000X1.200000*%
%ADD30R,0.800000X0.800000*%
%ADD31R,1.200000X0.900000*%
%ADD32R,0.400000X0.900000*%
%ADD33C,1.778000*%
%ADD34C,3.810000*%
%ADD35R,1.150000X1.000000*%
%ADD36R,0.900000X0.500000*%
%ADD37R,2.500000X2.500000*%
%ADD38C,0.250000*%
%ADD39C,0.800000*%
%ADD40C,0.250000*%
%ADD41C,0.249800*%
%ADD42C,0.400000*%
G04 APERTURE END LIST*
D10*
D11*
X115316000Y-57236000D03*
X115316000Y-53736000D03*
X115316000Y-50236000D03*
D12*
X115316000Y-46736000D03*
D13*
X108192000Y-67041000D03*
X113792000Y-67041000D03*
D14*
X109492000Y-64516000D03*
X110492000Y-64516000D03*
X111492000Y-64516000D03*
X112492000Y-64516000D03*
X122779000Y-64531000D03*
X121779000Y-64531000D03*
X120779000Y-64531000D03*
X119779000Y-64531000D03*
X118779000Y-64531000D03*
X117779000Y-64531000D03*
D13*
X124079000Y-67056000D03*
X116479000Y-67056000D03*
X142494000Y-42418000D03*
X134894000Y-42418000D03*
D14*
X141194000Y-44943000D03*
X140194000Y-44943000D03*
X139194000Y-44943000D03*
X138194000Y-44943000D03*
X137194000Y-44943000D03*
X136194000Y-44943000D03*
D13*
X131318000Y-42418000D03*
X126718000Y-42418000D03*
D14*
X130018000Y-44943000D03*
X129018000Y-44943000D03*
X128018000Y-44943000D03*
D15*
X134144000Y-62992000D03*
X136144000Y-62992000D03*
X131350000Y-51054000D03*
X133350000Y-51054000D03*
D16*
X114236000Y-84328000D03*
X110236000Y-84328000D03*
X114268000Y-80010000D03*
X110268000Y-80010000D03*
X114268000Y-75692000D03*
X110268000Y-75692000D03*
D17*
X155735020Y-85407500D03*
X155735020Y-74609960D03*
D18*
X148236940Y-83009740D03*
X148236940Y-81008220D03*
X148236940Y-79011780D03*
X148236940Y-77010260D03*
D19*
X143002000Y-77048000D03*
X143002000Y-81448000D03*
D20*
X121412000Y-83060000D03*
X121412000Y-76960000D03*
D21*
X142252000Y-85344000D03*
X143752000Y-85344000D03*
D22*
X117856000Y-71894000D03*
X117856000Y-73394000D03*
D23*
X138816000Y-87630000D03*
X137536000Y-87630000D03*
D24*
X152656000Y-65279000D03*
X152656000Y-49089000D03*
D25*
X149606000Y-51249000D03*
X149606000Y-63119000D03*
D26*
X143256000Y-61629000D03*
D27*
X140716000Y-60359000D03*
X143256000Y-59089000D03*
X140716000Y-57819000D03*
X143256000Y-56549000D03*
X140716000Y-55279000D03*
X143256000Y-54009000D03*
X140716000Y-52739000D03*
D28*
X137756000Y-49676000D03*
X137756000Y-48876000D03*
X137756000Y-50476000D03*
X137756000Y-48076000D03*
X136056000Y-50476000D03*
X136056000Y-49676000D03*
X136056000Y-48876000D03*
X136056000Y-48076000D03*
D29*
X141098000Y-72898000D03*
X144398000Y-72898000D03*
D30*
X146012000Y-87630000D03*
X147612000Y-87630000D03*
D31*
X141394000Y-87630000D03*
X143594000Y-87630000D03*
D32*
X120034000Y-60364000D03*
X119234000Y-60364000D03*
X120834000Y-60364000D03*
X118434000Y-60364000D03*
X120834000Y-62064000D03*
X120034000Y-62064000D03*
X119234000Y-62064000D03*
X118434000Y-62064000D03*
D33*
X113335000Y-90220800D03*
X115875000Y-90220800D03*
X118415000Y-90220800D03*
X120955000Y-90220800D03*
X123495000Y-90220800D03*
X126035000Y-90220800D03*
X128575000Y-90220800D03*
X131115000Y-90220800D03*
X133655000Y-90220800D03*
X136195000Y-90220800D03*
X138735000Y-90220800D03*
X141275000Y-90220800D03*
X143815000Y-90220800D03*
X146355000Y-90220800D03*
X148895000Y-90220800D03*
X151435000Y-90220800D03*
X151435000Y-69900800D03*
X148895000Y-69900800D03*
X146355000Y-69900800D03*
X143815000Y-69900800D03*
X141275000Y-69900800D03*
X138735000Y-69900800D03*
X136195000Y-69900800D03*
X133655000Y-69900800D03*
X131115000Y-69900800D03*
X128575000Y-69900800D03*
X126035000Y-69900800D03*
X123495000Y-69900800D03*
D34*
X109525000Y-71170800D03*
X109525000Y-88950800D03*
D21*
X131342000Y-49022000D03*
X132842000Y-49022000D03*
D22*
X118745000Y-44807000D03*
X118745000Y-43307000D03*
X136652000Y-60936000D03*
X136652000Y-59436000D03*
D21*
X134378000Y-65024000D03*
X135878000Y-65024000D03*
D22*
X130556000Y-65786000D03*
X130556000Y-67286000D03*
X118745000Y-51435000D03*
X118745000Y-49935000D03*
X136652000Y-56896000D03*
X136652000Y-55396000D03*
X118745000Y-48260000D03*
X118745000Y-46760000D03*
D35*
X120509000Y-53656000D03*
X118759000Y-53656000D03*
X118759000Y-55056000D03*
X120509000Y-55056000D03*
D36*
X120523000Y-43331000D03*
X120523000Y-44831000D03*
X120523000Y-46736000D03*
X120523000Y-48236000D03*
X132588000Y-67310000D03*
X132588000Y-65810000D03*
X120523000Y-50038000D03*
X120523000Y-51538000D03*
D37*
X127492000Y-84344000D03*
X137992000Y-84344000D03*
X137992000Y-73844000D03*
X127492000Y-73844000D03*
D30*
X114338000Y-60452000D03*
X112738000Y-60452000D03*
X109182000Y-60452000D03*
X110782000Y-60452000D03*
X109182000Y-62230000D03*
X110782000Y-62230000D03*
X114338000Y-62103000D03*
X112738000Y-62103000D03*
D38*
X133831458Y-57311429D03*
D10*
G36*
X134202689Y-56763421D02*
X134379466Y-56940198D01*
X133460227Y-57859437D01*
X133283450Y-57682660D01*
X134202689Y-56763421D01*
X134202689Y-56763421D01*
G37*
D38*
X133477905Y-56957876D03*
D10*
G36*
X133849136Y-56409868D02*
X134025913Y-56586645D01*
X133106674Y-57505884D01*
X132929897Y-57329107D01*
X133849136Y-56409868D01*
X133849136Y-56409868D01*
G37*
D38*
X133124351Y-56604322D03*
D10*
G36*
X133495582Y-56056314D02*
X133672359Y-56233091D01*
X132753120Y-57152330D01*
X132576343Y-56975553D01*
X133495582Y-56056314D01*
X133495582Y-56056314D01*
G37*
D38*
X132770798Y-56250769D03*
D10*
G36*
X133142029Y-55702761D02*
X133318806Y-55879538D01*
X132399567Y-56798777D01*
X132222790Y-56622000D01*
X133142029Y-55702761D01*
X133142029Y-55702761D01*
G37*
D38*
X132417245Y-55897216D03*
D10*
G36*
X132788476Y-55349208D02*
X132965253Y-55525985D01*
X132046014Y-56445224D01*
X131869237Y-56268447D01*
X132788476Y-55349208D01*
X132788476Y-55349208D01*
G37*
D38*
X132063691Y-55543662D03*
D10*
G36*
X132434922Y-54995654D02*
X132611699Y-55172431D01*
X131692460Y-56091670D01*
X131515683Y-55914893D01*
X132434922Y-54995654D01*
X132434922Y-54995654D01*
G37*
D38*
X131710138Y-55190109D03*
D10*
G36*
X132081369Y-54642101D02*
X132258146Y-54818878D01*
X131338907Y-55738117D01*
X131162130Y-55561340D01*
X132081369Y-54642101D01*
X132081369Y-54642101D01*
G37*
D38*
X131356584Y-54836555D03*
D10*
G36*
X131727815Y-54288547D02*
X131904592Y-54465324D01*
X130985353Y-55384563D01*
X130808576Y-55207786D01*
X131727815Y-54288547D01*
X131727815Y-54288547D01*
G37*
D38*
X131003031Y-54483002D03*
D10*
G36*
X131374262Y-53934994D02*
X131551039Y-54111771D01*
X130631800Y-55031010D01*
X130455023Y-54854233D01*
X131374262Y-53934994D01*
X131374262Y-53934994D01*
G37*
D38*
X130649478Y-54129449D03*
D10*
G36*
X131020709Y-53581441D02*
X131197486Y-53758218D01*
X130278247Y-54677457D01*
X130101470Y-54500680D01*
X131020709Y-53581441D01*
X131020709Y-53581441D01*
G37*
D38*
X130295924Y-53775895D03*
D10*
G36*
X130667155Y-53227887D02*
X130843932Y-53404664D01*
X129924693Y-54323903D01*
X129747916Y-54147126D01*
X130667155Y-53227887D01*
X130667155Y-53227887D01*
G37*
D38*
X129942371Y-53422342D03*
D10*
G36*
X130313602Y-52874334D02*
X130490379Y-53051111D01*
X129571140Y-53970350D01*
X129394363Y-53793573D01*
X130313602Y-52874334D01*
X130313602Y-52874334D01*
G37*
D38*
X127679629Y-53422342D03*
D10*
G36*
X127131621Y-53051111D02*
X127308398Y-52874334D01*
X128227637Y-53793573D01*
X128050860Y-53970350D01*
X127131621Y-53051111D01*
X127131621Y-53051111D01*
G37*
D38*
X127326076Y-53775895D03*
D10*
G36*
X126778068Y-53404664D02*
X126954845Y-53227887D01*
X127874084Y-54147126D01*
X127697307Y-54323903D01*
X126778068Y-53404664D01*
X126778068Y-53404664D01*
G37*
D38*
X126972522Y-54129449D03*
D10*
G36*
X126424514Y-53758218D02*
X126601291Y-53581441D01*
X127520530Y-54500680D01*
X127343753Y-54677457D01*
X126424514Y-53758218D01*
X126424514Y-53758218D01*
G37*
D38*
X126618969Y-54483002D03*
D10*
G36*
X126070961Y-54111771D02*
X126247738Y-53934994D01*
X127166977Y-54854233D01*
X126990200Y-55031010D01*
X126070961Y-54111771D01*
X126070961Y-54111771D01*
G37*
D38*
X126265416Y-54836555D03*
D10*
G36*
X125717408Y-54465324D02*
X125894185Y-54288547D01*
X126813424Y-55207786D01*
X126636647Y-55384563D01*
X125717408Y-54465324D01*
X125717408Y-54465324D01*
G37*
D38*
X125911862Y-55190109D03*
D10*
G36*
X125363854Y-54818878D02*
X125540631Y-54642101D01*
X126459870Y-55561340D01*
X126283093Y-55738117D01*
X125363854Y-54818878D01*
X125363854Y-54818878D01*
G37*
D38*
X125558309Y-55543662D03*
D10*
G36*
X125010301Y-55172431D02*
X125187078Y-54995654D01*
X126106317Y-55914893D01*
X125929540Y-56091670D01*
X125010301Y-55172431D01*
X125010301Y-55172431D01*
G37*
D38*
X125204755Y-55897216D03*
D10*
G36*
X124656747Y-55525985D02*
X124833524Y-55349208D01*
X125752763Y-56268447D01*
X125575986Y-56445224D01*
X124656747Y-55525985D01*
X124656747Y-55525985D01*
G37*
D38*
X124851202Y-56250769D03*
D10*
G36*
X124303194Y-55879538D02*
X124479971Y-55702761D01*
X125399210Y-56622000D01*
X125222433Y-56798777D01*
X124303194Y-55879538D01*
X124303194Y-55879538D01*
G37*
D38*
X124497649Y-56604322D03*
D10*
G36*
X123949641Y-56233091D02*
X124126418Y-56056314D01*
X125045657Y-56975553D01*
X124868880Y-57152330D01*
X123949641Y-56233091D01*
X123949641Y-56233091D01*
G37*
D38*
X124144095Y-56957876D03*
D10*
G36*
X123596087Y-56586645D02*
X123772864Y-56409868D01*
X124692103Y-57329107D01*
X124515326Y-57505884D01*
X123596087Y-56586645D01*
X123596087Y-56586645D01*
G37*
D38*
X123790542Y-57311429D03*
D10*
G36*
X123242534Y-56940198D02*
X123419311Y-56763421D01*
X124338550Y-57682660D01*
X124161773Y-57859437D01*
X123242534Y-56940198D01*
X123242534Y-56940198D01*
G37*
D38*
X123790542Y-59574171D03*
D10*
G36*
X124161773Y-59026163D02*
X124338550Y-59202940D01*
X123419311Y-60122179D01*
X123242534Y-59945402D01*
X124161773Y-59026163D01*
X124161773Y-59026163D01*
G37*
D38*
X124144095Y-59927724D03*
D10*
G36*
X124515326Y-59379716D02*
X124692103Y-59556493D01*
X123772864Y-60475732D01*
X123596087Y-60298955D01*
X124515326Y-59379716D01*
X124515326Y-59379716D01*
G37*
D38*
X124497649Y-60281278D03*
D10*
G36*
X124868880Y-59733270D02*
X125045657Y-59910047D01*
X124126418Y-60829286D01*
X123949641Y-60652509D01*
X124868880Y-59733270D01*
X124868880Y-59733270D01*
G37*
D38*
X124851202Y-60634831D03*
D10*
G36*
X125222433Y-60086823D02*
X125399210Y-60263600D01*
X124479971Y-61182839D01*
X124303194Y-61006062D01*
X125222433Y-60086823D01*
X125222433Y-60086823D01*
G37*
D38*
X125204755Y-60988384D03*
D10*
G36*
X125575986Y-60440376D02*
X125752763Y-60617153D01*
X124833524Y-61536392D01*
X124656747Y-61359615D01*
X125575986Y-60440376D01*
X125575986Y-60440376D01*
G37*
D38*
X125558309Y-61341938D03*
D10*
G36*
X125929540Y-60793930D02*
X126106317Y-60970707D01*
X125187078Y-61889946D01*
X125010301Y-61713169D01*
X125929540Y-60793930D01*
X125929540Y-60793930D01*
G37*
D38*
X125911862Y-61695491D03*
D10*
G36*
X126283093Y-61147483D02*
X126459870Y-61324260D01*
X125540631Y-62243499D01*
X125363854Y-62066722D01*
X126283093Y-61147483D01*
X126283093Y-61147483D01*
G37*
D38*
X126265416Y-62049045D03*
D10*
G36*
X126636647Y-61501037D02*
X126813424Y-61677814D01*
X125894185Y-62597053D01*
X125717408Y-62420276D01*
X126636647Y-61501037D01*
X126636647Y-61501037D01*
G37*
D38*
X126618969Y-62402598D03*
D10*
G36*
X126990200Y-61854590D02*
X127166977Y-62031367D01*
X126247738Y-62950606D01*
X126070961Y-62773829D01*
X126990200Y-61854590D01*
X126990200Y-61854590D01*
G37*
D38*
X126972522Y-62756151D03*
D10*
G36*
X127343753Y-62208143D02*
X127520530Y-62384920D01*
X126601291Y-63304159D01*
X126424514Y-63127382D01*
X127343753Y-62208143D01*
X127343753Y-62208143D01*
G37*
D38*
X127326076Y-63109705D03*
D10*
G36*
X127697307Y-62561697D02*
X127874084Y-62738474D01*
X126954845Y-63657713D01*
X126778068Y-63480936D01*
X127697307Y-62561697D01*
X127697307Y-62561697D01*
G37*
D38*
X127679629Y-63463258D03*
D10*
G36*
X128050860Y-62915250D02*
X128227637Y-63092027D01*
X127308398Y-64011266D01*
X127131621Y-63834489D01*
X128050860Y-62915250D01*
X128050860Y-62915250D01*
G37*
D38*
X129942371Y-63463258D03*
D10*
G36*
X129394363Y-63092027D02*
X129571140Y-62915250D01*
X130490379Y-63834489D01*
X130313602Y-64011266D01*
X129394363Y-63092027D01*
X129394363Y-63092027D01*
G37*
D38*
X130295924Y-63109705D03*
D10*
G36*
X129747916Y-62738474D02*
X129924693Y-62561697D01*
X130843932Y-63480936D01*
X130667155Y-63657713D01*
X129747916Y-62738474D01*
X129747916Y-62738474D01*
G37*
D38*
X130649478Y-62756151D03*
D10*
G36*
X130101470Y-62384920D02*
X130278247Y-62208143D01*
X131197486Y-63127382D01*
X131020709Y-63304159D01*
X130101470Y-62384920D01*
X130101470Y-62384920D01*
G37*
D38*
X131003031Y-62402598D03*
D10*
G36*
X130455023Y-62031367D02*
X130631800Y-61854590D01*
X131551039Y-62773829D01*
X131374262Y-62950606D01*
X130455023Y-62031367D01*
X130455023Y-62031367D01*
G37*
D38*
X131356584Y-62049045D03*
D10*
G36*
X130808576Y-61677814D02*
X130985353Y-61501037D01*
X131904592Y-62420276D01*
X131727815Y-62597053D01*
X130808576Y-61677814D01*
X130808576Y-61677814D01*
G37*
D38*
X131710138Y-61695491D03*
D10*
G36*
X131162130Y-61324260D02*
X131338907Y-61147483D01*
X132258146Y-62066722D01*
X132081369Y-62243499D01*
X131162130Y-61324260D01*
X131162130Y-61324260D01*
G37*
D38*
X132063691Y-61341938D03*
D10*
G36*
X131515683Y-60970707D02*
X131692460Y-60793930D01*
X132611699Y-61713169D01*
X132434922Y-61889946D01*
X131515683Y-60970707D01*
X131515683Y-60970707D01*
G37*
D38*
X132417245Y-60988384D03*
D10*
G36*
X131869237Y-60617153D02*
X132046014Y-60440376D01*
X132965253Y-61359615D01*
X132788476Y-61536392D01*
X131869237Y-60617153D01*
X131869237Y-60617153D01*
G37*
D38*
X132770798Y-60634831D03*
D10*
G36*
X132222790Y-60263600D02*
X132399567Y-60086823D01*
X133318806Y-61006062D01*
X133142029Y-61182839D01*
X132222790Y-60263600D01*
X132222790Y-60263600D01*
G37*
D38*
X133124351Y-60281278D03*
D10*
G36*
X132576343Y-59910047D02*
X132753120Y-59733270D01*
X133672359Y-60652509D01*
X133495582Y-60829286D01*
X132576343Y-59910047D01*
X132576343Y-59910047D01*
G37*
D38*
X133477905Y-59927724D03*
D10*
G36*
X132929897Y-59556493D02*
X133106674Y-59379716D01*
X134025913Y-60298955D01*
X133849136Y-60475732D01*
X132929897Y-59556493D01*
X132929897Y-59556493D01*
G37*
D38*
X133831458Y-59574171D03*
D10*
G36*
X133283450Y-59202940D02*
X133460227Y-59026163D01*
X134379466Y-59945402D01*
X134202689Y-60122179D01*
X133283450Y-59202940D01*
X133283450Y-59202940D01*
G37*
D39*
X116581900Y-62778600D03*
X121641300Y-61915000D03*
X108771600Y-77851000D03*
X110022500Y-74179400D03*
X112236000Y-83681500D03*
X132201500Y-63147900D03*
X144188700Y-88708600D03*
X138707500Y-46734300D03*
X132959600Y-64063300D03*
X134807400Y-47751100D03*
X129738200Y-61884100D03*
X133394300Y-47445400D03*
X133838600Y-66011100D03*
X147075300Y-62562300D03*
X122854400Y-61809800D03*
X116856700Y-64654800D03*
X121635200Y-60211500D03*
X125562600Y-59577100D03*
X115347200Y-63929500D03*
X151241900Y-59866700D03*
X141124600Y-62639500D03*
X121761300Y-55454800D03*
X113958500Y-58832300D03*
X133967400Y-55335300D03*
X130921800Y-56177100D03*
X131924700Y-57178600D03*
X133148100Y-54683700D03*
X141592300Y-49234600D03*
X131969500Y-52844100D03*
X134704800Y-54617200D03*
X126724300Y-64531000D03*
X125396600Y-63430700D03*
X125981600Y-49561600D03*
X122267100Y-45847100D03*
X125316600Y-65298400D03*
X122853500Y-66716700D03*
X128163300Y-59422700D03*
X124113800Y-62067200D03*
X118892700Y-66774300D03*
X128185900Y-57750200D03*
X127937700Y-47087700D03*
X128975700Y-46790700D03*
X128975700Y-55218900D03*
X125589400Y-57430900D03*
X126054600Y-48462900D03*
X123838100Y-54050000D03*
X123100600Y-52169200D03*
X123224400Y-48635000D03*
X136051800Y-46366000D03*
X137548100Y-47223800D03*
X142123700Y-46001900D03*
D40*
X124851200Y-56250800D02*
X124728100Y-56127700D01*
D41*
X124728100Y-56057600D02*
X124728100Y-56127700D01*
X124727600Y-56057100D02*
X124728100Y-56057600D01*
D40*
X119074200Y-56196500D02*
X118759000Y-55881300D01*
X123011100Y-56196500D02*
X119074200Y-56196500D01*
X123476700Y-55730900D02*
X123011100Y-56196500D01*
X124401400Y-55730900D02*
X123476700Y-55730900D01*
X124727600Y-56057100D02*
X124401400Y-55730900D01*
X118759000Y-55056000D02*
X118759000Y-55881300D01*
X120509000Y-53656000D02*
X121409300Y-53656000D01*
X124469300Y-55253400D02*
X124515200Y-55207500D01*
X123006700Y-55253400D02*
X124469300Y-55253400D01*
X121409300Y-53656000D02*
X123006700Y-55253400D01*
X125204800Y-55897200D02*
X124515200Y-55207500D01*
X114338000Y-62103000D02*
X115063300Y-62103000D01*
X120983000Y-61915000D02*
X121641300Y-61915000D01*
X120834000Y-62064000D02*
X120983000Y-61915000D01*
X115714200Y-62753900D02*
X115063300Y-62103000D01*
X116557200Y-62753900D02*
X115714200Y-62753900D01*
X116581900Y-62778600D02*
X116557200Y-62753900D01*
X109182000Y-62230000D02*
X109907300Y-62230000D01*
X109907300Y-62683300D02*
X109907300Y-62230000D01*
X110188200Y-62964200D02*
X109907300Y-62683300D01*
X113899200Y-62964200D02*
X110188200Y-62964200D01*
X114139200Y-63204200D02*
X113899200Y-62964200D01*
X115647700Y-63204200D02*
X114139200Y-63204200D01*
X115965900Y-63522400D02*
X115647700Y-63204200D01*
X116885800Y-63522400D02*
X115965900Y-63522400D01*
X117013500Y-63394700D02*
X116885800Y-63522400D01*
X119028200Y-63394700D02*
X117013500Y-63394700D01*
X120034000Y-62388900D02*
X119028200Y-63394700D01*
X120034000Y-62064000D02*
X120034000Y-62388900D01*
X109182000Y-60452000D02*
X109907300Y-60452000D01*
X109907300Y-59998700D02*
X109907300Y-60452000D01*
X113927400Y-55978600D02*
X109907300Y-59998700D01*
X116760800Y-55978600D02*
X113927400Y-55978600D01*
X117478200Y-56696000D02*
X116760800Y-55978600D01*
X117478200Y-57745100D02*
X117478200Y-56696000D01*
X115569600Y-59653700D02*
X117478200Y-57745100D01*
X113838700Y-59653700D02*
X115569600Y-59653700D01*
X113612600Y-59879800D02*
X113838700Y-59653700D01*
X113612600Y-60989900D02*
X113612600Y-59879800D01*
X113800100Y-61177400D02*
X113612600Y-60989900D01*
X114774600Y-61177400D02*
X113800100Y-61177400D01*
X115336300Y-61739100D02*
X114774600Y-61177400D01*
X116568200Y-61739100D02*
X115336300Y-61739100D01*
X117668500Y-62839400D02*
X116568200Y-61739100D01*
X118824600Y-62839400D02*
X117668500Y-62839400D01*
X119234000Y-62430000D02*
X118824600Y-62839400D01*
X119234000Y-62064000D02*
X119234000Y-62430000D01*
X118434000Y-62064000D02*
X118434000Y-61288700D01*
X114338000Y-60452000D02*
X115063300Y-60452000D01*
X115900000Y-61288700D02*
X118434000Y-61288700D01*
X115063300Y-60452000D02*
X115900000Y-61288700D01*
D42*
X109630300Y-78709700D02*
X110268000Y-78709700D01*
X108771600Y-77851000D02*
X109630300Y-78709700D01*
X110268000Y-80010000D02*
X110268000Y-78709700D01*
X110234800Y-74391700D02*
X110022500Y-74179400D01*
X110268000Y-74391700D02*
X110234800Y-74391700D01*
X110268000Y-75692000D02*
X110268000Y-74391700D01*
X111886300Y-84031200D02*
X111886300Y-84328000D01*
X112236000Y-83681500D02*
X111886300Y-84031200D01*
X110236000Y-84328000D02*
X111886300Y-84328000D01*
D40*
X134378000Y-64176300D02*
X134144000Y-63942300D01*
X134378000Y-65024000D02*
X134378000Y-64176300D01*
X134144000Y-62992000D02*
X134144000Y-63942300D01*
X132711900Y-62385200D02*
X133318700Y-62992000D01*
X132399900Y-62385200D02*
X132711900Y-62385200D01*
X131710100Y-61695500D02*
X132399900Y-62385200D01*
X134144000Y-62992000D02*
X133318700Y-62992000D01*
X132063700Y-61341900D02*
X131710100Y-61695500D01*
X132588000Y-65810000D02*
X131812700Y-65810000D01*
X131788700Y-65786000D02*
X131812700Y-65810000D01*
X130556000Y-65786000D02*
X131788700Y-65786000D01*
X130431700Y-61124100D02*
X131356600Y-62049000D01*
X129439000Y-61124100D02*
X130431700Y-61124100D01*
X129012800Y-61550300D02*
X129439000Y-61124100D01*
X129012800Y-64943100D02*
X129012800Y-61550300D01*
X129855700Y-65786000D02*
X129012800Y-64943100D01*
X130556000Y-65786000D02*
X129855700Y-65786000D01*
X118745000Y-49935000D02*
X119445300Y-49935000D01*
X119548300Y-50038000D02*
X120523000Y-50038000D01*
X119445300Y-49935000D02*
X119548300Y-50038000D01*
X125911900Y-55190100D02*
X125222200Y-54500300D01*
X120523000Y-50038000D02*
X120523000Y-50613300D01*
X125222100Y-54500400D02*
X125222200Y-54500300D01*
X124441300Y-54500400D02*
X125222100Y-54500400D01*
X124138600Y-54803100D02*
X124441300Y-54500400D01*
X123537700Y-54803100D02*
X124138600Y-54803100D01*
X123112800Y-54378200D02*
X123537700Y-54803100D01*
X123112800Y-54121900D02*
X123112800Y-54378200D01*
X123103000Y-54112100D02*
X123112800Y-54121900D01*
X123103000Y-53946700D02*
X123103000Y-54112100D01*
X121452400Y-52296100D02*
X123103000Y-53946700D01*
X121452400Y-51255100D02*
X121452400Y-52296100D01*
X120810600Y-50613300D02*
X121452400Y-51255100D01*
X120523000Y-50613300D02*
X120810600Y-50613300D01*
X118745000Y-46760000D02*
X119445300Y-46760000D01*
X119469300Y-46736000D02*
X120523000Y-46736000D01*
X119445300Y-46760000D02*
X119469300Y-46736000D01*
X125030500Y-52894500D02*
X126619000Y-54483000D01*
X122767200Y-52894500D02*
X125030500Y-52894500D01*
X122131200Y-52258500D02*
X122767200Y-52894500D01*
X122131200Y-50811100D02*
X122131200Y-52258500D01*
X121541800Y-50221700D02*
X122131200Y-50811100D01*
X121541800Y-48042500D02*
X121541800Y-50221700D01*
X120810600Y-47311300D02*
X121541800Y-48042500D01*
X120523000Y-47311300D02*
X120810600Y-47311300D01*
X120523000Y-46736000D02*
X120523000Y-47311300D01*
X119469300Y-43331000D02*
X119445300Y-43307000D01*
X120523000Y-43331000D02*
X119469300Y-43331000D01*
X118745000Y-43307000D02*
X119445300Y-43307000D01*
X120810600Y-43906300D02*
X120523000Y-43906300D01*
X121512700Y-44608400D02*
X120810600Y-43906300D01*
X121512700Y-46131600D02*
X121512700Y-44608400D01*
X122042000Y-46660900D02*
X121512700Y-46131600D01*
X122042000Y-48491800D02*
X122042000Y-46660900D01*
X127326100Y-53775900D02*
X122042000Y-48491800D01*
X120523000Y-43331000D02*
X120523000Y-43906300D01*
X133223400Y-50103700D02*
X132842000Y-49722300D01*
X133350000Y-50103700D02*
X133223400Y-50103700D01*
X132842000Y-49022000D02*
X132842000Y-49722300D01*
X133350000Y-51054000D02*
X133350000Y-50103700D01*
X133350000Y-51054000D02*
X132524700Y-51054000D01*
X130295900Y-53775900D02*
X130985700Y-53086100D01*
X130985600Y-53086100D02*
X130985700Y-53086100D01*
X130985600Y-52802300D02*
X130985600Y-53086100D01*
X131669100Y-52118800D02*
X130985600Y-52802300D01*
X131872500Y-52118800D02*
X131669100Y-52118800D01*
X132524700Y-51466600D02*
X131872500Y-52118800D01*
X132524700Y-51054000D02*
X132524700Y-51466600D01*
X137194000Y-44943000D02*
X137194000Y-46043300D01*
X136056000Y-48076000D02*
X136831300Y-48076000D01*
X131003000Y-62402600D02*
X131692800Y-63092300D01*
X132145900Y-63092300D02*
X132201500Y-63147900D01*
X131692800Y-63092300D02*
X132145900Y-63092300D01*
X142787200Y-88708600D02*
X144188700Y-88708600D01*
X141275000Y-90220800D02*
X142787200Y-88708600D01*
X138198000Y-46224800D02*
X137343300Y-46224800D01*
X138707500Y-46734300D02*
X138198000Y-46224800D01*
X136822800Y-46745300D02*
X137343300Y-46224800D01*
X136822800Y-47524200D02*
X136822800Y-46745300D01*
X136831300Y-47532700D02*
X136822800Y-47524200D01*
X136831300Y-48076000D02*
X136831300Y-47532700D01*
X137194000Y-46075500D02*
X137194000Y-46043300D01*
X137343300Y-46224800D02*
X137194000Y-46075500D01*
X131956600Y-64063300D02*
X132959600Y-64063300D01*
X130649500Y-62756200D02*
X131956600Y-64063300D01*
X138194000Y-44943000D02*
X138194000Y-43842700D01*
X136056000Y-48876000D02*
X135280700Y-48876000D01*
X134807400Y-47751100D02*
X135280700Y-47751100D01*
X135280700Y-44306700D02*
X135280700Y-47751100D01*
X135744700Y-43842700D02*
X135280700Y-44306700D01*
X138194000Y-43842700D02*
X135744700Y-43842700D01*
X135280700Y-47751100D02*
X135280700Y-48876000D01*
X136056000Y-49676000D02*
X136831300Y-49676000D01*
X139194000Y-44943000D02*
X139194000Y-46043300D01*
X139468800Y-46318100D02*
X139194000Y-46043300D01*
X139468800Y-49883600D02*
X139468800Y-46318100D01*
X138351000Y-51001400D02*
X139468800Y-49883600D01*
X137111300Y-51001400D02*
X138351000Y-51001400D01*
X136831300Y-50721400D02*
X137111300Y-51001400D01*
X136831300Y-49676000D02*
X136831300Y-50721400D01*
X129738200Y-62288200D02*
X129738200Y-61884100D01*
X129606300Y-62420100D02*
X129738200Y-62288200D01*
X130295900Y-63109700D02*
X129606300Y-62420100D01*
X136056000Y-49676000D02*
X135280700Y-49676000D01*
X134768900Y-48820000D02*
X133394300Y-47445400D01*
X134768900Y-49164200D02*
X134768900Y-48820000D01*
X135280700Y-49676000D02*
X134768900Y-49164200D01*
X129942400Y-63463300D02*
X130632000Y-64152900D01*
X136056000Y-50583000D02*
X136056000Y-50476000D01*
X136934500Y-51461500D02*
X136056000Y-50583000D01*
X138610400Y-51461500D02*
X136934500Y-51461500D01*
X140194000Y-49877900D02*
X138610400Y-51461500D01*
X140194000Y-44943000D02*
X140194000Y-49877900D01*
X133838600Y-65838000D02*
X133838600Y-66011100D01*
X133227100Y-65226500D02*
X133838600Y-65838000D01*
X131705600Y-65226500D02*
X133227100Y-65226500D01*
X130632000Y-64152900D02*
X131705600Y-65226500D01*
X140194000Y-44943000D02*
X140194000Y-43842700D01*
X149330600Y-43842700D02*
X140194000Y-43842700D01*
X153995300Y-48507400D02*
X149330600Y-43842700D01*
X153995300Y-58142600D02*
X153995300Y-48507400D01*
X151169200Y-60968700D02*
X153995300Y-58142600D01*
X148668900Y-60968700D02*
X151169200Y-60968700D01*
X147075300Y-62562300D02*
X148668900Y-60968700D01*
X118434000Y-60364000D02*
X118434000Y-59588700D01*
X109492000Y-64516000D02*
X109492000Y-63415700D01*
X109107600Y-63415700D02*
X109492000Y-63415700D01*
X108456700Y-62764800D02*
X109107600Y-63415700D01*
X108456700Y-59901100D02*
X108456700Y-62764800D01*
X112860400Y-55497400D02*
X108456700Y-59901100D01*
X116972000Y-55497400D02*
X112860400Y-55497400D01*
X119367200Y-57892600D02*
X116972000Y-55497400D01*
X119367200Y-58655500D02*
X119367200Y-57892600D01*
X122871800Y-58655500D02*
X119367200Y-58655500D01*
X123790500Y-59574200D02*
X122871800Y-58655500D01*
X119367200Y-58655500D02*
X118434000Y-59588700D01*
X120834000Y-60364000D02*
X120834000Y-61139300D01*
X124851200Y-60634800D02*
X124161500Y-61324500D01*
X122944300Y-61809800D02*
X122854400Y-61809800D01*
X123429600Y-61324500D02*
X122944300Y-61809800D01*
X124161400Y-61324500D02*
X123429600Y-61324500D01*
X124161500Y-61324500D02*
X124161400Y-61324500D01*
X122183900Y-61139300D02*
X122854400Y-61809800D01*
X120834000Y-61139300D02*
X122183900Y-61139300D01*
X115895200Y-65616300D02*
X116856700Y-64654800D01*
X112492000Y-65616300D02*
X115895200Y-65616300D01*
X112492000Y-64516000D02*
X112492000Y-65616300D01*
X124144100Y-59927700D02*
X124833700Y-59238100D01*
X110492000Y-64516000D02*
X110492000Y-65616300D01*
X123336200Y-60499300D02*
X123454400Y-60617400D01*
X123191500Y-60499300D02*
X123336200Y-60499300D01*
X121830600Y-59138400D02*
X123191500Y-60499300D01*
X119684300Y-59138400D02*
X121830600Y-59138400D01*
X119234000Y-59588700D02*
X119684300Y-59138400D01*
X119234000Y-60364000D02*
X119234000Y-59588700D01*
X124144100Y-59927700D02*
X123454400Y-60617400D01*
X109042700Y-65616300D02*
X110492000Y-65616300D01*
X107995900Y-64569500D02*
X109042700Y-65616300D01*
X107995900Y-59725000D02*
X107995900Y-64569500D01*
X112673800Y-55047100D02*
X107995900Y-59725000D01*
X117214000Y-55047100D02*
X112673800Y-55047100D01*
X119057700Y-56890800D02*
X117214000Y-55047100D01*
X122491900Y-56890800D02*
X119057700Y-56890800D01*
X124833700Y-59232600D02*
X122491900Y-56890800D01*
X124833700Y-59238100D02*
X124833700Y-59232600D01*
X120034000Y-60364000D02*
X120034000Y-59588700D01*
X121635200Y-60055100D02*
X121635200Y-60211500D01*
X121168800Y-59588700D02*
X121635200Y-60055100D01*
X120034000Y-59588700D02*
X121168800Y-59588700D01*
X124497600Y-60281300D02*
X125187400Y-59591500D01*
X125201800Y-59577100D02*
X125562600Y-59577100D01*
X125187400Y-59591500D02*
X125201800Y-59577100D01*
X113488800Y-63415700D02*
X111492000Y-63415700D01*
X114002600Y-63929500D02*
X113488800Y-63415700D01*
X115347200Y-63929500D02*
X114002600Y-63929500D01*
X111492000Y-64516000D02*
X111492000Y-63415700D01*
X146093600Y-59866700D02*
X151241900Y-59866700D01*
X144331300Y-61629000D02*
X146093600Y-59866700D01*
X143256000Y-61629000D02*
X144331300Y-61629000D01*
X134547500Y-56062400D02*
X141124600Y-62639500D01*
X133666300Y-56062400D02*
X134547500Y-56062400D01*
X133124400Y-56604300D02*
X133666300Y-56062400D01*
D42*
X119648700Y-48260000D02*
X119672700Y-48236000D01*
X118745000Y-48260000D02*
X119648700Y-48260000D01*
X120523000Y-48236000D02*
X119672700Y-48236000D01*
X118631300Y-75829600D02*
X119761700Y-76960000D01*
X118631300Y-73394000D02*
X118631300Y-75829600D01*
X117856000Y-73394000D02*
X118631300Y-73394000D01*
X121412000Y-76960000D02*
X119761700Y-76960000D01*
X120523000Y-44831000D02*
X119672700Y-44831000D01*
X121412000Y-76960000D02*
X123062300Y-76960000D01*
X115316000Y-46736000D02*
X117516300Y-46736000D01*
X119648700Y-44807000D02*
X119672700Y-44831000D01*
X118745000Y-44807000D02*
X119648700Y-44807000D01*
X117969700Y-46282600D02*
X117516300Y-46736000D01*
X117969700Y-44807000D02*
X117969700Y-46282600D01*
X135912600Y-64248700D02*
X136144000Y-64017300D01*
X135878000Y-64248700D02*
X135912600Y-64248700D01*
X136652000Y-60936000D02*
X135876700Y-60936000D01*
X136144000Y-63504600D02*
X136144000Y-64017300D01*
X136144000Y-63504600D02*
X136144000Y-62992000D01*
X136144000Y-62992000D02*
X136144000Y-61966700D01*
X136144000Y-61966700D02*
X135495000Y-61317700D01*
X135495000Y-61317700D02*
X135876700Y-60936000D01*
X131350000Y-49805300D02*
X131342000Y-49797300D01*
X131350000Y-50028700D02*
X131350000Y-49805300D01*
D41*
X126258400Y-56243800D02*
X125558300Y-55543700D01*
D42*
X110782000Y-62230000D02*
X110782000Y-61429700D01*
X110782000Y-62230000D02*
X111582300Y-62230000D01*
X110782000Y-60452000D02*
X110782000Y-61252300D01*
X110782000Y-61252300D02*
X110782000Y-61429700D01*
X111709300Y-62103000D02*
X111582300Y-62230000D01*
X112738000Y-62103000D02*
X111709300Y-62103000D01*
X112738000Y-62103000D02*
X112738000Y-60452000D01*
D41*
X131727700Y-60298700D02*
X131727700Y-60298800D01*
X131674500Y-60245500D02*
X131727700Y-60298700D01*
X132417200Y-60988400D02*
X131727700Y-60298800D01*
X127008200Y-61306200D02*
X126265400Y-62049000D01*
D42*
X134867900Y-61317700D02*
X134220700Y-60670500D01*
X135495000Y-61317700D02*
X134867900Y-61317700D01*
D41*
X134220700Y-60670500D02*
X133477900Y-59927700D01*
D42*
X135878000Y-64636300D02*
X135878000Y-64248700D01*
X128068900Y-60245500D02*
X131674500Y-60245500D01*
X127008200Y-61306200D02*
X128068900Y-60245500D01*
D41*
X132735100Y-59184900D02*
X133477900Y-59927700D01*
D42*
X137992000Y-73844000D02*
X136341700Y-73844000D01*
X119569700Y-51435000D02*
X119672700Y-51538000D01*
X118745000Y-51435000D02*
X119569700Y-51435000D01*
X135878000Y-64636300D02*
X135878000Y-65024000D01*
X131971800Y-66645500D02*
X131331300Y-67286000D01*
X133294800Y-66645500D02*
X131971800Y-66645500D01*
X133472000Y-66822700D02*
X133294800Y-66645500D01*
X134164900Y-66822700D02*
X133472000Y-66822700D01*
X135878000Y-65109600D02*
X134164900Y-66822700D01*
X135878000Y-65024000D02*
X135878000Y-65109600D01*
X130556000Y-67286000D02*
X131331300Y-67286000D01*
X133225700Y-76960000D02*
X123062300Y-76960000D01*
X136341700Y-73844000D02*
X133225700Y-76960000D01*
X123062300Y-88113500D02*
X120955000Y-90220800D01*
X123062300Y-76960000D02*
X123062300Y-88113500D01*
X143002000Y-81448000D02*
X143002000Y-82398100D01*
X137992000Y-73844000D02*
X139642300Y-73844000D01*
X131342000Y-49409600D02*
X131342000Y-49797300D01*
X131342000Y-49409600D02*
X131342000Y-49022000D01*
X131342000Y-49022000D02*
X131342000Y-48246700D01*
X147612000Y-87630000D02*
X147612000Y-86829700D01*
X148236900Y-83009700D02*
X146467500Y-83009700D01*
X143752000Y-85344000D02*
X144552300Y-85344000D01*
X146467500Y-85344000D02*
X144552300Y-85344000D01*
X146467500Y-83009700D02*
X146467500Y-85344000D01*
X139746000Y-73947700D02*
X139642300Y-73844000D01*
X141682100Y-73947700D02*
X139746000Y-73947700D01*
X143732200Y-71897600D02*
X141682100Y-73947700D01*
X145024100Y-71897600D02*
X143732200Y-71897600D01*
X145259300Y-72132800D02*
X145024100Y-71897600D01*
X145259300Y-80140800D02*
X145259300Y-72132800D01*
X143002000Y-82398100D02*
X145259300Y-80140800D01*
X143752000Y-83148100D02*
X143752000Y-85344000D01*
X143002000Y-82398100D02*
X143752000Y-83148100D01*
X120523000Y-51538000D02*
X119672700Y-51538000D01*
X146467500Y-85685200D02*
X147612000Y-86829700D01*
X146467500Y-85344000D02*
X146467500Y-85685200D01*
X155735000Y-74610000D02*
X153834800Y-74610000D01*
X148236900Y-83009700D02*
X150006300Y-83009700D01*
X155735000Y-85407500D02*
X153834800Y-85407500D01*
X153834800Y-85407500D02*
X150721700Y-82294300D01*
X153834800Y-79181200D02*
X150721700Y-82294300D01*
X153834800Y-74610000D02*
X153834800Y-79181200D01*
X150721700Y-82294300D02*
X150006300Y-83009700D01*
X153324700Y-74099900D02*
X153834800Y-74610000D01*
X153324700Y-65947700D02*
X153324700Y-74099900D01*
X152656000Y-65279000D02*
X153324700Y-65947700D01*
X118745000Y-44807000D02*
X117969700Y-44807000D01*
X118745000Y-48260000D02*
X118119800Y-48260000D01*
X118119800Y-48260000D02*
X117969700Y-48260000D01*
X117516300Y-47806600D02*
X117516300Y-46736000D01*
X117969700Y-48260000D02*
X117516300Y-47806600D01*
X131350000Y-51054000D02*
X131350000Y-50028700D01*
X117969700Y-51435000D02*
X117969700Y-48260000D01*
X118745000Y-51435000D02*
X117969700Y-51435000D01*
X118759000Y-52249300D02*
X118745000Y-52235300D01*
X118759000Y-53656000D02*
X118759000Y-52249300D01*
X118745000Y-51435000D02*
X118745000Y-52235300D01*
X121484300Y-55177800D02*
X121484300Y-55056000D01*
X121761300Y-55454800D02*
X121484300Y-55177800D01*
X120509000Y-55056000D02*
X121484300Y-55056000D01*
D41*
X129782300Y-53422300D02*
X129862400Y-53422300D01*
X129862400Y-53422300D02*
X129942400Y-53422300D01*
D42*
X129862400Y-51641300D02*
X130449700Y-51054000D01*
X129862400Y-53422300D02*
X129862400Y-51641300D01*
X131350000Y-51054000D02*
X130449700Y-51054000D01*
X132735100Y-59184900D02*
X131674500Y-60245500D01*
X129046700Y-54157900D02*
X129782300Y-53422300D01*
X128827300Y-54157900D02*
X129046700Y-54157900D01*
X126741400Y-56243800D02*
X128827300Y-54157900D01*
X126258400Y-56243800D02*
X126741400Y-56243800D01*
X131993000Y-58442800D02*
X132735100Y-57700700D01*
X131993000Y-58442800D02*
X132735100Y-59184900D01*
D41*
X132735100Y-57700700D02*
X133477900Y-56957900D01*
D42*
X113557400Y-58832300D02*
X112738000Y-59651700D01*
X113958500Y-58832300D02*
X113557400Y-58832300D01*
X112738000Y-60452000D02*
X112738000Y-59651700D01*
X129799300Y-56249100D02*
X131993000Y-58442800D01*
X129799300Y-54910500D02*
X129799300Y-56249100D01*
X129046700Y-54157900D02*
X129799300Y-54910500D01*
X140755700Y-46556600D02*
X141194000Y-46118300D01*
X140755700Y-50103300D02*
X140755700Y-46556600D01*
X138268800Y-52590200D02*
X140755700Y-50103300D01*
X136652000Y-52590200D02*
X138268800Y-52590200D01*
X133875400Y-49813600D02*
X136652000Y-52590200D01*
X133875400Y-48669500D02*
X133875400Y-49813600D01*
X133452600Y-48246700D02*
X133875400Y-48669500D01*
X131342000Y-48246700D02*
X133452600Y-48246700D01*
X136652000Y-52590200D02*
X136652000Y-55396000D01*
X141194000Y-45222400D02*
X141194000Y-46118300D01*
X141194000Y-45222400D02*
X141194000Y-45201500D01*
X141194000Y-44943000D02*
X141194000Y-45201500D01*
X148768500Y-45201500D02*
X152656000Y-49089000D01*
X141194000Y-45201500D02*
X148768500Y-45201500D01*
D40*
X133686300Y-55335300D02*
X132770800Y-56250800D01*
X133967400Y-55335300D02*
X133686300Y-55335300D01*
X130667000Y-55922300D02*
X130921800Y-56177100D01*
X130667000Y-55526200D02*
X130667000Y-55922300D01*
X131356600Y-54836600D02*
X130667000Y-55526200D01*
X132417200Y-55897200D02*
X131727600Y-56586800D01*
X131727600Y-56981500D02*
X131924700Y-57178600D01*
X131727600Y-56586800D02*
X131727600Y-56981500D01*
X132923700Y-54683700D02*
X133148100Y-54683700D01*
X132063700Y-55543700D02*
X132923700Y-54683700D01*
X131003000Y-54483000D02*
X131692800Y-53793200D01*
X131692800Y-53793300D02*
X131692800Y-53793200D01*
X132257900Y-53793300D02*
X131692800Y-53793300D01*
X132614400Y-53436800D02*
X132257900Y-53793300D01*
X134530800Y-53436800D02*
X132614400Y-53436800D01*
X134985900Y-53891900D02*
X134530800Y-53436800D01*
X135005300Y-53891900D02*
X134985900Y-53891900D01*
X135430100Y-54316700D02*
X135005300Y-53891900D01*
X135430100Y-55430000D02*
X135430100Y-54316700D01*
X136121500Y-56121400D02*
X135430100Y-55430000D01*
X137198600Y-56121400D02*
X136121500Y-56121400D01*
X137352400Y-55967600D02*
X137198600Y-56121400D01*
X137352400Y-54509300D02*
X137352400Y-55967600D01*
X141592300Y-50269400D02*
X137352400Y-54509300D01*
X141592300Y-49234600D02*
X141592300Y-50269400D01*
X131934800Y-52844100D02*
X131969500Y-52844100D01*
X130649500Y-54129400D02*
X131934800Y-52844100D01*
X134038200Y-53950600D02*
X134704800Y-54617200D01*
X132843500Y-53950600D02*
X134038200Y-53950600D01*
X132399800Y-54394300D02*
X132843500Y-53950600D01*
X132399800Y-54500300D02*
X132399800Y-54394300D01*
X132399900Y-54500300D02*
X132399800Y-54500300D01*
X131710100Y-55190100D02*
X132399900Y-54500300D01*
X126724300Y-64531000D02*
X122779000Y-64531000D01*
X126724300Y-64418600D02*
X126724300Y-64531000D01*
X127679600Y-63463300D02*
X126724300Y-64418600D01*
X126972500Y-62756200D02*
X126282900Y-63445800D01*
X121779000Y-64531000D02*
X121779000Y-63430700D01*
X125396600Y-63430700D02*
X121779000Y-63430700D01*
X126267800Y-63430700D02*
X125396600Y-63430700D01*
X126282900Y-63445800D02*
X126267800Y-63430700D01*
X125981600Y-49561600D02*
X122267100Y-45847100D01*
X124983700Y-65631300D02*
X125316600Y-65298400D01*
X120779000Y-65631300D02*
X124983700Y-65631300D01*
X120779000Y-64531000D02*
X120779000Y-65631300D01*
X127138900Y-61882700D02*
X126619000Y-62402600D01*
X127549000Y-61882700D02*
X127138900Y-61882700D01*
X128553000Y-62886700D02*
X127549000Y-61882700D01*
X128553000Y-63768800D02*
X128553000Y-62886700D01*
X127023400Y-65298400D02*
X128553000Y-63768800D01*
X125316600Y-65298400D02*
X127023400Y-65298400D01*
X120286400Y-62923300D02*
X119779000Y-63430700D01*
X124684100Y-62923300D02*
X120286400Y-62923300D01*
X125911900Y-61695500D02*
X124684100Y-62923300D01*
X119779000Y-64531000D02*
X119779000Y-63430700D01*
X119864400Y-66716700D02*
X122853500Y-66716700D01*
X118779000Y-65631300D02*
X119864400Y-66716700D01*
X118779000Y-64531000D02*
X118779000Y-65631300D01*
X127477500Y-59422700D02*
X128163300Y-59422700D01*
X125558300Y-61341900D02*
X127477500Y-59422700D01*
X124503000Y-61678000D02*
X124113800Y-62067200D01*
X124515100Y-61678000D02*
X124503000Y-61678000D01*
X124515200Y-61678000D02*
X124515100Y-61678000D01*
X117779000Y-65660600D02*
X118892700Y-66774300D01*
X117779000Y-64531000D02*
X117779000Y-65660600D01*
X125204800Y-60988400D02*
X124515200Y-61678000D01*
X128018000Y-44943000D02*
X128018000Y-46043300D01*
X123790500Y-57311400D02*
X124480200Y-58001000D01*
X127937700Y-46123600D02*
X127937700Y-47087700D01*
X128018000Y-46043300D02*
X127937700Y-46123600D01*
X127423200Y-57750200D02*
X128185900Y-57750200D01*
X126505500Y-58667900D02*
X127423200Y-57750200D01*
X125163800Y-58667900D02*
X126505500Y-58667900D01*
X125102500Y-58606600D02*
X125163800Y-58667900D01*
X125102400Y-58606600D02*
X125102500Y-58606600D01*
X124496800Y-58001000D02*
X125102400Y-58606600D01*
X124480200Y-58001000D02*
X124496800Y-58001000D01*
X129018000Y-44943000D02*
X129018000Y-46043300D01*
X128975700Y-46085600D02*
X128975700Y-46790700D01*
X129018000Y-46043300D02*
X128975700Y-46085600D01*
X124144100Y-56957900D02*
X124833700Y-57647500D01*
X126034000Y-58160600D02*
X128975700Y-55218900D01*
X125293400Y-58160600D02*
X126034000Y-58160600D01*
X124833800Y-57701000D02*
X125293400Y-58160600D01*
X124833700Y-57701000D02*
X124833800Y-57701000D01*
X124833700Y-57647500D02*
X124833700Y-57701000D01*
X124497600Y-56604300D02*
X124471400Y-56578100D01*
D41*
X124471400Y-56508000D02*
X124471400Y-56578100D01*
X124470900Y-56507500D02*
X124471400Y-56508000D01*
D40*
X125394300Y-57430900D02*
X125589400Y-57430900D01*
X124470900Y-56507500D02*
X125394300Y-57430900D01*
X128401000Y-48462900D02*
X126054600Y-48462900D01*
X130018000Y-46845900D02*
X128401000Y-48462900D01*
X130018000Y-44943000D02*
X130018000Y-46845900D01*
X125478800Y-54050000D02*
X123838100Y-54050000D01*
X126265400Y-54836600D02*
X125478800Y-54050000D01*
X125012300Y-52169200D02*
X123100600Y-52169200D01*
X126972500Y-54129400D02*
X125012300Y-52169200D01*
X127679600Y-53422300D02*
X126990000Y-52732700D01*
X126990000Y-52400600D02*
X123224400Y-48635000D01*
X126990000Y-52732700D02*
X126990000Y-52400600D01*
X143594000Y-87630000D02*
X146012000Y-87630000D01*
X141394000Y-87630000D02*
X138816000Y-87630000D01*
D42*
X139397400Y-72047700D02*
X140247700Y-72898000D01*
X130721900Y-72047700D02*
X139397400Y-72047700D01*
X128575000Y-69900800D02*
X130721900Y-72047700D01*
X141098000Y-72898000D02*
X140247700Y-72898000D01*
D40*
X149931300Y-70937100D02*
X149931300Y-77010300D01*
X148895000Y-69900800D02*
X149931300Y-70937100D01*
X148236900Y-77010300D02*
X149931300Y-77010300D01*
X151435000Y-77508100D02*
X149931300Y-79011800D01*
X151435000Y-69900800D02*
X151435000Y-77508100D01*
X148236900Y-79011800D02*
X149931300Y-79011800D01*
D42*
X137536000Y-86450300D02*
X137992000Y-85994300D01*
X137536000Y-87630000D02*
X137536000Y-86450300D01*
X137992000Y-84344000D02*
X137992000Y-85994300D01*
X142252000Y-85344000D02*
X142252000Y-84568700D01*
X143002000Y-77048000D02*
X144052200Y-77048000D01*
X144398000Y-76702200D02*
X144398000Y-72898000D01*
X144052200Y-77048000D02*
X144398000Y-76702200D01*
X143002000Y-77048000D02*
X141801700Y-77048000D01*
X137992000Y-84344000D02*
X141801700Y-84344000D01*
X142027300Y-84344000D02*
X142252000Y-84568700D01*
X141801700Y-84344000D02*
X142027300Y-84344000D01*
X141801700Y-77048000D02*
X141801700Y-84344000D01*
X127492000Y-73844000D02*
X125841700Y-73844000D01*
X123891700Y-71894000D02*
X117856000Y-71894000D01*
X125841700Y-73844000D02*
X123891700Y-71894000D01*
X114583000Y-74391700D02*
X114268000Y-74391700D01*
X117080700Y-71894000D02*
X114583000Y-74391700D01*
X117856000Y-71894000D02*
X117080700Y-71894000D01*
X114268000Y-75692000D02*
X114268000Y-74391700D01*
X114268000Y-75692000D02*
X114268000Y-80010000D01*
X114268000Y-80010000D02*
X114268000Y-81310300D01*
X114268000Y-81310300D02*
X114268000Y-83060000D01*
X121412000Y-83060000D02*
X114268000Y-83060000D01*
X114236000Y-83092000D02*
X114236000Y-84328000D01*
X114268000Y-83060000D02*
X114236000Y-83092000D01*
X137756000Y-50476000D02*
X137756000Y-49676000D01*
X137756000Y-48876000D02*
X137756000Y-49676000D01*
X137756000Y-48076000D02*
X137756000Y-48876000D01*
X136194000Y-44943000D02*
X136194000Y-46118300D01*
X136051800Y-46260500D02*
X136194000Y-46118300D01*
X136051800Y-46366000D02*
X136051800Y-46260500D01*
X136652000Y-56896000D02*
X137427300Y-56896000D01*
X137756000Y-47431700D02*
X137756000Y-48076000D01*
X137548100Y-47223800D02*
X137756000Y-47431700D01*
D41*
X133831500Y-57311400D02*
X133831500Y-59432200D01*
D42*
X136652000Y-59436000D02*
X135876700Y-59436000D01*
X139620300Y-59089000D02*
X141119800Y-59089000D01*
X137427300Y-56896000D02*
X139620300Y-59089000D01*
X148236900Y-81008200D02*
X150006300Y-81008200D01*
X152724300Y-78290200D02*
X150006300Y-81008200D01*
X152724300Y-69359300D02*
X152724300Y-78290200D01*
X151374600Y-68009600D02*
X152724300Y-69359300D01*
X146934500Y-68009600D02*
X151374600Y-68009600D01*
X141925900Y-63001000D02*
X146934500Y-68009600D01*
X141925900Y-59895100D02*
X141119800Y-59089000D01*
X141925900Y-63001000D02*
X141925900Y-59895100D01*
X136652000Y-59436000D02*
X139755700Y-62539700D01*
X141485100Y-63441800D02*
X141925900Y-63001000D01*
X140657800Y-63441800D02*
X141485100Y-63441800D01*
X139755700Y-62539700D02*
X140657800Y-63441800D01*
X131958700Y-68589600D02*
X132588000Y-67960300D01*
X118585800Y-68589600D02*
X131958700Y-68589600D01*
X112045900Y-75129500D02*
X118585800Y-68589600D01*
X112045900Y-80956300D02*
X112045900Y-75129500D01*
X109974600Y-83027600D02*
X112045900Y-80956300D01*
X108808100Y-83027600D02*
X109974600Y-83027600D01*
X108585600Y-83250100D02*
X108808100Y-83027600D01*
X108585600Y-85401400D02*
X108585600Y-83250100D01*
X109829600Y-86645400D02*
X108585600Y-85401400D01*
X112299600Y-86645400D02*
X109829600Y-86645400D01*
X115875000Y-90220800D02*
X112299600Y-86645400D01*
X132588000Y-67310000D02*
X132588000Y-67960300D01*
X134835300Y-67460100D02*
X139755700Y-62539700D01*
X132738100Y-67460100D02*
X134835300Y-67460100D01*
X132588000Y-67310000D02*
X132738100Y-67460100D01*
X142393700Y-46271900D02*
X142123700Y-46001900D01*
X142393700Y-52585900D02*
X142393700Y-46271900D01*
X141981200Y-52998400D02*
X142393700Y-52585900D01*
X141981200Y-58227600D02*
X141981200Y-52998400D01*
X141119800Y-59089000D02*
X141981200Y-58227600D01*
D41*
X133849500Y-59556200D02*
X133831500Y-59574200D01*
D42*
X133849500Y-59556200D02*
X133849500Y-59450200D01*
X135862500Y-59450200D02*
X133849500Y-59450200D01*
X135876700Y-59436000D02*
X135862500Y-59450200D01*
X133849500Y-59450200D02*
X133831500Y-59432200D01*
M02*
