M48
;DRILL file {KiCad (2017-06-19 revision 6733101c6)-makepkg} date 08/21/17 23:10:23
;FORMAT={-:-/ absolute / inch / decimal}
FMAT,2
INCH,TZ
T1C0.016
T2C0.035
T3C0.039
T4C0.047
T5C0.063
T6C0.098
T7C0.098
T8C0.128
%
G90
G05
M72
T1
X4.2823Y-3.065
X4.3316Y-2.9204
X4.4187Y-3.2945
X4.4866Y-2.3162
X4.5412Y-2.5169
X4.5898Y-2.4716
X4.6007Y-2.5455
X4.6808Y-2.6289
X4.7888Y-2.3705
X4.789Y-2.4376
X4.7938Y-2.1833
X4.8137Y-1.805
X4.8368Y-2.6266
X4.8368Y-2.4335
X4.8465Y-2.0539
X4.8514Y-1.9148
X4.8755Y-2.128
X4.8864Y-2.4436
X4.9337Y-2.5708
X4.9369Y-2.4973
X4.9434Y-2.3456
X4.9445Y-2.2611
X4.9599Y-1.9512
X4.9628Y-1.908
X4.9891Y-2.5406
X5.0369Y-1.8538
X5.0458Y-2.3395
X5.0467Y-2.2736
X5.0778Y-1.8422
X5.0778Y-2.174
X5.1078Y-2.4364
X5.1544Y-2.2117
X5.1939Y-2.2511
X5.1956Y-2.0805
X5.2048Y-2.4861
X5.2346Y-2.5222
X5.2421Y-2.1529
X5.2517Y-1.8679
X5.2692Y-2.5989
X5.2743Y-2.1786
X5.3033Y-2.1503
X5.3074Y-1.88
X5.3564Y-1.8254
X5.4153Y-1.8592
X5.4609Y-1.8399
X5.5561Y-2.4661
X5.5745Y-1.9384
X5.5954Y-1.8111
X5.6767Y-3.4925
X5.7904Y-2.4631
X5.9544Y-2.357
T2
X5.54Y-2.0763
X5.54Y-2.1763
X5.54Y-2.2763
X5.54Y-2.3763
X5.64Y-2.1263
X5.64Y-2.2263
X5.64Y-2.3263
X5.64Y-2.4263
T3
X4.462Y-3.552
X4.562Y-3.552
X4.662Y-3.552
X4.762Y-3.552
X4.862Y-2.752
X4.862Y-3.552
X4.962Y-2.752
X4.962Y-3.552
X5.062Y-2.752
X5.062Y-3.552
X5.162Y-2.752
X5.162Y-3.552
X5.262Y-2.752
X5.262Y-3.552
X5.362Y-2.752
X5.362Y-3.552
X5.462Y-2.752
X5.462Y-3.552
X5.562Y-2.752
X5.562Y-3.552
X5.662Y-2.752
X5.662Y-3.552
X5.762Y-2.752
X5.762Y-3.552
X5.862Y-2.752
X5.862Y-3.552
X5.962Y-2.752
X5.962Y-3.552
T4
X4.54Y-1.84
X4.54Y-1.9778
X4.54Y-2.1156
X4.54Y-2.2534
T5
X6.0101Y-1.9326
X6.0101Y-2.57
T6
X4.312Y-2.802
X4.312Y-3.502
T7
X6.112Y-2.802
X6.112Y-3.502
T8
X5.89Y-2.0177
X5.89Y-2.485
T0
M30
