M48
INCH,TZ
T1C0.0157
T2C0.0393
T3C0.0472
T4C0.0984
T5C0.0669
T6C0.0984
%
G90
G05
T1
X42913Y-18307
X42913Y-19094
X42913Y-19882
X42913Y-20669
X42913Y-21457
X42913Y-22244
X43329Y-29192
X43675Y-26887
X43910Y-32258
X43927Y-30667
X44707Y-24804
X45110Y-25648
X45194Y-25254
X46009Y-25325
X46018Y-24736
X46457Y-30709
X46457Y-31299
X46457Y-31890
X46900Y-25962
X47405Y-26125
X47555Y-24849
X47863Y-24127
X47896Y-23589
X47960Y-24720
X47986Y-26289
X48100Y-21834
X48700Y-19446
X48812Y-20376
X48867Y-20992
X48931Y-24689
X49325Y-24783
X49555Y-23565
X49803Y-30709
X49803Y-31299
X49803Y-31890
X50089Y-24097
X50491Y-24508
X51252Y-25451
X51305Y-23519
X51547Y-23871
X51806Y-25287
X52209Y-22789
X52922Y-21471
X53024Y-19495
X53115Y-19097
X53167Y-20191
X53491Y-18242
X53773Y-20279
X54066Y-18398
X54320Y-22156
X54653Y-18843
X54720Y-21478
X54724Y-30709
X54724Y-31299
X54724Y-31890
X54866Y-22437
X55429Y-19847
X56120Y-34159
X57394Y-17361
X57617Y-18794
X57683Y-24096
X58266Y-19646
X60630Y-21260
X60630Y-21850
X60630Y-22441
X61220Y-30315
X61220Y-30906
X61220Y-31496
X61220Y-32087
X61220Y-32677
T2
X44620Y-35520
X45620Y-35520
X46620Y-35520
X47620Y-35520
X48620Y-27520
X48620Y-35520
X49620Y-27520
X49620Y-35520
X50620Y-27520
X50620Y-35520
X51620Y-27520
X51620Y-35520
X52620Y-27520
X52620Y-35520
X53620Y-27520
X53620Y-35520
X54620Y-27520
X54620Y-35520
X55620Y-27520
X55620Y-35520
X56620Y-27520
X56620Y-35520
X57620Y-27520
X57620Y-35520
X58620Y-27520
X58620Y-35520
X59620Y-27520
X59620Y-35520
T3
X56750Y-20364
X56750Y-21348
X56750Y-22333
X56750Y-23317
X45400Y-18400
X45400Y-19778
X45400Y-21156
X45400Y-22534
X57734Y-20364
X57734Y-21348
X57734Y-22333
X57734Y-23317
T4
X43120Y-28020
X43120Y-35020
T5
X60561Y-20364
X60561Y-23317
T6
X61120Y-28020
X61120Y-35020
T0
M30
