G04 #@! TF.GenerationSoftware,KiCad,Pcbnew,(2018-02-15 revision 29b28de31)-makepkg*
G04 #@! TF.CreationDate,2018-05-29T16:30:00+09:30*
G04 #@! TF.ProjectId,ATM90E3x_fw,41544D39304533785F66772E6B696361,rev?*
G04 #@! TF.SameCoordinates,Original*
G04 #@! TF.FileFunction,Legend,Top*
G04 #@! TF.FilePolarity,Positive*
%FSLAX46Y46*%
G04 Gerber Fmt 4.6, Leading zero omitted, Abs format (unit mm)*
G04 Created by KiCad (PCBNEW (2018-02-15 revision 29b28de31)-makepkg) date 05/29/18 16:30:00*
%MOMM*%
%LPD*%
G01*
G04 APERTURE LIST*
%ADD10C,0.200000*%
%ADD11C,0.120000*%
%ADD12C,0.254000*%
%ADD13C,0.100000*%
%ADD14C,0.127000*%
%ADD15C,0.500000*%
%ADD16C,0.150000*%
G04 APERTURE END LIST*
D10*
X115347714Y-67151238D02*
X115385809Y-67189333D01*
X115423904Y-67303619D01*
X115423904Y-67379809D01*
X115385809Y-67494095D01*
X115309619Y-67570285D01*
X115233428Y-67608380D01*
X115081047Y-67646476D01*
X114966761Y-67646476D01*
X114814380Y-67608380D01*
X114738190Y-67570285D01*
X114662000Y-67494095D01*
X114623904Y-67379809D01*
X114623904Y-67303619D01*
X114662000Y-67189333D01*
X114700095Y-67151238D01*
X115004857Y-66541714D02*
X115004857Y-66808380D01*
X115423904Y-66808380D02*
X114623904Y-66808380D01*
X114623904Y-66427428D01*
X126053809Y-67875047D02*
X126091904Y-67760761D01*
X126091904Y-67570285D01*
X126053809Y-67494095D01*
X126015714Y-67456000D01*
X125939523Y-67417904D01*
X125863333Y-67417904D01*
X125787142Y-67456000D01*
X125749047Y-67494095D01*
X125710952Y-67570285D01*
X125672857Y-67722666D01*
X125634761Y-67798857D01*
X125596666Y-67836952D01*
X125520476Y-67875047D01*
X125444285Y-67875047D01*
X125368095Y-67836952D01*
X125330000Y-67798857D01*
X125291904Y-67722666D01*
X125291904Y-67532190D01*
X125330000Y-67417904D01*
X126091904Y-67075047D02*
X125291904Y-67075047D01*
X125330000Y-66275047D02*
X125291904Y-66351238D01*
X125291904Y-66465523D01*
X125330000Y-66579809D01*
X125406190Y-66656000D01*
X125482380Y-66694095D01*
X125634761Y-66732190D01*
X125749047Y-66732190D01*
X125901428Y-66694095D01*
X125977619Y-66656000D01*
X126053809Y-66579809D01*
X126091904Y-66465523D01*
X126091904Y-66389333D01*
X126053809Y-66275047D01*
X126015714Y-66236952D01*
X125749047Y-66236952D01*
X125749047Y-66389333D01*
X124529904Y-43065619D02*
X124529904Y-42532285D01*
X125329904Y-43065619D01*
X125329904Y-42532285D01*
X124529904Y-42303714D02*
X125329904Y-41770380D01*
X124529904Y-41770380D02*
X125329904Y-42303714D01*
X133673809Y-43237047D02*
X133711904Y-43122761D01*
X133711904Y-42932285D01*
X133673809Y-42856095D01*
X133635714Y-42818000D01*
X133559523Y-42779904D01*
X133483333Y-42779904D01*
X133407142Y-42818000D01*
X133369047Y-42856095D01*
X133330952Y-42932285D01*
X133292857Y-43084666D01*
X133254761Y-43160857D01*
X133216666Y-43198952D01*
X133140476Y-43237047D01*
X133064285Y-43237047D01*
X132988095Y-43198952D01*
X132950000Y-43160857D01*
X132911904Y-43084666D01*
X132911904Y-42894190D01*
X132950000Y-42779904D01*
X133711904Y-42437047D02*
X132911904Y-42437047D01*
X132911904Y-42132285D01*
X132950000Y-42056095D01*
X132988095Y-42018000D01*
X133064285Y-41979904D01*
X133178571Y-41979904D01*
X133254761Y-42018000D01*
X133292857Y-42056095D01*
X133330952Y-42132285D01*
X133330952Y-42437047D01*
X133711904Y-41637047D02*
X132911904Y-41637047D01*
X133201210Y-58420000D02*
G75*
G03X133201210Y-58420000I-359210J0D01*
G01*
D11*
X148455000Y-49895000D02*
X148455000Y-61055000D01*
X148455000Y-61055000D02*
X157135000Y-61055000D01*
X157135000Y-61055000D02*
X157135000Y-49895000D01*
X157135000Y-49895000D02*
X148455000Y-49895000D01*
X148455000Y-51875000D02*
X148455000Y-51575000D01*
X148455000Y-51575000D02*
X147755000Y-51575000D01*
X147755000Y-51575000D02*
X147755000Y-51875000D01*
X147755000Y-51875000D02*
X148455000Y-51875000D01*
X148455000Y-54375000D02*
X148455000Y-54075000D01*
X148455000Y-54075000D02*
X147755000Y-54075000D01*
X147755000Y-54075000D02*
X147755000Y-54375000D01*
X147755000Y-54375000D02*
X148455000Y-54375000D01*
X148455000Y-56875000D02*
X148455000Y-56575000D01*
X148455000Y-56575000D02*
X147755000Y-56575000D01*
X147755000Y-56575000D02*
X147755000Y-56875000D01*
X147755000Y-56875000D02*
X148455000Y-56875000D01*
X148455000Y-59375000D02*
X148455000Y-59075000D01*
X148455000Y-59075000D02*
X147755000Y-59075000D01*
X147755000Y-59075000D02*
X147755000Y-59375000D01*
X147755000Y-59375000D02*
X148455000Y-59375000D01*
X144145000Y-50615000D02*
X144445000Y-50190736D01*
X144445000Y-50190736D02*
X143845000Y-50190736D01*
X143845000Y-50190736D02*
X144145000Y-50615000D01*
X117916000Y-46436000D02*
X117916000Y-47036000D01*
X117316000Y-46736000D02*
X117916000Y-46436000D01*
X117916000Y-47036000D02*
X117316000Y-46736000D01*
X110516000Y-44206000D02*
X110516000Y-59766000D01*
X116596000Y-54786000D02*
X116596000Y-56186000D01*
X116596000Y-51286000D02*
X116596000Y-52686000D01*
X116596000Y-47786000D02*
X116596000Y-49186000D01*
X116596000Y-59766000D02*
X116596000Y-58286000D01*
X116596000Y-44206000D02*
X116596000Y-45686000D01*
X107236000Y-59766000D02*
X116596000Y-59766000D01*
X107236000Y-44206000D02*
X107236000Y-59766000D01*
X116596000Y-44206000D02*
X107236000Y-44206000D01*
X109492000Y-66841000D02*
X109492000Y-66641000D01*
X110492000Y-66841000D02*
X110492000Y-66641000D01*
X111492000Y-66841000D02*
X111492000Y-66641000D01*
X112492000Y-66841000D02*
X112492000Y-66641000D01*
X109092000Y-65591000D02*
X109092000Y-66241000D01*
X112892000Y-65591000D02*
X109092000Y-65591000D01*
X112892000Y-66241000D02*
X112892000Y-65591000D01*
X109092000Y-67341000D02*
X109092000Y-66841000D01*
X112892000Y-67341000D02*
X109092000Y-67341000D01*
X112892000Y-66841000D02*
X112892000Y-67341000D01*
X107992000Y-65441000D02*
X108492000Y-65441000D01*
X107992000Y-65441000D02*
X107992000Y-65441000D01*
X108492000Y-65441000D02*
X107992000Y-65441000D01*
X108492000Y-65441000D02*
X108492000Y-65441000D01*
X108492000Y-64841000D02*
X108492000Y-64841000D01*
X108492000Y-65841000D02*
X108492000Y-64841000D01*
X108492000Y-65841000D02*
X108492000Y-65841000D01*
X108492000Y-64841000D02*
X108492000Y-65841000D01*
X107992000Y-64841000D02*
X108892000Y-64841000D01*
X107992000Y-65841000D02*
X107992000Y-64841000D01*
X113992000Y-65441000D02*
X113492000Y-65441000D01*
X113992000Y-65441000D02*
X113992000Y-65441000D01*
X113492000Y-65441000D02*
X113992000Y-65441000D01*
X113492000Y-65441000D02*
X113492000Y-65441000D01*
X113492000Y-64841000D02*
X113492000Y-64841000D01*
X113492000Y-65841000D02*
X113492000Y-64841000D01*
X113492000Y-65841000D02*
X113492000Y-65841000D01*
X113492000Y-64841000D02*
X113492000Y-65841000D01*
X113992000Y-64841000D02*
X113092000Y-64841000D01*
X113992000Y-65841000D02*
X113992000Y-64841000D01*
X112892000Y-67741000D02*
X109092000Y-67741000D01*
X113742000Y-64191000D02*
G75*
G03X113742000Y-64191000I-250000J0D01*
G01*
X124029000Y-64206000D02*
G75*
G03X124029000Y-64206000I-250000J0D01*
G01*
X123179000Y-67756000D02*
X117379000Y-67756000D01*
X124279000Y-65856000D02*
X124279000Y-64856000D01*
X124279000Y-64856000D02*
X123379000Y-64856000D01*
X123779000Y-64856000D02*
X123779000Y-65856000D01*
X123779000Y-65856000D02*
X123779000Y-65856000D01*
X123779000Y-65856000D02*
X123779000Y-64856000D01*
X123779000Y-64856000D02*
X123779000Y-64856000D01*
X123779000Y-65456000D02*
X123779000Y-65456000D01*
X123779000Y-65456000D02*
X124279000Y-65456000D01*
X124279000Y-65456000D02*
X124279000Y-65456000D01*
X124279000Y-65456000D02*
X123779000Y-65456000D01*
X116279000Y-65856000D02*
X116279000Y-64856000D01*
X116279000Y-64856000D02*
X117179000Y-64856000D01*
X116779000Y-64856000D02*
X116779000Y-65856000D01*
X116779000Y-65856000D02*
X116779000Y-65856000D01*
X116779000Y-65856000D02*
X116779000Y-64856000D01*
X116779000Y-64856000D02*
X116779000Y-64856000D01*
X116779000Y-65456000D02*
X116779000Y-65456000D01*
X116779000Y-65456000D02*
X116279000Y-65456000D01*
X116279000Y-65456000D02*
X116279000Y-65456000D01*
X116279000Y-65456000D02*
X116779000Y-65456000D01*
X123179000Y-66856000D02*
X123179000Y-67356000D01*
X123179000Y-67356000D02*
X117379000Y-67356000D01*
X117379000Y-67356000D02*
X117379000Y-66856000D01*
X123179000Y-66256000D02*
X123179000Y-65606000D01*
X123179000Y-65606000D02*
X117379000Y-65606000D01*
X117379000Y-65606000D02*
X117379000Y-66256000D01*
X122779000Y-66856000D02*
X122779000Y-66656000D01*
X121779000Y-66856000D02*
X121779000Y-66656000D01*
X120779000Y-66856000D02*
X120779000Y-66656000D01*
X119779000Y-66856000D02*
X119779000Y-66656000D01*
X118779000Y-66856000D02*
X118779000Y-66656000D01*
X117779000Y-66856000D02*
X117779000Y-66656000D01*
X141194000Y-42618000D02*
X141194000Y-42818000D01*
X140194000Y-42618000D02*
X140194000Y-42818000D01*
X139194000Y-42618000D02*
X139194000Y-42818000D01*
X138194000Y-42618000D02*
X138194000Y-42818000D01*
X137194000Y-42618000D02*
X137194000Y-42818000D01*
X136194000Y-42618000D02*
X136194000Y-42818000D01*
X141594000Y-43868000D02*
X141594000Y-43218000D01*
X135794000Y-43868000D02*
X141594000Y-43868000D01*
X135794000Y-43218000D02*
X135794000Y-43868000D01*
X141594000Y-42118000D02*
X141594000Y-42618000D01*
X135794000Y-42118000D02*
X141594000Y-42118000D01*
X135794000Y-42618000D02*
X135794000Y-42118000D01*
X142694000Y-44018000D02*
X142194000Y-44018000D01*
X142694000Y-44018000D02*
X142694000Y-44018000D01*
X142194000Y-44018000D02*
X142694000Y-44018000D01*
X142194000Y-44018000D02*
X142194000Y-44018000D01*
X142194000Y-44618000D02*
X142194000Y-44618000D01*
X142194000Y-43618000D02*
X142194000Y-44618000D01*
X142194000Y-43618000D02*
X142194000Y-43618000D01*
X142194000Y-44618000D02*
X142194000Y-43618000D01*
X142694000Y-44618000D02*
X141794000Y-44618000D01*
X142694000Y-43618000D02*
X142694000Y-44618000D01*
X134694000Y-44018000D02*
X135194000Y-44018000D01*
X134694000Y-44018000D02*
X134694000Y-44018000D01*
X135194000Y-44018000D02*
X134694000Y-44018000D01*
X135194000Y-44018000D02*
X135194000Y-44018000D01*
X135194000Y-44618000D02*
X135194000Y-44618000D01*
X135194000Y-43618000D02*
X135194000Y-44618000D01*
X135194000Y-43618000D02*
X135194000Y-43618000D01*
X135194000Y-44618000D02*
X135194000Y-43618000D01*
X134694000Y-44618000D02*
X135594000Y-44618000D01*
X134694000Y-43618000D02*
X134694000Y-44618000D01*
X135794000Y-41718000D02*
X141594000Y-41718000D01*
X135444000Y-45268000D02*
G75*
G03X135444000Y-45268000I-250000J0D01*
G01*
X130018000Y-42618000D02*
X130018000Y-42818000D01*
X129018000Y-42618000D02*
X129018000Y-42818000D01*
X128018000Y-42618000D02*
X128018000Y-42818000D01*
X130418000Y-43868000D02*
X130418000Y-43218000D01*
X127618000Y-43868000D02*
X130418000Y-43868000D01*
X127618000Y-43218000D02*
X127618000Y-43868000D01*
X130418000Y-42118000D02*
X130418000Y-42618000D01*
X127618000Y-42118000D02*
X130418000Y-42118000D01*
X127618000Y-42618000D02*
X127618000Y-42118000D01*
X131518000Y-44018000D02*
X131018000Y-44018000D01*
X131518000Y-44018000D02*
X131518000Y-44018000D01*
X131018000Y-44018000D02*
X131518000Y-44018000D01*
X131018000Y-44018000D02*
X131018000Y-44018000D01*
X131018000Y-44618000D02*
X131018000Y-44618000D01*
X131018000Y-43618000D02*
X131018000Y-44618000D01*
X131018000Y-43618000D02*
X131018000Y-43618000D01*
X131018000Y-44618000D02*
X131018000Y-43618000D01*
X131518000Y-44618000D02*
X130618000Y-44618000D01*
X131518000Y-43618000D02*
X131518000Y-44618000D01*
X126518000Y-44018000D02*
X127018000Y-44018000D01*
X126518000Y-44018000D02*
X126518000Y-44018000D01*
X127018000Y-44018000D02*
X126518000Y-44018000D01*
X127018000Y-44018000D02*
X127018000Y-44018000D01*
X127018000Y-44618000D02*
X127018000Y-44618000D01*
X127018000Y-43618000D02*
X127018000Y-44618000D01*
X127018000Y-43618000D02*
X127018000Y-43618000D01*
X127018000Y-44618000D02*
X127018000Y-43618000D01*
X126518000Y-44618000D02*
X127418000Y-44618000D01*
X126518000Y-43618000D02*
X126518000Y-44618000D01*
X127618000Y-41718000D02*
X130418000Y-41718000D01*
X127268000Y-45268000D02*
G75*
G03X127268000Y-45268000I-250000J0D01*
G01*
X135644000Y-62142000D02*
X134644000Y-62142000D01*
X134644000Y-63842000D02*
X135644000Y-63842000D01*
X132850000Y-50204000D02*
X131850000Y-50204000D01*
X131850000Y-51904000D02*
X132850000Y-51904000D01*
X115636000Y-85978000D02*
X115636000Y-82678000D01*
X115636000Y-82678000D02*
X110236000Y-82678000D01*
X115636000Y-85978000D02*
X110236000Y-85978000D01*
X115668000Y-81660000D02*
X115668000Y-78360000D01*
X115668000Y-78360000D02*
X110268000Y-78360000D01*
X115668000Y-81660000D02*
X110268000Y-81660000D01*
X115668000Y-77342000D02*
X115668000Y-74042000D01*
X115668000Y-74042000D02*
X110268000Y-74042000D01*
X115668000Y-77342000D02*
X110268000Y-77342000D01*
D12*
X157535880Y-83408520D02*
X157535880Y-86009480D01*
X156535120Y-83408520D02*
X157535880Y-83408520D01*
X156535120Y-76611480D02*
X156535120Y-83408520D01*
X157535880Y-76611480D02*
X156535120Y-76611480D01*
X157535880Y-74010520D02*
X157535880Y-76611480D01*
X156535120Y-83408520D02*
X157535880Y-83408520D01*
X156535120Y-76611480D02*
X156535120Y-83408520D01*
X157535880Y-76611480D02*
X156535120Y-76611480D01*
X146837400Y-75011280D02*
X148534120Y-75011280D01*
X146837400Y-85008720D02*
X146837400Y-75011280D01*
X148435060Y-85008720D02*
X146837400Y-85008720D01*
X153799540Y-86108540D02*
X148435060Y-86108540D01*
X153799540Y-73911460D02*
X148534120Y-73911460D01*
X149834600Y-86108540D02*
X153799540Y-86108540D01*
X149834600Y-73911460D02*
X153799540Y-73911460D01*
X148336000Y-84983320D02*
X148336000Y-86062820D01*
X148336000Y-73957180D02*
X148336000Y-75036680D01*
X148336000Y-86108540D02*
X149834600Y-86108540D01*
X148336000Y-85008720D02*
X148336000Y-86108540D01*
X149834600Y-85008720D02*
X148336000Y-85008720D01*
X149834600Y-85008720D02*
X149834600Y-86108540D01*
X149834600Y-75011280D02*
X149834600Y-85008720D01*
X148336000Y-75011280D02*
X149834600Y-75011280D01*
X148336000Y-73911460D02*
X148336000Y-75011280D01*
X149834600Y-73911460D02*
X148336000Y-73911460D01*
X157535880Y-83408520D02*
X157535880Y-86108540D01*
X157535880Y-73911460D02*
X157535880Y-76611480D01*
X149834600Y-73911460D02*
X149834600Y-75011280D01*
D11*
X140332000Y-81918000D02*
X141882000Y-81918000D01*
X145672000Y-81918000D02*
X144122000Y-81918000D01*
X141092000Y-76578000D02*
X141882000Y-76578000D01*
X144912000Y-76578000D02*
X144122000Y-76578000D01*
X145672000Y-81918000D02*
X145672000Y-77338000D01*
X145672000Y-77338000D02*
X144912000Y-76578000D01*
X141092000Y-76578000D02*
X140332000Y-77338000D01*
X140332000Y-77338000D02*
X140332000Y-81918000D01*
X125602000Y-75820000D02*
X122922000Y-75820000D01*
X117222000Y-75820000D02*
X119902000Y-75820000D01*
X117982000Y-84200000D02*
X119902000Y-84200000D01*
X124842000Y-84200000D02*
X122922000Y-84200000D01*
X125602000Y-75820000D02*
X125602000Y-83440000D01*
X125602000Y-83440000D02*
X124842000Y-84200000D01*
X117982000Y-84200000D02*
X117222000Y-83440000D01*
X117222000Y-83440000D02*
X117222000Y-75820000D01*
X142652000Y-84744000D02*
X143352000Y-84744000D01*
X143352000Y-85944000D02*
X142652000Y-85944000D01*
X118456000Y-72294000D02*
X118456000Y-72994000D01*
X117256000Y-72994000D02*
X117256000Y-72294000D01*
X139446000Y-86740000D02*
X136906000Y-86740000D01*
X136906000Y-88520000D02*
X139446000Y-88520000D01*
X136906000Y-88520000D02*
X136906000Y-86740000D01*
X139446000Y-86740000D02*
X139446000Y-88520000D01*
X136506000Y-47556000D02*
X137306000Y-47556000D01*
X136506000Y-50996000D02*
X137306000Y-50996000D01*
X140498000Y-71898000D02*
X140498000Y-73898000D01*
X140498000Y-73898000D02*
X144398000Y-73898000D01*
X140498000Y-71898000D02*
X144398000Y-71898000D01*
X148112000Y-88130000D02*
X148112000Y-87130000D01*
X148112000Y-87130000D02*
X146012000Y-87130000D01*
X148112000Y-88130000D02*
X146012000Y-88130000D01*
X142994000Y-88310000D02*
X141994000Y-88310000D01*
X141994000Y-86950000D02*
X142994000Y-86950000D01*
X117914000Y-61614000D02*
X117914000Y-60814000D01*
X121354000Y-61614000D02*
X121354000Y-60814000D01*
D13*
X109525000Y-91490800D02*
X155245000Y-91490800D01*
X157785000Y-88950800D02*
X157785000Y-71170800D01*
X155245000Y-68630800D02*
X109525000Y-68630800D01*
X106985000Y-71170800D02*
X106985000Y-88950800D01*
X155245000Y-91490800D02*
G75*
G03X157785000Y-88950800I0J2540000D01*
G01*
X157785000Y-71170800D02*
G75*
G03X155245000Y-68630800I-2540000J0D01*
G01*
X109525000Y-68630800D02*
G75*
G03X106985000Y-71170800I0J-2540000D01*
G01*
X106985000Y-88950800D02*
G75*
G03X109525000Y-91490800I2540000J0D01*
G01*
D11*
X131742000Y-48422000D02*
X132442000Y-48422000D01*
X132442000Y-49622000D02*
X131742000Y-49622000D01*
X118145000Y-44407000D02*
X118145000Y-43707000D01*
X119345000Y-43707000D02*
X119345000Y-44407000D01*
X136052000Y-60536000D02*
X136052000Y-59836000D01*
X137252000Y-59836000D02*
X137252000Y-60536000D01*
X134778000Y-64424000D02*
X135478000Y-64424000D01*
X135478000Y-65624000D02*
X134778000Y-65624000D01*
X131156000Y-66186000D02*
X131156000Y-66886000D01*
X129956000Y-66886000D02*
X129956000Y-66186000D01*
X118145000Y-51035000D02*
X118145000Y-50335000D01*
X119345000Y-50335000D02*
X119345000Y-51035000D01*
X150600000Y-46150000D02*
X150600000Y-46850000D01*
X149400000Y-46850000D02*
X149400000Y-46150000D01*
X136052000Y-56496000D02*
X136052000Y-55796000D01*
X137252000Y-55796000D02*
X137252000Y-56496000D01*
X155600000Y-46150000D02*
X155600000Y-46850000D01*
X154400000Y-46850000D02*
X154400000Y-46150000D01*
X150600000Y-64150000D02*
X150600000Y-64850000D01*
X149400000Y-64850000D02*
X149400000Y-64150000D01*
X155600000Y-64150000D02*
X155600000Y-64850000D01*
X154400000Y-64850000D02*
X154400000Y-64150000D01*
X118145000Y-47860000D02*
X118145000Y-47160000D01*
X119345000Y-47160000D02*
X119345000Y-47860000D01*
X121284000Y-55756000D02*
X121284000Y-52956000D01*
X121284000Y-52956000D02*
X117984000Y-52956000D01*
X153000000Y-64180000D02*
X152000000Y-64180000D01*
X152000000Y-62820000D02*
X153000000Y-62820000D01*
X152000000Y-64820000D02*
X153000000Y-64820000D01*
X153000000Y-66180000D02*
X152000000Y-66180000D01*
X119843000Y-44581000D02*
X119843000Y-43581000D01*
X121203000Y-43581000D02*
X121203000Y-44581000D01*
X119843000Y-47986000D02*
X119843000Y-46986000D01*
X121203000Y-46986000D02*
X121203000Y-47986000D01*
X133268000Y-66060000D02*
X133268000Y-67060000D01*
X131908000Y-67060000D02*
X131908000Y-66060000D01*
X119843000Y-51288000D02*
X119843000Y-50288000D01*
X121203000Y-50288000D02*
X121203000Y-51288000D01*
D14*
X127892000Y-81444000D02*
X128492000Y-81444000D01*
X127892000Y-81144000D02*
X128492000Y-81144000D01*
X127892000Y-80844000D02*
X128492000Y-80844000D01*
X127892000Y-80544000D02*
X128492000Y-80544000D01*
X127892000Y-80244000D02*
X128492000Y-80244000D01*
X131492000Y-81444000D02*
X132092000Y-81444000D01*
X131492000Y-81144000D02*
X132092000Y-81144000D01*
X131492000Y-80844000D02*
X132092000Y-80844000D01*
X131492000Y-80544000D02*
X132092000Y-80544000D01*
X131492000Y-80244000D02*
X132092000Y-80244000D01*
X128492000Y-80244000D02*
X128492000Y-79844000D01*
X128492000Y-81144000D02*
X128492000Y-80244000D01*
X128492000Y-81444000D02*
X128492000Y-81144000D01*
X128492000Y-81844000D02*
X128492000Y-81444000D01*
X131492000Y-81844000D02*
X128492000Y-81844000D01*
X131492000Y-81444000D02*
X131492000Y-81844000D01*
X131492000Y-81144000D02*
X131492000Y-81444000D01*
X131492000Y-80844000D02*
X131492000Y-81144000D01*
X131492000Y-80544000D02*
X131492000Y-80844000D01*
X131492000Y-80244000D02*
X131492000Y-80544000D01*
X131492000Y-79844000D02*
X131492000Y-80244000D01*
X128492000Y-79844000D02*
X131492000Y-79844000D01*
D15*
X136613300Y-76844000D02*
G75*
G03X136613300Y-76844000I-2121300J0D01*
G01*
D14*
X128288050Y-85344000D02*
G75*
G02X126492000Y-83547950I0J1796050D01*
G01*
X137331300Y-85344000D02*
X128288050Y-85344000D01*
X138991980Y-83683320D02*
G75*
G02X137331300Y-85344000I-1660680J0D01*
G01*
X138992000Y-74357200D02*
X138992000Y-83683340D01*
X137478800Y-72844000D02*
G75*
G02X138992000Y-74357200I0J-1513200D01*
G01*
X128152660Y-72844000D02*
X137478800Y-72844000D01*
X126491980Y-74504720D02*
G75*
G02X128152660Y-72844000I1660700J20D01*
G01*
X126492000Y-83547950D02*
X126492000Y-74504700D01*
D11*
X112238000Y-59952000D02*
X112238000Y-60952000D01*
X112238000Y-60952000D02*
X114338000Y-60952000D01*
X112238000Y-59952000D02*
X114338000Y-59952000D01*
X111282000Y-60952000D02*
X111282000Y-59952000D01*
X111282000Y-59952000D02*
X109182000Y-59952000D01*
X111282000Y-60952000D02*
X109182000Y-60952000D01*
X111282000Y-62730000D02*
X111282000Y-61730000D01*
X111282000Y-61730000D02*
X109182000Y-61730000D01*
X111282000Y-62730000D02*
X109182000Y-62730000D01*
X112238000Y-61603000D02*
X112238000Y-62603000D01*
X112238000Y-62603000D02*
X114338000Y-62603000D01*
X112238000Y-61603000D02*
X114338000Y-61603000D01*
X152000000Y-44820000D02*
X153000000Y-44820000D01*
X153000000Y-46180000D02*
X152000000Y-46180000D01*
X153000000Y-48180000D02*
X152000000Y-48180000D01*
X152000000Y-46820000D02*
X153000000Y-46820000D01*
D16*
X133937524Y-58442800D02*
X133637004Y-58142280D01*
X128811000Y-63569324D02*
X128439769Y-63198093D01*
X123684476Y-58442800D02*
X124055707Y-58814031D01*
X128811000Y-53316276D02*
X129182231Y-53687507D01*
X133937524Y-58442800D02*
X133566293Y-58814031D01*
X128811000Y-53316276D02*
X128439769Y-53687507D01*
X123684476Y-58442800D02*
X124055707Y-58071569D01*
X128811000Y-63569324D02*
X129182231Y-63198093D01*
X133637004Y-58142280D02*
X134609276Y-57170008D01*
D10*
X146233333Y-48561904D02*
X146233333Y-49133333D01*
X146195238Y-49247619D01*
X146119047Y-49323809D01*
X146004761Y-49361904D01*
X145928571Y-49361904D01*
X146995238Y-48561904D02*
X146614285Y-48561904D01*
X146576190Y-48942857D01*
X146614285Y-48904761D01*
X146690476Y-48866666D01*
X146880952Y-48866666D01*
X146957142Y-48904761D01*
X146995238Y-48942857D01*
X147033333Y-49019047D01*
X147033333Y-49209523D01*
X146995238Y-49285714D01*
X146957142Y-49323809D01*
X146880952Y-49361904D01*
X146690476Y-49361904D01*
X146614285Y-49323809D01*
X146576190Y-49285714D01*
X112001333Y-42487904D02*
X112001333Y-43059333D01*
X111963238Y-43173619D01*
X111887047Y-43249809D01*
X111772761Y-43287904D01*
X111696571Y-43287904D01*
X112725142Y-42754571D02*
X112725142Y-43287904D01*
X112534666Y-42449809D02*
X112344190Y-43021238D01*
X112839428Y-43021238D01*
X112225333Y-68840404D02*
X112225333Y-69411833D01*
X112187238Y-69526119D01*
X112111047Y-69602309D01*
X111996761Y-69640404D01*
X111920571Y-69640404D01*
X113025333Y-69640404D02*
X112568190Y-69640404D01*
X112796761Y-69640404D02*
X112796761Y-68840404D01*
X112720571Y-68954690D01*
X112644380Y-69030880D01*
X112568190Y-69068976D01*
X119367333Y-68855404D02*
X119367333Y-69426833D01*
X119329238Y-69541119D01*
X119253047Y-69617309D01*
X119138761Y-69655404D01*
X119062571Y-69655404D01*
X119862571Y-69198261D02*
X119786380Y-69160166D01*
X119748285Y-69122071D01*
X119710190Y-69045880D01*
X119710190Y-69007785D01*
X119748285Y-68931595D01*
X119786380Y-68893500D01*
X119862571Y-68855404D01*
X120014952Y-68855404D01*
X120091142Y-68893500D01*
X120129238Y-68931595D01*
X120167333Y-69007785D01*
X120167333Y-69045880D01*
X120129238Y-69122071D01*
X120091142Y-69160166D01*
X120014952Y-69198261D01*
X119862571Y-69198261D01*
X119786380Y-69236357D01*
X119748285Y-69274452D01*
X119710190Y-69350642D01*
X119710190Y-69503023D01*
X119748285Y-69579214D01*
X119786380Y-69617309D01*
X119862571Y-69655404D01*
X120014952Y-69655404D01*
X120091142Y-69617309D01*
X120129238Y-69579214D01*
X120167333Y-69503023D01*
X120167333Y-69350642D01*
X120129238Y-69274452D01*
X120091142Y-69236357D01*
X120014952Y-69198261D01*
X141973333Y-46805904D02*
X141973333Y-47377333D01*
X141935238Y-47491619D01*
X141859047Y-47567809D01*
X141744761Y-47605904D01*
X141668571Y-47605904D01*
X142278095Y-46805904D02*
X142773333Y-46805904D01*
X142506666Y-47110666D01*
X142620952Y-47110666D01*
X142697142Y-47148761D01*
X142735238Y-47186857D01*
X142773333Y-47263047D01*
X142773333Y-47453523D01*
X142735238Y-47529714D01*
X142697142Y-47567809D01*
X142620952Y-47605904D01*
X142392380Y-47605904D01*
X142316190Y-47567809D01*
X142278095Y-47529714D01*
X126860380Y-46805904D02*
X126860380Y-47377333D01*
X126822285Y-47491619D01*
X126746095Y-47567809D01*
X126631809Y-47605904D01*
X126555619Y-47605904D01*
X127660380Y-47605904D02*
X127203238Y-47605904D01*
X127431809Y-47605904D02*
X127431809Y-46805904D01*
X127355619Y-46920190D01*
X127279428Y-46996380D01*
X127203238Y-47034476D01*
X128422285Y-47605904D02*
X127965142Y-47605904D01*
X128193714Y-47605904D02*
X128193714Y-46805904D01*
X128117523Y-46920190D01*
X128041333Y-46996380D01*
X127965142Y-47034476D01*
X133127714Y-64014285D02*
X133165809Y-64052380D01*
X133203904Y-64166666D01*
X133203904Y-64242857D01*
X133165809Y-64357142D01*
X133089619Y-64433333D01*
X133013428Y-64471428D01*
X132861047Y-64509523D01*
X132746761Y-64509523D01*
X132594380Y-64471428D01*
X132518190Y-64433333D01*
X132442000Y-64357142D01*
X132403904Y-64242857D01*
X132403904Y-64166666D01*
X132442000Y-64052380D01*
X132480095Y-64014285D01*
X133203904Y-63252380D02*
X133203904Y-63709523D01*
X133203904Y-63480952D02*
X132403904Y-63480952D01*
X132518190Y-63557142D01*
X132594380Y-63633333D01*
X132632476Y-63709523D01*
X132746761Y-62795238D02*
X132708666Y-62871428D01*
X132670571Y-62909523D01*
X132594380Y-62947619D01*
X132556285Y-62947619D01*
X132480095Y-62909523D01*
X132442000Y-62871428D01*
X132403904Y-62795238D01*
X132403904Y-62642857D01*
X132442000Y-62566666D01*
X132480095Y-62528571D01*
X132556285Y-62490476D01*
X132594380Y-62490476D01*
X132670571Y-62528571D01*
X132708666Y-62566666D01*
X132746761Y-62642857D01*
X132746761Y-62795238D01*
X132784857Y-62871428D01*
X132822952Y-62909523D01*
X132899142Y-62947619D01*
X133051523Y-62947619D01*
X133127714Y-62909523D01*
X133165809Y-62871428D01*
X133203904Y-62795238D01*
X133203904Y-62642857D01*
X133165809Y-62566666D01*
X133127714Y-62528571D01*
X133051523Y-62490476D01*
X132899142Y-62490476D01*
X132822952Y-62528571D01*
X132784857Y-62566666D01*
X132746761Y-62642857D01*
X132327714Y-53371714D02*
X132289619Y-53409809D01*
X132175333Y-53447904D01*
X132099142Y-53447904D01*
X131984857Y-53409809D01*
X131908666Y-53333619D01*
X131870571Y-53257428D01*
X131832476Y-53105047D01*
X131832476Y-52990761D01*
X131870571Y-52838380D01*
X131908666Y-52762190D01*
X131984857Y-52686000D01*
X132099142Y-52647904D01*
X132175333Y-52647904D01*
X132289619Y-52686000D01*
X132327714Y-52724095D01*
X133089619Y-53447904D02*
X132632476Y-53447904D01*
X132861047Y-53447904D02*
X132861047Y-52647904D01*
X132784857Y-52762190D01*
X132708666Y-52838380D01*
X132632476Y-52876476D01*
X133356285Y-52647904D02*
X133851523Y-52647904D01*
X133584857Y-52952666D01*
X133699142Y-52952666D01*
X133775333Y-52990761D01*
X133813428Y-53028857D01*
X133851523Y-53105047D01*
X133851523Y-53295523D01*
X133813428Y-53371714D01*
X133775333Y-53409809D01*
X133699142Y-53447904D01*
X133470571Y-53447904D01*
X133394380Y-53409809D01*
X133356285Y-53371714D01*
X108565904Y-84918476D02*
X107765904Y-84918476D01*
X107765904Y-84728000D01*
X107804000Y-84613714D01*
X107880190Y-84537523D01*
X107956380Y-84499428D01*
X108108761Y-84461333D01*
X108223047Y-84461333D01*
X108375428Y-84499428D01*
X108451619Y-84537523D01*
X108527809Y-84613714D01*
X108565904Y-84728000D01*
X108565904Y-84918476D01*
X107765904Y-84194666D02*
X107765904Y-83661333D01*
X108565904Y-84004190D01*
X108565904Y-80600476D02*
X107765904Y-80600476D01*
X107765904Y-80410000D01*
X107804000Y-80295714D01*
X107880190Y-80219523D01*
X107956380Y-80181428D01*
X108108761Y-80143333D01*
X108223047Y-80143333D01*
X108375428Y-80181428D01*
X108451619Y-80219523D01*
X108527809Y-80295714D01*
X108565904Y-80410000D01*
X108565904Y-80600476D01*
X108108761Y-79686190D02*
X108070666Y-79762380D01*
X108032571Y-79800476D01*
X107956380Y-79838571D01*
X107918285Y-79838571D01*
X107842095Y-79800476D01*
X107804000Y-79762380D01*
X107765904Y-79686190D01*
X107765904Y-79533809D01*
X107804000Y-79457619D01*
X107842095Y-79419523D01*
X107918285Y-79381428D01*
X107956380Y-79381428D01*
X108032571Y-79419523D01*
X108070666Y-79457619D01*
X108108761Y-79533809D01*
X108108761Y-79686190D01*
X108146857Y-79762380D01*
X108184952Y-79800476D01*
X108261142Y-79838571D01*
X108413523Y-79838571D01*
X108489714Y-79800476D01*
X108527809Y-79762380D01*
X108565904Y-79686190D01*
X108565904Y-79533809D01*
X108527809Y-79457619D01*
X108489714Y-79419523D01*
X108413523Y-79381428D01*
X108261142Y-79381428D01*
X108184952Y-79419523D01*
X108146857Y-79457619D01*
X108108761Y-79533809D01*
X108565904Y-76282476D02*
X107765904Y-76282476D01*
X107765904Y-76092000D01*
X107804000Y-75977714D01*
X107880190Y-75901523D01*
X107956380Y-75863428D01*
X108108761Y-75825333D01*
X108223047Y-75825333D01*
X108375428Y-75863428D01*
X108451619Y-75901523D01*
X108527809Y-75977714D01*
X108565904Y-76092000D01*
X108565904Y-76282476D01*
X108565904Y-75444380D02*
X108565904Y-75292000D01*
X108527809Y-75215809D01*
X108489714Y-75177714D01*
X108375428Y-75101523D01*
X108223047Y-75063428D01*
X107918285Y-75063428D01*
X107842095Y-75101523D01*
X107804000Y-75139619D01*
X107765904Y-75215809D01*
X107765904Y-75368190D01*
X107804000Y-75444380D01*
X107842095Y-75482476D01*
X107918285Y-75520571D01*
X108108761Y-75520571D01*
X108184952Y-75482476D01*
X108223047Y-75444380D01*
X108261142Y-75368190D01*
X108261142Y-75215809D01*
X108223047Y-75139619D01*
X108184952Y-75101523D01*
X108108761Y-75063428D01*
X151498380Y-86937904D02*
X151498380Y-87509333D01*
X151460285Y-87623619D01*
X151384095Y-87699809D01*
X151269809Y-87737904D01*
X151193619Y-87737904D01*
X152298380Y-87737904D02*
X151841238Y-87737904D01*
X152069809Y-87737904D02*
X152069809Y-86937904D01*
X151993619Y-87052190D01*
X151917428Y-87128380D01*
X151841238Y-87166476D01*
X152793619Y-86937904D02*
X152869809Y-86937904D01*
X152946000Y-86976000D01*
X152984095Y-87014095D01*
X153022190Y-87090285D01*
X153060285Y-87242666D01*
X153060285Y-87433142D01*
X153022190Y-87585523D01*
X152984095Y-87661714D01*
X152946000Y-87699809D01*
X152869809Y-87737904D01*
X152793619Y-87737904D01*
X152717428Y-87699809D01*
X152679333Y-87661714D01*
X152641238Y-87585523D01*
X152603142Y-87433142D01*
X152603142Y-87242666D01*
X152641238Y-87090285D01*
X152679333Y-87014095D01*
X152717428Y-86976000D01*
X152793619Y-86937904D01*
X152825500Y-84841761D02*
X152787404Y-84917952D01*
X152787404Y-85032238D01*
X152825500Y-85146523D01*
X152901690Y-85222714D01*
X152977880Y-85260809D01*
X153130261Y-85298904D01*
X153244547Y-85298904D01*
X153396928Y-85260809D01*
X153473119Y-85222714D01*
X153549309Y-85146523D01*
X153587404Y-85032238D01*
X153587404Y-84956047D01*
X153549309Y-84841761D01*
X153511214Y-84803666D01*
X153244547Y-84803666D01*
X153244547Y-84956047D01*
X153587404Y-84003666D02*
X153206452Y-84270333D01*
X153587404Y-84460809D02*
X152787404Y-84460809D01*
X152787404Y-84156047D01*
X152825500Y-84079857D01*
X152863595Y-84041761D01*
X152939785Y-84003666D01*
X153054071Y-84003666D01*
X153130261Y-84041761D01*
X153168357Y-84079857D01*
X153206452Y-84156047D01*
X153206452Y-84460809D01*
X152787404Y-83508428D02*
X152787404Y-83356047D01*
X152825500Y-83279857D01*
X152901690Y-83203666D01*
X153054071Y-83165571D01*
X153320738Y-83165571D01*
X153473119Y-83203666D01*
X153549309Y-83279857D01*
X153587404Y-83356047D01*
X153587404Y-83508428D01*
X153549309Y-83584619D01*
X153473119Y-83660809D01*
X153320738Y-83698904D01*
X153054071Y-83698904D01*
X152901690Y-83660809D01*
X152825500Y-83584619D01*
X152787404Y-83508428D01*
X152787404Y-82937000D02*
X153587404Y-82670333D01*
X152787404Y-82403666D01*
X153168357Y-82137000D02*
X153168357Y-81870333D01*
X153587404Y-81756047D02*
X153587404Y-82137000D01*
X152787404Y-82137000D01*
X152787404Y-81756047D01*
X153282642Y-81413190D02*
X153282642Y-80803666D01*
X153549309Y-80460809D02*
X153587404Y-80346523D01*
X153587404Y-80156047D01*
X153549309Y-80079857D01*
X153511214Y-80041761D01*
X153435023Y-80003666D01*
X153358833Y-80003666D01*
X153282642Y-80041761D01*
X153244547Y-80079857D01*
X153206452Y-80156047D01*
X153168357Y-80308428D01*
X153130261Y-80384619D01*
X153092166Y-80422714D01*
X153015976Y-80460809D01*
X152939785Y-80460809D01*
X152863595Y-80422714D01*
X152825500Y-80384619D01*
X152787404Y-80308428D01*
X152787404Y-80117952D01*
X152825500Y-80003666D01*
X153587404Y-79660809D02*
X152787404Y-79660809D01*
X153358833Y-79394142D01*
X152787404Y-79127476D01*
X153587404Y-79127476D01*
X153587404Y-78746523D02*
X152787404Y-78746523D01*
X152787404Y-78556047D01*
X152825500Y-78441761D01*
X152901690Y-78365571D01*
X152977880Y-78327476D01*
X153130261Y-78289380D01*
X153244547Y-78289380D01*
X153396928Y-78327476D01*
X153473119Y-78365571D01*
X153549309Y-78441761D01*
X153587404Y-78556047D01*
X153587404Y-78746523D01*
X153282642Y-77946523D02*
X153282642Y-77337000D01*
X153587404Y-76917952D02*
X153587404Y-76765571D01*
X153549309Y-76689380D01*
X153511214Y-76651285D01*
X153396928Y-76575095D01*
X153244547Y-76537000D01*
X152939785Y-76537000D01*
X152863595Y-76575095D01*
X152825500Y-76613190D01*
X152787404Y-76689380D01*
X152787404Y-76841761D01*
X152825500Y-76917952D01*
X152863595Y-76956047D01*
X152939785Y-76994142D01*
X153130261Y-76994142D01*
X153206452Y-76956047D01*
X153244547Y-76917952D01*
X153282642Y-76841761D01*
X153282642Y-76689380D01*
X153244547Y-76613190D01*
X153206452Y-76575095D01*
X153130261Y-76537000D01*
X152787404Y-76041761D02*
X152787404Y-75965571D01*
X152825500Y-75889380D01*
X152863595Y-75851285D01*
X152939785Y-75813190D01*
X153092166Y-75775095D01*
X153282642Y-75775095D01*
X153435023Y-75813190D01*
X153511214Y-75851285D01*
X153549309Y-75889380D01*
X153587404Y-75965571D01*
X153587404Y-76041761D01*
X153549309Y-76117952D01*
X153511214Y-76156047D01*
X153435023Y-76194142D01*
X153282642Y-76232238D01*
X153092166Y-76232238D01*
X152939785Y-76194142D01*
X152863595Y-76156047D01*
X152825500Y-76117952D01*
X152787404Y-76041761D01*
X153587404Y-75432238D02*
X152787404Y-75432238D01*
X152787404Y-75241761D01*
X152825500Y-75127476D01*
X152901690Y-75051285D01*
X152977880Y-75013190D01*
X153130261Y-74975095D01*
X153244547Y-74975095D01*
X153396928Y-75013190D01*
X153473119Y-75051285D01*
X153549309Y-75127476D01*
X153587404Y-75241761D01*
X153587404Y-75432238D01*
X142487714Y-74961714D02*
X142449619Y-74999809D01*
X142335333Y-75037904D01*
X142259142Y-75037904D01*
X142144857Y-74999809D01*
X142068666Y-74923619D01*
X142030571Y-74847428D01*
X141992476Y-74695047D01*
X141992476Y-74580761D01*
X142030571Y-74428380D01*
X142068666Y-74352190D01*
X142144857Y-74276000D01*
X142259142Y-74237904D01*
X142335333Y-74237904D01*
X142449619Y-74276000D01*
X142487714Y-74314095D01*
X142792476Y-74314095D02*
X142830571Y-74276000D01*
X142906761Y-74237904D01*
X143097238Y-74237904D01*
X143173428Y-74276000D01*
X143211523Y-74314095D01*
X143249619Y-74390285D01*
X143249619Y-74466476D01*
X143211523Y-74580761D01*
X142754380Y-75037904D01*
X143249619Y-75037904D01*
X143516285Y-74237904D02*
X144011523Y-74237904D01*
X143744857Y-74542666D01*
X143859142Y-74542666D01*
X143935333Y-74580761D01*
X143973428Y-74618857D01*
X144011523Y-74695047D01*
X144011523Y-74885523D01*
X143973428Y-74961714D01*
X143935333Y-74999809D01*
X143859142Y-75037904D01*
X143630571Y-75037904D01*
X143554380Y-74999809D01*
X143516285Y-74961714D01*
D16*
X140723428Y-76248952D02*
X140723428Y-75487047D01*
X141104380Y-75868000D02*
X140342476Y-75868000D01*
D10*
X120897714Y-86391714D02*
X120859619Y-86429809D01*
X120745333Y-86467904D01*
X120669142Y-86467904D01*
X120554857Y-86429809D01*
X120478666Y-86353619D01*
X120440571Y-86277428D01*
X120402476Y-86125047D01*
X120402476Y-86010761D01*
X120440571Y-85858380D01*
X120478666Y-85782190D01*
X120554857Y-85706000D01*
X120669142Y-85667904D01*
X120745333Y-85667904D01*
X120859619Y-85706000D01*
X120897714Y-85744095D01*
X121202476Y-85744095D02*
X121240571Y-85706000D01*
X121316761Y-85667904D01*
X121507238Y-85667904D01*
X121583428Y-85706000D01*
X121621523Y-85744095D01*
X121659619Y-85820285D01*
X121659619Y-85896476D01*
X121621523Y-86010761D01*
X121164380Y-86467904D01*
X121659619Y-86467904D01*
X122383428Y-85667904D02*
X122002476Y-85667904D01*
X121964380Y-86048857D01*
X122002476Y-86010761D01*
X122078666Y-85972666D01*
X122269142Y-85972666D01*
X122345333Y-86010761D01*
X122383428Y-86048857D01*
X122421523Y-86125047D01*
X122421523Y-86315523D01*
X122383428Y-86391714D01*
X122345333Y-86429809D01*
X122269142Y-86467904D01*
X122078666Y-86467904D01*
X122002476Y-86429809D01*
X121964380Y-86391714D01*
D16*
X125383428Y-85170952D02*
X125383428Y-84409047D01*
X125764380Y-84790000D02*
X125002476Y-84790000D01*
D10*
X142233714Y-84359714D02*
X142195619Y-84397809D01*
X142081333Y-84435904D01*
X142005142Y-84435904D01*
X141890857Y-84397809D01*
X141814666Y-84321619D01*
X141776571Y-84245428D01*
X141738476Y-84093047D01*
X141738476Y-83978761D01*
X141776571Y-83826380D01*
X141814666Y-83750190D01*
X141890857Y-83674000D01*
X142005142Y-83635904D01*
X142081333Y-83635904D01*
X142195619Y-83674000D01*
X142233714Y-83712095D01*
X142538476Y-83712095D02*
X142576571Y-83674000D01*
X142652761Y-83635904D01*
X142843238Y-83635904D01*
X142919428Y-83674000D01*
X142957523Y-83712095D01*
X142995619Y-83788285D01*
X142995619Y-83864476D01*
X142957523Y-83978761D01*
X142500380Y-84435904D01*
X142995619Y-84435904D01*
X143300380Y-83712095D02*
X143338476Y-83674000D01*
X143414666Y-83635904D01*
X143605142Y-83635904D01*
X143681333Y-83674000D01*
X143719428Y-83712095D01*
X143757523Y-83788285D01*
X143757523Y-83864476D01*
X143719428Y-83978761D01*
X143262285Y-84435904D01*
X143757523Y-84435904D01*
X119641714Y-73158285D02*
X119679809Y-73196380D01*
X119717904Y-73310666D01*
X119717904Y-73386857D01*
X119679809Y-73501142D01*
X119603619Y-73577333D01*
X119527428Y-73615428D01*
X119375047Y-73653523D01*
X119260761Y-73653523D01*
X119108380Y-73615428D01*
X119032190Y-73577333D01*
X118956000Y-73501142D01*
X118917904Y-73386857D01*
X118917904Y-73310666D01*
X118956000Y-73196380D01*
X118994095Y-73158285D01*
X118994095Y-72853523D02*
X118956000Y-72815428D01*
X118917904Y-72739238D01*
X118917904Y-72548761D01*
X118956000Y-72472571D01*
X118994095Y-72434476D01*
X119070285Y-72396380D01*
X119146476Y-72396380D01*
X119260761Y-72434476D01*
X119717904Y-72891619D01*
X119717904Y-72396380D01*
X119184571Y-71710666D02*
X119717904Y-71710666D01*
X118879809Y-71901142D02*
X119451238Y-72091619D01*
X119451238Y-71596380D01*
X134715333Y-87191904D02*
X134715333Y-87763333D01*
X134677238Y-87877619D01*
X134601047Y-87953809D01*
X134486761Y-87991904D01*
X134410571Y-87991904D01*
X135096285Y-87991904D02*
X135096285Y-87191904D01*
X135401047Y-87191904D01*
X135477238Y-87230000D01*
X135515333Y-87268095D01*
X135553428Y-87344285D01*
X135553428Y-87458571D01*
X135515333Y-87534761D01*
X135477238Y-87572857D01*
X135401047Y-87610952D01*
X135096285Y-87610952D01*
X136315333Y-87991904D02*
X135858190Y-87991904D01*
X136086761Y-87991904D02*
X136086761Y-87191904D01*
X136010571Y-87306190D01*
X135934380Y-87382380D01*
X135858190Y-87420476D01*
X136391714Y-52237904D02*
X136125047Y-51856952D01*
X135934571Y-52237904D02*
X135934571Y-51437904D01*
X136239333Y-51437904D01*
X136315523Y-51476000D01*
X136353619Y-51514095D01*
X136391714Y-51590285D01*
X136391714Y-51704571D01*
X136353619Y-51780761D01*
X136315523Y-51818857D01*
X136239333Y-51856952D01*
X135934571Y-51856952D01*
X136696476Y-51514095D02*
X136734571Y-51476000D01*
X136810761Y-51437904D01*
X137001238Y-51437904D01*
X137077428Y-51476000D01*
X137115523Y-51514095D01*
X137153619Y-51590285D01*
X137153619Y-51666476D01*
X137115523Y-51780761D01*
X136658380Y-52237904D01*
X137153619Y-52237904D01*
X137420285Y-51437904D02*
X137953619Y-51437904D01*
X137610761Y-52237904D01*
X145713523Y-73259904D02*
X145713523Y-72459904D01*
X145904000Y-72459904D01*
X146018285Y-72498000D01*
X146094476Y-72574190D01*
X146132571Y-72650380D01*
X146170666Y-72802761D01*
X146170666Y-72917047D01*
X146132571Y-73069428D01*
X146094476Y-73145619D01*
X146018285Y-73221809D01*
X145904000Y-73259904D01*
X145713523Y-73259904D01*
X146856380Y-72459904D02*
X146704000Y-72459904D01*
X146627809Y-72498000D01*
X146589714Y-72536095D01*
X146513523Y-72650380D01*
X146475428Y-72802761D01*
X146475428Y-73107523D01*
X146513523Y-73183714D01*
X146551619Y-73221809D01*
X146627809Y-73259904D01*
X146780190Y-73259904D01*
X146856380Y-73221809D01*
X146894476Y-73183714D01*
X146932571Y-73107523D01*
X146932571Y-72917047D01*
X146894476Y-72840857D01*
X146856380Y-72802761D01*
X146780190Y-72764666D01*
X146627809Y-72764666D01*
X146551619Y-72802761D01*
X146513523Y-72840857D01*
X146475428Y-72917047D01*
X148761523Y-87991904D02*
X148761523Y-87191904D01*
X148952000Y-87191904D01*
X149066285Y-87230000D01*
X149142476Y-87306190D01*
X149180571Y-87382380D01*
X149218666Y-87534761D01*
X149218666Y-87649047D01*
X149180571Y-87801428D01*
X149142476Y-87877619D01*
X149066285Y-87953809D01*
X148952000Y-87991904D01*
X148761523Y-87991904D01*
X149942476Y-87191904D02*
X149561523Y-87191904D01*
X149523428Y-87572857D01*
X149561523Y-87534761D01*
X149637714Y-87496666D01*
X149828190Y-87496666D01*
X149904380Y-87534761D01*
X149942476Y-87572857D01*
X149980571Y-87649047D01*
X149980571Y-87839523D01*
X149942476Y-87915714D01*
X149904380Y-87953809D01*
X149828190Y-87991904D01*
X149637714Y-87991904D01*
X149561523Y-87953809D01*
X149523428Y-87915714D01*
X141077904Y-85858285D02*
X140696952Y-86124952D01*
X141077904Y-86315428D02*
X140277904Y-86315428D01*
X140277904Y-86010666D01*
X140316000Y-85934476D01*
X140354095Y-85896380D01*
X140430285Y-85858285D01*
X140544571Y-85858285D01*
X140620761Y-85896380D01*
X140658857Y-85934476D01*
X140696952Y-86010666D01*
X140696952Y-86315428D01*
X140354095Y-85553523D02*
X140316000Y-85515428D01*
X140277904Y-85439238D01*
X140277904Y-85248761D01*
X140316000Y-85172571D01*
X140354095Y-85134476D01*
X140430285Y-85096380D01*
X140506476Y-85096380D01*
X140620761Y-85134476D01*
X141077904Y-85591619D01*
X141077904Y-85096380D01*
X141077904Y-84715428D02*
X141077904Y-84563047D01*
X141039809Y-84486857D01*
X141001714Y-84448761D01*
X140887428Y-84372571D01*
X140735047Y-84334476D01*
X140430285Y-84334476D01*
X140354095Y-84372571D01*
X140316000Y-84410666D01*
X140277904Y-84486857D01*
X140277904Y-84639238D01*
X140316000Y-84715428D01*
X140354095Y-84753523D01*
X140430285Y-84791619D01*
X140620761Y-84791619D01*
X140696952Y-84753523D01*
X140735047Y-84715428D01*
X140773142Y-84639238D01*
X140773142Y-84486857D01*
X140735047Y-84410666D01*
X140696952Y-84372571D01*
X140620761Y-84334476D01*
X122595904Y-61728285D02*
X122214952Y-61994952D01*
X122595904Y-62185428D02*
X121795904Y-62185428D01*
X121795904Y-61880666D01*
X121834000Y-61804476D01*
X121872095Y-61766380D01*
X121948285Y-61728285D01*
X122062571Y-61728285D01*
X122138761Y-61766380D01*
X122176857Y-61804476D01*
X122214952Y-61880666D01*
X122214952Y-62185428D01*
X121872095Y-61423523D02*
X121834000Y-61385428D01*
X121795904Y-61309238D01*
X121795904Y-61118761D01*
X121834000Y-61042571D01*
X121872095Y-61004476D01*
X121948285Y-60966380D01*
X122024476Y-60966380D01*
X122138761Y-61004476D01*
X122595904Y-61461619D01*
X122595904Y-60966380D01*
X122138761Y-60509238D02*
X122100666Y-60585428D01*
X122062571Y-60623523D01*
X121986380Y-60661619D01*
X121948285Y-60661619D01*
X121872095Y-60623523D01*
X121834000Y-60585428D01*
X121795904Y-60509238D01*
X121795904Y-60356857D01*
X121834000Y-60280666D01*
X121872095Y-60242571D01*
X121948285Y-60204476D01*
X121986380Y-60204476D01*
X122062571Y-60242571D01*
X122100666Y-60280666D01*
X122138761Y-60356857D01*
X122138761Y-60509238D01*
X122176857Y-60585428D01*
X122214952Y-60623523D01*
X122291142Y-60661619D01*
X122443523Y-60661619D01*
X122519714Y-60623523D01*
X122557809Y-60585428D01*
X122595904Y-60509238D01*
X122595904Y-60356857D01*
X122557809Y-60280666D01*
X122519714Y-60242571D01*
X122443523Y-60204476D01*
X122291142Y-60204476D01*
X122214952Y-60242571D01*
X122176857Y-60280666D01*
X122138761Y-60356857D01*
X131577714Y-47807714D02*
X131539619Y-47845809D01*
X131425333Y-47883904D01*
X131349142Y-47883904D01*
X131234857Y-47845809D01*
X131158666Y-47769619D01*
X131120571Y-47693428D01*
X131082476Y-47541047D01*
X131082476Y-47426761D01*
X131120571Y-47274380D01*
X131158666Y-47198190D01*
X131234857Y-47122000D01*
X131349142Y-47083904D01*
X131425333Y-47083904D01*
X131539619Y-47122000D01*
X131577714Y-47160095D01*
X132339619Y-47883904D02*
X131882476Y-47883904D01*
X132111047Y-47883904D02*
X132111047Y-47083904D01*
X132034857Y-47198190D01*
X131958666Y-47274380D01*
X131882476Y-47312476D01*
X133025333Y-47350571D02*
X133025333Y-47883904D01*
X132834857Y-47045809D02*
X132644380Y-47617238D01*
X133139619Y-47617238D01*
X122459714Y-44710285D02*
X122497809Y-44748380D01*
X122535904Y-44862666D01*
X122535904Y-44938857D01*
X122497809Y-45053142D01*
X122421619Y-45129333D01*
X122345428Y-45167428D01*
X122193047Y-45205523D01*
X122078761Y-45205523D01*
X121926380Y-45167428D01*
X121850190Y-45129333D01*
X121774000Y-45053142D01*
X121735904Y-44938857D01*
X121735904Y-44862666D01*
X121774000Y-44748380D01*
X121812095Y-44710285D01*
X122535904Y-43948380D02*
X122535904Y-44405523D01*
X122535904Y-44176952D02*
X121735904Y-44176952D01*
X121850190Y-44253142D01*
X121926380Y-44329333D01*
X121964476Y-44405523D01*
X121735904Y-43224571D02*
X121735904Y-43605523D01*
X122116857Y-43643619D01*
X122078761Y-43605523D01*
X122040666Y-43529333D01*
X122040666Y-43338857D01*
X122078761Y-43262666D01*
X122116857Y-43224571D01*
X122193047Y-43186476D01*
X122383523Y-43186476D01*
X122459714Y-43224571D01*
X122497809Y-43262666D01*
X122535904Y-43338857D01*
X122535904Y-43529333D01*
X122497809Y-43605523D01*
X122459714Y-43643619D01*
X138207714Y-60700285D02*
X138245809Y-60738380D01*
X138283904Y-60852666D01*
X138283904Y-60928857D01*
X138245809Y-61043142D01*
X138169619Y-61119333D01*
X138093428Y-61157428D01*
X137941047Y-61195523D01*
X137826761Y-61195523D01*
X137674380Y-61157428D01*
X137598190Y-61119333D01*
X137522000Y-61043142D01*
X137483904Y-60928857D01*
X137483904Y-60852666D01*
X137522000Y-60738380D01*
X137560095Y-60700285D01*
X138283904Y-59938380D02*
X138283904Y-60395523D01*
X138283904Y-60166952D02*
X137483904Y-60166952D01*
X137598190Y-60243142D01*
X137674380Y-60319333D01*
X137712476Y-60395523D01*
X137483904Y-59252666D02*
X137483904Y-59405047D01*
X137522000Y-59481238D01*
X137560095Y-59519333D01*
X137674380Y-59595523D01*
X137826761Y-59633619D01*
X138131523Y-59633619D01*
X138207714Y-59595523D01*
X138245809Y-59557428D01*
X138283904Y-59481238D01*
X138283904Y-59328857D01*
X138245809Y-59252666D01*
X138207714Y-59214571D01*
X138131523Y-59176476D01*
X137941047Y-59176476D01*
X137864857Y-59214571D01*
X137826761Y-59252666D01*
X137788666Y-59328857D01*
X137788666Y-59481238D01*
X137826761Y-59557428D01*
X137864857Y-59595523D01*
X137941047Y-59633619D01*
X137699714Y-66046285D02*
X137737809Y-66084380D01*
X137775904Y-66198666D01*
X137775904Y-66274857D01*
X137737809Y-66389142D01*
X137661619Y-66465333D01*
X137585428Y-66503428D01*
X137433047Y-66541523D01*
X137318761Y-66541523D01*
X137166380Y-66503428D01*
X137090190Y-66465333D01*
X137014000Y-66389142D01*
X136975904Y-66274857D01*
X136975904Y-66198666D01*
X137014000Y-66084380D01*
X137052095Y-66046285D01*
X137775904Y-65284380D02*
X137775904Y-65741523D01*
X137775904Y-65512952D02*
X136975904Y-65512952D01*
X137090190Y-65589142D01*
X137166380Y-65665333D01*
X137204476Y-65741523D01*
X136975904Y-65017714D02*
X136975904Y-64484380D01*
X137775904Y-64827238D01*
X129317714Y-67570285D02*
X129355809Y-67608380D01*
X129393904Y-67722666D01*
X129393904Y-67798857D01*
X129355809Y-67913142D01*
X129279619Y-67989333D01*
X129203428Y-68027428D01*
X129051047Y-68065523D01*
X128936761Y-68065523D01*
X128784380Y-68027428D01*
X128708190Y-67989333D01*
X128632000Y-67913142D01*
X128593904Y-67798857D01*
X128593904Y-67722666D01*
X128632000Y-67608380D01*
X128670095Y-67570285D01*
X129393904Y-66808380D02*
X129393904Y-67265523D01*
X129393904Y-67036952D02*
X128593904Y-67036952D01*
X128708190Y-67113142D01*
X128784380Y-67189333D01*
X128822476Y-67265523D01*
X129393904Y-66427428D02*
X129393904Y-66275047D01*
X129355809Y-66198857D01*
X129317714Y-66160761D01*
X129203428Y-66084571D01*
X129051047Y-66046476D01*
X128746285Y-66046476D01*
X128670095Y-66084571D01*
X128632000Y-66122666D01*
X128593904Y-66198857D01*
X128593904Y-66351238D01*
X128632000Y-66427428D01*
X128670095Y-66465523D01*
X128746285Y-66503619D01*
X128936761Y-66503619D01*
X129012952Y-66465523D01*
X129051047Y-66427428D01*
X129089142Y-66351238D01*
X129089142Y-66198857D01*
X129051047Y-66122666D01*
X129012952Y-66084571D01*
X128936761Y-66046476D01*
X122459714Y-51060285D02*
X122497809Y-51098380D01*
X122535904Y-51212666D01*
X122535904Y-51288857D01*
X122497809Y-51403142D01*
X122421619Y-51479333D01*
X122345428Y-51517428D01*
X122193047Y-51555523D01*
X122078761Y-51555523D01*
X121926380Y-51517428D01*
X121850190Y-51479333D01*
X121774000Y-51403142D01*
X121735904Y-51288857D01*
X121735904Y-51212666D01*
X121774000Y-51098380D01*
X121812095Y-51060285D01*
X121812095Y-50755523D02*
X121774000Y-50717428D01*
X121735904Y-50641238D01*
X121735904Y-50450761D01*
X121774000Y-50374571D01*
X121812095Y-50336476D01*
X121888285Y-50298380D01*
X121964476Y-50298380D01*
X122078761Y-50336476D01*
X122535904Y-50793619D01*
X122535904Y-50298380D01*
X122535904Y-49536476D02*
X122535904Y-49993619D01*
X122535904Y-49765047D02*
X121735904Y-49765047D01*
X121850190Y-49841238D01*
X121926380Y-49917428D01*
X121964476Y-49993619D01*
X148785714Y-46633333D02*
X148823809Y-46671428D01*
X148861904Y-46785714D01*
X148861904Y-46861904D01*
X148823809Y-46976190D01*
X148747619Y-47052380D01*
X148671428Y-47090476D01*
X148519047Y-47128571D01*
X148404761Y-47128571D01*
X148252380Y-47090476D01*
X148176190Y-47052380D01*
X148100000Y-46976190D01*
X148061904Y-46861904D01*
X148061904Y-46785714D01*
X148100000Y-46671428D01*
X148138095Y-46633333D01*
X148138095Y-46328571D02*
X148100000Y-46290476D01*
X148061904Y-46214285D01*
X148061904Y-46023809D01*
X148100000Y-45947619D01*
X148138095Y-45909523D01*
X148214285Y-45871428D01*
X148290476Y-45871428D01*
X148404761Y-45909523D01*
X148861904Y-46366666D01*
X148861904Y-45871428D01*
X138207714Y-56660285D02*
X138245809Y-56698380D01*
X138283904Y-56812666D01*
X138283904Y-56888857D01*
X138245809Y-57003142D01*
X138169619Y-57079333D01*
X138093428Y-57117428D01*
X137941047Y-57155523D01*
X137826761Y-57155523D01*
X137674380Y-57117428D01*
X137598190Y-57079333D01*
X137522000Y-57003142D01*
X137483904Y-56888857D01*
X137483904Y-56812666D01*
X137522000Y-56698380D01*
X137560095Y-56660285D01*
X138283904Y-55898380D02*
X138283904Y-56355523D01*
X138283904Y-56126952D02*
X137483904Y-56126952D01*
X137598190Y-56203142D01*
X137674380Y-56279333D01*
X137712476Y-56355523D01*
X137560095Y-55593619D02*
X137522000Y-55555523D01*
X137483904Y-55479333D01*
X137483904Y-55288857D01*
X137522000Y-55212666D01*
X137560095Y-55174571D01*
X137636285Y-55136476D01*
X137712476Y-55136476D01*
X137826761Y-55174571D01*
X138283904Y-55631714D01*
X138283904Y-55136476D01*
X156785714Y-46633333D02*
X156823809Y-46671428D01*
X156861904Y-46785714D01*
X156861904Y-46861904D01*
X156823809Y-46976190D01*
X156747619Y-47052380D01*
X156671428Y-47090476D01*
X156519047Y-47128571D01*
X156404761Y-47128571D01*
X156252380Y-47090476D01*
X156176190Y-47052380D01*
X156100000Y-46976190D01*
X156061904Y-46861904D01*
X156061904Y-46785714D01*
X156100000Y-46671428D01*
X156138095Y-46633333D01*
X156861904Y-45871428D02*
X156861904Y-46328571D01*
X156861904Y-46100000D02*
X156061904Y-46100000D01*
X156176190Y-46176190D01*
X156252380Y-46252380D01*
X156290476Y-46328571D01*
X148785714Y-64633333D02*
X148823809Y-64671428D01*
X148861904Y-64785714D01*
X148861904Y-64861904D01*
X148823809Y-64976190D01*
X148747619Y-65052380D01*
X148671428Y-65090476D01*
X148519047Y-65128571D01*
X148404761Y-65128571D01*
X148252380Y-65090476D01*
X148176190Y-65052380D01*
X148100000Y-64976190D01*
X148061904Y-64861904D01*
X148061904Y-64785714D01*
X148100000Y-64671428D01*
X148138095Y-64633333D01*
X148061904Y-64366666D02*
X148061904Y-63833333D01*
X148861904Y-64176190D01*
X156785714Y-64633333D02*
X156823809Y-64671428D01*
X156861904Y-64785714D01*
X156861904Y-64861904D01*
X156823809Y-64976190D01*
X156747619Y-65052380D01*
X156671428Y-65090476D01*
X156519047Y-65128571D01*
X156404761Y-65128571D01*
X156252380Y-65090476D01*
X156176190Y-65052380D01*
X156100000Y-64976190D01*
X156061904Y-64861904D01*
X156061904Y-64785714D01*
X156100000Y-64671428D01*
X156138095Y-64633333D01*
X156404761Y-64176190D02*
X156366666Y-64252380D01*
X156328571Y-64290476D01*
X156252380Y-64328571D01*
X156214285Y-64328571D01*
X156138095Y-64290476D01*
X156100000Y-64252380D01*
X156061904Y-64176190D01*
X156061904Y-64023809D01*
X156100000Y-63947619D01*
X156138095Y-63909523D01*
X156214285Y-63871428D01*
X156252380Y-63871428D01*
X156328571Y-63909523D01*
X156366666Y-63947619D01*
X156404761Y-64023809D01*
X156404761Y-64176190D01*
X156442857Y-64252380D01*
X156480952Y-64290476D01*
X156557142Y-64328571D01*
X156709523Y-64328571D01*
X156785714Y-64290476D01*
X156823809Y-64252380D01*
X156861904Y-64176190D01*
X156861904Y-64023809D01*
X156823809Y-63947619D01*
X156785714Y-63909523D01*
X156709523Y-63871428D01*
X156557142Y-63871428D01*
X156480952Y-63909523D01*
X156442857Y-63947619D01*
X156404761Y-64023809D01*
X122459714Y-47758285D02*
X122497809Y-47796380D01*
X122535904Y-47910666D01*
X122535904Y-47986857D01*
X122497809Y-48101142D01*
X122421619Y-48177333D01*
X122345428Y-48215428D01*
X122193047Y-48253523D01*
X122078761Y-48253523D01*
X121926380Y-48215428D01*
X121850190Y-48177333D01*
X121774000Y-48101142D01*
X121735904Y-47986857D01*
X121735904Y-47910666D01*
X121774000Y-47796380D01*
X121812095Y-47758285D01*
X121812095Y-47453523D02*
X121774000Y-47415428D01*
X121735904Y-47339238D01*
X121735904Y-47148761D01*
X121774000Y-47072571D01*
X121812095Y-47034476D01*
X121888285Y-46996380D01*
X121964476Y-46996380D01*
X122078761Y-47034476D01*
X122535904Y-47491619D01*
X122535904Y-46996380D01*
X121735904Y-46501142D02*
X121735904Y-46424952D01*
X121774000Y-46348761D01*
X121812095Y-46310666D01*
X121888285Y-46272571D01*
X122040666Y-46234476D01*
X122231142Y-46234476D01*
X122383523Y-46272571D01*
X122459714Y-46310666D01*
X122497809Y-46348761D01*
X122535904Y-46424952D01*
X122535904Y-46501142D01*
X122497809Y-46577333D01*
X122459714Y-46615428D01*
X122383523Y-46653523D01*
X122231142Y-46691619D01*
X122040666Y-46691619D01*
X121888285Y-46653523D01*
X121812095Y-46615428D01*
X121774000Y-46577333D01*
X121735904Y-46501142D01*
X119253047Y-56536952D02*
X119253047Y-56917904D01*
X118986380Y-56117904D02*
X119253047Y-56536952D01*
X119519714Y-56117904D01*
X120205428Y-56917904D02*
X119748285Y-56917904D01*
X119976857Y-56917904D02*
X119976857Y-56117904D01*
X119900666Y-56232190D01*
X119824476Y-56308380D01*
X119748285Y-56346476D01*
X151985714Y-62361904D02*
X151719047Y-61980952D01*
X151528571Y-62361904D02*
X151528571Y-61561904D01*
X151833333Y-61561904D01*
X151909523Y-61600000D01*
X151947619Y-61638095D01*
X151985714Y-61714285D01*
X151985714Y-61828571D01*
X151947619Y-61904761D01*
X151909523Y-61942857D01*
X151833333Y-61980952D01*
X151528571Y-61980952D01*
X152747619Y-62361904D02*
X152290476Y-62361904D01*
X152519047Y-62361904D02*
X152519047Y-61561904D01*
X152442857Y-61676190D01*
X152366666Y-61752380D01*
X152290476Y-61790476D01*
X153014285Y-61561904D02*
X153547619Y-61561904D01*
X153204761Y-62361904D01*
X151985714Y-67361904D02*
X151719047Y-66980952D01*
X151528571Y-67361904D02*
X151528571Y-66561904D01*
X151833333Y-66561904D01*
X151909523Y-66600000D01*
X151947619Y-66638095D01*
X151985714Y-66714285D01*
X151985714Y-66828571D01*
X151947619Y-66904761D01*
X151909523Y-66942857D01*
X151833333Y-66980952D01*
X151528571Y-66980952D01*
X152747619Y-67361904D02*
X152290476Y-67361904D01*
X152519047Y-67361904D02*
X152519047Y-66561904D01*
X152442857Y-66676190D01*
X152366666Y-66752380D01*
X152290476Y-66790476D01*
X153204761Y-66904761D02*
X153128571Y-66866666D01*
X153090476Y-66828571D01*
X153052380Y-66752380D01*
X153052380Y-66714285D01*
X153090476Y-66638095D01*
X153128571Y-66600000D01*
X153204761Y-66561904D01*
X153357142Y-66561904D01*
X153433333Y-66600000D01*
X153471428Y-66638095D01*
X153509523Y-66714285D01*
X153509523Y-66752380D01*
X153471428Y-66828571D01*
X153433333Y-66866666D01*
X153357142Y-66904761D01*
X153204761Y-66904761D01*
X153128571Y-66942857D01*
X153090476Y-66980952D01*
X153052380Y-67057142D01*
X153052380Y-67209523D01*
X153090476Y-67285714D01*
X153128571Y-67323809D01*
X153204761Y-67361904D01*
X153357142Y-67361904D01*
X153433333Y-67323809D01*
X153471428Y-67285714D01*
X153509523Y-67209523D01*
X153509523Y-67057142D01*
X153471428Y-66980952D01*
X153433333Y-66942857D01*
X153357142Y-66904761D01*
X123805904Y-44710285D02*
X123424952Y-44976952D01*
X123805904Y-45167428D02*
X123005904Y-45167428D01*
X123005904Y-44862666D01*
X123044000Y-44786476D01*
X123082095Y-44748380D01*
X123158285Y-44710285D01*
X123272571Y-44710285D01*
X123348761Y-44748380D01*
X123386857Y-44786476D01*
X123424952Y-44862666D01*
X123424952Y-45167428D01*
X123082095Y-44405523D02*
X123044000Y-44367428D01*
X123005904Y-44291238D01*
X123005904Y-44100761D01*
X123044000Y-44024571D01*
X123082095Y-43986476D01*
X123158285Y-43948380D01*
X123234476Y-43948380D01*
X123348761Y-43986476D01*
X123805904Y-44443619D01*
X123805904Y-43948380D01*
X123005904Y-43681714D02*
X123005904Y-43186476D01*
X123310666Y-43453142D01*
X123310666Y-43338857D01*
X123348761Y-43262666D01*
X123386857Y-43224571D01*
X123463047Y-43186476D01*
X123653523Y-43186476D01*
X123729714Y-43224571D01*
X123767809Y-43262666D01*
X123805904Y-43338857D01*
X123805904Y-43567428D01*
X123767809Y-43643619D01*
X123729714Y-43681714D01*
X123805904Y-47758285D02*
X123424952Y-48024952D01*
X123805904Y-48215428D02*
X123005904Y-48215428D01*
X123005904Y-47910666D01*
X123044000Y-47834476D01*
X123082095Y-47796380D01*
X123158285Y-47758285D01*
X123272571Y-47758285D01*
X123348761Y-47796380D01*
X123386857Y-47834476D01*
X123424952Y-47910666D01*
X123424952Y-48215428D01*
X123082095Y-47453523D02*
X123044000Y-47415428D01*
X123005904Y-47339238D01*
X123005904Y-47148761D01*
X123044000Y-47072571D01*
X123082095Y-47034476D01*
X123158285Y-46996380D01*
X123234476Y-46996380D01*
X123348761Y-47034476D01*
X123805904Y-47491619D01*
X123805904Y-46996380D01*
X123272571Y-46310666D02*
X123805904Y-46310666D01*
X122967809Y-46501142D02*
X123539238Y-46691619D01*
X123539238Y-46196380D01*
X134727904Y-67824285D02*
X134346952Y-68090952D01*
X134727904Y-68281428D02*
X133927904Y-68281428D01*
X133927904Y-67976666D01*
X133966000Y-67900476D01*
X134004095Y-67862380D01*
X134080285Y-67824285D01*
X134194571Y-67824285D01*
X134270761Y-67862380D01*
X134308857Y-67900476D01*
X134346952Y-67976666D01*
X134346952Y-68281428D01*
X134004095Y-67519523D02*
X133966000Y-67481428D01*
X133927904Y-67405238D01*
X133927904Y-67214761D01*
X133966000Y-67138571D01*
X134004095Y-67100476D01*
X134080285Y-67062380D01*
X134156476Y-67062380D01*
X134270761Y-67100476D01*
X134727904Y-67557619D01*
X134727904Y-67062380D01*
X133927904Y-66338571D02*
X133927904Y-66719523D01*
X134308857Y-66757619D01*
X134270761Y-66719523D01*
X134232666Y-66643333D01*
X134232666Y-66452857D01*
X134270761Y-66376666D01*
X134308857Y-66338571D01*
X134385047Y-66300476D01*
X134575523Y-66300476D01*
X134651714Y-66338571D01*
X134689809Y-66376666D01*
X134727904Y-66452857D01*
X134727904Y-66643333D01*
X134689809Y-66719523D01*
X134651714Y-66757619D01*
X123805904Y-51060285D02*
X123424952Y-51326952D01*
X123805904Y-51517428D02*
X123005904Y-51517428D01*
X123005904Y-51212666D01*
X123044000Y-51136476D01*
X123082095Y-51098380D01*
X123158285Y-51060285D01*
X123272571Y-51060285D01*
X123348761Y-51098380D01*
X123386857Y-51136476D01*
X123424952Y-51212666D01*
X123424952Y-51517428D01*
X123082095Y-50755523D02*
X123044000Y-50717428D01*
X123005904Y-50641238D01*
X123005904Y-50450761D01*
X123044000Y-50374571D01*
X123082095Y-50336476D01*
X123158285Y-50298380D01*
X123234476Y-50298380D01*
X123348761Y-50336476D01*
X123805904Y-50793619D01*
X123805904Y-50298380D01*
X123005904Y-49612666D02*
X123005904Y-49765047D01*
X123044000Y-49841238D01*
X123082095Y-49879333D01*
X123196380Y-49955523D01*
X123348761Y-49993619D01*
X123653523Y-49993619D01*
X123729714Y-49955523D01*
X123767809Y-49917428D01*
X123805904Y-49841238D01*
X123805904Y-49688857D01*
X123767809Y-49612666D01*
X123729714Y-49574571D01*
X123653523Y-49536476D01*
X123463047Y-49536476D01*
X123386857Y-49574571D01*
X123348761Y-49612666D01*
X123310666Y-49688857D01*
X123310666Y-49841238D01*
X123348761Y-49917428D01*
X123386857Y-49955523D01*
X123463047Y-49993619D01*
X127152476Y-86937904D02*
X127152476Y-87585523D01*
X127190571Y-87661714D01*
X127228666Y-87699809D01*
X127304857Y-87737904D01*
X127457238Y-87737904D01*
X127533428Y-87699809D01*
X127571523Y-87661714D01*
X127609619Y-87585523D01*
X127609619Y-86937904D01*
X128409619Y-87737904D02*
X127952476Y-87737904D01*
X128181047Y-87737904D02*
X128181047Y-86937904D01*
X128104857Y-87052190D01*
X128028666Y-87128380D01*
X127952476Y-87166476D01*
X130454666Y-83673904D02*
X130188000Y-83292952D01*
X129997523Y-83673904D02*
X129997523Y-82873904D01*
X130302285Y-82873904D01*
X130378476Y-82912000D01*
X130416571Y-82950095D01*
X130454666Y-83026285D01*
X130454666Y-83140571D01*
X130416571Y-83216761D01*
X130378476Y-83254857D01*
X130302285Y-83292952D01*
X129997523Y-83292952D01*
X130949904Y-82873904D02*
X131102285Y-82873904D01*
X131178476Y-82912000D01*
X131254666Y-82988190D01*
X131292761Y-83140571D01*
X131292761Y-83407238D01*
X131254666Y-83559619D01*
X131178476Y-83635809D01*
X131102285Y-83673904D01*
X130949904Y-83673904D01*
X130873714Y-83635809D01*
X130797523Y-83559619D01*
X130759428Y-83407238D01*
X130759428Y-83140571D01*
X130797523Y-82988190D01*
X130873714Y-82912000D01*
X130949904Y-82873904D01*
X131902285Y-83254857D02*
X131635619Y-83254857D01*
X131635619Y-83673904D02*
X131635619Y-82873904D01*
X132016571Y-82873904D01*
X132321333Y-83369142D02*
X132930857Y-83369142D01*
X133235619Y-82873904D02*
X133768952Y-82873904D01*
X133426095Y-83673904D01*
X134188000Y-83216761D02*
X134111809Y-83178666D01*
X134073714Y-83140571D01*
X134035619Y-83064380D01*
X134035619Y-83026285D01*
X134073714Y-82950095D01*
X134111809Y-82912000D01*
X134188000Y-82873904D01*
X134340380Y-82873904D01*
X134416571Y-82912000D01*
X134454666Y-82950095D01*
X134492761Y-83026285D01*
X134492761Y-83064380D01*
X134454666Y-83140571D01*
X134416571Y-83178666D01*
X134340380Y-83216761D01*
X134188000Y-83216761D01*
X134111809Y-83254857D01*
X134073714Y-83292952D01*
X134035619Y-83369142D01*
X134035619Y-83521523D01*
X134073714Y-83597714D01*
X134111809Y-83635809D01*
X134188000Y-83673904D01*
X134340380Y-83673904D01*
X134416571Y-83635809D01*
X134454666Y-83597714D01*
X134492761Y-83521523D01*
X134492761Y-83369142D01*
X134454666Y-83292952D01*
X134416571Y-83254857D01*
X134340380Y-83216761D01*
X134835619Y-83254857D02*
X135102285Y-83254857D01*
X135216571Y-83673904D02*
X134835619Y-83673904D01*
X134835619Y-82873904D01*
X135216571Y-82873904D01*
X117455904Y-61296476D02*
X116655904Y-61296476D01*
X116655904Y-61106000D01*
X116694000Y-60991714D01*
X116770190Y-60915523D01*
X116846380Y-60877428D01*
X116998761Y-60839333D01*
X117113047Y-60839333D01*
X117265428Y-60877428D01*
X117341619Y-60915523D01*
X117417809Y-60991714D01*
X117455904Y-61106000D01*
X117455904Y-61296476D01*
X116922571Y-60153619D02*
X117455904Y-60153619D01*
X116617809Y-60344095D02*
X117189238Y-60534571D01*
X117189238Y-60039333D01*
X116185904Y-61296476D02*
X115385904Y-61296476D01*
X115385904Y-61106000D01*
X115424000Y-60991714D01*
X115500190Y-60915523D01*
X115576380Y-60877428D01*
X115728761Y-60839333D01*
X115843047Y-60839333D01*
X115995428Y-60877428D01*
X116071619Y-60915523D01*
X116147809Y-60991714D01*
X116185904Y-61106000D01*
X116185904Y-61296476D01*
X115385904Y-60572666D02*
X115385904Y-60077428D01*
X115690666Y-60344095D01*
X115690666Y-60229809D01*
X115728761Y-60153619D01*
X115766857Y-60115523D01*
X115843047Y-60077428D01*
X116033523Y-60077428D01*
X116109714Y-60115523D01*
X116147809Y-60153619D01*
X116185904Y-60229809D01*
X116185904Y-60458380D01*
X116147809Y-60534571D01*
X116109714Y-60572666D01*
X116185904Y-63074476D02*
X115385904Y-63074476D01*
X115385904Y-62884000D01*
X115424000Y-62769714D01*
X115500190Y-62693523D01*
X115576380Y-62655428D01*
X115728761Y-62617333D01*
X115843047Y-62617333D01*
X115995428Y-62655428D01*
X116071619Y-62693523D01*
X116147809Y-62769714D01*
X116185904Y-62884000D01*
X116185904Y-63074476D01*
X115462095Y-62312571D02*
X115424000Y-62274476D01*
X115385904Y-62198285D01*
X115385904Y-62007809D01*
X115424000Y-61931619D01*
X115462095Y-61893523D01*
X115538285Y-61855428D01*
X115614476Y-61855428D01*
X115728761Y-61893523D01*
X116185904Y-62350666D01*
X116185904Y-61855428D01*
X117455904Y-63074476D02*
X116655904Y-63074476D01*
X116655904Y-62884000D01*
X116694000Y-62769714D01*
X116770190Y-62693523D01*
X116846380Y-62655428D01*
X116998761Y-62617333D01*
X117113047Y-62617333D01*
X117265428Y-62655428D01*
X117341619Y-62693523D01*
X117417809Y-62769714D01*
X117455904Y-62884000D01*
X117455904Y-63074476D01*
X117455904Y-61855428D02*
X117455904Y-62312571D01*
X117455904Y-62084000D02*
X116655904Y-62084000D01*
X116770190Y-62160190D01*
X116846380Y-62236380D01*
X116884476Y-62312571D01*
X152493666Y-44361904D02*
X152227000Y-43980952D01*
X152036523Y-44361904D02*
X152036523Y-43561904D01*
X152341285Y-43561904D01*
X152417476Y-43600000D01*
X152455571Y-43638095D01*
X152493666Y-43714285D01*
X152493666Y-43828571D01*
X152455571Y-43904761D01*
X152417476Y-43942857D01*
X152341285Y-43980952D01*
X152036523Y-43980952D01*
X153217476Y-43561904D02*
X152836523Y-43561904D01*
X152798428Y-43942857D01*
X152836523Y-43904761D01*
X152912714Y-43866666D01*
X153103190Y-43866666D01*
X153179380Y-43904761D01*
X153217476Y-43942857D01*
X153255571Y-44019047D01*
X153255571Y-44209523D01*
X153217476Y-44285714D01*
X153179380Y-44323809D01*
X153103190Y-44361904D01*
X152912714Y-44361904D01*
X152836523Y-44323809D01*
X152798428Y-44285714D01*
X152366666Y-49361904D02*
X152100000Y-48980952D01*
X151909523Y-49361904D02*
X151909523Y-48561904D01*
X152214285Y-48561904D01*
X152290476Y-48600000D01*
X152328571Y-48638095D01*
X152366666Y-48714285D01*
X152366666Y-48828571D01*
X152328571Y-48904761D01*
X152290476Y-48942857D01*
X152214285Y-48980952D01*
X151909523Y-48980952D01*
X153052380Y-48561904D02*
X152900000Y-48561904D01*
X152823809Y-48600000D01*
X152785714Y-48638095D01*
X152709523Y-48752380D01*
X152671428Y-48904761D01*
X152671428Y-49209523D01*
X152709523Y-49285714D01*
X152747619Y-49323809D01*
X152823809Y-49361904D01*
X152976190Y-49361904D01*
X153052380Y-49323809D01*
X153090476Y-49285714D01*
X153128571Y-49209523D01*
X153128571Y-49019047D01*
X153090476Y-48942857D01*
X153052380Y-48904761D01*
X152976190Y-48866666D01*
X152823809Y-48866666D01*
X152747619Y-48904761D01*
X152709523Y-48942857D01*
X152671428Y-49019047D01*
X128227687Y-52878122D02*
X127662002Y-52312436D01*
X128766435Y-52231624D02*
X128766435Y-52285499D01*
X128712560Y-52393248D01*
X128658686Y-52447123D01*
X128550936Y-52500998D01*
X128443186Y-52500998D01*
X128362374Y-52474061D01*
X128227687Y-52393248D01*
X128146875Y-52312436D01*
X128066063Y-52177749D01*
X128039125Y-52096937D01*
X128039125Y-51989187D01*
X128093000Y-51881438D01*
X128146875Y-51827563D01*
X128254624Y-51773688D01*
X128308499Y-51773688D01*
X129359058Y-51746751D02*
X129035809Y-52070000D01*
X129197434Y-51908375D02*
X128631748Y-51342690D01*
X128658686Y-51477377D01*
X128658686Y-51585126D01*
X128631748Y-51665938D01*
M02*
