G04 #@! TF.GenerationSoftware,KiCad,Pcbnew,(2018-02-15 revision 29b28de31)-makepkg*
G04 #@! TF.CreationDate,2018-09-20T14:44:38+09:30*
G04 #@! TF.ProjectId,ATM90E3x_fw,41544D39304533785F66772E6B696361,rev?*
G04 #@! TF.SameCoordinates,Original*
G04 #@! TF.FileFunction,Soldermask,Bot*
G04 #@! TF.FilePolarity,Negative*
%FSLAX46Y46*%
G04 Gerber Fmt 4.6, Leading zero omitted, Abs format (unit mm)*
G04 Created by KiCad (PCBNEW (2018-02-15 revision 29b28de31)-makepkg) date 09/20/18 14:44:38*
%MOMM*%
%LPD*%
G01*
G04 APERTURE LIST*
%ADD10R,2.100000X2.100000*%
%ADD11C,2.100000*%
%ADD12O,4.000000X2.200000*%
%ADD13R,4.000000X2.200000*%
%ADD14R,1.670000X1.370000*%
%ADD15R,0.900000X1.300000*%
%ADD16R,1.370000X1.670000*%
%ADD17C,2.178000*%
%ADD18C,4.210000*%
%ADD19C,2.899360*%
%ADD20R,1.150000X1.200000*%
%ADD21R,1.300000X0.900000*%
G04 APERTURE END LIST*
D10*
X144145000Y-51725000D03*
D11*
X144145000Y-54225000D03*
X144145000Y-56725000D03*
X144145000Y-59225000D03*
X146645000Y-51725000D03*
X146645000Y-54225000D03*
X146645000Y-56725000D03*
X146645000Y-59225000D03*
X153825000Y-51725000D03*
X153825000Y-59225000D03*
D12*
X115316000Y-57236000D03*
X115316000Y-53736000D03*
X115316000Y-50236000D03*
D13*
X115316000Y-46736000D03*
D14*
X120142000Y-45974000D03*
X120142000Y-44704000D03*
X120142000Y-43434000D03*
X127762000Y-45974000D03*
X127762000Y-44704000D03*
X127762000Y-43434000D03*
X123952000Y-45974000D03*
X123952000Y-44704000D03*
X123952000Y-43434000D03*
D15*
X151750000Y-47500000D03*
X153250000Y-47500000D03*
D16*
X138684000Y-73152000D03*
X139954000Y-73152000D03*
X141224000Y-73152000D03*
D17*
X113335000Y-90220800D03*
X115875000Y-90220800D03*
X118415000Y-90220800D03*
X120955000Y-90220800D03*
X123495000Y-90220800D03*
X126035000Y-90220800D03*
X128575000Y-90220800D03*
X131115000Y-90220800D03*
X133655000Y-90220800D03*
X136195000Y-90220800D03*
X138735000Y-90220800D03*
X141275000Y-90220800D03*
X143815000Y-90220800D03*
X146355000Y-90220800D03*
X148895000Y-90220800D03*
X151435000Y-90220800D03*
X151435000Y-69900800D03*
X148895000Y-69900800D03*
X146355000Y-69900800D03*
X143815000Y-69900800D03*
X141275000Y-69900800D03*
X138735000Y-69900800D03*
X136195000Y-69900800D03*
X133655000Y-69900800D03*
X131115000Y-69900800D03*
X128575000Y-69900800D03*
X126035000Y-69900800D03*
X123495000Y-69900800D03*
D18*
X109525000Y-71170800D03*
X109525000Y-88950800D03*
D19*
X155245000Y-71170800D03*
X155245000Y-88950800D03*
D20*
X120396000Y-49784000D03*
X120396000Y-51284000D03*
X150000000Y-63750000D03*
X150000000Y-65250000D03*
X150000000Y-47250000D03*
X150000000Y-45750000D03*
X155000000Y-47250000D03*
X155000000Y-45750000D03*
X120396000Y-56539000D03*
X120396000Y-58039000D03*
X120396000Y-53086000D03*
X120396000Y-54586000D03*
X155000000Y-63750000D03*
X155000000Y-65250000D03*
D15*
X153250000Y-65500000D03*
X151750000Y-65500000D03*
D21*
X118618000Y-51284000D03*
X118618000Y-49784000D03*
X122174000Y-49784000D03*
X122174000Y-51284000D03*
D15*
X149250000Y-59250000D03*
X150750000Y-59250000D03*
X151750000Y-63500000D03*
X153250000Y-63500000D03*
X150750000Y-56750000D03*
X149250000Y-56750000D03*
D21*
X118618000Y-57900000D03*
X118618000Y-56400000D03*
D15*
X141750000Y-59250000D03*
X140250000Y-59250000D03*
D21*
X122174000Y-56515000D03*
X122174000Y-58015000D03*
X118618000Y-54586000D03*
X118618000Y-53086000D03*
X122174000Y-53086000D03*
X122174000Y-54586000D03*
D15*
X140250000Y-56750000D03*
X141750000Y-56750000D03*
X153250000Y-45500000D03*
X151750000Y-45500000D03*
X140250000Y-51500000D03*
X141750000Y-51500000D03*
X141750000Y-54250000D03*
X140250000Y-54250000D03*
X150750000Y-51750000D03*
X149250000Y-51750000D03*
X149250000Y-54250000D03*
X150750000Y-54250000D03*
M02*
