G04 #@! TF.GenerationSoftware,KiCad,Pcbnew,(2018-02-15 revision 29b28de31)-makepkg*
G04 #@! TF.CreationDate,2018-05-29T16:30:00+09:30*
G04 #@! TF.ProjectId,ATM90E3x_fw,41544D39304533785F66772E6B696361,rev?*
G04 #@! TF.SameCoordinates,Original*
G04 #@! TF.FileFunction,Copper,L2,Bot,Signal*
G04 #@! TF.FilePolarity,Positive*
%FSLAX46Y46*%
G04 Gerber Fmt 4.6, Leading zero omitted, Abs format (unit mm)*
G04 Created by KiCad (PCBNEW (2018-02-15 revision 29b28de31)-makepkg) date 05/29/18 16:30:00*
%MOMM*%
%LPD*%
G01*
G04 APERTURE LIST*
%ADD10R,1.700000X1.700000*%
%ADD11C,1.700000*%
%ADD12O,3.600000X1.800000*%
%ADD13R,3.600000X1.800000*%
%ADD14R,1.270000X0.970000*%
%ADD15R,0.500000X0.900000*%
%ADD16R,0.970000X1.270000*%
%ADD17C,1.778000*%
%ADD18C,3.810000*%
%ADD19R,0.750000X0.800000*%
%ADD20R,0.900000X0.500000*%
%ADD21C,0.800000*%
%ADD22C,0.250000*%
%ADD23C,0.400000*%
%ADD24C,0.254000*%
G04 APERTURE END LIST*
D10*
X144145000Y-51725000D03*
D11*
X144145000Y-54225000D03*
X144145000Y-56725000D03*
X144145000Y-59225000D03*
X146645000Y-51725000D03*
X146645000Y-54225000D03*
X146645000Y-56725000D03*
X146645000Y-59225000D03*
D12*
X115316000Y-57236000D03*
X115316000Y-53736000D03*
X115316000Y-50236000D03*
D13*
X115316000Y-46736000D03*
D14*
X120142000Y-45974000D03*
X120142000Y-44704000D03*
X120142000Y-43434000D03*
X127762000Y-45974000D03*
X127762000Y-44704000D03*
X127762000Y-43434000D03*
X123952000Y-45974000D03*
X123952000Y-44704000D03*
X123952000Y-43434000D03*
D15*
X151750000Y-47500000D03*
X153250000Y-47500000D03*
D16*
X138684000Y-73152000D03*
X139954000Y-73152000D03*
X141224000Y-73152000D03*
D17*
X113335000Y-90220800D03*
X115875000Y-90220800D03*
X118415000Y-90220800D03*
X120955000Y-90220800D03*
X123495000Y-90220800D03*
X126035000Y-90220800D03*
X128575000Y-90220800D03*
X131115000Y-90220800D03*
X133655000Y-90220800D03*
X136195000Y-90220800D03*
X138735000Y-90220800D03*
X141275000Y-90220800D03*
X143815000Y-90220800D03*
X146355000Y-90220800D03*
X148895000Y-90220800D03*
X151435000Y-90220800D03*
X151435000Y-69900800D03*
X148895000Y-69900800D03*
X146355000Y-69900800D03*
X143815000Y-69900800D03*
X141275000Y-69900800D03*
X138735000Y-69900800D03*
X136195000Y-69900800D03*
X133655000Y-69900800D03*
X131115000Y-69900800D03*
X128575000Y-69900800D03*
X126035000Y-69900800D03*
X123495000Y-69900800D03*
D18*
X109525000Y-71170800D03*
X109525000Y-88950800D03*
D19*
X120396000Y-49784000D03*
X120396000Y-51284000D03*
X150000000Y-63750000D03*
X150000000Y-65250000D03*
X150000000Y-47250000D03*
X150000000Y-45750000D03*
X155000000Y-47250000D03*
X155000000Y-45750000D03*
X120396000Y-56539000D03*
X120396000Y-58039000D03*
X120396000Y-53086000D03*
X120396000Y-54586000D03*
X155000000Y-63750000D03*
X155000000Y-65250000D03*
D15*
X153250000Y-65500000D03*
X151750000Y-65500000D03*
D20*
X118618000Y-51284000D03*
X118618000Y-49784000D03*
X122174000Y-49784000D03*
X122174000Y-51284000D03*
D15*
X149250000Y-59250000D03*
X150750000Y-59250000D03*
X151750000Y-63500000D03*
X153250000Y-63500000D03*
X150750000Y-56750000D03*
X149250000Y-56750000D03*
D20*
X118618000Y-57900000D03*
X118618000Y-56400000D03*
D15*
X141750000Y-59250000D03*
X140250000Y-59250000D03*
D20*
X122174000Y-56515000D03*
X122174000Y-58015000D03*
X118618000Y-54586000D03*
X118618000Y-53086000D03*
X122174000Y-53086000D03*
X122174000Y-54586000D03*
D15*
X140250000Y-56750000D03*
X141750000Y-56750000D03*
X153250000Y-45500000D03*
X151750000Y-45500000D03*
X140250000Y-51500000D03*
X141750000Y-51500000D03*
X141750000Y-54250000D03*
X140250000Y-54250000D03*
X150750000Y-51750000D03*
X149250000Y-51750000D03*
X149250000Y-54250000D03*
X150750000Y-54250000D03*
D21*
X116886400Y-62830700D03*
X120790300Y-63115200D03*
X111575000Y-77894100D03*
X110054700Y-74147200D03*
X111531900Y-81935700D03*
X130930000Y-60633100D03*
X142545000Y-86763400D03*
X137328000Y-46732000D03*
X131587600Y-64229400D03*
X134911400Y-48506700D03*
X130179200Y-64646500D03*
X134681600Y-49518400D03*
X130314700Y-59738400D03*
X135045300Y-51284600D03*
X121572900Y-61282700D03*
X114791700Y-64145100D03*
X121656500Y-59917000D03*
X114578800Y-65145500D03*
X145781000Y-44098100D03*
X138990000Y-54555100D03*
X118000000Y-81000000D03*
X118000000Y-79500000D03*
X118000000Y-78000000D03*
X139000000Y-81000000D03*
X139000000Y-79500000D03*
X139000000Y-78000000D03*
X126500000Y-81000000D03*
X126500000Y-79500000D03*
X126500000Y-78000000D03*
X109000000Y-56500000D03*
X109000000Y-54500000D03*
X109000000Y-52500000D03*
X109000000Y-50500000D03*
X109000000Y-48500000D03*
X109000000Y-46500000D03*
X155500000Y-83000000D03*
X155500000Y-81500000D03*
X155500000Y-80000000D03*
X155500000Y-78500000D03*
X155500000Y-77000000D03*
X154000000Y-57000000D03*
X154000000Y-55500000D03*
X154000000Y-54000000D03*
X122174000Y-55457200D03*
X113554600Y-63001100D03*
X127225000Y-61207300D03*
X139360000Y-56989700D03*
X134422500Y-54537100D03*
X136584200Y-51507400D03*
X146347700Y-47736700D03*
X146513800Y-61202800D03*
X140790000Y-50411200D03*
X132611600Y-57883600D03*
X147995100Y-49900900D03*
X128247600Y-62249400D03*
X110934400Y-68292900D03*
X125285300Y-62947800D03*
X121883400Y-66774300D03*
X124284900Y-62709400D03*
X120408300Y-66358200D03*
X119125800Y-65942300D03*
X125870200Y-59855300D03*
X121818900Y-62788600D03*
X116862800Y-64325500D03*
X124122700Y-53320800D03*
X123983700Y-51755400D03*
X123697500Y-49392400D03*
X138819000Y-47861100D03*
X137973600Y-56277500D03*
X135867100Y-46335200D03*
D22*
X120505800Y-62830700D02*
X120790300Y-63115200D01*
X116886400Y-62830700D02*
X120505800Y-62830700D01*
D23*
X115316000Y-53736000D02*
X113115700Y-53736000D01*
X117767700Y-53987400D02*
X117516300Y-53736000D01*
X117767700Y-54586000D02*
X117767700Y-53987400D01*
X115316000Y-53736000D02*
X117516300Y-53736000D01*
X118618000Y-54586000D02*
X117767700Y-54586000D01*
X112075700Y-54776000D02*
X113115700Y-53736000D01*
X112075700Y-66140000D02*
X112075700Y-54776000D01*
X112435600Y-66499900D02*
X112075700Y-66140000D01*
X112435600Y-77033500D02*
X112435600Y-66499900D01*
X111575000Y-77894100D02*
X112435600Y-77033500D01*
X115316000Y-50236000D02*
X113115700Y-50236000D01*
X117767700Y-50487400D02*
X117516300Y-50236000D01*
X117767700Y-51284000D02*
X117767700Y-50487400D01*
X115316000Y-50236000D02*
X117516300Y-50236000D01*
X118618000Y-51284000D02*
X117767700Y-51284000D01*
X111459700Y-51892000D02*
X113115700Y-50236000D01*
X111459700Y-66427900D02*
X111459700Y-51892000D01*
X111831400Y-66799600D02*
X111459700Y-66427900D01*
X111831400Y-72370500D02*
X111831400Y-66799600D01*
X110054700Y-74147200D02*
X111831400Y-72370500D01*
X117516300Y-57590200D02*
X117516300Y-57236000D01*
X117826100Y-57900000D02*
X117516300Y-57590200D01*
X118618000Y-57900000D02*
X117826100Y-57900000D01*
X115316000Y-57236000D02*
X116416200Y-57236000D01*
X116416200Y-57236000D02*
X117516300Y-57236000D01*
X112714300Y-60937900D02*
X116416200Y-57236000D01*
X112714300Y-65929500D02*
X112714300Y-60937900D01*
X113045500Y-66260700D02*
X112714300Y-65929500D01*
X113045500Y-80422100D02*
X113045500Y-66260700D01*
X111531900Y-81935700D02*
X113045500Y-80422100D01*
D22*
X138735000Y-72140700D02*
X138684000Y-72191700D01*
X138735000Y-69900800D02*
X138735000Y-72140700D01*
X138684000Y-73152000D02*
X138684000Y-72191700D01*
X137328000Y-48645000D02*
X137328000Y-46732000D01*
X135770700Y-50202300D02*
X137328000Y-48645000D01*
X135770700Y-51613700D02*
X135770700Y-50202300D01*
X131851700Y-55532700D02*
X135770700Y-51613700D01*
X131851700Y-60013200D02*
X131851700Y-55532700D01*
X131549900Y-60013200D02*
X131851700Y-60013200D01*
X130930000Y-60633100D02*
X131549900Y-60013200D01*
X142545000Y-69398900D02*
X142545000Y-86763400D01*
X133159300Y-60013200D02*
X142545000Y-69398900D01*
X131851700Y-60013200D02*
X133159300Y-60013200D01*
X134925000Y-67566800D02*
X131587600Y-64229400D01*
X134925000Y-81330800D02*
X134925000Y-67566800D01*
X143815000Y-90220800D02*
X134925000Y-81330800D01*
X135412100Y-49007400D02*
X134911400Y-48506700D01*
X135412100Y-49823600D02*
X135412100Y-49007400D01*
X129582600Y-55653100D02*
X135412100Y-49823600D01*
X129582600Y-62224400D02*
X129582600Y-55653100D01*
X131587600Y-64229400D02*
X129582600Y-62224400D01*
X132385000Y-66852300D02*
X130179200Y-64646500D01*
X132385000Y-83870800D02*
X132385000Y-66852300D01*
X138735000Y-90220800D02*
X132385000Y-83870800D01*
X129079100Y-55120900D02*
X134681600Y-49518400D01*
X129079100Y-63546400D02*
X129079100Y-55120900D01*
X130179200Y-64646500D02*
X129079100Y-63546400D01*
X130203300Y-59849800D02*
X130314700Y-59738400D01*
X130203300Y-60959300D02*
X130203300Y-59849800D01*
X137480100Y-68236100D02*
X130203300Y-60959300D01*
X138860100Y-68236100D02*
X137480100Y-68236100D01*
X139954000Y-69330000D02*
X138860100Y-68236100D01*
X139954000Y-73152000D02*
X139954000Y-69330000D01*
X130314700Y-56015200D02*
X135045300Y-51284600D01*
X130314700Y-59738400D02*
X130314700Y-56015200D01*
X114791700Y-63883900D02*
X114791700Y-64145100D01*
X117392900Y-61282700D02*
X114791700Y-63883900D01*
X121572900Y-61282700D02*
X117392900Y-61282700D01*
X117949300Y-59917000D02*
X121656500Y-59917000D01*
X114066400Y-63799900D02*
X117949300Y-59917000D01*
X114066400Y-64633100D02*
X114066400Y-63799900D01*
X114578800Y-65145500D02*
X114066400Y-64633100D01*
X142744700Y-51500000D02*
X142969700Y-51725000D01*
X141750000Y-51500000D02*
X142744700Y-51500000D01*
X144145000Y-51725000D02*
X142969700Y-51725000D01*
X139152700Y-50726400D02*
X145781000Y-44098100D01*
X139152700Y-51499300D02*
X139152700Y-50726400D01*
X138990000Y-51662000D02*
X139152700Y-51499300D01*
X138990000Y-54555100D02*
X138990000Y-51662000D01*
D23*
X118278300Y-45974000D02*
X117516300Y-46736000D01*
X120142000Y-45974000D02*
X118278300Y-45974000D01*
X115316000Y-46736000D02*
X117516300Y-46736000D01*
X123952000Y-45974000D02*
X122916700Y-45974000D01*
X140250000Y-56750000D02*
X140250000Y-55100300D01*
X140250000Y-54250000D02*
X140250000Y-55100300D01*
X140250000Y-51500000D02*
X140250000Y-52350300D01*
X120142000Y-45974000D02*
X121177300Y-45974000D01*
X122916700Y-45974000D02*
X121177300Y-45974000D01*
X140250000Y-52350300D02*
X140250000Y-54250000D01*
X150724700Y-46474700D02*
X150000000Y-45750000D01*
X153546400Y-46474700D02*
X150724700Y-46474700D01*
X154224700Y-47153000D02*
X153546400Y-46474700D01*
X154224700Y-47250000D02*
X154224700Y-47153000D01*
X150750000Y-54250000D02*
X150750000Y-51750000D01*
X154224700Y-48925600D02*
X154224700Y-47250000D01*
X151400300Y-51750000D02*
X154224700Y-48925600D01*
X150750000Y-51750000D02*
X151400300Y-51750000D01*
X122174000Y-51284000D02*
X120396000Y-51284000D01*
X122174000Y-51284000D02*
X123024300Y-51284000D01*
X140250000Y-56750000D02*
X140250000Y-59250000D01*
X140250000Y-59250000D02*
X140900300Y-59250000D01*
X154762500Y-47250000D02*
X154224700Y-47250000D01*
X154762500Y-47250000D02*
X155000000Y-47250000D01*
X146412600Y-65250000D02*
X149224700Y-65250000D01*
X140900300Y-59737700D02*
X146412600Y-65250000D01*
X140900300Y-59250000D02*
X140900300Y-59737700D01*
X150000000Y-65250000D02*
X149224700Y-65250000D01*
X151100400Y-66350400D02*
X150000000Y-65250000D01*
X152173900Y-66350400D02*
X151100400Y-66350400D01*
X152431900Y-66092400D02*
X152173900Y-66350400D01*
X152431900Y-65024200D02*
X152431900Y-66092400D01*
X153105700Y-64350400D02*
X152431900Y-65024200D01*
X153699500Y-64350400D02*
X153105700Y-64350400D01*
X154224700Y-63825200D02*
X153699500Y-64350400D01*
X154224700Y-63750000D02*
X154224700Y-63825200D01*
X155000000Y-63750000D02*
X154224700Y-63750000D01*
X150750000Y-54250000D02*
X150750000Y-56750000D01*
X150750000Y-56750000D02*
X150750000Y-58399700D01*
X150750000Y-58824800D02*
X150750000Y-58399700D01*
X123760900Y-50547400D02*
X124340400Y-50547400D01*
X123024300Y-51284000D02*
X123760900Y-50547400D01*
X124497800Y-47405100D02*
X123952000Y-46859300D01*
X124497800Y-50390000D02*
X124497800Y-47405100D01*
X124340400Y-50547400D02*
X124497800Y-50390000D01*
X150750000Y-59250000D02*
X150750000Y-58824800D01*
X154224700Y-62074400D02*
X154224700Y-63750000D01*
X151400300Y-59250000D02*
X154224700Y-62074400D01*
X150750000Y-59250000D02*
X151400300Y-59250000D01*
X122174000Y-55457200D02*
X122174000Y-54586000D01*
X120396000Y-54586000D02*
X121171300Y-54586000D01*
X122174000Y-54586000D02*
X121171300Y-54586000D01*
X121299700Y-58039000D02*
X121323700Y-58015000D01*
X120396000Y-58039000D02*
X121299700Y-58039000D01*
X122174000Y-58015000D02*
X121323700Y-58015000D01*
X122174000Y-58015000D02*
X122174000Y-57364700D01*
X122661700Y-57364700D02*
X122174000Y-57364700D01*
X123053900Y-56972500D02*
X122661700Y-57364700D01*
X123053900Y-55457200D02*
X123053900Y-56972500D01*
X123053900Y-55457200D02*
X122174000Y-55457200D01*
X140250000Y-56750000D02*
X139599700Y-56750000D01*
X139599700Y-56750000D02*
X139360000Y-56989700D01*
X123135600Y-55457200D02*
X123053900Y-55457200D01*
X124973700Y-53619100D02*
X123135600Y-55457200D01*
X124973700Y-51180700D02*
X124973700Y-53619100D01*
X124340400Y-50547400D02*
X124973700Y-51180700D01*
X119620700Y-58232900D02*
X119620700Y-58039000D01*
X119039300Y-58814300D02*
X119620700Y-58232900D01*
X117741400Y-58814300D02*
X119039300Y-58814300D01*
X113554600Y-63001100D02*
X117741400Y-58814300D01*
X120396000Y-58039000D02*
X119620700Y-58039000D01*
X123952000Y-45974000D02*
X123952000Y-46859300D01*
X127762000Y-45974000D02*
X127762000Y-46859300D01*
X127762000Y-60670300D02*
X127225000Y-61207300D01*
X127762000Y-46859300D02*
X127762000Y-60670300D01*
X120955000Y-67593900D02*
X120955000Y-90220800D01*
X122201800Y-67593900D02*
X120955000Y-67593900D01*
X127225000Y-62570700D02*
X122201800Y-67593900D01*
X127225000Y-61207300D02*
X127225000Y-62570700D01*
X113494600Y-63061100D02*
X113554600Y-63001100D01*
X113494600Y-65271300D02*
X113494600Y-63061100D01*
X115817200Y-67593900D02*
X113494600Y-65271300D01*
X120955000Y-67593900D02*
X115817200Y-67593900D01*
D22*
X144120000Y-56750000D02*
X144145000Y-56725000D01*
X141750000Y-56750000D02*
X144120000Y-56750000D01*
X136584200Y-52375400D02*
X136584200Y-51507400D01*
X134422500Y-54537100D02*
X136584200Y-52375400D01*
X142350300Y-54225000D02*
X142325300Y-54250000D01*
X144145000Y-54225000D02*
X142350300Y-54225000D01*
X141750000Y-54250000D02*
X142325300Y-54250000D01*
X150699300Y-45024600D02*
X151174700Y-45500000D01*
X149410900Y-45024600D02*
X150699300Y-45024600D01*
X149196000Y-45239500D02*
X149410900Y-45024600D01*
X149196000Y-46707700D02*
X149196000Y-45239500D01*
X145448200Y-50455500D02*
X149196000Y-46707700D01*
X145448200Y-53028200D02*
X145448200Y-50455500D01*
X146645000Y-54225000D02*
X145448200Y-53028200D01*
X151750000Y-45500000D02*
X151174700Y-45500000D01*
X146670000Y-54250000D02*
X146645000Y-54225000D01*
X149250000Y-54250000D02*
X146670000Y-54250000D01*
X153250000Y-47500000D02*
X153250000Y-48275300D01*
X152987300Y-48275300D02*
X153250000Y-48275300D01*
X149825300Y-51437300D02*
X152987300Y-48275300D01*
X149825300Y-51750000D02*
X149825300Y-51437300D01*
X149250000Y-51750000D02*
X149825300Y-51750000D01*
X146670000Y-51750000D02*
X148674700Y-51750000D01*
X146645000Y-51725000D02*
X146670000Y-51750000D01*
X149250000Y-51750000D02*
X148674700Y-51750000D01*
X141750000Y-59250000D02*
X142325300Y-59250000D01*
X142350300Y-59225000D02*
X144145000Y-59225000D01*
X142325300Y-59250000D02*
X142350300Y-59225000D01*
X155000000Y-45750000D02*
X154299700Y-45750000D01*
X154049700Y-45500000D02*
X153250000Y-45500000D01*
X154299700Y-45750000D02*
X154049700Y-45500000D01*
X152674700Y-45212400D02*
X152674700Y-45500000D01*
X152030300Y-44568000D02*
X152674700Y-45212400D01*
X149230600Y-44568000D02*
X152030300Y-44568000D01*
X146347700Y-47450900D02*
X149230600Y-44568000D01*
X146347700Y-47736700D02*
X146347700Y-47450900D01*
X153250000Y-45500000D02*
X152674700Y-45500000D01*
X146670000Y-56750000D02*
X149250000Y-56750000D01*
X146645000Y-56725000D02*
X146670000Y-56750000D01*
X152674700Y-62924700D02*
X152674700Y-63500000D01*
X149825300Y-60075300D02*
X152674700Y-62924700D01*
X149825300Y-56750000D02*
X149825300Y-60075300D01*
X149250000Y-56750000D02*
X149825300Y-56750000D01*
X153250000Y-63500000D02*
X152674700Y-63500000D01*
X149250000Y-59250000D02*
X148674700Y-59250000D01*
X146670000Y-59250000D02*
X146645000Y-59225000D01*
X148674700Y-59250000D02*
X146670000Y-59250000D01*
X151174700Y-65140400D02*
X151174700Y-65500000D01*
X150509700Y-64475400D02*
X151174700Y-65140400D01*
X149490300Y-64475400D02*
X150509700Y-64475400D01*
X146513800Y-61498900D02*
X149490300Y-64475400D01*
X146513800Y-61202800D02*
X146513800Y-61498900D01*
X151750000Y-65500000D02*
X151174700Y-65500000D01*
X151750000Y-63500000D02*
X151174700Y-63500000D01*
X150000000Y-63750000D02*
X150000000Y-63500000D01*
X151174700Y-63500000D02*
X150000000Y-63500000D01*
X140930600Y-50551800D02*
X140790000Y-50411200D01*
X140930600Y-54660000D02*
X140930600Y-50551800D01*
X141671000Y-55400400D02*
X140930600Y-54660000D01*
X144538500Y-55400400D02*
X141671000Y-55400400D01*
X145320400Y-56182300D02*
X144538500Y-55400400D01*
X145320400Y-59618500D02*
X145320400Y-56182300D01*
X146179400Y-60477500D02*
X145320400Y-59618500D01*
X146977500Y-60477500D02*
X146179400Y-60477500D01*
X150000000Y-63500000D02*
X146977500Y-60477500D01*
X155000000Y-65250000D02*
X154299700Y-65250000D01*
X154049700Y-65500000D02*
X154299700Y-65250000D01*
X153250000Y-65500000D02*
X154049700Y-65500000D01*
X153250000Y-65500000D02*
X153250000Y-66275300D01*
X141605300Y-66877300D02*
X132611600Y-57883600D01*
X152648000Y-66877300D02*
X141605300Y-66877300D01*
X153250000Y-66275300D02*
X152648000Y-66877300D01*
X151750000Y-47500000D02*
X151174700Y-47500000D01*
X151174700Y-47500000D02*
X150000000Y-47500000D01*
X150000000Y-47500000D02*
X150000000Y-47250000D01*
X150000000Y-47896000D02*
X150000000Y-47500000D01*
X147995100Y-49900900D02*
X150000000Y-47896000D01*
X127762000Y-44704000D02*
X128722300Y-44704000D01*
X128628700Y-61868300D02*
X128247600Y-62249400D01*
X128628700Y-50748700D02*
X128628700Y-61868300D01*
X128722300Y-50655100D02*
X128628700Y-50748700D01*
X128722300Y-44704000D02*
X128722300Y-50655100D01*
X110934400Y-47943700D02*
X110934400Y-68292900D01*
X114174100Y-44704000D02*
X110934400Y-47943700D01*
X120142000Y-44704000D02*
X114174100Y-44704000D01*
X125285300Y-63372400D02*
X125285300Y-62947800D01*
X121883400Y-66774300D02*
X125285300Y-63372400D01*
X126616700Y-46408400D02*
X124912300Y-44704000D01*
X126616700Y-60139900D02*
X126616700Y-46408400D01*
X125285300Y-61471300D02*
X126616700Y-60139900D01*
X125285300Y-62947800D02*
X125285300Y-61471300D01*
X123952000Y-44704000D02*
X124912300Y-44704000D01*
X120636100Y-66358200D02*
X124284900Y-62709400D01*
X120408300Y-66358200D02*
X120636100Y-66358200D01*
X119783200Y-65942300D02*
X125870200Y-59855300D01*
X119125800Y-65942300D02*
X119783200Y-65942300D01*
X120658600Y-64325500D02*
X116862800Y-64325500D01*
X121818900Y-63165200D02*
X120658600Y-64325500D01*
X121818900Y-62788600D02*
X121818900Y-63165200D01*
X120396000Y-56539000D02*
X121096300Y-56539000D01*
X121120300Y-56515000D02*
X121096300Y-56539000D01*
X122174000Y-56515000D02*
X121120300Y-56515000D01*
X120396000Y-56539000D02*
X119808300Y-56539000D01*
X118618000Y-56400000D02*
X119393300Y-56400000D01*
X119532300Y-56539000D02*
X119393300Y-56400000D01*
X119808300Y-56539000D02*
X119532300Y-56539000D01*
X119393300Y-54254300D02*
X119393300Y-56400000D01*
X119836200Y-53811400D02*
X119393300Y-54254300D01*
X123632100Y-53811400D02*
X119836200Y-53811400D01*
X124122700Y-53320800D02*
X123632100Y-53811400D01*
X122174000Y-53086000D02*
X122949300Y-53086000D01*
X122174000Y-53086000D02*
X121096300Y-53086000D01*
X120746200Y-53086000D02*
X121096300Y-53086000D01*
X120746200Y-53086000D02*
X120396000Y-53086000D01*
X120396000Y-53086000D02*
X118618000Y-53086000D01*
X123983700Y-52051600D02*
X123983700Y-51755400D01*
X122949300Y-53086000D02*
X123983700Y-52051600D01*
X122174000Y-49784000D02*
X122174000Y-50071600D01*
X121383900Y-50071600D02*
X121096300Y-49784000D01*
X122174000Y-50071600D02*
X121383900Y-50071600D01*
X120396000Y-49784000D02*
X121096300Y-49784000D01*
X118618000Y-49784000D02*
X120396000Y-49784000D01*
X123340900Y-49392400D02*
X122949300Y-49784000D01*
X123697500Y-49392400D02*
X123340900Y-49392400D01*
X122174000Y-49784000D02*
X122949300Y-49784000D01*
X141275000Y-72140700D02*
X141224000Y-72191700D01*
X141275000Y-69900800D02*
X141275000Y-72140700D01*
X141224000Y-73152000D02*
X141224000Y-72191700D01*
D23*
X127762000Y-43434000D02*
X126726700Y-43434000D01*
X123952000Y-43434000D02*
X124987300Y-43434000D01*
X120142000Y-43434000D02*
X121177300Y-43434000D01*
X123952000Y-43434000D02*
X122916700Y-43434000D01*
X125052600Y-43368700D02*
X124987300Y-43434000D01*
X126661400Y-43368700D02*
X125052600Y-43368700D01*
X126726700Y-43434000D02*
X126661400Y-43368700D01*
X121194900Y-43416400D02*
X121177300Y-43434000D01*
X122899100Y-43416400D02*
X121194900Y-43416400D01*
X122916700Y-43434000D02*
X122899100Y-43416400D01*
X137973600Y-48706500D02*
X138819000Y-47861100D01*
X137973600Y-56277500D02*
X137973600Y-48706500D01*
X127762000Y-43434000D02*
X128797300Y-43434000D01*
X136279000Y-45923300D02*
X135867100Y-46335200D01*
X137651400Y-45923300D02*
X136279000Y-45923300D01*
X138819000Y-47090900D02*
X137651400Y-45923300D01*
X138819000Y-47861100D02*
X138819000Y-47090900D01*
X132965900Y-43434000D02*
X128797300Y-43434000D01*
X135867100Y-46335200D02*
X132965900Y-43434000D01*
D24*
G36*
X155645501Y-41741385D02*
X156334512Y-42201769D01*
X156794893Y-42890777D01*
X156969978Y-43770989D01*
X156969979Y-70410360D01*
X156842755Y-70103215D01*
X156312585Y-69573045D01*
X155619886Y-69286120D01*
X154870114Y-69286120D01*
X154177415Y-69573045D01*
X153647245Y-70103215D01*
X153360320Y-70795914D01*
X153360320Y-71545686D01*
X153647245Y-72238385D01*
X154177415Y-72768555D01*
X154870114Y-73055480D01*
X155619886Y-73055480D01*
X156312585Y-72768555D01*
X156842755Y-72238385D01*
X156969979Y-71931240D01*
X156969979Y-88190361D01*
X156842755Y-87883215D01*
X156312585Y-87353045D01*
X155619886Y-87066120D01*
X154870114Y-87066120D01*
X154177415Y-87353045D01*
X153647245Y-87883215D01*
X153360320Y-88575914D01*
X153360320Y-89325686D01*
X153647245Y-90018385D01*
X154177415Y-90548555D01*
X154870114Y-90835480D01*
X155573785Y-90835480D01*
X154765289Y-90996300D01*
X152763343Y-90996300D01*
X152959000Y-90523942D01*
X152959000Y-89917658D01*
X152726985Y-89357523D01*
X152298277Y-88928815D01*
X151738142Y-88696800D01*
X151131858Y-88696800D01*
X150571723Y-88928815D01*
X150165000Y-89335538D01*
X149758277Y-88928815D01*
X149198142Y-88696800D01*
X148591858Y-88696800D01*
X148031723Y-88928815D01*
X147625000Y-89335538D01*
X147218277Y-88928815D01*
X146658142Y-88696800D01*
X146051858Y-88696800D01*
X145491723Y-88928815D01*
X145085000Y-89335538D01*
X144678277Y-88928815D01*
X144118142Y-88696800D01*
X143511858Y-88696800D01*
X143408581Y-88739579D01*
X142467402Y-87798400D01*
X142750874Y-87798400D01*
X143131280Y-87640831D01*
X143422431Y-87349680D01*
X143580000Y-86969274D01*
X143580000Y-86557526D01*
X143422431Y-86177120D01*
X143305000Y-86059689D01*
X143305000Y-71339117D01*
X143511858Y-71424800D01*
X144118142Y-71424800D01*
X144678277Y-71192785D01*
X145085000Y-70786062D01*
X145491723Y-71192785D01*
X146051858Y-71424800D01*
X146658142Y-71424800D01*
X147218277Y-71192785D01*
X147625000Y-70786062D01*
X148031723Y-71192785D01*
X148591858Y-71424800D01*
X149198142Y-71424800D01*
X149758277Y-71192785D01*
X150165000Y-70786062D01*
X150571723Y-71192785D01*
X151131858Y-71424800D01*
X151738142Y-71424800D01*
X152298277Y-71192785D01*
X152726985Y-70764077D01*
X152959000Y-70203942D01*
X152959000Y-69597658D01*
X152726985Y-69037523D01*
X152298277Y-68608815D01*
X151738142Y-68376800D01*
X151131858Y-68376800D01*
X150571723Y-68608815D01*
X150165000Y-69015538D01*
X149758277Y-68608815D01*
X149198142Y-68376800D01*
X148591858Y-68376800D01*
X148031723Y-68608815D01*
X147625000Y-69015538D01*
X147218277Y-68608815D01*
X146658142Y-68376800D01*
X146051858Y-68376800D01*
X145491723Y-68608815D01*
X145085000Y-69015538D01*
X144678277Y-68608815D01*
X144118142Y-68376800D01*
X143511858Y-68376800D01*
X142951723Y-68608815D01*
X142890720Y-68669818D01*
X141858202Y-67637300D01*
X152573153Y-67637300D01*
X152648000Y-67652188D01*
X152722847Y-67637300D01*
X152722852Y-67637300D01*
X152944537Y-67593204D01*
X153195929Y-67425229D01*
X153238331Y-67361770D01*
X153734473Y-66865629D01*
X153797929Y-66823229D01*
X153965904Y-66571837D01*
X154010000Y-66350152D01*
X154010000Y-66350148D01*
X154015791Y-66321033D01*
X154046985Y-66274348D01*
X154049700Y-66274888D01*
X154124547Y-66260000D01*
X154124552Y-66260000D01*
X154332927Y-66218551D01*
X154377235Y-66248157D01*
X154625000Y-66297440D01*
X155375000Y-66297440D01*
X155622765Y-66248157D01*
X155832809Y-66107809D01*
X155973157Y-65897765D01*
X156022440Y-65650000D01*
X156022440Y-64850000D01*
X155973157Y-64602235D01*
X155912127Y-64510898D01*
X155913327Y-64509698D01*
X156010000Y-64276309D01*
X156010000Y-64035750D01*
X155851250Y-63877000D01*
X155127000Y-63877000D01*
X155127000Y-63897000D01*
X154873000Y-63897000D01*
X154873000Y-63877000D01*
X154853000Y-63877000D01*
X154853000Y-63623000D01*
X154873000Y-63623000D01*
X154873000Y-62873750D01*
X155127000Y-62873750D01*
X155127000Y-63623000D01*
X155851250Y-63623000D01*
X156010000Y-63464250D01*
X156010000Y-63223691D01*
X155913327Y-62990302D01*
X155734699Y-62811673D01*
X155501310Y-62715000D01*
X155285750Y-62715000D01*
X155127000Y-62873750D01*
X154873000Y-62873750D01*
X154714250Y-62715000D01*
X154498690Y-62715000D01*
X154265301Y-62811673D01*
X154127454Y-62949521D01*
X154098157Y-62802235D01*
X153957809Y-62592191D01*
X153747765Y-62451843D01*
X153500000Y-62402560D01*
X153239861Y-62402560D01*
X153222629Y-62376771D01*
X153159173Y-62334371D01*
X151149992Y-60325190D01*
X151359698Y-60238327D01*
X151538327Y-60059699D01*
X151635000Y-59826310D01*
X151635000Y-59535750D01*
X151476250Y-59377000D01*
X150875000Y-59377000D01*
X150875000Y-59397000D01*
X150625000Y-59397000D01*
X150625000Y-59377000D01*
X150603000Y-59377000D01*
X150603000Y-59123000D01*
X150625000Y-59123000D01*
X150625000Y-58323750D01*
X150875000Y-58323750D01*
X150875000Y-59123000D01*
X151476250Y-59123000D01*
X151635000Y-58964250D01*
X151635000Y-58929615D01*
X152340000Y-58929615D01*
X152340000Y-59520385D01*
X152566078Y-60066185D01*
X152983815Y-60483922D01*
X153529615Y-60710000D01*
X154120385Y-60710000D01*
X154666185Y-60483922D01*
X155083922Y-60066185D01*
X155310000Y-59520385D01*
X155310000Y-58929615D01*
X155083922Y-58383815D01*
X154666185Y-57966078D01*
X154120385Y-57740000D01*
X153529615Y-57740000D01*
X152983815Y-57966078D01*
X152566078Y-58383815D01*
X152340000Y-58929615D01*
X151635000Y-58929615D01*
X151635000Y-58673690D01*
X151538327Y-58440301D01*
X151359698Y-58261673D01*
X151126309Y-58165000D01*
X151033750Y-58165000D01*
X150875000Y-58323750D01*
X150625000Y-58323750D01*
X150585300Y-58284050D01*
X150585300Y-57715950D01*
X150625000Y-57676250D01*
X150625000Y-56877000D01*
X150875000Y-56877000D01*
X150875000Y-57676250D01*
X151033750Y-57835000D01*
X151126309Y-57835000D01*
X151359698Y-57738327D01*
X151538327Y-57559699D01*
X151635000Y-57326310D01*
X151635000Y-57035750D01*
X151476250Y-56877000D01*
X150875000Y-56877000D01*
X150625000Y-56877000D01*
X150603000Y-56877000D01*
X150603000Y-56623000D01*
X150625000Y-56623000D01*
X150625000Y-55823750D01*
X150875000Y-55823750D01*
X150875000Y-56623000D01*
X151476250Y-56623000D01*
X151635000Y-56464250D01*
X151635000Y-56173690D01*
X151538327Y-55940301D01*
X151359698Y-55761673D01*
X151126309Y-55665000D01*
X151033750Y-55665000D01*
X150875000Y-55823750D01*
X150625000Y-55823750D01*
X150466250Y-55665000D01*
X150373691Y-55665000D01*
X150140302Y-55761673D01*
X149998654Y-55903320D01*
X149957809Y-55842191D01*
X149747765Y-55701843D01*
X149500000Y-55652560D01*
X149000000Y-55652560D01*
X148752235Y-55701843D01*
X148542191Y-55842191D01*
X148443427Y-55990000D01*
X147947905Y-55990000D01*
X147903922Y-55883815D01*
X147495107Y-55475000D01*
X147903922Y-55066185D01*
X147927195Y-55010000D01*
X148443427Y-55010000D01*
X148542191Y-55157809D01*
X148752235Y-55298157D01*
X149000000Y-55347440D01*
X149500000Y-55347440D01*
X149747765Y-55298157D01*
X149957809Y-55157809D01*
X149998654Y-55096680D01*
X150140302Y-55238327D01*
X150373691Y-55335000D01*
X150466250Y-55335000D01*
X150625000Y-55176250D01*
X150625000Y-54377000D01*
X150875000Y-54377000D01*
X150875000Y-55176250D01*
X151033750Y-55335000D01*
X151126309Y-55335000D01*
X151359698Y-55238327D01*
X151538327Y-55059699D01*
X151635000Y-54826310D01*
X151635000Y-54535750D01*
X151476250Y-54377000D01*
X150875000Y-54377000D01*
X150625000Y-54377000D01*
X150603000Y-54377000D01*
X150603000Y-54123000D01*
X150625000Y-54123000D01*
X150625000Y-53323750D01*
X150875000Y-53323750D01*
X150875000Y-54123000D01*
X151476250Y-54123000D01*
X151635000Y-53964250D01*
X151635000Y-53673690D01*
X151538327Y-53440301D01*
X151359698Y-53261673D01*
X151126309Y-53165000D01*
X151033750Y-53165000D01*
X150875000Y-53323750D01*
X150625000Y-53323750D01*
X150466250Y-53165000D01*
X150373691Y-53165000D01*
X150140302Y-53261673D01*
X149998654Y-53403320D01*
X149957809Y-53342191D01*
X149747765Y-53201843D01*
X149500000Y-53152560D01*
X149000000Y-53152560D01*
X148752235Y-53201843D01*
X148542191Y-53342191D01*
X148443427Y-53490000D01*
X147947905Y-53490000D01*
X147903922Y-53383815D01*
X147495107Y-52975000D01*
X147903922Y-52566185D01*
X147927195Y-52510000D01*
X148443427Y-52510000D01*
X148542191Y-52657809D01*
X148752235Y-52798157D01*
X149000000Y-52847440D01*
X149500000Y-52847440D01*
X149747765Y-52798157D01*
X149957809Y-52657809D01*
X149998654Y-52596680D01*
X150140302Y-52738327D01*
X150373691Y-52835000D01*
X150466250Y-52835000D01*
X150625000Y-52676250D01*
X150625000Y-51877000D01*
X150875000Y-51877000D01*
X150875000Y-52676250D01*
X151033750Y-52835000D01*
X151126309Y-52835000D01*
X151359698Y-52738327D01*
X151538327Y-52559699D01*
X151635000Y-52326310D01*
X151635000Y-52035750D01*
X151476250Y-51877000D01*
X150875000Y-51877000D01*
X150625000Y-51877000D01*
X150603000Y-51877000D01*
X150603000Y-51734401D01*
X150734401Y-51603000D01*
X150875000Y-51603000D01*
X150875000Y-51623000D01*
X151476250Y-51623000D01*
X151635000Y-51464250D01*
X151635000Y-51429615D01*
X152340000Y-51429615D01*
X152340000Y-52020385D01*
X152566078Y-52566185D01*
X152983815Y-52983922D01*
X153529615Y-53210000D01*
X154120385Y-53210000D01*
X154666185Y-52983922D01*
X155083922Y-52566185D01*
X155310000Y-52020385D01*
X155310000Y-51429615D01*
X155083922Y-50883815D01*
X154666185Y-50466078D01*
X154120385Y-50240000D01*
X153529615Y-50240000D01*
X152983815Y-50466078D01*
X152566078Y-50883815D01*
X152340000Y-51429615D01*
X151635000Y-51429615D01*
X151635000Y-51173690D01*
X151538327Y-50940301D01*
X151467713Y-50869688D01*
X153296453Y-49040949D01*
X153546537Y-48991204D01*
X153797929Y-48823229D01*
X153965904Y-48571837D01*
X154010000Y-48350152D01*
X154015792Y-48321031D01*
X154098157Y-48197765D01*
X154127454Y-48050479D01*
X154265301Y-48188327D01*
X154498690Y-48285000D01*
X154714250Y-48285000D01*
X154873000Y-48126250D01*
X154873000Y-47377000D01*
X155127000Y-47377000D01*
X155127000Y-48126250D01*
X155285750Y-48285000D01*
X155501310Y-48285000D01*
X155734699Y-48188327D01*
X155913327Y-48009698D01*
X156010000Y-47776309D01*
X156010000Y-47535750D01*
X155851250Y-47377000D01*
X155127000Y-47377000D01*
X154873000Y-47377000D01*
X154853000Y-47377000D01*
X154853000Y-47123000D01*
X154873000Y-47123000D01*
X154873000Y-47103000D01*
X155127000Y-47103000D01*
X155127000Y-47123000D01*
X155851250Y-47123000D01*
X156010000Y-46964250D01*
X156010000Y-46723691D01*
X155913327Y-46490302D01*
X155912127Y-46489102D01*
X155973157Y-46397765D01*
X156022440Y-46150000D01*
X156022440Y-45350000D01*
X155973157Y-45102235D01*
X155832809Y-44892191D01*
X155622765Y-44751843D01*
X155375000Y-44702560D01*
X154625000Y-44702560D01*
X154377235Y-44751843D01*
X154332927Y-44781449D01*
X154124552Y-44740000D01*
X154124547Y-44740000D01*
X154049700Y-44725112D01*
X154046985Y-44725652D01*
X153957809Y-44592191D01*
X153747765Y-44451843D01*
X153500000Y-44402560D01*
X153000000Y-44402560D01*
X152949672Y-44412571D01*
X152620631Y-44083530D01*
X152578229Y-44020071D01*
X152326837Y-43852096D01*
X152105152Y-43808000D01*
X152105147Y-43808000D01*
X152030300Y-43793112D01*
X151955453Y-43808000D01*
X149305446Y-43808000D01*
X149230599Y-43793112D01*
X149155752Y-43808000D01*
X149155748Y-43808000D01*
X148934063Y-43852096D01*
X148682671Y-44020071D01*
X148640271Y-44083527D01*
X145937439Y-46786360D01*
X145761420Y-46859269D01*
X145470269Y-47150420D01*
X145312700Y-47530826D01*
X145312700Y-47942574D01*
X145470269Y-48322980D01*
X145761420Y-48614131D01*
X146081985Y-48746913D01*
X144963728Y-49865171D01*
X144900272Y-49907571D01*
X144857872Y-49971027D01*
X144857871Y-49971028D01*
X144732297Y-50158963D01*
X144718652Y-50227560D01*
X143295000Y-50227560D01*
X143047235Y-50276843D01*
X142837191Y-50417191D01*
X142696843Y-50627235D01*
X142674601Y-50739056D01*
X142669853Y-50740000D01*
X142556573Y-50740000D01*
X142457809Y-50592191D01*
X142247765Y-50451843D01*
X142000000Y-50402560D01*
X141825000Y-50402560D01*
X141825000Y-50205326D01*
X141667431Y-49824920D01*
X141398206Y-49555695D01*
X145820802Y-45133100D01*
X145986874Y-45133100D01*
X146367280Y-44975531D01*
X146658431Y-44684380D01*
X146816000Y-44303974D01*
X146816000Y-43892226D01*
X146658431Y-43511820D01*
X146367280Y-43220669D01*
X145986874Y-43063100D01*
X145575126Y-43063100D01*
X145194720Y-43220669D01*
X144903569Y-43511820D01*
X144746000Y-43892226D01*
X144746000Y-44058298D01*
X138808600Y-49995699D01*
X138808600Y-49052367D01*
X138964867Y-48896100D01*
X139024874Y-48896100D01*
X139405280Y-48738531D01*
X139696431Y-48447380D01*
X139854000Y-48066974D01*
X139854000Y-47655226D01*
X139696431Y-47274820D01*
X139654000Y-47232389D01*
X139654000Y-47173137D01*
X139670358Y-47090900D01*
X139636658Y-46921480D01*
X139605552Y-46765099D01*
X139421001Y-46488899D01*
X139351282Y-46442315D01*
X138299987Y-45391020D01*
X138253401Y-45321299D01*
X137977201Y-45136748D01*
X137733637Y-45088300D01*
X137733633Y-45088300D01*
X137651400Y-45071943D01*
X137569167Y-45088300D01*
X136361237Y-45088300D01*
X136279000Y-45071942D01*
X136196763Y-45088300D01*
X135953199Y-45136748D01*
X135891046Y-45178277D01*
X133614487Y-42901720D01*
X133567901Y-42831999D01*
X133291701Y-42647448D01*
X133048137Y-42599000D01*
X133048133Y-42599000D01*
X132965900Y-42582643D01*
X132883667Y-42599000D01*
X128926845Y-42599000D01*
X128854809Y-42491191D01*
X128644765Y-42350843D01*
X128397000Y-42301560D01*
X127127000Y-42301560D01*
X126879235Y-42350843D01*
X126669191Y-42491191D01*
X126650232Y-42519564D01*
X126579167Y-42533700D01*
X125134832Y-42533700D01*
X125063768Y-42519565D01*
X125044809Y-42491191D01*
X124834765Y-42350843D01*
X124587000Y-42301560D01*
X123317000Y-42301560D01*
X123069235Y-42350843D01*
X122859191Y-42491191D01*
X122798915Y-42581400D01*
X121295085Y-42581400D01*
X121234809Y-42491191D01*
X121024765Y-42350843D01*
X120777000Y-42301560D01*
X119507000Y-42301560D01*
X119259235Y-42350843D01*
X119049191Y-42491191D01*
X118908843Y-42701235D01*
X118859560Y-42949000D01*
X118859560Y-43919000D01*
X118864533Y-43944000D01*
X114248948Y-43944000D01*
X114174100Y-43929112D01*
X114099252Y-43944000D01*
X114099248Y-43944000D01*
X113929973Y-43977671D01*
X113877562Y-43988096D01*
X113690518Y-44113076D01*
X113626171Y-44156071D01*
X113583771Y-44219527D01*
X110449930Y-47353369D01*
X110386471Y-47395771D01*
X110218496Y-47647164D01*
X110174400Y-47868849D01*
X110174400Y-47868853D01*
X110159512Y-47943700D01*
X110174400Y-48018547D01*
X110174401Y-67589188D01*
X110056969Y-67706620D01*
X109899400Y-68087026D01*
X109899400Y-68498774D01*
X109954087Y-68630800D01*
X109019762Y-68630800D01*
X108086205Y-69017492D01*
X107539978Y-69563719D01*
X107539978Y-43770989D01*
X107715063Y-42890777D01*
X108175447Y-42201766D01*
X108864455Y-41741385D01*
X109744667Y-41566300D01*
X154765289Y-41566300D01*
X155645501Y-41741385D01*
X155645501Y-41741385D01*
G37*
X155645501Y-41741385D02*
X156334512Y-42201769D01*
X156794893Y-42890777D01*
X156969978Y-43770989D01*
X156969979Y-70410360D01*
X156842755Y-70103215D01*
X156312585Y-69573045D01*
X155619886Y-69286120D01*
X154870114Y-69286120D01*
X154177415Y-69573045D01*
X153647245Y-70103215D01*
X153360320Y-70795914D01*
X153360320Y-71545686D01*
X153647245Y-72238385D01*
X154177415Y-72768555D01*
X154870114Y-73055480D01*
X155619886Y-73055480D01*
X156312585Y-72768555D01*
X156842755Y-72238385D01*
X156969979Y-71931240D01*
X156969979Y-88190361D01*
X156842755Y-87883215D01*
X156312585Y-87353045D01*
X155619886Y-87066120D01*
X154870114Y-87066120D01*
X154177415Y-87353045D01*
X153647245Y-87883215D01*
X153360320Y-88575914D01*
X153360320Y-89325686D01*
X153647245Y-90018385D01*
X154177415Y-90548555D01*
X154870114Y-90835480D01*
X155573785Y-90835480D01*
X154765289Y-90996300D01*
X152763343Y-90996300D01*
X152959000Y-90523942D01*
X152959000Y-89917658D01*
X152726985Y-89357523D01*
X152298277Y-88928815D01*
X151738142Y-88696800D01*
X151131858Y-88696800D01*
X150571723Y-88928815D01*
X150165000Y-89335538D01*
X149758277Y-88928815D01*
X149198142Y-88696800D01*
X148591858Y-88696800D01*
X148031723Y-88928815D01*
X147625000Y-89335538D01*
X147218277Y-88928815D01*
X146658142Y-88696800D01*
X146051858Y-88696800D01*
X145491723Y-88928815D01*
X145085000Y-89335538D01*
X144678277Y-88928815D01*
X144118142Y-88696800D01*
X143511858Y-88696800D01*
X143408581Y-88739579D01*
X142467402Y-87798400D01*
X142750874Y-87798400D01*
X143131280Y-87640831D01*
X143422431Y-87349680D01*
X143580000Y-86969274D01*
X143580000Y-86557526D01*
X143422431Y-86177120D01*
X143305000Y-86059689D01*
X143305000Y-71339117D01*
X143511858Y-71424800D01*
X144118142Y-71424800D01*
X144678277Y-71192785D01*
X145085000Y-70786062D01*
X145491723Y-71192785D01*
X146051858Y-71424800D01*
X146658142Y-71424800D01*
X147218277Y-71192785D01*
X147625000Y-70786062D01*
X148031723Y-71192785D01*
X148591858Y-71424800D01*
X149198142Y-71424800D01*
X149758277Y-71192785D01*
X150165000Y-70786062D01*
X150571723Y-71192785D01*
X151131858Y-71424800D01*
X151738142Y-71424800D01*
X152298277Y-71192785D01*
X152726985Y-70764077D01*
X152959000Y-70203942D01*
X152959000Y-69597658D01*
X152726985Y-69037523D01*
X152298277Y-68608815D01*
X151738142Y-68376800D01*
X151131858Y-68376800D01*
X150571723Y-68608815D01*
X150165000Y-69015538D01*
X149758277Y-68608815D01*
X149198142Y-68376800D01*
X148591858Y-68376800D01*
X148031723Y-68608815D01*
X147625000Y-69015538D01*
X147218277Y-68608815D01*
X146658142Y-68376800D01*
X146051858Y-68376800D01*
X145491723Y-68608815D01*
X145085000Y-69015538D01*
X144678277Y-68608815D01*
X144118142Y-68376800D01*
X143511858Y-68376800D01*
X142951723Y-68608815D01*
X142890720Y-68669818D01*
X141858202Y-67637300D01*
X152573153Y-67637300D01*
X152648000Y-67652188D01*
X152722847Y-67637300D01*
X152722852Y-67637300D01*
X152944537Y-67593204D01*
X153195929Y-67425229D01*
X153238331Y-67361770D01*
X153734473Y-66865629D01*
X153797929Y-66823229D01*
X153965904Y-66571837D01*
X154010000Y-66350152D01*
X154010000Y-66350148D01*
X154015791Y-66321033D01*
X154046985Y-66274348D01*
X154049700Y-66274888D01*
X154124547Y-66260000D01*
X154124552Y-66260000D01*
X154332927Y-66218551D01*
X154377235Y-66248157D01*
X154625000Y-66297440D01*
X155375000Y-66297440D01*
X155622765Y-66248157D01*
X155832809Y-66107809D01*
X155973157Y-65897765D01*
X156022440Y-65650000D01*
X156022440Y-64850000D01*
X155973157Y-64602235D01*
X155912127Y-64510898D01*
X155913327Y-64509698D01*
X156010000Y-64276309D01*
X156010000Y-64035750D01*
X155851250Y-63877000D01*
X155127000Y-63877000D01*
X155127000Y-63897000D01*
X154873000Y-63897000D01*
X154873000Y-63877000D01*
X154853000Y-63877000D01*
X154853000Y-63623000D01*
X154873000Y-63623000D01*
X154873000Y-62873750D01*
X155127000Y-62873750D01*
X155127000Y-63623000D01*
X155851250Y-63623000D01*
X156010000Y-63464250D01*
X156010000Y-63223691D01*
X155913327Y-62990302D01*
X155734699Y-62811673D01*
X155501310Y-62715000D01*
X155285750Y-62715000D01*
X155127000Y-62873750D01*
X154873000Y-62873750D01*
X154714250Y-62715000D01*
X154498690Y-62715000D01*
X154265301Y-62811673D01*
X154127454Y-62949521D01*
X154098157Y-62802235D01*
X153957809Y-62592191D01*
X153747765Y-62451843D01*
X153500000Y-62402560D01*
X153239861Y-62402560D01*
X153222629Y-62376771D01*
X153159173Y-62334371D01*
X151149992Y-60325190D01*
X151359698Y-60238327D01*
X151538327Y-60059699D01*
X151635000Y-59826310D01*
X151635000Y-59535750D01*
X151476250Y-59377000D01*
X150875000Y-59377000D01*
X150875000Y-59397000D01*
X150625000Y-59397000D01*
X150625000Y-59377000D01*
X150603000Y-59377000D01*
X150603000Y-59123000D01*
X150625000Y-59123000D01*
X150625000Y-58323750D01*
X150875000Y-58323750D01*
X150875000Y-59123000D01*
X151476250Y-59123000D01*
X151635000Y-58964250D01*
X151635000Y-58929615D01*
X152340000Y-58929615D01*
X152340000Y-59520385D01*
X152566078Y-60066185D01*
X152983815Y-60483922D01*
X153529615Y-60710000D01*
X154120385Y-60710000D01*
X154666185Y-60483922D01*
X155083922Y-60066185D01*
X155310000Y-59520385D01*
X155310000Y-58929615D01*
X155083922Y-58383815D01*
X154666185Y-57966078D01*
X154120385Y-57740000D01*
X153529615Y-57740000D01*
X152983815Y-57966078D01*
X152566078Y-58383815D01*
X152340000Y-58929615D01*
X151635000Y-58929615D01*
X151635000Y-58673690D01*
X151538327Y-58440301D01*
X151359698Y-58261673D01*
X151126309Y-58165000D01*
X151033750Y-58165000D01*
X150875000Y-58323750D01*
X150625000Y-58323750D01*
X150585300Y-58284050D01*
X150585300Y-57715950D01*
X150625000Y-57676250D01*
X150625000Y-56877000D01*
X150875000Y-56877000D01*
X150875000Y-57676250D01*
X151033750Y-57835000D01*
X151126309Y-57835000D01*
X151359698Y-57738327D01*
X151538327Y-57559699D01*
X151635000Y-57326310D01*
X151635000Y-57035750D01*
X151476250Y-56877000D01*
X150875000Y-56877000D01*
X150625000Y-56877000D01*
X150603000Y-56877000D01*
X150603000Y-56623000D01*
X150625000Y-56623000D01*
X150625000Y-55823750D01*
X150875000Y-55823750D01*
X150875000Y-56623000D01*
X151476250Y-56623000D01*
X151635000Y-56464250D01*
X151635000Y-56173690D01*
X151538327Y-55940301D01*
X151359698Y-55761673D01*
X151126309Y-55665000D01*
X151033750Y-55665000D01*
X150875000Y-55823750D01*
X150625000Y-55823750D01*
X150466250Y-55665000D01*
X150373691Y-55665000D01*
X150140302Y-55761673D01*
X149998654Y-55903320D01*
X149957809Y-55842191D01*
X149747765Y-55701843D01*
X149500000Y-55652560D01*
X149000000Y-55652560D01*
X148752235Y-55701843D01*
X148542191Y-55842191D01*
X148443427Y-55990000D01*
X147947905Y-55990000D01*
X147903922Y-55883815D01*
X147495107Y-55475000D01*
X147903922Y-55066185D01*
X147927195Y-55010000D01*
X148443427Y-55010000D01*
X148542191Y-55157809D01*
X148752235Y-55298157D01*
X149000000Y-55347440D01*
X149500000Y-55347440D01*
X149747765Y-55298157D01*
X149957809Y-55157809D01*
X149998654Y-55096680D01*
X150140302Y-55238327D01*
X150373691Y-55335000D01*
X150466250Y-55335000D01*
X150625000Y-55176250D01*
X150625000Y-54377000D01*
X150875000Y-54377000D01*
X150875000Y-55176250D01*
X151033750Y-55335000D01*
X151126309Y-55335000D01*
X151359698Y-55238327D01*
X151538327Y-55059699D01*
X151635000Y-54826310D01*
X151635000Y-54535750D01*
X151476250Y-54377000D01*
X150875000Y-54377000D01*
X150625000Y-54377000D01*
X150603000Y-54377000D01*
X150603000Y-54123000D01*
X150625000Y-54123000D01*
X150625000Y-53323750D01*
X150875000Y-53323750D01*
X150875000Y-54123000D01*
X151476250Y-54123000D01*
X151635000Y-53964250D01*
X151635000Y-53673690D01*
X151538327Y-53440301D01*
X151359698Y-53261673D01*
X151126309Y-53165000D01*
X151033750Y-53165000D01*
X150875000Y-53323750D01*
X150625000Y-53323750D01*
X150466250Y-53165000D01*
X150373691Y-53165000D01*
X150140302Y-53261673D01*
X149998654Y-53403320D01*
X149957809Y-53342191D01*
X149747765Y-53201843D01*
X149500000Y-53152560D01*
X149000000Y-53152560D01*
X148752235Y-53201843D01*
X148542191Y-53342191D01*
X148443427Y-53490000D01*
X147947905Y-53490000D01*
X147903922Y-53383815D01*
X147495107Y-52975000D01*
X147903922Y-52566185D01*
X147927195Y-52510000D01*
X148443427Y-52510000D01*
X148542191Y-52657809D01*
X148752235Y-52798157D01*
X149000000Y-52847440D01*
X149500000Y-52847440D01*
X149747765Y-52798157D01*
X149957809Y-52657809D01*
X149998654Y-52596680D01*
X150140302Y-52738327D01*
X150373691Y-52835000D01*
X150466250Y-52835000D01*
X150625000Y-52676250D01*
X150625000Y-51877000D01*
X150875000Y-51877000D01*
X150875000Y-52676250D01*
X151033750Y-52835000D01*
X151126309Y-52835000D01*
X151359698Y-52738327D01*
X151538327Y-52559699D01*
X151635000Y-52326310D01*
X151635000Y-52035750D01*
X151476250Y-51877000D01*
X150875000Y-51877000D01*
X150625000Y-51877000D01*
X150603000Y-51877000D01*
X150603000Y-51734401D01*
X150734401Y-51603000D01*
X150875000Y-51603000D01*
X150875000Y-51623000D01*
X151476250Y-51623000D01*
X151635000Y-51464250D01*
X151635000Y-51429615D01*
X152340000Y-51429615D01*
X152340000Y-52020385D01*
X152566078Y-52566185D01*
X152983815Y-52983922D01*
X153529615Y-53210000D01*
X154120385Y-53210000D01*
X154666185Y-52983922D01*
X155083922Y-52566185D01*
X155310000Y-52020385D01*
X155310000Y-51429615D01*
X155083922Y-50883815D01*
X154666185Y-50466078D01*
X154120385Y-50240000D01*
X153529615Y-50240000D01*
X152983815Y-50466078D01*
X152566078Y-50883815D01*
X152340000Y-51429615D01*
X151635000Y-51429615D01*
X151635000Y-51173690D01*
X151538327Y-50940301D01*
X151467713Y-50869688D01*
X153296453Y-49040949D01*
X153546537Y-48991204D01*
X153797929Y-48823229D01*
X153965904Y-48571837D01*
X154010000Y-48350152D01*
X154015792Y-48321031D01*
X154098157Y-48197765D01*
X154127454Y-48050479D01*
X154265301Y-48188327D01*
X154498690Y-48285000D01*
X154714250Y-48285000D01*
X154873000Y-48126250D01*
X154873000Y-47377000D01*
X155127000Y-47377000D01*
X155127000Y-48126250D01*
X155285750Y-48285000D01*
X155501310Y-48285000D01*
X155734699Y-48188327D01*
X155913327Y-48009698D01*
X156010000Y-47776309D01*
X156010000Y-47535750D01*
X155851250Y-47377000D01*
X155127000Y-47377000D01*
X154873000Y-47377000D01*
X154853000Y-47377000D01*
X154853000Y-47123000D01*
X154873000Y-47123000D01*
X154873000Y-47103000D01*
X155127000Y-47103000D01*
X155127000Y-47123000D01*
X155851250Y-47123000D01*
X156010000Y-46964250D01*
X156010000Y-46723691D01*
X155913327Y-46490302D01*
X155912127Y-46489102D01*
X155973157Y-46397765D01*
X156022440Y-46150000D01*
X156022440Y-45350000D01*
X155973157Y-45102235D01*
X155832809Y-44892191D01*
X155622765Y-44751843D01*
X155375000Y-44702560D01*
X154625000Y-44702560D01*
X154377235Y-44751843D01*
X154332927Y-44781449D01*
X154124552Y-44740000D01*
X154124547Y-44740000D01*
X154049700Y-44725112D01*
X154046985Y-44725652D01*
X153957809Y-44592191D01*
X153747765Y-44451843D01*
X153500000Y-44402560D01*
X153000000Y-44402560D01*
X152949672Y-44412571D01*
X152620631Y-44083530D01*
X152578229Y-44020071D01*
X152326837Y-43852096D01*
X152105152Y-43808000D01*
X152105147Y-43808000D01*
X152030300Y-43793112D01*
X151955453Y-43808000D01*
X149305446Y-43808000D01*
X149230599Y-43793112D01*
X149155752Y-43808000D01*
X149155748Y-43808000D01*
X148934063Y-43852096D01*
X148682671Y-44020071D01*
X148640271Y-44083527D01*
X145937439Y-46786360D01*
X145761420Y-46859269D01*
X145470269Y-47150420D01*
X145312700Y-47530826D01*
X145312700Y-47942574D01*
X145470269Y-48322980D01*
X145761420Y-48614131D01*
X146081985Y-48746913D01*
X144963728Y-49865171D01*
X144900272Y-49907571D01*
X144857872Y-49971027D01*
X144857871Y-49971028D01*
X144732297Y-50158963D01*
X144718652Y-50227560D01*
X143295000Y-50227560D01*
X143047235Y-50276843D01*
X142837191Y-50417191D01*
X142696843Y-50627235D01*
X142674601Y-50739056D01*
X142669853Y-50740000D01*
X142556573Y-50740000D01*
X142457809Y-50592191D01*
X142247765Y-50451843D01*
X142000000Y-50402560D01*
X141825000Y-50402560D01*
X141825000Y-50205326D01*
X141667431Y-49824920D01*
X141398206Y-49555695D01*
X145820802Y-45133100D01*
X145986874Y-45133100D01*
X146367280Y-44975531D01*
X146658431Y-44684380D01*
X146816000Y-44303974D01*
X146816000Y-43892226D01*
X146658431Y-43511820D01*
X146367280Y-43220669D01*
X145986874Y-43063100D01*
X145575126Y-43063100D01*
X145194720Y-43220669D01*
X144903569Y-43511820D01*
X144746000Y-43892226D01*
X144746000Y-44058298D01*
X138808600Y-49995699D01*
X138808600Y-49052367D01*
X138964867Y-48896100D01*
X139024874Y-48896100D01*
X139405280Y-48738531D01*
X139696431Y-48447380D01*
X139854000Y-48066974D01*
X139854000Y-47655226D01*
X139696431Y-47274820D01*
X139654000Y-47232389D01*
X139654000Y-47173137D01*
X139670358Y-47090900D01*
X139636658Y-46921480D01*
X139605552Y-46765099D01*
X139421001Y-46488899D01*
X139351282Y-46442315D01*
X138299987Y-45391020D01*
X138253401Y-45321299D01*
X137977201Y-45136748D01*
X137733637Y-45088300D01*
X137733633Y-45088300D01*
X137651400Y-45071943D01*
X137569167Y-45088300D01*
X136361237Y-45088300D01*
X136279000Y-45071942D01*
X136196763Y-45088300D01*
X135953199Y-45136748D01*
X135891046Y-45178277D01*
X133614487Y-42901720D01*
X133567901Y-42831999D01*
X133291701Y-42647448D01*
X133048137Y-42599000D01*
X133048133Y-42599000D01*
X132965900Y-42582643D01*
X132883667Y-42599000D01*
X128926845Y-42599000D01*
X128854809Y-42491191D01*
X128644765Y-42350843D01*
X128397000Y-42301560D01*
X127127000Y-42301560D01*
X126879235Y-42350843D01*
X126669191Y-42491191D01*
X126650232Y-42519564D01*
X126579167Y-42533700D01*
X125134832Y-42533700D01*
X125063768Y-42519565D01*
X125044809Y-42491191D01*
X124834765Y-42350843D01*
X124587000Y-42301560D01*
X123317000Y-42301560D01*
X123069235Y-42350843D01*
X122859191Y-42491191D01*
X122798915Y-42581400D01*
X121295085Y-42581400D01*
X121234809Y-42491191D01*
X121024765Y-42350843D01*
X120777000Y-42301560D01*
X119507000Y-42301560D01*
X119259235Y-42350843D01*
X119049191Y-42491191D01*
X118908843Y-42701235D01*
X118859560Y-42949000D01*
X118859560Y-43919000D01*
X118864533Y-43944000D01*
X114248948Y-43944000D01*
X114174100Y-43929112D01*
X114099252Y-43944000D01*
X114099248Y-43944000D01*
X113929973Y-43977671D01*
X113877562Y-43988096D01*
X113690518Y-44113076D01*
X113626171Y-44156071D01*
X113583771Y-44219527D01*
X110449930Y-47353369D01*
X110386471Y-47395771D01*
X110218496Y-47647164D01*
X110174400Y-47868849D01*
X110174400Y-47868853D01*
X110159512Y-47943700D01*
X110174400Y-48018547D01*
X110174401Y-67589188D01*
X110056969Y-67706620D01*
X109899400Y-68087026D01*
X109899400Y-68498774D01*
X109954087Y-68630800D01*
X109019762Y-68630800D01*
X108086205Y-69017492D01*
X107539978Y-69563719D01*
X107539978Y-43770989D01*
X107715063Y-42890777D01*
X108175447Y-42201766D01*
X108864455Y-41741385D01*
X109744667Y-41566300D01*
X154765289Y-41566300D01*
X155645501Y-41741385D01*
G36*
X127889000Y-45847000D02*
X127909000Y-45847000D01*
X127909000Y-46101000D01*
X127889000Y-46101000D01*
X127889000Y-46935250D01*
X127962300Y-47008550D01*
X127962301Y-50378074D01*
X127912796Y-50452164D01*
X127868700Y-50673849D01*
X127868700Y-50673853D01*
X127853812Y-50748700D01*
X127868700Y-50823547D01*
X127868701Y-61286069D01*
X127661320Y-61371969D01*
X127370169Y-61663120D01*
X127212600Y-62043526D01*
X127212600Y-62455274D01*
X127370169Y-62835680D01*
X127661320Y-63126831D01*
X128041726Y-63284400D01*
X128319100Y-63284400D01*
X128319100Y-63471553D01*
X128304212Y-63546400D01*
X128319100Y-63621247D01*
X128319100Y-63621251D01*
X128363196Y-63842936D01*
X128531171Y-64094329D01*
X128594629Y-64136731D01*
X129144200Y-64686302D01*
X129144200Y-64852374D01*
X129301769Y-65232780D01*
X129592920Y-65523931D01*
X129973326Y-65681500D01*
X130139399Y-65681500D01*
X131625001Y-67167103D01*
X131625001Y-68462484D01*
X131418142Y-68376800D01*
X130811858Y-68376800D01*
X130251723Y-68608815D01*
X129845000Y-69015538D01*
X129438277Y-68608815D01*
X128878142Y-68376800D01*
X128271858Y-68376800D01*
X127711723Y-68608815D01*
X127305000Y-69015538D01*
X126898277Y-68608815D01*
X126338142Y-68376800D01*
X125731858Y-68376800D01*
X125171723Y-68608815D01*
X124765000Y-69015538D01*
X124358277Y-68608815D01*
X123798142Y-68376800D01*
X123191858Y-68376800D01*
X122631723Y-68608815D01*
X122203015Y-69037523D01*
X121971000Y-69597658D01*
X121971000Y-70203942D01*
X122203015Y-70764077D01*
X122631723Y-71192785D01*
X123191858Y-71424800D01*
X123798142Y-71424800D01*
X124358277Y-71192785D01*
X124765000Y-70786062D01*
X125171723Y-71192785D01*
X125731858Y-71424800D01*
X126338142Y-71424800D01*
X126898277Y-71192785D01*
X127305000Y-70786062D01*
X127711723Y-71192785D01*
X128271858Y-71424800D01*
X128878142Y-71424800D01*
X129438277Y-71192785D01*
X129845000Y-70786062D01*
X130251723Y-71192785D01*
X130811858Y-71424800D01*
X131418142Y-71424800D01*
X131625001Y-71339116D01*
X131625000Y-83795953D01*
X131610112Y-83870800D01*
X131625000Y-83945647D01*
X131625000Y-83945651D01*
X131669096Y-84167336D01*
X131837071Y-84418729D01*
X131900530Y-84461131D01*
X136136198Y-88696800D01*
X135891858Y-88696800D01*
X135331723Y-88928815D01*
X134925000Y-89335538D01*
X134518277Y-88928815D01*
X133958142Y-88696800D01*
X133351858Y-88696800D01*
X132791723Y-88928815D01*
X132385000Y-89335538D01*
X131978277Y-88928815D01*
X131418142Y-88696800D01*
X130811858Y-88696800D01*
X130251723Y-88928815D01*
X129845000Y-89335538D01*
X129438277Y-88928815D01*
X128878142Y-88696800D01*
X128271858Y-88696800D01*
X127711723Y-88928815D01*
X127305000Y-89335538D01*
X126898277Y-88928815D01*
X126338142Y-88696800D01*
X125731858Y-88696800D01*
X125171723Y-88928815D01*
X124765000Y-89335538D01*
X124358277Y-88928815D01*
X123798142Y-88696800D01*
X123191858Y-88696800D01*
X122631723Y-88928815D01*
X122203015Y-89357523D01*
X122192367Y-89383230D01*
X122027196Y-89328209D01*
X121134605Y-90220800D01*
X121148748Y-90234943D01*
X120969143Y-90414548D01*
X120955000Y-90400405D01*
X120940858Y-90414548D01*
X120761253Y-90234943D01*
X120775395Y-90220800D01*
X119882804Y-89328209D01*
X119717633Y-89383230D01*
X119706985Y-89357523D01*
X119498066Y-89148604D01*
X120062409Y-89148604D01*
X120955000Y-90041195D01*
X121847591Y-89148604D01*
X121762533Y-88893261D01*
X121193035Y-88685284D01*
X120587300Y-88711077D01*
X120147467Y-88893261D01*
X120062409Y-89148604D01*
X119498066Y-89148604D01*
X119278277Y-88928815D01*
X118718142Y-88696800D01*
X118111858Y-88696800D01*
X117551723Y-88928815D01*
X117145000Y-89335538D01*
X116738277Y-88928815D01*
X116178142Y-88696800D01*
X115571858Y-88696800D01*
X115011723Y-88928815D01*
X114605000Y-89335538D01*
X114198277Y-88928815D01*
X113638142Y-88696800D01*
X113031858Y-88696800D01*
X112471723Y-88928815D01*
X112065000Y-89335538D01*
X112065000Y-88445562D01*
X111678308Y-87512005D01*
X110963795Y-86797492D01*
X110030238Y-86410800D01*
X109019762Y-86410800D01*
X108086205Y-86797492D01*
X107539978Y-87343719D01*
X107539978Y-72777881D01*
X108086205Y-73324108D01*
X109019762Y-73710800D01*
X109115187Y-73710800D01*
X109019700Y-73941326D01*
X109019700Y-74353074D01*
X109177269Y-74733480D01*
X109468420Y-75024631D01*
X109848826Y-75182200D01*
X110260574Y-75182200D01*
X110640980Y-75024631D01*
X110932131Y-74733480D01*
X111089700Y-74353074D01*
X111089700Y-74293067D01*
X111600600Y-73782167D01*
X111600600Y-76687632D01*
X111429132Y-76859100D01*
X111369126Y-76859100D01*
X110988720Y-77016669D01*
X110697569Y-77307820D01*
X110540000Y-77688226D01*
X110540000Y-78099974D01*
X110697569Y-78480380D01*
X110988720Y-78771531D01*
X111369126Y-78929100D01*
X111780874Y-78929100D01*
X112161280Y-78771531D01*
X112210500Y-78722311D01*
X112210500Y-80076232D01*
X111386033Y-80900700D01*
X111326026Y-80900700D01*
X110945620Y-81058269D01*
X110654469Y-81349420D01*
X110496900Y-81729826D01*
X110496900Y-82141574D01*
X110654469Y-82521980D01*
X110945620Y-82813131D01*
X111326026Y-82970700D01*
X111737774Y-82970700D01*
X112118180Y-82813131D01*
X112409331Y-82521980D01*
X112566900Y-82141574D01*
X112566900Y-82081567D01*
X113577783Y-81070685D01*
X113647501Y-81024101D01*
X113832052Y-80747901D01*
X113880500Y-80504337D01*
X113880500Y-80504336D01*
X113896858Y-80422100D01*
X113880500Y-80339863D01*
X113880500Y-66342937D01*
X113896858Y-66260700D01*
X113847336Y-66011736D01*
X113832052Y-65934899D01*
X113647501Y-65658699D01*
X113577780Y-65612113D01*
X113549300Y-65583633D01*
X113549300Y-65364652D01*
X113701369Y-65731780D01*
X113992520Y-66022931D01*
X114372926Y-66180500D01*
X114784674Y-66180500D01*
X115165080Y-66022931D01*
X115456231Y-65731780D01*
X115613800Y-65351374D01*
X115613800Y-64939626D01*
X115569012Y-64831499D01*
X115669131Y-64731380D01*
X115826700Y-64350974D01*
X115826700Y-63939226D01*
X115822153Y-63928248D01*
X115967117Y-63783285D01*
X115827800Y-64119626D01*
X115827800Y-64531374D01*
X115985369Y-64911780D01*
X116276520Y-65202931D01*
X116656926Y-65360500D01*
X117068674Y-65360500D01*
X117449080Y-65202931D01*
X117566511Y-65085500D01*
X118518889Y-65085500D01*
X118248369Y-65356020D01*
X118090800Y-65736426D01*
X118090800Y-66148174D01*
X118248369Y-66528580D01*
X118539520Y-66819731D01*
X118919926Y-66977300D01*
X119331674Y-66977300D01*
X119513301Y-66902068D01*
X119530869Y-66944480D01*
X119822020Y-67235631D01*
X120202426Y-67393200D01*
X120614174Y-67393200D01*
X120960125Y-67249903D01*
X121005969Y-67360580D01*
X121297120Y-67651731D01*
X121677526Y-67809300D01*
X122089274Y-67809300D01*
X122469680Y-67651731D01*
X122760831Y-67360580D01*
X122918400Y-66980174D01*
X122918400Y-66814101D01*
X125769773Y-63962729D01*
X125833229Y-63920329D01*
X125947499Y-63749312D01*
X126162731Y-63534080D01*
X126320300Y-63153674D01*
X126320300Y-62741926D01*
X126162731Y-62361520D01*
X126045300Y-62244089D01*
X126045300Y-61786101D01*
X127101173Y-60730229D01*
X127164629Y-60687829D01*
X127332604Y-60436437D01*
X127376700Y-60214752D01*
X127376700Y-60214747D01*
X127391588Y-60139900D01*
X127376700Y-60065053D01*
X127376700Y-47094000D01*
X127476250Y-47094000D01*
X127635000Y-46935250D01*
X127635000Y-46101000D01*
X127615000Y-46101000D01*
X127615000Y-45847000D01*
X127635000Y-45847000D01*
X127635000Y-45836440D01*
X127889000Y-45836440D01*
X127889000Y-45847000D01*
X127889000Y-45847000D01*
G37*
X127889000Y-45847000D02*
X127909000Y-45847000D01*
X127909000Y-46101000D01*
X127889000Y-46101000D01*
X127889000Y-46935250D01*
X127962300Y-47008550D01*
X127962301Y-50378074D01*
X127912796Y-50452164D01*
X127868700Y-50673849D01*
X127868700Y-50673853D01*
X127853812Y-50748700D01*
X127868700Y-50823547D01*
X127868701Y-61286069D01*
X127661320Y-61371969D01*
X127370169Y-61663120D01*
X127212600Y-62043526D01*
X127212600Y-62455274D01*
X127370169Y-62835680D01*
X127661320Y-63126831D01*
X128041726Y-63284400D01*
X128319100Y-63284400D01*
X128319100Y-63471553D01*
X128304212Y-63546400D01*
X128319100Y-63621247D01*
X128319100Y-63621251D01*
X128363196Y-63842936D01*
X128531171Y-64094329D01*
X128594629Y-64136731D01*
X129144200Y-64686302D01*
X129144200Y-64852374D01*
X129301769Y-65232780D01*
X129592920Y-65523931D01*
X129973326Y-65681500D01*
X130139399Y-65681500D01*
X131625001Y-67167103D01*
X131625001Y-68462484D01*
X131418142Y-68376800D01*
X130811858Y-68376800D01*
X130251723Y-68608815D01*
X129845000Y-69015538D01*
X129438277Y-68608815D01*
X128878142Y-68376800D01*
X128271858Y-68376800D01*
X127711723Y-68608815D01*
X127305000Y-69015538D01*
X126898277Y-68608815D01*
X126338142Y-68376800D01*
X125731858Y-68376800D01*
X125171723Y-68608815D01*
X124765000Y-69015538D01*
X124358277Y-68608815D01*
X123798142Y-68376800D01*
X123191858Y-68376800D01*
X122631723Y-68608815D01*
X122203015Y-69037523D01*
X121971000Y-69597658D01*
X121971000Y-70203942D01*
X122203015Y-70764077D01*
X122631723Y-71192785D01*
X123191858Y-71424800D01*
X123798142Y-71424800D01*
X124358277Y-71192785D01*
X124765000Y-70786062D01*
X125171723Y-71192785D01*
X125731858Y-71424800D01*
X126338142Y-71424800D01*
X126898277Y-71192785D01*
X127305000Y-70786062D01*
X127711723Y-71192785D01*
X128271858Y-71424800D01*
X128878142Y-71424800D01*
X129438277Y-71192785D01*
X129845000Y-70786062D01*
X130251723Y-71192785D01*
X130811858Y-71424800D01*
X131418142Y-71424800D01*
X131625001Y-71339116D01*
X131625000Y-83795953D01*
X131610112Y-83870800D01*
X131625000Y-83945647D01*
X131625000Y-83945651D01*
X131669096Y-84167336D01*
X131837071Y-84418729D01*
X131900530Y-84461131D01*
X136136198Y-88696800D01*
X135891858Y-88696800D01*
X135331723Y-88928815D01*
X134925000Y-89335538D01*
X134518277Y-88928815D01*
X133958142Y-88696800D01*
X133351858Y-88696800D01*
X132791723Y-88928815D01*
X132385000Y-89335538D01*
X131978277Y-88928815D01*
X131418142Y-88696800D01*
X130811858Y-88696800D01*
X130251723Y-88928815D01*
X129845000Y-89335538D01*
X129438277Y-88928815D01*
X128878142Y-88696800D01*
X128271858Y-88696800D01*
X127711723Y-88928815D01*
X127305000Y-89335538D01*
X126898277Y-88928815D01*
X126338142Y-88696800D01*
X125731858Y-88696800D01*
X125171723Y-88928815D01*
X124765000Y-89335538D01*
X124358277Y-88928815D01*
X123798142Y-88696800D01*
X123191858Y-88696800D01*
X122631723Y-88928815D01*
X122203015Y-89357523D01*
X122192367Y-89383230D01*
X122027196Y-89328209D01*
X121134605Y-90220800D01*
X121148748Y-90234943D01*
X120969143Y-90414548D01*
X120955000Y-90400405D01*
X120940858Y-90414548D01*
X120761253Y-90234943D01*
X120775395Y-90220800D01*
X119882804Y-89328209D01*
X119717633Y-89383230D01*
X119706985Y-89357523D01*
X119498066Y-89148604D01*
X120062409Y-89148604D01*
X120955000Y-90041195D01*
X121847591Y-89148604D01*
X121762533Y-88893261D01*
X121193035Y-88685284D01*
X120587300Y-88711077D01*
X120147467Y-88893261D01*
X120062409Y-89148604D01*
X119498066Y-89148604D01*
X119278277Y-88928815D01*
X118718142Y-88696800D01*
X118111858Y-88696800D01*
X117551723Y-88928815D01*
X117145000Y-89335538D01*
X116738277Y-88928815D01*
X116178142Y-88696800D01*
X115571858Y-88696800D01*
X115011723Y-88928815D01*
X114605000Y-89335538D01*
X114198277Y-88928815D01*
X113638142Y-88696800D01*
X113031858Y-88696800D01*
X112471723Y-88928815D01*
X112065000Y-89335538D01*
X112065000Y-88445562D01*
X111678308Y-87512005D01*
X110963795Y-86797492D01*
X110030238Y-86410800D01*
X109019762Y-86410800D01*
X108086205Y-86797492D01*
X107539978Y-87343719D01*
X107539978Y-72777881D01*
X108086205Y-73324108D01*
X109019762Y-73710800D01*
X109115187Y-73710800D01*
X109019700Y-73941326D01*
X109019700Y-74353074D01*
X109177269Y-74733480D01*
X109468420Y-75024631D01*
X109848826Y-75182200D01*
X110260574Y-75182200D01*
X110640980Y-75024631D01*
X110932131Y-74733480D01*
X111089700Y-74353074D01*
X111089700Y-74293067D01*
X111600600Y-73782167D01*
X111600600Y-76687632D01*
X111429132Y-76859100D01*
X111369126Y-76859100D01*
X110988720Y-77016669D01*
X110697569Y-77307820D01*
X110540000Y-77688226D01*
X110540000Y-78099974D01*
X110697569Y-78480380D01*
X110988720Y-78771531D01*
X111369126Y-78929100D01*
X111780874Y-78929100D01*
X112161280Y-78771531D01*
X112210500Y-78722311D01*
X112210500Y-80076232D01*
X111386033Y-80900700D01*
X111326026Y-80900700D01*
X110945620Y-81058269D01*
X110654469Y-81349420D01*
X110496900Y-81729826D01*
X110496900Y-82141574D01*
X110654469Y-82521980D01*
X110945620Y-82813131D01*
X111326026Y-82970700D01*
X111737774Y-82970700D01*
X112118180Y-82813131D01*
X112409331Y-82521980D01*
X112566900Y-82141574D01*
X112566900Y-82081567D01*
X113577783Y-81070685D01*
X113647501Y-81024101D01*
X113832052Y-80747901D01*
X113880500Y-80504337D01*
X113880500Y-80504336D01*
X113896858Y-80422100D01*
X113880500Y-80339863D01*
X113880500Y-66342937D01*
X113896858Y-66260700D01*
X113847336Y-66011736D01*
X113832052Y-65934899D01*
X113647501Y-65658699D01*
X113577780Y-65612113D01*
X113549300Y-65583633D01*
X113549300Y-65364652D01*
X113701369Y-65731780D01*
X113992520Y-66022931D01*
X114372926Y-66180500D01*
X114784674Y-66180500D01*
X115165080Y-66022931D01*
X115456231Y-65731780D01*
X115613800Y-65351374D01*
X115613800Y-64939626D01*
X115569012Y-64831499D01*
X115669131Y-64731380D01*
X115826700Y-64350974D01*
X115826700Y-63939226D01*
X115822153Y-63928248D01*
X115967117Y-63783285D01*
X115827800Y-64119626D01*
X115827800Y-64531374D01*
X115985369Y-64911780D01*
X116276520Y-65202931D01*
X116656926Y-65360500D01*
X117068674Y-65360500D01*
X117449080Y-65202931D01*
X117566511Y-65085500D01*
X118518889Y-65085500D01*
X118248369Y-65356020D01*
X118090800Y-65736426D01*
X118090800Y-66148174D01*
X118248369Y-66528580D01*
X118539520Y-66819731D01*
X118919926Y-66977300D01*
X119331674Y-66977300D01*
X119513301Y-66902068D01*
X119530869Y-66944480D01*
X119822020Y-67235631D01*
X120202426Y-67393200D01*
X120614174Y-67393200D01*
X120960125Y-67249903D01*
X121005969Y-67360580D01*
X121297120Y-67651731D01*
X121677526Y-67809300D01*
X122089274Y-67809300D01*
X122469680Y-67651731D01*
X122760831Y-67360580D01*
X122918400Y-66980174D01*
X122918400Y-66814101D01*
X125769773Y-63962729D01*
X125833229Y-63920329D01*
X125947499Y-63749312D01*
X126162731Y-63534080D01*
X126320300Y-63153674D01*
X126320300Y-62741926D01*
X126162731Y-62361520D01*
X126045300Y-62244089D01*
X126045300Y-61786101D01*
X127101173Y-60730229D01*
X127164629Y-60687829D01*
X127332604Y-60436437D01*
X127376700Y-60214752D01*
X127376700Y-60214747D01*
X127391588Y-60139900D01*
X127376700Y-60065053D01*
X127376700Y-47094000D01*
X127476250Y-47094000D01*
X127635000Y-46935250D01*
X127635000Y-46101000D01*
X127615000Y-46101000D01*
X127615000Y-45847000D01*
X127635000Y-45847000D01*
X127635000Y-45836440D01*
X127889000Y-45836440D01*
X127889000Y-45847000D01*
G36*
X137871723Y-71192785D02*
X137975001Y-71235564D01*
X137975001Y-71884831D01*
X137968097Y-71895163D01*
X137963887Y-71916326D01*
X137951235Y-71918843D01*
X137741191Y-72059191D01*
X137600843Y-72269235D01*
X137551560Y-72517000D01*
X137551560Y-73787000D01*
X137600843Y-74034765D01*
X137741191Y-74244809D01*
X137951235Y-74385157D01*
X138199000Y-74434440D01*
X139169000Y-74434440D01*
X139319000Y-74404603D01*
X139469000Y-74434440D01*
X140439000Y-74434440D01*
X140589000Y-74404603D01*
X140739000Y-74434440D01*
X141709000Y-74434440D01*
X141785000Y-74419323D01*
X141785001Y-86059688D01*
X141667569Y-86177120D01*
X141510000Y-86557526D01*
X141510000Y-86840998D01*
X135685000Y-81015999D01*
X135685000Y-71339117D01*
X135891858Y-71424800D01*
X136498142Y-71424800D01*
X137058277Y-71192785D01*
X137465000Y-70786062D01*
X137871723Y-71192785D01*
X137871723Y-71192785D01*
G37*
X137871723Y-71192785D02*
X137975001Y-71235564D01*
X137975001Y-71884831D01*
X137968097Y-71895163D01*
X137963887Y-71916326D01*
X137951235Y-71918843D01*
X137741191Y-72059191D01*
X137600843Y-72269235D01*
X137551560Y-72517000D01*
X137551560Y-73787000D01*
X137600843Y-74034765D01*
X137741191Y-74244809D01*
X137951235Y-74385157D01*
X138199000Y-74434440D01*
X139169000Y-74434440D01*
X139319000Y-74404603D01*
X139469000Y-74434440D01*
X140439000Y-74434440D01*
X140589000Y-74404603D01*
X140739000Y-74434440D01*
X141709000Y-74434440D01*
X141785000Y-74419323D01*
X141785001Y-86059688D01*
X141667569Y-86177120D01*
X141510000Y-86557526D01*
X141510000Y-86840998D01*
X135685000Y-81015999D01*
X135685000Y-71339117D01*
X135891858Y-71424800D01*
X136498142Y-71424800D01*
X137058277Y-71192785D01*
X137465000Y-70786062D01*
X137871723Y-71192785D01*
G36*
X137138600Y-55648789D02*
X137096169Y-55691220D01*
X136938600Y-56071626D01*
X136938600Y-56483374D01*
X137096169Y-56863780D01*
X137387320Y-57154931D01*
X137767726Y-57312500D01*
X138179474Y-57312500D01*
X138559880Y-57154931D01*
X138679061Y-57035750D01*
X139365000Y-57035750D01*
X139365000Y-57326310D01*
X139461673Y-57559699D01*
X139640302Y-57738327D01*
X139873691Y-57835000D01*
X139966250Y-57835000D01*
X140125000Y-57676250D01*
X140125000Y-56877000D01*
X139523750Y-56877000D01*
X139365000Y-57035750D01*
X138679061Y-57035750D01*
X138851031Y-56863780D01*
X139008600Y-56483374D01*
X139008600Y-56173690D01*
X139365000Y-56173690D01*
X139365000Y-56464250D01*
X139523750Y-56623000D01*
X140125000Y-56623000D01*
X140125000Y-55823750D01*
X139966250Y-55665000D01*
X139873691Y-55665000D01*
X139640302Y-55761673D01*
X139461673Y-55940301D01*
X139365000Y-56173690D01*
X139008600Y-56173690D01*
X139008600Y-56071626D01*
X138851031Y-55691220D01*
X138808600Y-55648789D01*
X138808600Y-55590100D01*
X139195874Y-55590100D01*
X139576280Y-55432531D01*
X139732355Y-55276456D01*
X139873691Y-55335000D01*
X139966250Y-55335000D01*
X140125000Y-55176250D01*
X140125000Y-54377000D01*
X140103000Y-54377000D01*
X140103000Y-54123000D01*
X140125000Y-54123000D01*
X140125000Y-54103000D01*
X140170600Y-54103000D01*
X140170600Y-54585153D01*
X140155712Y-54660000D01*
X140170600Y-54734847D01*
X140170600Y-54734851D01*
X140214696Y-54956536D01*
X140382671Y-55207929D01*
X140446130Y-55250331D01*
X141040508Y-55844710D01*
X141001346Y-55903320D01*
X140859698Y-55761673D01*
X140626309Y-55665000D01*
X140533750Y-55665000D01*
X140375000Y-55823750D01*
X140375000Y-56623000D01*
X140397000Y-56623000D01*
X140397000Y-56877000D01*
X140375000Y-56877000D01*
X140375000Y-57676250D01*
X140533750Y-57835000D01*
X140626309Y-57835000D01*
X140859698Y-57738327D01*
X141001346Y-57596680D01*
X141042191Y-57657809D01*
X141252235Y-57798157D01*
X141500000Y-57847440D01*
X142000000Y-57847440D01*
X142247765Y-57798157D01*
X142457809Y-57657809D01*
X142556573Y-57510000D01*
X142862805Y-57510000D01*
X142886078Y-57566185D01*
X143294893Y-57975000D01*
X142886078Y-58383815D01*
X142852450Y-58465000D01*
X142539868Y-58465000D01*
X142457809Y-58342191D01*
X142247765Y-58201843D01*
X142000000Y-58152560D01*
X141500000Y-58152560D01*
X141252235Y-58201843D01*
X141042191Y-58342191D01*
X141001346Y-58403320D01*
X140859698Y-58261673D01*
X140626309Y-58165000D01*
X140533750Y-58165000D01*
X140375000Y-58323750D01*
X140375000Y-59123000D01*
X140397000Y-59123000D01*
X140397000Y-59377000D01*
X140375000Y-59377000D01*
X140375000Y-60176250D01*
X140533750Y-60335000D01*
X140626309Y-60335000D01*
X140859698Y-60238327D01*
X141001346Y-60096680D01*
X141042191Y-60157809D01*
X141252235Y-60298157D01*
X141500000Y-60347440D01*
X142000000Y-60347440D01*
X142247765Y-60298157D01*
X142457809Y-60157809D01*
X142573277Y-59985000D01*
X142852450Y-59985000D01*
X142886078Y-60066185D01*
X143303815Y-60483922D01*
X143849615Y-60710000D01*
X144440385Y-60710000D01*
X144986185Y-60483922D01*
X145048603Y-60421504D01*
X145521335Y-60894238D01*
X145478800Y-60996926D01*
X145478800Y-61408674D01*
X145636369Y-61789080D01*
X145927520Y-62080231D01*
X146085956Y-62145857D01*
X148899970Y-64959872D01*
X148942371Y-65023329D01*
X149005827Y-65065729D01*
X149193762Y-65191304D01*
X149209473Y-65194429D01*
X149415448Y-65235400D01*
X149415452Y-65235400D01*
X149490300Y-65250288D01*
X149565148Y-65235400D01*
X150147000Y-65235400D01*
X150147000Y-65377000D01*
X150127000Y-65377000D01*
X150127000Y-65397000D01*
X149873000Y-65397000D01*
X149873000Y-65377000D01*
X149148750Y-65377000D01*
X148990000Y-65535750D01*
X148990000Y-65776309D01*
X149086673Y-66009698D01*
X149194274Y-66117300D01*
X141920102Y-66117300D01*
X135338552Y-59535750D01*
X139365000Y-59535750D01*
X139365000Y-59826310D01*
X139461673Y-60059699D01*
X139640302Y-60238327D01*
X139873691Y-60335000D01*
X139966250Y-60335000D01*
X140125000Y-60176250D01*
X140125000Y-59377000D01*
X139523750Y-59377000D01*
X139365000Y-59535750D01*
X135338552Y-59535750D01*
X134476492Y-58673690D01*
X139365000Y-58673690D01*
X139365000Y-58964250D01*
X139523750Y-59123000D01*
X140125000Y-59123000D01*
X140125000Y-58323750D01*
X139966250Y-58165000D01*
X139873691Y-58165000D01*
X139640302Y-58261673D01*
X139461673Y-58440301D01*
X139365000Y-58673690D01*
X134476492Y-58673690D01*
X133646600Y-57843799D01*
X133646600Y-57677726D01*
X133489031Y-57297320D01*
X133197880Y-57006169D01*
X132817474Y-56848600D01*
X132611700Y-56848600D01*
X132611700Y-55847501D01*
X133483782Y-54975419D01*
X133545069Y-55123380D01*
X133836220Y-55414531D01*
X134216626Y-55572100D01*
X134628374Y-55572100D01*
X135008780Y-55414531D01*
X135299931Y-55123380D01*
X135457500Y-54742974D01*
X135457500Y-54576901D01*
X137068676Y-52965727D01*
X137132129Y-52923329D01*
X137138600Y-52913644D01*
X137138600Y-55648789D01*
X137138600Y-55648789D01*
G37*
X137138600Y-55648789D02*
X137096169Y-55691220D01*
X136938600Y-56071626D01*
X136938600Y-56483374D01*
X137096169Y-56863780D01*
X137387320Y-57154931D01*
X137767726Y-57312500D01*
X138179474Y-57312500D01*
X138559880Y-57154931D01*
X138679061Y-57035750D01*
X139365000Y-57035750D01*
X139365000Y-57326310D01*
X139461673Y-57559699D01*
X139640302Y-57738327D01*
X139873691Y-57835000D01*
X139966250Y-57835000D01*
X140125000Y-57676250D01*
X140125000Y-56877000D01*
X139523750Y-56877000D01*
X139365000Y-57035750D01*
X138679061Y-57035750D01*
X138851031Y-56863780D01*
X139008600Y-56483374D01*
X139008600Y-56173690D01*
X139365000Y-56173690D01*
X139365000Y-56464250D01*
X139523750Y-56623000D01*
X140125000Y-56623000D01*
X140125000Y-55823750D01*
X139966250Y-55665000D01*
X139873691Y-55665000D01*
X139640302Y-55761673D01*
X139461673Y-55940301D01*
X139365000Y-56173690D01*
X139008600Y-56173690D01*
X139008600Y-56071626D01*
X138851031Y-55691220D01*
X138808600Y-55648789D01*
X138808600Y-55590100D01*
X139195874Y-55590100D01*
X139576280Y-55432531D01*
X139732355Y-55276456D01*
X139873691Y-55335000D01*
X139966250Y-55335000D01*
X140125000Y-55176250D01*
X140125000Y-54377000D01*
X140103000Y-54377000D01*
X140103000Y-54123000D01*
X140125000Y-54123000D01*
X140125000Y-54103000D01*
X140170600Y-54103000D01*
X140170600Y-54585153D01*
X140155712Y-54660000D01*
X140170600Y-54734847D01*
X140170600Y-54734851D01*
X140214696Y-54956536D01*
X140382671Y-55207929D01*
X140446130Y-55250331D01*
X141040508Y-55844710D01*
X141001346Y-55903320D01*
X140859698Y-55761673D01*
X140626309Y-55665000D01*
X140533750Y-55665000D01*
X140375000Y-55823750D01*
X140375000Y-56623000D01*
X140397000Y-56623000D01*
X140397000Y-56877000D01*
X140375000Y-56877000D01*
X140375000Y-57676250D01*
X140533750Y-57835000D01*
X140626309Y-57835000D01*
X140859698Y-57738327D01*
X141001346Y-57596680D01*
X141042191Y-57657809D01*
X141252235Y-57798157D01*
X141500000Y-57847440D01*
X142000000Y-57847440D01*
X142247765Y-57798157D01*
X142457809Y-57657809D01*
X142556573Y-57510000D01*
X142862805Y-57510000D01*
X142886078Y-57566185D01*
X143294893Y-57975000D01*
X142886078Y-58383815D01*
X142852450Y-58465000D01*
X142539868Y-58465000D01*
X142457809Y-58342191D01*
X142247765Y-58201843D01*
X142000000Y-58152560D01*
X141500000Y-58152560D01*
X141252235Y-58201843D01*
X141042191Y-58342191D01*
X141001346Y-58403320D01*
X140859698Y-58261673D01*
X140626309Y-58165000D01*
X140533750Y-58165000D01*
X140375000Y-58323750D01*
X140375000Y-59123000D01*
X140397000Y-59123000D01*
X140397000Y-59377000D01*
X140375000Y-59377000D01*
X140375000Y-60176250D01*
X140533750Y-60335000D01*
X140626309Y-60335000D01*
X140859698Y-60238327D01*
X141001346Y-60096680D01*
X141042191Y-60157809D01*
X141252235Y-60298157D01*
X141500000Y-60347440D01*
X142000000Y-60347440D01*
X142247765Y-60298157D01*
X142457809Y-60157809D01*
X142573277Y-59985000D01*
X142852450Y-59985000D01*
X142886078Y-60066185D01*
X143303815Y-60483922D01*
X143849615Y-60710000D01*
X144440385Y-60710000D01*
X144986185Y-60483922D01*
X145048603Y-60421504D01*
X145521335Y-60894238D01*
X145478800Y-60996926D01*
X145478800Y-61408674D01*
X145636369Y-61789080D01*
X145927520Y-62080231D01*
X146085956Y-62145857D01*
X148899970Y-64959872D01*
X148942371Y-65023329D01*
X149005827Y-65065729D01*
X149193762Y-65191304D01*
X149209473Y-65194429D01*
X149415448Y-65235400D01*
X149415452Y-65235400D01*
X149490300Y-65250288D01*
X149565148Y-65235400D01*
X150147000Y-65235400D01*
X150147000Y-65377000D01*
X150127000Y-65377000D01*
X150127000Y-65397000D01*
X149873000Y-65397000D01*
X149873000Y-65377000D01*
X149148750Y-65377000D01*
X148990000Y-65535750D01*
X148990000Y-65776309D01*
X149086673Y-66009698D01*
X149194274Y-66117300D01*
X141920102Y-66117300D01*
X135338552Y-59535750D01*
X139365000Y-59535750D01*
X139365000Y-59826310D01*
X139461673Y-60059699D01*
X139640302Y-60238327D01*
X139873691Y-60335000D01*
X139966250Y-60335000D01*
X140125000Y-60176250D01*
X140125000Y-59377000D01*
X139523750Y-59377000D01*
X139365000Y-59535750D01*
X135338552Y-59535750D01*
X134476492Y-58673690D01*
X139365000Y-58673690D01*
X139365000Y-58964250D01*
X139523750Y-59123000D01*
X140125000Y-59123000D01*
X140125000Y-58323750D01*
X139966250Y-58165000D01*
X139873691Y-58165000D01*
X139640302Y-58261673D01*
X139461673Y-58440301D01*
X139365000Y-58673690D01*
X134476492Y-58673690D01*
X133646600Y-57843799D01*
X133646600Y-57677726D01*
X133489031Y-57297320D01*
X133197880Y-57006169D01*
X132817474Y-56848600D01*
X132611700Y-56848600D01*
X132611700Y-55847501D01*
X133483782Y-54975419D01*
X133545069Y-55123380D01*
X133836220Y-55414531D01*
X134216626Y-55572100D01*
X134628374Y-55572100D01*
X135008780Y-55414531D01*
X135299931Y-55123380D01*
X135457500Y-54742974D01*
X135457500Y-54576901D01*
X137068676Y-52965727D01*
X137132129Y-52923329D01*
X137138600Y-52913644D01*
X137138600Y-55648789D01*
G36*
X122669560Y-45189000D02*
X122696936Y-45326631D01*
X122682000Y-45362690D01*
X122682000Y-45688250D01*
X122840750Y-45847000D01*
X123825000Y-45847000D01*
X123825000Y-45836440D01*
X124079000Y-45836440D01*
X124079000Y-45847000D01*
X124099000Y-45847000D01*
X124099000Y-46101000D01*
X124079000Y-46101000D01*
X124079000Y-46935250D01*
X124237750Y-47094000D01*
X124713309Y-47094000D01*
X124946698Y-46997327D01*
X125125327Y-46818699D01*
X125222000Y-46585310D01*
X125222000Y-46259750D01*
X125063252Y-46101002D01*
X125222000Y-46101002D01*
X125222000Y-46088501D01*
X125856701Y-46723203D01*
X125856700Y-58820300D01*
X125664326Y-58820300D01*
X125283920Y-58977869D01*
X124992769Y-59269020D01*
X124835200Y-59649426D01*
X124835200Y-59815498D01*
X122572355Y-62078344D01*
X122406661Y-61912650D01*
X122450331Y-61868980D01*
X122607900Y-61488574D01*
X122607900Y-61076826D01*
X122450331Y-60696420D01*
X122395561Y-60641650D01*
X122533931Y-60503280D01*
X122691500Y-60122874D01*
X122691500Y-59711126D01*
X122533931Y-59330720D01*
X122242780Y-59039569D01*
X121893399Y-58894851D01*
X122047000Y-58741250D01*
X122047000Y-58140000D01*
X122301000Y-58140000D01*
X122301000Y-58741250D01*
X122459750Y-58900000D01*
X122750310Y-58900000D01*
X122983699Y-58803327D01*
X123162327Y-58624698D01*
X123259000Y-58391309D01*
X123259000Y-58298750D01*
X123100250Y-58140000D01*
X122301000Y-58140000D01*
X122047000Y-58140000D01*
X121247750Y-58140000D01*
X121221750Y-58166000D01*
X120523000Y-58166000D01*
X120523000Y-58915250D01*
X120681750Y-59074000D01*
X120897310Y-59074000D01*
X121130699Y-58977327D01*
X121309327Y-58798698D01*
X121324073Y-58763099D01*
X121364301Y-58803327D01*
X121554234Y-58882000D01*
X121450626Y-58882000D01*
X121070220Y-59039569D01*
X120952789Y-59157000D01*
X118024148Y-59157000D01*
X117949300Y-59142112D01*
X117874452Y-59157000D01*
X117874448Y-59157000D01*
X117706173Y-59190472D01*
X117652762Y-59201096D01*
X117508788Y-59297297D01*
X117401371Y-59369071D01*
X117358971Y-59432527D01*
X113581928Y-63209571D01*
X113549300Y-63231372D01*
X113549300Y-61283767D01*
X116062068Y-58771000D01*
X116367182Y-58771000D01*
X116814927Y-58681938D01*
X117180925Y-58437386D01*
X117224099Y-58502001D01*
X117500299Y-58686552D01*
X117743863Y-58735000D01*
X117743866Y-58735000D01*
X117826099Y-58751357D01*
X117902331Y-58736194D01*
X117920235Y-58748157D01*
X118168000Y-58797440D01*
X119068000Y-58797440D01*
X119315765Y-58748157D01*
X119430095Y-58671764D01*
X119482673Y-58798698D01*
X119661301Y-58977327D01*
X119894690Y-59074000D01*
X120110250Y-59074000D01*
X120269000Y-58915250D01*
X120269000Y-58166000D01*
X120249000Y-58166000D01*
X120249000Y-57912000D01*
X120269000Y-57912000D01*
X120269000Y-57892000D01*
X120523000Y-57892000D01*
X120523000Y-57912000D01*
X121247250Y-57912000D01*
X121269250Y-57890000D01*
X122047000Y-57890000D01*
X122047000Y-57868000D01*
X122301000Y-57868000D01*
X122301000Y-57890000D01*
X123100250Y-57890000D01*
X123259000Y-57731250D01*
X123259000Y-57638691D01*
X123162327Y-57405302D01*
X123020680Y-57263654D01*
X123081809Y-57222809D01*
X123222157Y-57012765D01*
X123271440Y-56765000D01*
X123271440Y-56265000D01*
X123222157Y-56017235D01*
X123081809Y-55807191D01*
X122871765Y-55666843D01*
X122624000Y-55617560D01*
X121724000Y-55617560D01*
X121476235Y-55666843D01*
X121344300Y-55755000D01*
X121278127Y-55755000D01*
X121228809Y-55681191D01*
X121046341Y-55559269D01*
X121130699Y-55524327D01*
X121309327Y-55345698D01*
X121317043Y-55327069D01*
X121364301Y-55374327D01*
X121597690Y-55471000D01*
X121888250Y-55471000D01*
X122047000Y-55312250D01*
X122047000Y-54711000D01*
X122301000Y-54711000D01*
X122301000Y-55312250D01*
X122459750Y-55471000D01*
X122750310Y-55471000D01*
X122983699Y-55374327D01*
X123162327Y-55195698D01*
X123259000Y-54962309D01*
X123259000Y-54869750D01*
X123100250Y-54711000D01*
X122301000Y-54711000D01*
X122047000Y-54711000D01*
X121247750Y-54711000D01*
X121245750Y-54713000D01*
X120523000Y-54713000D01*
X120523000Y-54733000D01*
X120269000Y-54733000D01*
X120269000Y-54713000D01*
X120249000Y-54713000D01*
X120249000Y-54571400D01*
X123557253Y-54571400D01*
X123632100Y-54586288D01*
X123706947Y-54571400D01*
X123706952Y-54571400D01*
X123928637Y-54527304D01*
X124180029Y-54359329D01*
X124182387Y-54355800D01*
X124328574Y-54355800D01*
X124708980Y-54198231D01*
X125000131Y-53907080D01*
X125157700Y-53526674D01*
X125157700Y-53114926D01*
X125000131Y-52734520D01*
X124734211Y-52468600D01*
X124861131Y-52341680D01*
X125018700Y-51961274D01*
X125018700Y-51549526D01*
X124861131Y-51169120D01*
X124569980Y-50877969D01*
X124189574Y-50720400D01*
X123777826Y-50720400D01*
X123397420Y-50877969D01*
X123118391Y-51156998D01*
X123102252Y-51156998D01*
X123259000Y-51000250D01*
X123259000Y-50907691D01*
X123162327Y-50674302D01*
X123030719Y-50542694D01*
X123245837Y-50499904D01*
X123406881Y-50392298D01*
X123491626Y-50427400D01*
X123903374Y-50427400D01*
X124283780Y-50269831D01*
X124574931Y-49978680D01*
X124732500Y-49598274D01*
X124732500Y-49186526D01*
X124574931Y-48806120D01*
X124283780Y-48514969D01*
X123903374Y-48357400D01*
X123491626Y-48357400D01*
X123111220Y-48514969D01*
X122820069Y-48806120D01*
X122808474Y-48834112D01*
X122792971Y-48844471D01*
X122750569Y-48907930D01*
X122747395Y-48911104D01*
X122624000Y-48886560D01*
X121724000Y-48886560D01*
X121476235Y-48935843D01*
X121309639Y-49047160D01*
X121228809Y-48926191D01*
X121018765Y-48785843D01*
X120771000Y-48736560D01*
X120021000Y-48736560D01*
X119773235Y-48785843D01*
X119563191Y-48926191D01*
X119497837Y-49024000D01*
X119447700Y-49024000D01*
X119315765Y-48935843D01*
X119068000Y-48886560D01*
X118168000Y-48886560D01*
X117920235Y-48935843D01*
X117710191Y-49076191D01*
X117569843Y-49286235D01*
X117548976Y-49391143D01*
X117516300Y-49384643D01*
X117495971Y-49388687D01*
X117322673Y-49129327D01*
X116814927Y-48790062D01*
X116367182Y-48701000D01*
X114264818Y-48701000D01*
X113817073Y-48790062D01*
X113309327Y-49129327D01*
X113136029Y-49388686D01*
X113115700Y-49384642D01*
X113033463Y-49401000D01*
X112789899Y-49449448D01*
X112513699Y-49633999D01*
X112467115Y-49703717D01*
X111694400Y-50476433D01*
X111694400Y-48258501D01*
X112881000Y-47071901D01*
X112881000Y-47762309D01*
X112977673Y-47995698D01*
X113156301Y-48174327D01*
X113389690Y-48271000D01*
X115030250Y-48271000D01*
X115189000Y-48112250D01*
X115189000Y-46863000D01*
X115443000Y-46863000D01*
X115443000Y-48112250D01*
X115601750Y-48271000D01*
X117242310Y-48271000D01*
X117475699Y-48174327D01*
X117654327Y-47995698D01*
X117751000Y-47762309D01*
X117751000Y-47021750D01*
X117592250Y-46863000D01*
X115443000Y-46863000D01*
X115189000Y-46863000D01*
X115169000Y-46863000D01*
X115169000Y-46609000D01*
X115189000Y-46609000D01*
X115189000Y-46589000D01*
X115443000Y-46589000D01*
X115443000Y-46609000D01*
X117592250Y-46609000D01*
X117751000Y-46450250D01*
X117751000Y-46259750D01*
X118872000Y-46259750D01*
X118872000Y-46585310D01*
X118968673Y-46818699D01*
X119147302Y-46997327D01*
X119380691Y-47094000D01*
X119856250Y-47094000D01*
X120015000Y-46935250D01*
X120015000Y-46101000D01*
X120269000Y-46101000D01*
X120269000Y-46935250D01*
X120427750Y-47094000D01*
X120903309Y-47094000D01*
X121136698Y-46997327D01*
X121315327Y-46818699D01*
X121412000Y-46585310D01*
X121412000Y-46259750D01*
X122682000Y-46259750D01*
X122682000Y-46585310D01*
X122778673Y-46818699D01*
X122957302Y-46997327D01*
X123190691Y-47094000D01*
X123666250Y-47094000D01*
X123825000Y-46935250D01*
X123825000Y-46101000D01*
X122840750Y-46101000D01*
X122682000Y-46259750D01*
X121412000Y-46259750D01*
X121253250Y-46101000D01*
X120269000Y-46101000D01*
X120015000Y-46101000D01*
X119030750Y-46101000D01*
X118872000Y-46259750D01*
X117751000Y-46259750D01*
X117751000Y-45709691D01*
X117654327Y-45476302D01*
X117642025Y-45464000D01*
X118872000Y-45464000D01*
X118872000Y-45688250D01*
X119030750Y-45847000D01*
X120015000Y-45847000D01*
X120015000Y-45836440D01*
X120269000Y-45836440D01*
X120269000Y-45847000D01*
X121253250Y-45847000D01*
X121412000Y-45688250D01*
X121412000Y-45362690D01*
X121397064Y-45326631D01*
X121424440Y-45189000D01*
X121424440Y-44251400D01*
X122669560Y-44251400D01*
X122669560Y-45189000D01*
X122669560Y-45189000D01*
G37*
X122669560Y-45189000D02*
X122696936Y-45326631D01*
X122682000Y-45362690D01*
X122682000Y-45688250D01*
X122840750Y-45847000D01*
X123825000Y-45847000D01*
X123825000Y-45836440D01*
X124079000Y-45836440D01*
X124079000Y-45847000D01*
X124099000Y-45847000D01*
X124099000Y-46101000D01*
X124079000Y-46101000D01*
X124079000Y-46935250D01*
X124237750Y-47094000D01*
X124713309Y-47094000D01*
X124946698Y-46997327D01*
X125125327Y-46818699D01*
X125222000Y-46585310D01*
X125222000Y-46259750D01*
X125063252Y-46101002D01*
X125222000Y-46101002D01*
X125222000Y-46088501D01*
X125856701Y-46723203D01*
X125856700Y-58820300D01*
X125664326Y-58820300D01*
X125283920Y-58977869D01*
X124992769Y-59269020D01*
X124835200Y-59649426D01*
X124835200Y-59815498D01*
X122572355Y-62078344D01*
X122406661Y-61912650D01*
X122450331Y-61868980D01*
X122607900Y-61488574D01*
X122607900Y-61076826D01*
X122450331Y-60696420D01*
X122395561Y-60641650D01*
X122533931Y-60503280D01*
X122691500Y-60122874D01*
X122691500Y-59711126D01*
X122533931Y-59330720D01*
X122242780Y-59039569D01*
X121893399Y-58894851D01*
X122047000Y-58741250D01*
X122047000Y-58140000D01*
X122301000Y-58140000D01*
X122301000Y-58741250D01*
X122459750Y-58900000D01*
X122750310Y-58900000D01*
X122983699Y-58803327D01*
X123162327Y-58624698D01*
X123259000Y-58391309D01*
X123259000Y-58298750D01*
X123100250Y-58140000D01*
X122301000Y-58140000D01*
X122047000Y-58140000D01*
X121247750Y-58140000D01*
X121221750Y-58166000D01*
X120523000Y-58166000D01*
X120523000Y-58915250D01*
X120681750Y-59074000D01*
X120897310Y-59074000D01*
X121130699Y-58977327D01*
X121309327Y-58798698D01*
X121324073Y-58763099D01*
X121364301Y-58803327D01*
X121554234Y-58882000D01*
X121450626Y-58882000D01*
X121070220Y-59039569D01*
X120952789Y-59157000D01*
X118024148Y-59157000D01*
X117949300Y-59142112D01*
X117874452Y-59157000D01*
X117874448Y-59157000D01*
X117706173Y-59190472D01*
X117652762Y-59201096D01*
X117508788Y-59297297D01*
X117401371Y-59369071D01*
X117358971Y-59432527D01*
X113581928Y-63209571D01*
X113549300Y-63231372D01*
X113549300Y-61283767D01*
X116062068Y-58771000D01*
X116367182Y-58771000D01*
X116814927Y-58681938D01*
X117180925Y-58437386D01*
X117224099Y-58502001D01*
X117500299Y-58686552D01*
X117743863Y-58735000D01*
X117743866Y-58735000D01*
X117826099Y-58751357D01*
X117902331Y-58736194D01*
X117920235Y-58748157D01*
X118168000Y-58797440D01*
X119068000Y-58797440D01*
X119315765Y-58748157D01*
X119430095Y-58671764D01*
X119482673Y-58798698D01*
X119661301Y-58977327D01*
X119894690Y-59074000D01*
X120110250Y-59074000D01*
X120269000Y-58915250D01*
X120269000Y-58166000D01*
X120249000Y-58166000D01*
X120249000Y-57912000D01*
X120269000Y-57912000D01*
X120269000Y-57892000D01*
X120523000Y-57892000D01*
X120523000Y-57912000D01*
X121247250Y-57912000D01*
X121269250Y-57890000D01*
X122047000Y-57890000D01*
X122047000Y-57868000D01*
X122301000Y-57868000D01*
X122301000Y-57890000D01*
X123100250Y-57890000D01*
X123259000Y-57731250D01*
X123259000Y-57638691D01*
X123162327Y-57405302D01*
X123020680Y-57263654D01*
X123081809Y-57222809D01*
X123222157Y-57012765D01*
X123271440Y-56765000D01*
X123271440Y-56265000D01*
X123222157Y-56017235D01*
X123081809Y-55807191D01*
X122871765Y-55666843D01*
X122624000Y-55617560D01*
X121724000Y-55617560D01*
X121476235Y-55666843D01*
X121344300Y-55755000D01*
X121278127Y-55755000D01*
X121228809Y-55681191D01*
X121046341Y-55559269D01*
X121130699Y-55524327D01*
X121309327Y-55345698D01*
X121317043Y-55327069D01*
X121364301Y-55374327D01*
X121597690Y-55471000D01*
X121888250Y-55471000D01*
X122047000Y-55312250D01*
X122047000Y-54711000D01*
X122301000Y-54711000D01*
X122301000Y-55312250D01*
X122459750Y-55471000D01*
X122750310Y-55471000D01*
X122983699Y-55374327D01*
X123162327Y-55195698D01*
X123259000Y-54962309D01*
X123259000Y-54869750D01*
X123100250Y-54711000D01*
X122301000Y-54711000D01*
X122047000Y-54711000D01*
X121247750Y-54711000D01*
X121245750Y-54713000D01*
X120523000Y-54713000D01*
X120523000Y-54733000D01*
X120269000Y-54733000D01*
X120269000Y-54713000D01*
X120249000Y-54713000D01*
X120249000Y-54571400D01*
X123557253Y-54571400D01*
X123632100Y-54586288D01*
X123706947Y-54571400D01*
X123706952Y-54571400D01*
X123928637Y-54527304D01*
X124180029Y-54359329D01*
X124182387Y-54355800D01*
X124328574Y-54355800D01*
X124708980Y-54198231D01*
X125000131Y-53907080D01*
X125157700Y-53526674D01*
X125157700Y-53114926D01*
X125000131Y-52734520D01*
X124734211Y-52468600D01*
X124861131Y-52341680D01*
X125018700Y-51961274D01*
X125018700Y-51549526D01*
X124861131Y-51169120D01*
X124569980Y-50877969D01*
X124189574Y-50720400D01*
X123777826Y-50720400D01*
X123397420Y-50877969D01*
X123118391Y-51156998D01*
X123102252Y-51156998D01*
X123259000Y-51000250D01*
X123259000Y-50907691D01*
X123162327Y-50674302D01*
X123030719Y-50542694D01*
X123245837Y-50499904D01*
X123406881Y-50392298D01*
X123491626Y-50427400D01*
X123903374Y-50427400D01*
X124283780Y-50269831D01*
X124574931Y-49978680D01*
X124732500Y-49598274D01*
X124732500Y-49186526D01*
X124574931Y-48806120D01*
X124283780Y-48514969D01*
X123903374Y-48357400D01*
X123491626Y-48357400D01*
X123111220Y-48514969D01*
X122820069Y-48806120D01*
X122808474Y-48834112D01*
X122792971Y-48844471D01*
X122750569Y-48907930D01*
X122747395Y-48911104D01*
X122624000Y-48886560D01*
X121724000Y-48886560D01*
X121476235Y-48935843D01*
X121309639Y-49047160D01*
X121228809Y-48926191D01*
X121018765Y-48785843D01*
X120771000Y-48736560D01*
X120021000Y-48736560D01*
X119773235Y-48785843D01*
X119563191Y-48926191D01*
X119497837Y-49024000D01*
X119447700Y-49024000D01*
X119315765Y-48935843D01*
X119068000Y-48886560D01*
X118168000Y-48886560D01*
X117920235Y-48935843D01*
X117710191Y-49076191D01*
X117569843Y-49286235D01*
X117548976Y-49391143D01*
X117516300Y-49384643D01*
X117495971Y-49388687D01*
X117322673Y-49129327D01*
X116814927Y-48790062D01*
X116367182Y-48701000D01*
X114264818Y-48701000D01*
X113817073Y-48790062D01*
X113309327Y-49129327D01*
X113136029Y-49388686D01*
X113115700Y-49384642D01*
X113033463Y-49401000D01*
X112789899Y-49449448D01*
X112513699Y-49633999D01*
X112467115Y-49703717D01*
X111694400Y-50476433D01*
X111694400Y-48258501D01*
X112881000Y-47071901D01*
X112881000Y-47762309D01*
X112977673Y-47995698D01*
X113156301Y-48174327D01*
X113389690Y-48271000D01*
X115030250Y-48271000D01*
X115189000Y-48112250D01*
X115189000Y-46863000D01*
X115443000Y-46863000D01*
X115443000Y-48112250D01*
X115601750Y-48271000D01*
X117242310Y-48271000D01*
X117475699Y-48174327D01*
X117654327Y-47995698D01*
X117751000Y-47762309D01*
X117751000Y-47021750D01*
X117592250Y-46863000D01*
X115443000Y-46863000D01*
X115189000Y-46863000D01*
X115169000Y-46863000D01*
X115169000Y-46609000D01*
X115189000Y-46609000D01*
X115189000Y-46589000D01*
X115443000Y-46589000D01*
X115443000Y-46609000D01*
X117592250Y-46609000D01*
X117751000Y-46450250D01*
X117751000Y-46259750D01*
X118872000Y-46259750D01*
X118872000Y-46585310D01*
X118968673Y-46818699D01*
X119147302Y-46997327D01*
X119380691Y-47094000D01*
X119856250Y-47094000D01*
X120015000Y-46935250D01*
X120015000Y-46101000D01*
X120269000Y-46101000D01*
X120269000Y-46935250D01*
X120427750Y-47094000D01*
X120903309Y-47094000D01*
X121136698Y-46997327D01*
X121315327Y-46818699D01*
X121412000Y-46585310D01*
X121412000Y-46259750D01*
X122682000Y-46259750D01*
X122682000Y-46585310D01*
X122778673Y-46818699D01*
X122957302Y-46997327D01*
X123190691Y-47094000D01*
X123666250Y-47094000D01*
X123825000Y-46935250D01*
X123825000Y-46101000D01*
X122840750Y-46101000D01*
X122682000Y-46259750D01*
X121412000Y-46259750D01*
X121253250Y-46101000D01*
X120269000Y-46101000D01*
X120015000Y-46101000D01*
X119030750Y-46101000D01*
X118872000Y-46259750D01*
X117751000Y-46259750D01*
X117751000Y-45709691D01*
X117654327Y-45476302D01*
X117642025Y-45464000D01*
X118872000Y-45464000D01*
X118872000Y-45688250D01*
X119030750Y-45847000D01*
X120015000Y-45847000D01*
X120015000Y-45836440D01*
X120269000Y-45836440D01*
X120269000Y-45847000D01*
X121253250Y-45847000D01*
X121412000Y-45688250D01*
X121412000Y-45362690D01*
X121397064Y-45326631D01*
X121424440Y-45189000D01*
X121424440Y-44251400D01*
X122669560Y-44251400D01*
X122669560Y-45189000D01*
G36*
X120523000Y-51157000D02*
X121245750Y-51157000D01*
X121247750Y-51159000D01*
X122047000Y-51159000D01*
X122047000Y-51137000D01*
X122301000Y-51137000D01*
X122301000Y-51159000D01*
X122321000Y-51159000D01*
X122321000Y-51409000D01*
X122301000Y-51409000D01*
X122301000Y-52010250D01*
X122459750Y-52169000D01*
X122750310Y-52169000D01*
X122820623Y-52139875D01*
X122747394Y-52213104D01*
X122624000Y-52188560D01*
X121724000Y-52188560D01*
X121476235Y-52237843D01*
X121344300Y-52326000D01*
X121294163Y-52326000D01*
X121228809Y-52228191D01*
X121166481Y-52186545D01*
X121309327Y-52043698D01*
X121317043Y-52025069D01*
X121364301Y-52072327D01*
X121597690Y-52169000D01*
X121888250Y-52169000D01*
X122047000Y-52010250D01*
X122047000Y-51409000D01*
X121247750Y-51409000D01*
X121245750Y-51411000D01*
X120523000Y-51411000D01*
X120523000Y-51431000D01*
X120269000Y-51431000D01*
X120269000Y-51411000D01*
X120249000Y-51411000D01*
X120249000Y-51157000D01*
X120269000Y-51157000D01*
X120269000Y-51137000D01*
X120523000Y-51137000D01*
X120523000Y-51157000D01*
X120523000Y-51157000D01*
G37*
X120523000Y-51157000D02*
X121245750Y-51157000D01*
X121247750Y-51159000D01*
X122047000Y-51159000D01*
X122047000Y-51137000D01*
X122301000Y-51137000D01*
X122301000Y-51159000D01*
X122321000Y-51159000D01*
X122321000Y-51409000D01*
X122301000Y-51409000D01*
X122301000Y-52010250D01*
X122459750Y-52169000D01*
X122750310Y-52169000D01*
X122820623Y-52139875D01*
X122747394Y-52213104D01*
X122624000Y-52188560D01*
X121724000Y-52188560D01*
X121476235Y-52237843D01*
X121344300Y-52326000D01*
X121294163Y-52326000D01*
X121228809Y-52228191D01*
X121166481Y-52186545D01*
X121309327Y-52043698D01*
X121317043Y-52025069D01*
X121364301Y-52072327D01*
X121597690Y-52169000D01*
X121888250Y-52169000D01*
X122047000Y-52010250D01*
X122047000Y-51409000D01*
X121247750Y-51409000D01*
X121245750Y-51411000D01*
X120523000Y-51411000D01*
X120523000Y-51431000D01*
X120269000Y-51431000D01*
X120269000Y-51411000D01*
X120249000Y-51411000D01*
X120249000Y-51157000D01*
X120269000Y-51157000D01*
X120269000Y-51137000D01*
X120523000Y-51137000D01*
X120523000Y-51157000D01*
M02*
