G04 #@! TF.GenerationSoftware,KiCad,Pcbnew,(2017-06-19 revision 6733101c6)-makepkg*
G04 #@! TF.CreationDate,2017-07-31T00:47:17+09:30*
G04 #@! TF.ProjectId,ATM90E3x_fw,41544D39304533785F66772E6B696361,rev?*
G04 #@! TF.SameCoordinates,Original
G04 #@! TF.FileFunction,Copper,L2,Bot,Signal*
G04 #@! TF.FilePolarity,Positive*
%FSLAX46Y46*%
G04 Gerber Fmt 4.6, Leading zero omitted, Abs format (unit mm)*
G04 Created by KiCad (PCBNEW (2017-06-19 revision 6733101c6)-makepkg) date 07/31/17 00:47:17*
%MOMM*%
%LPD*%
G01*
G04 APERTURE LIST*
%ADD10C,0.100000*%
%ADD11O,3.600000X1.800000*%
%ADD12R,3.600000X1.800000*%
%ADD13R,1.270000X0.970000*%
%ADD14C,2.000000*%
%ADD15C,3.650000*%
%ADD16R,1.500000X1.500000*%
%ADD17C,1.500000*%
%ADD18R,0.500000X0.900000*%
%ADD19R,0.970000X1.270000*%
%ADD20C,1.778000*%
%ADD21C,3.810000*%
%ADD22R,0.750000X0.800000*%
%ADD23R,0.800000X0.750000*%
%ADD24R,0.900000X0.500000*%
%ADD25C,0.800000*%
%ADD26C,0.250000*%
%ADD27C,0.400000*%
%ADD28C,0.254000*%
G04 APERTURE END LIST*
D10*
D11*
X115316000Y-57236000D03*
X115316000Y-53736000D03*
X115316000Y-50236000D03*
D12*
X115316000Y-46736000D03*
D13*
X120142000Y-45974000D03*
X120142000Y-44704000D03*
X120142000Y-43434000D03*
X127762000Y-45974000D03*
X127762000Y-44704000D03*
X127762000Y-43434000D03*
X123952000Y-45974000D03*
X123952000Y-44704000D03*
X123952000Y-43434000D03*
D14*
X152656000Y-65279000D03*
X152656000Y-49089000D03*
D15*
X149606000Y-51249000D03*
X149606000Y-63119000D03*
D16*
X143256000Y-61629000D03*
D17*
X140716000Y-60359000D03*
X143256000Y-59089000D03*
X140716000Y-57819000D03*
X143256000Y-56549000D03*
X140716000Y-55279000D03*
X143256000Y-54009000D03*
X140716000Y-52739000D03*
D18*
X137426000Y-55372000D03*
X138926000Y-55372000D03*
D19*
X138684000Y-73152000D03*
X139954000Y-73152000D03*
X141224000Y-73152000D03*
D20*
X113335000Y-90220800D03*
X115875000Y-90220800D03*
X118415000Y-90220800D03*
X120955000Y-90220800D03*
X123495000Y-90220800D03*
X126035000Y-90220800D03*
X128575000Y-90220800D03*
X131115000Y-90220800D03*
X133655000Y-90220800D03*
X136195000Y-90220800D03*
X138735000Y-90220800D03*
X141275000Y-90220800D03*
X143815000Y-90220800D03*
X146355000Y-90220800D03*
X148895000Y-90220800D03*
X151435000Y-90220800D03*
X151435000Y-69900800D03*
X148895000Y-69900800D03*
X146355000Y-69900800D03*
X143815000Y-69900800D03*
X141275000Y-69900800D03*
X138735000Y-69900800D03*
X136195000Y-69900800D03*
X133655000Y-69900800D03*
X131115000Y-69900800D03*
X128575000Y-69900800D03*
X126035000Y-69900800D03*
X123495000Y-69900800D03*
D21*
X109525000Y-71170800D03*
X109525000Y-88950800D03*
D22*
X120396000Y-49784000D03*
X120396000Y-51284000D03*
D23*
X140450000Y-48514000D03*
X138950000Y-48514000D03*
D22*
X138176000Y-63742000D03*
X138176000Y-62242000D03*
D23*
X140450000Y-65278000D03*
X138950000Y-65278000D03*
D22*
X135890000Y-56376000D03*
X135890000Y-54876000D03*
X135890000Y-52820000D03*
X135890000Y-51320000D03*
X120396000Y-56539000D03*
X120396000Y-58039000D03*
X120396000Y-53086000D03*
X120396000Y-54586000D03*
X135890000Y-62980000D03*
X135890000Y-61480000D03*
X135890000Y-59424000D03*
X135890000Y-57924000D03*
X138176000Y-50050000D03*
X138176000Y-51550000D03*
D18*
X137426000Y-60452000D03*
X138926000Y-60452000D03*
X137426000Y-58674000D03*
X138926000Y-58674000D03*
X139966000Y-50292000D03*
X141466000Y-50292000D03*
D24*
X118618000Y-51284000D03*
X118618000Y-49784000D03*
X122174000Y-49784000D03*
X122174000Y-51284000D03*
D18*
X145820000Y-54356000D03*
X147320000Y-54356000D03*
D24*
X143510000Y-50050000D03*
X143510000Y-51550000D03*
D18*
X148844000Y-54356000D03*
X150344000Y-54356000D03*
D24*
X118618000Y-57900000D03*
X118618000Y-56400000D03*
D18*
X145820000Y-58166000D03*
X147320000Y-58166000D03*
D24*
X122174000Y-56515000D03*
X122174000Y-58015000D03*
X118618000Y-54586000D03*
X118618000Y-53086000D03*
X122174000Y-53086000D03*
X122174000Y-54586000D03*
D18*
X148844000Y-58166000D03*
X150344000Y-58166000D03*
X137426000Y-53594000D03*
X138926000Y-53594000D03*
X148868000Y-59944000D03*
X150368000Y-59944000D03*
X145820000Y-59944000D03*
X147320000Y-59944000D03*
X148868000Y-56134000D03*
X150368000Y-56134000D03*
X145820000Y-56134000D03*
X147320000Y-56134000D03*
X142252000Y-64008000D03*
X143752000Y-64008000D03*
D24*
X140208000Y-63488000D03*
X140208000Y-61988000D03*
D25*
X116581900Y-62778600D03*
X121641300Y-61915000D03*
X108771600Y-77851000D03*
X110022500Y-74179400D03*
X112236000Y-83681500D03*
X132201500Y-63147900D03*
X144188700Y-88708600D03*
X138707500Y-46734300D03*
X132959600Y-64063300D03*
X134807400Y-47751100D03*
X129738200Y-61884100D03*
X133394300Y-47445400D03*
X133838600Y-66011100D03*
X147075300Y-62562300D03*
X122854400Y-61809800D03*
X116856700Y-64654800D03*
X121635200Y-60211500D03*
X125562600Y-59577100D03*
X115347200Y-63929500D03*
X151241900Y-59866700D03*
X141124600Y-62639500D03*
X121761300Y-55454800D03*
X113958500Y-58832300D03*
X133967400Y-55335300D03*
X130921800Y-56177100D03*
X131924700Y-57178600D03*
X133148100Y-54683700D03*
X141592300Y-49234600D03*
X131969500Y-52844100D03*
X134704800Y-54617200D03*
X126724300Y-64531000D03*
X125396600Y-63430700D03*
X125981600Y-49561600D03*
X122267100Y-45847100D03*
X125316600Y-65298400D03*
X122853500Y-66716700D03*
X128163300Y-59422700D03*
X124113800Y-62067200D03*
X118892700Y-66774300D03*
X128185900Y-57750200D03*
X127937700Y-47087700D03*
X128975700Y-46790700D03*
X128975700Y-55218900D03*
X125589400Y-57430900D03*
X126054600Y-48462900D03*
X123838100Y-54050000D03*
X123100600Y-52169200D03*
X123224400Y-48635000D03*
X136051800Y-46366000D03*
X137548100Y-47223800D03*
X142123700Y-46001900D03*
D26*
X120777700Y-62778600D02*
X116581900Y-62778600D01*
X121641300Y-61915000D02*
X120777700Y-62778600D01*
D27*
X112473900Y-74148700D02*
X108771600Y-77851000D01*
X112473900Y-56578100D02*
X112473900Y-74148700D01*
X115316000Y-53736000D02*
X112473900Y-56578100D01*
X117767700Y-53987400D02*
X117516300Y-53736000D01*
X117767700Y-54586000D02*
X117767700Y-53987400D01*
X115316000Y-53736000D02*
X117516300Y-53736000D01*
X118618000Y-54586000D02*
X117767700Y-54586000D01*
X117767700Y-50487400D02*
X117516300Y-50236000D01*
X117767700Y-51284000D02*
X117767700Y-50487400D01*
X118618000Y-51284000D02*
X117767700Y-51284000D01*
X115316000Y-50236000D02*
X115908800Y-50236000D01*
X115908800Y-50236000D02*
X117516300Y-50236000D01*
X111830500Y-72371400D02*
X110022500Y-74179400D01*
X111830500Y-54314300D02*
X111830500Y-72371400D01*
X115908800Y-50236000D02*
X111830500Y-54314300D01*
X113115700Y-82801800D02*
X112236000Y-83681500D01*
X113115700Y-57236000D02*
X113115700Y-82801800D01*
X115316000Y-57236000D02*
X113115700Y-57236000D01*
X117767700Y-57487400D02*
X117516300Y-57236000D01*
X117767700Y-57900000D02*
X117767700Y-57487400D01*
X115316000Y-57236000D02*
X117516300Y-57236000D01*
X118618000Y-57900000D02*
X117767700Y-57900000D01*
D26*
X138735000Y-72140700D02*
X138684000Y-72191700D01*
X138735000Y-69900800D02*
X138735000Y-72140700D01*
X138684000Y-73152000D02*
X138684000Y-72191700D01*
X132384900Y-81330700D02*
X141275000Y-90220800D01*
X132384900Y-69192500D02*
X132384900Y-81330700D01*
X132201500Y-69009100D02*
X132384900Y-69192500D01*
X132201500Y-63147900D02*
X132201500Y-69009100D01*
X152179900Y-46734300D02*
X138707500Y-46734300D01*
X154001200Y-48555600D02*
X152179900Y-46734300D01*
X154001200Y-67882500D02*
X154001200Y-48555600D01*
X153253300Y-68630400D02*
X154001200Y-67882500D01*
X153253300Y-79644000D02*
X153253300Y-68630400D01*
X144188700Y-88708600D02*
X153253300Y-79644000D01*
X134925000Y-81330800D02*
X143815000Y-90220800D01*
X134925000Y-68291800D02*
X134925000Y-81330800D01*
X132959600Y-66326400D02*
X134925000Y-68291800D01*
X132959600Y-64063300D02*
X132959600Y-66326400D01*
X132959600Y-61281300D02*
X132959600Y-64063300D01*
X130188500Y-58510200D02*
X132959600Y-61281300D01*
X130188500Y-52370000D02*
X130188500Y-58510200D01*
X134807400Y-47751100D02*
X130188500Y-52370000D01*
X129845100Y-81330900D02*
X138735000Y-90220800D01*
X129845100Y-61991000D02*
X129845100Y-81330900D01*
X129738200Y-61884100D02*
X129845100Y-61991000D01*
X129738200Y-51101500D02*
X129738200Y-61884100D01*
X133394300Y-47445400D02*
X129738200Y-51101500D01*
X147075300Y-62790100D02*
X147075300Y-62562300D01*
X142499500Y-67365900D02*
X147075300Y-62790100D01*
X139954000Y-67365900D02*
X142499500Y-67365900D01*
X135193400Y-67365900D02*
X139954000Y-67365900D01*
X133838600Y-66011100D02*
X135193400Y-67365900D01*
X139954000Y-67365900D02*
X139954000Y-73152000D01*
X120009400Y-64654800D02*
X116856700Y-64654800D01*
X122854400Y-61809800D02*
X120009400Y-64654800D01*
X124928200Y-60211500D02*
X121635200Y-60211500D01*
X125562600Y-59577100D02*
X124928200Y-60211500D01*
X115347200Y-62900400D02*
X115347200Y-63929500D01*
X118036100Y-60211500D02*
X115347200Y-62900400D01*
X121635200Y-60211500D02*
X118036100Y-60211500D01*
X143752000Y-63200300D02*
X143752000Y-64008000D01*
X143256000Y-62704300D02*
X143752000Y-63200300D01*
X143256000Y-61629000D02*
X143256000Y-62704300D01*
X151020600Y-59866700D02*
X150943300Y-59944000D01*
X151241900Y-59866700D02*
X151020600Y-59866700D01*
X150368000Y-59944000D02*
X150943300Y-59944000D01*
X142252000Y-64008000D02*
X141676700Y-64008000D01*
X140450000Y-65278000D02*
X140450000Y-64577700D01*
X141483100Y-64008000D02*
X141289400Y-63814300D01*
X141676700Y-64008000D02*
X141483100Y-64008000D01*
X140526000Y-64577700D02*
X140450000Y-64577700D01*
X141289400Y-63814300D02*
X140526000Y-64577700D01*
X141289400Y-62804300D02*
X141124600Y-62639500D01*
X141289400Y-63814300D02*
X141289400Y-62804300D01*
D27*
X115316000Y-46736000D02*
X117516300Y-46736000D01*
X122174000Y-51284000D02*
X120396000Y-51284000D01*
X122174000Y-51284000D02*
X123024300Y-51284000D01*
X127762000Y-45974000D02*
X128797300Y-45974000D01*
X148844000Y-58166000D02*
X148844000Y-58591100D01*
X147320000Y-58166000D02*
X147970300Y-58166000D01*
X148868000Y-56134000D02*
X148217700Y-56134000D01*
X148868000Y-56134000D02*
X148868000Y-55283700D01*
X148844000Y-54356000D02*
X148844000Y-54781100D01*
X148844000Y-54781100D02*
X148844000Y-55206300D01*
X148395400Y-54781100D02*
X147970300Y-54356000D01*
X148844000Y-54781100D02*
X148395400Y-54781100D01*
X147320000Y-54356000D02*
X147970300Y-54356000D01*
X138950000Y-65278000D02*
X138950000Y-64502700D01*
X138950000Y-65278000D02*
X138950000Y-66053300D01*
X147320000Y-59944000D02*
X147320000Y-60794300D01*
X148395400Y-58591100D02*
X147970300Y-58166000D01*
X148844000Y-58591100D02*
X148395400Y-58591100D01*
X148844000Y-59069700D02*
X148868000Y-59093700D01*
X148844000Y-58591100D02*
X148844000Y-59069700D01*
X121299700Y-58039000D02*
X121323700Y-58015000D01*
X120396000Y-58039000D02*
X121299700Y-58039000D01*
X122174000Y-58015000D02*
X121323700Y-58015000D01*
X122174000Y-58015000D02*
X122174000Y-57364700D01*
X138176000Y-50050000D02*
X137400700Y-50050000D01*
X148868000Y-59944000D02*
X148868000Y-59518800D01*
X148868000Y-59518800D02*
X148868000Y-59093700D01*
X148395500Y-59518800D02*
X147970300Y-59944000D01*
X148868000Y-59518800D02*
X148395500Y-59518800D01*
X147320000Y-59944000D02*
X147970300Y-59944000D01*
X120396000Y-58039000D02*
X119620700Y-58039000D01*
X151305700Y-47738700D02*
X138950000Y-47738700D01*
X152656000Y-49089000D02*
X151305700Y-47738700D01*
X134162100Y-45974000D02*
X128797300Y-45974000D01*
X137400700Y-49212600D02*
X134162100Y-45974000D01*
X137400700Y-50050000D02*
X137400700Y-49212600D01*
X122174000Y-54586000D02*
X122174000Y-54911100D01*
X120396000Y-54586000D02*
X121171300Y-54586000D01*
X138950000Y-48126300D02*
X138950000Y-47738700D01*
X135890000Y-54876000D02*
X136665300Y-54876000D01*
X143042500Y-66053300D02*
X138950000Y-66053300D01*
X144838100Y-64257700D02*
X143042500Y-66053300D01*
X144838100Y-63276200D02*
X144838100Y-64257700D01*
X147320000Y-60794300D02*
X144838100Y-63276200D01*
X147320000Y-56134000D02*
X148217700Y-56134000D01*
X138936700Y-64502700D02*
X138176000Y-63742000D01*
X138950000Y-64502700D02*
X138936700Y-64502700D01*
X135890000Y-59424000D02*
X135114700Y-59424000D01*
X135890000Y-54876000D02*
X135890000Y-54075700D01*
X135890000Y-52820000D02*
X135890000Y-53620300D01*
X122174000Y-54586000D02*
X122174000Y-53935700D01*
X124648800Y-53719800D02*
X123767400Y-52838400D01*
X124648800Y-55377600D02*
X124648800Y-53719800D01*
X122661700Y-57364700D02*
X124648800Y-55377600D01*
X122174000Y-57364700D02*
X122661700Y-57364700D01*
X122670100Y-53935700D02*
X122174000Y-53935700D01*
X123767400Y-52838400D02*
X122670100Y-53935700D01*
X121761300Y-54911100D02*
X121761300Y-55454800D01*
X122174000Y-54911100D02*
X121761300Y-54911100D01*
X121496400Y-54911100D02*
X121171300Y-54586000D01*
X121761300Y-54911100D02*
X121496400Y-54911100D01*
X135114700Y-58648700D02*
X135114700Y-59424000D01*
X132321700Y-55855700D02*
X135114700Y-58648700D01*
X132321700Y-54373800D02*
X132321700Y-55855700D01*
X132949300Y-53746200D02*
X132321700Y-54373800D01*
X135845600Y-53746200D02*
X132949300Y-53746200D01*
X135845600Y-53664700D02*
X135845600Y-53746200D01*
X135890000Y-53620300D02*
X135845600Y-53664700D01*
X135845600Y-54031300D02*
X135890000Y-54075700D01*
X135845600Y-53746200D02*
X135845600Y-54031300D01*
X124060700Y-46968000D02*
X123952000Y-46859300D01*
X124060700Y-50570500D02*
X124060700Y-46968000D01*
X123347200Y-51284000D02*
X124060700Y-50570500D01*
X123024300Y-51284000D02*
X123347200Y-51284000D01*
X123909200Y-52696600D02*
X123767400Y-52838400D01*
X123909200Y-51846000D02*
X123909200Y-52696600D01*
X123347200Y-51284000D02*
X123909200Y-51846000D01*
X123952000Y-45974000D02*
X123952000Y-46858400D01*
X123952000Y-46858400D02*
X123952000Y-46859300D01*
X118278300Y-45974000D02*
X120142000Y-45974000D01*
X117516300Y-46736000D02*
X118278300Y-45974000D01*
X122061700Y-46858400D02*
X123952000Y-46858400D01*
X121177300Y-45974000D02*
X122061700Y-46858400D01*
X120142000Y-45974000D02*
X121177300Y-45974000D01*
X115767900Y-60641700D02*
X113958500Y-58832300D01*
X114546900Y-61862700D02*
X115767900Y-60641700D01*
X114546900Y-83812700D02*
X114546900Y-61862700D01*
X120955000Y-90220800D02*
X114546900Y-83812700D01*
X119620700Y-58219000D02*
X119620700Y-58039000D01*
X119081200Y-58758500D02*
X119620700Y-58219000D01*
X117651100Y-58758500D02*
X119081200Y-58758500D01*
X115767900Y-60641700D02*
X117651100Y-58758500D01*
X138936700Y-49289300D02*
X138176000Y-50050000D01*
X138950000Y-49289300D02*
X138936700Y-49289300D01*
X138950000Y-48514000D02*
X138950000Y-49289300D01*
X138950000Y-48514000D02*
X138950000Y-48126300D01*
X136665300Y-54768000D02*
X136665300Y-54876000D01*
X136988900Y-54444400D02*
X136665300Y-54768000D01*
X137900700Y-54444400D02*
X136988900Y-54444400D01*
X138275600Y-54069500D02*
X137900700Y-54444400D01*
X138275600Y-52978300D02*
X138275600Y-54069500D01*
X138510200Y-52743700D02*
X138275600Y-52978300D01*
X138824400Y-52743700D02*
X138510200Y-52743700D01*
X140616400Y-50951700D02*
X138824400Y-52743700D01*
X140616400Y-49655100D02*
X140616400Y-50951700D01*
X140250600Y-49289300D02*
X140616400Y-49655100D01*
X138950000Y-49289300D02*
X140250600Y-49289300D01*
X135890000Y-59424000D02*
X135890000Y-61480000D01*
X149518300Y-60431700D02*
X149518300Y-59944000D01*
X149980200Y-60893600D02*
X149518300Y-60431700D01*
X150548500Y-60893600D02*
X149980200Y-60893600D01*
X152656000Y-63001100D02*
X150548500Y-60893600D01*
X152656000Y-65279000D02*
X152656000Y-63001100D01*
X148868000Y-59944000D02*
X149518300Y-59944000D01*
X148868000Y-55283700D02*
X148868000Y-55230300D01*
X148868000Y-55230300D02*
X148844000Y-55206300D01*
X148868000Y-55230300D02*
X150843300Y-55230300D01*
X152656000Y-53417600D02*
X152656000Y-49089000D01*
X150843300Y-55230300D02*
X152656000Y-53417600D01*
X149518300Y-59488800D02*
X149518300Y-59944000D01*
X149990700Y-59016400D02*
X149518300Y-59488800D01*
X150842500Y-59016400D02*
X149990700Y-59016400D01*
X151051900Y-58807000D02*
X150842500Y-59016400D01*
X151051900Y-55438900D02*
X151051900Y-58807000D01*
X150843300Y-55230300D02*
X151051900Y-55438900D01*
D26*
X139501300Y-60020500D02*
X139501300Y-60452000D01*
X140432800Y-59089000D02*
X139501300Y-60020500D01*
X143256000Y-59089000D02*
X140432800Y-59089000D01*
X138926000Y-60452000D02*
X139501300Y-60452000D01*
X146057100Y-59089000D02*
X143256000Y-59089000D01*
X146395300Y-58750800D02*
X146057100Y-59089000D01*
X146395300Y-57915400D02*
X146395300Y-58750800D01*
X146920100Y-57390600D02*
X146395300Y-57915400D01*
X149280900Y-57390600D02*
X146920100Y-57390600D01*
X149768700Y-57878400D02*
X149280900Y-57390600D01*
X149768700Y-58166000D02*
X149768700Y-57878400D01*
X150344000Y-58166000D02*
X149768700Y-58166000D01*
X138176000Y-62242000D02*
X138263300Y-62242000D01*
X140208000Y-63488000D02*
X139432700Y-63488000D01*
X139432700Y-63411400D02*
X139432700Y-63488000D01*
X138263300Y-62242000D02*
X139432700Y-63411400D01*
X138263300Y-58351200D02*
X138263300Y-62242000D01*
X137110700Y-57198600D02*
X138263300Y-58351200D01*
X135451500Y-57198600D02*
X137110700Y-57198600D01*
X133967400Y-55714500D02*
X135451500Y-57198600D01*
X133967400Y-55335300D02*
X133967400Y-55714500D01*
X140208000Y-61988000D02*
X140208000Y-61412700D01*
X140716000Y-60904700D02*
X140716000Y-60359000D01*
X140208000Y-61412700D02*
X140716000Y-60904700D01*
X145820000Y-59944000D02*
X145244700Y-59944000D01*
X144829700Y-60359000D02*
X145244700Y-59944000D01*
X140716000Y-60359000D02*
X144829700Y-60359000D01*
X139501300Y-54064300D02*
X139501300Y-53594000D01*
X140716000Y-55279000D02*
X139501300Y-54064300D01*
X138926000Y-53594000D02*
X139501300Y-53594000D01*
X144389700Y-55279000D02*
X140716000Y-55279000D01*
X145244700Y-56134000D02*
X144389700Y-55279000D01*
X145820000Y-56134000D02*
X145244700Y-56134000D01*
X150368000Y-56134000D02*
X149792700Y-56134000D01*
X143616400Y-56909400D02*
X143256000Y-56549000D01*
X149304900Y-56909400D02*
X143616400Y-56909400D01*
X149792700Y-56421600D02*
X149304900Y-56909400D01*
X149792700Y-56134000D02*
X149792700Y-56421600D01*
X139501300Y-55587700D02*
X139501300Y-55372000D01*
X140462600Y-56549000D02*
X139501300Y-55587700D01*
X143256000Y-56549000D02*
X140462600Y-56549000D01*
X138926000Y-55372000D02*
X139501300Y-55372000D01*
X145820000Y-58166000D02*
X145244700Y-58166000D01*
X144897700Y-57819000D02*
X140716000Y-57819000D01*
X145244700Y-58166000D02*
X144897700Y-57819000D01*
X140356300Y-57819000D02*
X139501300Y-58674000D01*
X140716000Y-57819000D02*
X140356300Y-57819000D01*
X138926000Y-58674000D02*
X139501300Y-58674000D01*
X137426000Y-53594000D02*
X137426000Y-52818700D01*
X135890000Y-51320000D02*
X136590300Y-51320000D01*
X136590300Y-51983000D02*
X136590300Y-51320000D01*
X137426000Y-52818700D02*
X136590300Y-51983000D01*
X130921800Y-54993900D02*
X130921800Y-56177100D01*
X134595700Y-51320000D02*
X130921800Y-54993900D01*
X135890000Y-51320000D02*
X134595700Y-51320000D01*
X143510000Y-51550000D02*
X143510000Y-52125300D01*
X143256000Y-54009000D02*
X143510000Y-53755000D01*
X143510000Y-53755000D02*
X143510000Y-52125300D01*
X150344000Y-54356000D02*
X149768700Y-54356000D01*
X144886400Y-55131400D02*
X143510000Y-53755000D01*
X146204700Y-55131400D02*
X144886400Y-55131400D01*
X146395300Y-54940800D02*
X146204700Y-55131400D01*
X146395300Y-54105400D02*
X146395300Y-54940800D01*
X146920100Y-53580600D02*
X146395300Y-54105400D01*
X149280900Y-53580600D02*
X146920100Y-53580600D01*
X149768700Y-54068400D02*
X149280900Y-53580600D01*
X149768700Y-54356000D02*
X149768700Y-54068400D01*
X141753700Y-50579700D02*
X141753700Y-50974600D01*
X141466000Y-50292000D02*
X141753700Y-50579700D01*
X141753700Y-51701300D02*
X140716000Y-52739000D01*
X141753700Y-50974600D02*
X141753700Y-51701300D01*
X145819900Y-53580700D02*
X145820000Y-53580700D01*
X145819900Y-52693900D02*
X145819900Y-53580700D01*
X144100600Y-50974600D02*
X145819900Y-52693900D01*
X141753700Y-50974600D02*
X144100600Y-50974600D01*
X145820000Y-54356000D02*
X145820000Y-53580700D01*
X135189700Y-60443600D02*
X131924700Y-57178600D01*
X135189700Y-62980000D02*
X135189700Y-60443600D01*
X135890000Y-62980000D02*
X135539900Y-62980000D01*
X135539900Y-62980000D02*
X135189700Y-62980000D01*
X135673300Y-62980000D02*
X137426000Y-61227300D01*
X135539900Y-62980000D02*
X135673300Y-62980000D01*
X137426000Y-60452000D02*
X137426000Y-61227300D01*
X136590300Y-58413600D02*
X136850700Y-58674000D01*
X136590300Y-57924000D02*
X136590300Y-58413600D01*
X137426000Y-58674000D02*
X136850700Y-58674000D01*
X135890000Y-57924000D02*
X136590300Y-57924000D01*
X135890000Y-57924000D02*
X135189700Y-57924000D01*
X133148100Y-55882400D02*
X133148100Y-54683700D01*
X135189700Y-57924000D02*
X133148100Y-55882400D01*
X140450000Y-48514000D02*
X141175300Y-48514000D01*
X143510000Y-50050000D02*
X143510000Y-49474700D01*
X143123700Y-49088400D02*
X143510000Y-49474700D01*
X141738500Y-49088400D02*
X143123700Y-49088400D01*
X141592300Y-49234600D02*
X141738500Y-49088400D01*
X141738500Y-49077200D02*
X141175300Y-48514000D01*
X141738500Y-49088400D02*
X141738500Y-49077200D01*
X138876300Y-50806400D02*
X139390700Y-50292000D01*
X138876300Y-51550000D02*
X138876300Y-50806400D01*
X138176000Y-51550000D02*
X138876300Y-51550000D01*
X139966000Y-50292000D02*
X139390700Y-50292000D01*
X136501100Y-50575400D02*
X137475700Y-51550000D01*
X134238200Y-50575400D02*
X136501100Y-50575400D01*
X131969500Y-52844100D02*
X134238200Y-50575400D01*
X138176000Y-51550000D02*
X137475700Y-51550000D01*
X134704800Y-55190800D02*
X135890000Y-56376000D01*
X134704800Y-54617200D02*
X134704800Y-55190800D01*
X136590300Y-56207700D02*
X137426000Y-55372000D01*
X136590300Y-56376000D02*
X136590300Y-56207700D01*
X135890000Y-56376000D02*
X136590300Y-56376000D01*
X127762000Y-44704000D02*
X126801700Y-44704000D01*
X126801700Y-47203600D02*
X126801700Y-44704000D01*
X127314100Y-47716000D02*
X126801700Y-47203600D01*
X127314100Y-63941200D02*
X127314100Y-47716000D01*
X126724300Y-64531000D02*
X127314100Y-63941200D01*
X126359400Y-49939400D02*
X125981600Y-49561600D01*
X126359400Y-62467900D02*
X126359400Y-49939400D01*
X125396600Y-63430700D02*
X126359400Y-62467900D01*
X120142000Y-44704000D02*
X121102300Y-44704000D01*
X122245400Y-45847100D02*
X122267100Y-45847100D01*
X121102300Y-44704000D02*
X122245400Y-45847100D01*
X123952000Y-44704000D02*
X124912300Y-44704000D01*
X124912300Y-45951100D02*
X124912300Y-44704000D01*
X126863800Y-47902600D02*
X124912300Y-45951100D01*
X126863800Y-63114300D02*
X126863800Y-47902600D01*
X125316600Y-64661500D02*
X126863800Y-63114300D01*
X125316600Y-65298400D02*
X125316600Y-64661500D01*
X128163300Y-64158500D02*
X128163300Y-59422700D01*
X125605100Y-66716700D02*
X128163300Y-64158500D01*
X122853500Y-66716700D02*
X125605100Y-66716700D01*
X119406700Y-66774300D02*
X118892700Y-66774300D01*
X124113800Y-62067200D02*
X119406700Y-66774300D01*
X128185900Y-47335900D02*
X127937700Y-47087700D01*
X128185900Y-57750200D02*
X128185900Y-47335900D01*
X128975700Y-55218900D02*
X128975700Y-46790700D01*
X125256300Y-57097800D02*
X125589400Y-57430900D01*
X125256300Y-49261200D02*
X125256300Y-57097800D01*
X126054600Y-48462900D02*
X125256300Y-49261200D01*
X122174000Y-56515000D02*
X121398700Y-56515000D01*
X123838100Y-54850900D02*
X123838100Y-54050000D01*
X122174000Y-56515000D02*
X123838100Y-54850900D01*
X121374700Y-56539000D02*
X120396000Y-56539000D01*
X121398700Y-56515000D02*
X121374700Y-56539000D01*
X119532300Y-56539000D02*
X119393300Y-56400000D01*
X120396000Y-56539000D02*
X119532300Y-56539000D01*
X118618000Y-56400000D02*
X119393300Y-56400000D01*
X118618000Y-53086000D02*
X119393300Y-53086000D01*
X120396000Y-53086000D02*
X119393300Y-53086000D01*
X122515500Y-52169200D02*
X123100600Y-52169200D01*
X122174000Y-52510700D02*
X122515500Y-52169200D01*
X122174000Y-53086000D02*
X122174000Y-52798300D01*
X122174000Y-52798300D02*
X122174000Y-52510700D01*
X121384000Y-52798300D02*
X121096300Y-53086000D01*
X122174000Y-52798300D02*
X121384000Y-52798300D01*
X120396000Y-53086000D02*
X121096300Y-53086000D01*
X118618000Y-49784000D02*
X120396000Y-49784000D01*
X122174000Y-49784000D02*
X122174000Y-49496300D01*
X121384000Y-49496300D02*
X121096300Y-49784000D01*
X122174000Y-49496300D02*
X121384000Y-49496300D01*
X120396000Y-49784000D02*
X121096300Y-49784000D01*
X123035300Y-48635000D02*
X123224400Y-48635000D01*
X122174000Y-49496300D02*
X123035300Y-48635000D01*
X141275000Y-72140700D02*
X141224000Y-72191700D01*
X141275000Y-69900800D02*
X141275000Y-72140700D01*
X141224000Y-73152000D02*
X141224000Y-72191700D01*
D27*
X123952000Y-43434000D02*
X124987300Y-43434000D01*
X122916700Y-43434000D02*
X121177300Y-43434000D01*
X123952000Y-43434000D02*
X122916700Y-43434000D01*
X120142000Y-43434000D02*
X121177300Y-43434000D01*
X126726700Y-43434000D02*
X124987300Y-43434000D01*
X127244400Y-43434000D02*
X126726700Y-43434000D01*
X127244400Y-43434000D02*
X127762000Y-43434000D01*
X133119800Y-43434000D02*
X136051800Y-46366000D01*
X127762000Y-43434000D02*
X133119800Y-43434000D01*
X136690300Y-46366000D02*
X137548100Y-47223800D01*
X136051800Y-46366000D02*
X136690300Y-46366000D01*
X142037300Y-45915500D02*
X142123700Y-46001900D01*
X138327900Y-45915500D02*
X142037300Y-45915500D01*
X137548100Y-46695300D02*
X138327900Y-45915500D01*
X137548100Y-47223800D02*
X137548100Y-46695300D01*
D28*
G36*
X124496300Y-57097800D02*
X124554152Y-57388639D01*
X124554436Y-57389064D01*
X124554221Y-57635871D01*
X124711458Y-58016415D01*
X125002354Y-58307819D01*
X125382623Y-58465720D01*
X125599400Y-58465909D01*
X125599400Y-58542132D01*
X125357629Y-58541921D01*
X124977085Y-58699158D01*
X124685681Y-58990054D01*
X124527780Y-59370323D01*
X124527709Y-59451500D01*
X122338961Y-59451500D01*
X122222246Y-59334581D01*
X121841977Y-59176680D01*
X121430229Y-59176321D01*
X121049685Y-59333558D01*
X120931537Y-59451500D01*
X118036100Y-59451500D01*
X117745261Y-59509352D01*
X117498699Y-59674099D01*
X114809799Y-62362999D01*
X114645052Y-62609561D01*
X114587200Y-62900400D01*
X114587200Y-63225739D01*
X114470281Y-63342454D01*
X114312380Y-63722723D01*
X114312021Y-64134471D01*
X114469258Y-64515015D01*
X114760154Y-64806419D01*
X115140423Y-64964320D01*
X115552171Y-64964679D01*
X115821527Y-64853384D01*
X115821521Y-64859771D01*
X115978758Y-65240315D01*
X116269654Y-65531719D01*
X116649923Y-65689620D01*
X117061671Y-65689979D01*
X117442215Y-65532742D01*
X117560363Y-65414800D01*
X119691398Y-65414800D01*
X119288309Y-65817889D01*
X119099477Y-65739480D01*
X118687729Y-65739121D01*
X118307185Y-65896358D01*
X118015781Y-66187254D01*
X117857880Y-66567523D01*
X117857521Y-66979271D01*
X118014758Y-67359815D01*
X118305654Y-67651219D01*
X118685923Y-67809120D01*
X119097671Y-67809479D01*
X119478215Y-67652242D01*
X119643560Y-67487185D01*
X119697539Y-67476448D01*
X119944101Y-67311701D01*
X124153567Y-63102235D01*
X124318771Y-63102379D01*
X124431609Y-63055755D01*
X124361780Y-63223923D01*
X124361421Y-63635671D01*
X124518658Y-64016215D01*
X124717914Y-64215819D01*
X124614452Y-64370661D01*
X124573195Y-64578073D01*
X124439681Y-64711354D01*
X124281780Y-65091623D01*
X124281421Y-65503371D01*
X124438658Y-65883915D01*
X124511316Y-65956700D01*
X123557261Y-65956700D01*
X123440546Y-65839781D01*
X123060277Y-65681880D01*
X122648529Y-65681521D01*
X122267985Y-65838758D01*
X121976581Y-66129654D01*
X121818680Y-66509923D01*
X121818321Y-66921671D01*
X121975558Y-67302215D01*
X122266454Y-67593619D01*
X122646723Y-67751520D01*
X123058471Y-67751879D01*
X123439015Y-67594642D01*
X123557163Y-67476700D01*
X125605100Y-67476700D01*
X125895939Y-67418848D01*
X126142501Y-67254101D01*
X128700701Y-64695901D01*
X128865448Y-64449339D01*
X128923300Y-64158500D01*
X128923300Y-62532767D01*
X129085100Y-62694850D01*
X129085100Y-68462449D01*
X128879472Y-68377065D01*
X128273188Y-68376536D01*
X127712851Y-68608062D01*
X127304664Y-69015537D01*
X126899404Y-68609569D01*
X126339472Y-68377065D01*
X125733188Y-68376536D01*
X125172851Y-68608062D01*
X124764664Y-69015537D01*
X124359404Y-68609569D01*
X123799472Y-68377065D01*
X123193188Y-68376536D01*
X122632851Y-68608062D01*
X122203769Y-69036396D01*
X121971265Y-69596328D01*
X121970736Y-70202612D01*
X122202262Y-70762949D01*
X122630596Y-71192031D01*
X123190528Y-71424535D01*
X123796812Y-71425064D01*
X124357149Y-71193538D01*
X124765336Y-70786063D01*
X125170596Y-71192031D01*
X125730528Y-71424535D01*
X126336812Y-71425064D01*
X126897149Y-71193538D01*
X127305336Y-70786063D01*
X127710596Y-71192031D01*
X128270528Y-71424535D01*
X128876812Y-71425064D01*
X129085100Y-71339001D01*
X129085100Y-81330900D01*
X129142952Y-81621739D01*
X129307699Y-81868301D01*
X136136146Y-88696748D01*
X135893188Y-88696536D01*
X135332851Y-88928062D01*
X134924664Y-89335537D01*
X134519404Y-88929569D01*
X133959472Y-88697065D01*
X133353188Y-88696536D01*
X132792851Y-88928062D01*
X132384664Y-89335537D01*
X131979404Y-88929569D01*
X131419472Y-88697065D01*
X130813188Y-88696536D01*
X130252851Y-88928062D01*
X129844664Y-89335537D01*
X129439404Y-88929569D01*
X128879472Y-88697065D01*
X128273188Y-88696536D01*
X127712851Y-88928062D01*
X127304664Y-89335537D01*
X126899404Y-88929569D01*
X126339472Y-88697065D01*
X125733188Y-88696536D01*
X125172851Y-88928062D01*
X124764664Y-89335537D01*
X124359404Y-88929569D01*
X123799472Y-88697065D01*
X123193188Y-88696536D01*
X122632851Y-88928062D01*
X122203769Y-89356396D01*
X122192595Y-89383306D01*
X122027196Y-89328209D01*
X121134605Y-90220800D01*
X121148748Y-90234943D01*
X120969143Y-90414548D01*
X120955000Y-90400405D01*
X120940858Y-90414548D01*
X120761253Y-90234943D01*
X120775395Y-90220800D01*
X119882804Y-89328209D01*
X119717862Y-89383153D01*
X119707738Y-89358651D01*
X119498058Y-89148604D01*
X120062409Y-89148604D01*
X120955000Y-90041195D01*
X121847591Y-89148604D01*
X121762533Y-88893261D01*
X121193035Y-88685284D01*
X120587300Y-88711077D01*
X120147467Y-88893261D01*
X120062409Y-89148604D01*
X119498058Y-89148604D01*
X119279404Y-88929569D01*
X118719472Y-88697065D01*
X118113188Y-88696536D01*
X117552851Y-88928062D01*
X117144664Y-89335537D01*
X116739404Y-88929569D01*
X116179472Y-88697065D01*
X115573188Y-88696536D01*
X115012851Y-88928062D01*
X114604664Y-89335537D01*
X114199404Y-88929569D01*
X113639472Y-88697065D01*
X113033188Y-88696536D01*
X112472851Y-88928062D01*
X112064666Y-89335535D01*
X112065440Y-88447779D01*
X111679563Y-87513885D01*
X110965673Y-86798748D01*
X110032454Y-86411241D01*
X109021979Y-86410360D01*
X108088085Y-86796237D01*
X107539978Y-87343388D01*
X107539978Y-72777552D01*
X108084327Y-73322852D01*
X109017546Y-73710359D01*
X109096553Y-73710428D01*
X108987680Y-73972623D01*
X108987321Y-74384371D01*
X109144558Y-74764915D01*
X109435454Y-75056319D01*
X109815723Y-75214220D01*
X110227153Y-75214579D01*
X108625859Y-76815873D01*
X108566629Y-76815821D01*
X108186085Y-76973058D01*
X107894681Y-77263954D01*
X107736780Y-77644223D01*
X107736421Y-78055971D01*
X107893658Y-78436515D01*
X108184554Y-78727919D01*
X108564823Y-78885820D01*
X108976571Y-78886179D01*
X109357115Y-78728942D01*
X109648519Y-78438046D01*
X109806420Y-78057777D01*
X109806473Y-77996995D01*
X112280700Y-75522768D01*
X112280700Y-82455932D01*
X112090259Y-82646373D01*
X112031029Y-82646321D01*
X111650485Y-82803558D01*
X111359081Y-83094454D01*
X111201180Y-83474723D01*
X111200821Y-83886471D01*
X111358058Y-84267015D01*
X111648954Y-84558419D01*
X112029223Y-84716320D01*
X112440971Y-84716679D01*
X112821515Y-84559442D01*
X113112919Y-84268546D01*
X113270820Y-83888277D01*
X113270873Y-83827495D01*
X113706134Y-83392234D01*
X113887140Y-83121340D01*
X113950700Y-82801800D01*
X113950700Y-58687935D01*
X114368296Y-58771000D01*
X116263704Y-58771000D01*
X116851123Y-58654155D01*
X117152229Y-58452963D01*
X117177266Y-58490434D01*
X117448159Y-58671439D01*
X117767700Y-58735000D01*
X117900544Y-58735000D01*
X117920235Y-58748157D01*
X118168000Y-58797440D01*
X119068000Y-58797440D01*
X119315765Y-58748157D01*
X119430095Y-58671764D01*
X119482673Y-58798698D01*
X119661301Y-58977327D01*
X119894690Y-59074000D01*
X120110250Y-59074000D01*
X120269000Y-58915250D01*
X120269000Y-58166000D01*
X120523000Y-58166000D01*
X120523000Y-58915250D01*
X120681750Y-59074000D01*
X120897310Y-59074000D01*
X121130699Y-58977327D01*
X121309327Y-58798698D01*
X121324073Y-58763099D01*
X121364301Y-58803327D01*
X121597690Y-58900000D01*
X121888250Y-58900000D01*
X122047000Y-58741250D01*
X122047000Y-58140000D01*
X122301000Y-58140000D01*
X122301000Y-58741250D01*
X122459750Y-58900000D01*
X122750310Y-58900000D01*
X122983699Y-58803327D01*
X123162327Y-58624698D01*
X123259000Y-58391309D01*
X123259000Y-58298750D01*
X123100250Y-58140000D01*
X122301000Y-58140000D01*
X122047000Y-58140000D01*
X121247750Y-58140000D01*
X121221750Y-58166000D01*
X120523000Y-58166000D01*
X120269000Y-58166000D01*
X120249000Y-58166000D01*
X120249000Y-57912000D01*
X120269000Y-57912000D01*
X120269000Y-57892000D01*
X120523000Y-57892000D01*
X120523000Y-57912000D01*
X121247250Y-57912000D01*
X121269250Y-57890000D01*
X122047000Y-57890000D01*
X122047000Y-57868000D01*
X122301000Y-57868000D01*
X122301000Y-57890000D01*
X123100250Y-57890000D01*
X123259000Y-57731250D01*
X123259000Y-57638691D01*
X123162327Y-57405302D01*
X123020680Y-57263654D01*
X123081809Y-57222809D01*
X123222157Y-57012765D01*
X123271440Y-56765000D01*
X123271440Y-56492362D01*
X124375501Y-55388301D01*
X124496300Y-55207512D01*
X124496300Y-57097800D01*
X124496300Y-57097800D01*
G37*
X124496300Y-57097800D02*
X124554152Y-57388639D01*
X124554436Y-57389064D01*
X124554221Y-57635871D01*
X124711458Y-58016415D01*
X125002354Y-58307819D01*
X125382623Y-58465720D01*
X125599400Y-58465909D01*
X125599400Y-58542132D01*
X125357629Y-58541921D01*
X124977085Y-58699158D01*
X124685681Y-58990054D01*
X124527780Y-59370323D01*
X124527709Y-59451500D01*
X122338961Y-59451500D01*
X122222246Y-59334581D01*
X121841977Y-59176680D01*
X121430229Y-59176321D01*
X121049685Y-59333558D01*
X120931537Y-59451500D01*
X118036100Y-59451500D01*
X117745261Y-59509352D01*
X117498699Y-59674099D01*
X114809799Y-62362999D01*
X114645052Y-62609561D01*
X114587200Y-62900400D01*
X114587200Y-63225739D01*
X114470281Y-63342454D01*
X114312380Y-63722723D01*
X114312021Y-64134471D01*
X114469258Y-64515015D01*
X114760154Y-64806419D01*
X115140423Y-64964320D01*
X115552171Y-64964679D01*
X115821527Y-64853384D01*
X115821521Y-64859771D01*
X115978758Y-65240315D01*
X116269654Y-65531719D01*
X116649923Y-65689620D01*
X117061671Y-65689979D01*
X117442215Y-65532742D01*
X117560363Y-65414800D01*
X119691398Y-65414800D01*
X119288309Y-65817889D01*
X119099477Y-65739480D01*
X118687729Y-65739121D01*
X118307185Y-65896358D01*
X118015781Y-66187254D01*
X117857880Y-66567523D01*
X117857521Y-66979271D01*
X118014758Y-67359815D01*
X118305654Y-67651219D01*
X118685923Y-67809120D01*
X119097671Y-67809479D01*
X119478215Y-67652242D01*
X119643560Y-67487185D01*
X119697539Y-67476448D01*
X119944101Y-67311701D01*
X124153567Y-63102235D01*
X124318771Y-63102379D01*
X124431609Y-63055755D01*
X124361780Y-63223923D01*
X124361421Y-63635671D01*
X124518658Y-64016215D01*
X124717914Y-64215819D01*
X124614452Y-64370661D01*
X124573195Y-64578073D01*
X124439681Y-64711354D01*
X124281780Y-65091623D01*
X124281421Y-65503371D01*
X124438658Y-65883915D01*
X124511316Y-65956700D01*
X123557261Y-65956700D01*
X123440546Y-65839781D01*
X123060277Y-65681880D01*
X122648529Y-65681521D01*
X122267985Y-65838758D01*
X121976581Y-66129654D01*
X121818680Y-66509923D01*
X121818321Y-66921671D01*
X121975558Y-67302215D01*
X122266454Y-67593619D01*
X122646723Y-67751520D01*
X123058471Y-67751879D01*
X123439015Y-67594642D01*
X123557163Y-67476700D01*
X125605100Y-67476700D01*
X125895939Y-67418848D01*
X126142501Y-67254101D01*
X128700701Y-64695901D01*
X128865448Y-64449339D01*
X128923300Y-64158500D01*
X128923300Y-62532767D01*
X129085100Y-62694850D01*
X129085100Y-68462449D01*
X128879472Y-68377065D01*
X128273188Y-68376536D01*
X127712851Y-68608062D01*
X127304664Y-69015537D01*
X126899404Y-68609569D01*
X126339472Y-68377065D01*
X125733188Y-68376536D01*
X125172851Y-68608062D01*
X124764664Y-69015537D01*
X124359404Y-68609569D01*
X123799472Y-68377065D01*
X123193188Y-68376536D01*
X122632851Y-68608062D01*
X122203769Y-69036396D01*
X121971265Y-69596328D01*
X121970736Y-70202612D01*
X122202262Y-70762949D01*
X122630596Y-71192031D01*
X123190528Y-71424535D01*
X123796812Y-71425064D01*
X124357149Y-71193538D01*
X124765336Y-70786063D01*
X125170596Y-71192031D01*
X125730528Y-71424535D01*
X126336812Y-71425064D01*
X126897149Y-71193538D01*
X127305336Y-70786063D01*
X127710596Y-71192031D01*
X128270528Y-71424535D01*
X128876812Y-71425064D01*
X129085100Y-71339001D01*
X129085100Y-81330900D01*
X129142952Y-81621739D01*
X129307699Y-81868301D01*
X136136146Y-88696748D01*
X135893188Y-88696536D01*
X135332851Y-88928062D01*
X134924664Y-89335537D01*
X134519404Y-88929569D01*
X133959472Y-88697065D01*
X133353188Y-88696536D01*
X132792851Y-88928062D01*
X132384664Y-89335537D01*
X131979404Y-88929569D01*
X131419472Y-88697065D01*
X130813188Y-88696536D01*
X130252851Y-88928062D01*
X129844664Y-89335537D01*
X129439404Y-88929569D01*
X128879472Y-88697065D01*
X128273188Y-88696536D01*
X127712851Y-88928062D01*
X127304664Y-89335537D01*
X126899404Y-88929569D01*
X126339472Y-88697065D01*
X125733188Y-88696536D01*
X125172851Y-88928062D01*
X124764664Y-89335537D01*
X124359404Y-88929569D01*
X123799472Y-88697065D01*
X123193188Y-88696536D01*
X122632851Y-88928062D01*
X122203769Y-89356396D01*
X122192595Y-89383306D01*
X122027196Y-89328209D01*
X121134605Y-90220800D01*
X121148748Y-90234943D01*
X120969143Y-90414548D01*
X120955000Y-90400405D01*
X120940858Y-90414548D01*
X120761253Y-90234943D01*
X120775395Y-90220800D01*
X119882804Y-89328209D01*
X119717862Y-89383153D01*
X119707738Y-89358651D01*
X119498058Y-89148604D01*
X120062409Y-89148604D01*
X120955000Y-90041195D01*
X121847591Y-89148604D01*
X121762533Y-88893261D01*
X121193035Y-88685284D01*
X120587300Y-88711077D01*
X120147467Y-88893261D01*
X120062409Y-89148604D01*
X119498058Y-89148604D01*
X119279404Y-88929569D01*
X118719472Y-88697065D01*
X118113188Y-88696536D01*
X117552851Y-88928062D01*
X117144664Y-89335537D01*
X116739404Y-88929569D01*
X116179472Y-88697065D01*
X115573188Y-88696536D01*
X115012851Y-88928062D01*
X114604664Y-89335537D01*
X114199404Y-88929569D01*
X113639472Y-88697065D01*
X113033188Y-88696536D01*
X112472851Y-88928062D01*
X112064666Y-89335535D01*
X112065440Y-88447779D01*
X111679563Y-87513885D01*
X110965673Y-86798748D01*
X110032454Y-86411241D01*
X109021979Y-86410360D01*
X108088085Y-86796237D01*
X107539978Y-87343388D01*
X107539978Y-72777552D01*
X108084327Y-73322852D01*
X109017546Y-73710359D01*
X109096553Y-73710428D01*
X108987680Y-73972623D01*
X108987321Y-74384371D01*
X109144558Y-74764915D01*
X109435454Y-75056319D01*
X109815723Y-75214220D01*
X110227153Y-75214579D01*
X108625859Y-76815873D01*
X108566629Y-76815821D01*
X108186085Y-76973058D01*
X107894681Y-77263954D01*
X107736780Y-77644223D01*
X107736421Y-78055971D01*
X107893658Y-78436515D01*
X108184554Y-78727919D01*
X108564823Y-78885820D01*
X108976571Y-78886179D01*
X109357115Y-78728942D01*
X109648519Y-78438046D01*
X109806420Y-78057777D01*
X109806473Y-77996995D01*
X112280700Y-75522768D01*
X112280700Y-82455932D01*
X112090259Y-82646373D01*
X112031029Y-82646321D01*
X111650485Y-82803558D01*
X111359081Y-83094454D01*
X111201180Y-83474723D01*
X111200821Y-83886471D01*
X111358058Y-84267015D01*
X111648954Y-84558419D01*
X112029223Y-84716320D01*
X112440971Y-84716679D01*
X112821515Y-84559442D01*
X113112919Y-84268546D01*
X113270820Y-83888277D01*
X113270873Y-83827495D01*
X113706134Y-83392234D01*
X113887140Y-83121340D01*
X113950700Y-82801800D01*
X113950700Y-58687935D01*
X114368296Y-58771000D01*
X116263704Y-58771000D01*
X116851123Y-58654155D01*
X117152229Y-58452963D01*
X117177266Y-58490434D01*
X117448159Y-58671439D01*
X117767700Y-58735000D01*
X117900544Y-58735000D01*
X117920235Y-58748157D01*
X118168000Y-58797440D01*
X119068000Y-58797440D01*
X119315765Y-58748157D01*
X119430095Y-58671764D01*
X119482673Y-58798698D01*
X119661301Y-58977327D01*
X119894690Y-59074000D01*
X120110250Y-59074000D01*
X120269000Y-58915250D01*
X120269000Y-58166000D01*
X120523000Y-58166000D01*
X120523000Y-58915250D01*
X120681750Y-59074000D01*
X120897310Y-59074000D01*
X121130699Y-58977327D01*
X121309327Y-58798698D01*
X121324073Y-58763099D01*
X121364301Y-58803327D01*
X121597690Y-58900000D01*
X121888250Y-58900000D01*
X122047000Y-58741250D01*
X122047000Y-58140000D01*
X122301000Y-58140000D01*
X122301000Y-58741250D01*
X122459750Y-58900000D01*
X122750310Y-58900000D01*
X122983699Y-58803327D01*
X123162327Y-58624698D01*
X123259000Y-58391309D01*
X123259000Y-58298750D01*
X123100250Y-58140000D01*
X122301000Y-58140000D01*
X122047000Y-58140000D01*
X121247750Y-58140000D01*
X121221750Y-58166000D01*
X120523000Y-58166000D01*
X120269000Y-58166000D01*
X120249000Y-58166000D01*
X120249000Y-57912000D01*
X120269000Y-57912000D01*
X120269000Y-57892000D01*
X120523000Y-57892000D01*
X120523000Y-57912000D01*
X121247250Y-57912000D01*
X121269250Y-57890000D01*
X122047000Y-57890000D01*
X122047000Y-57868000D01*
X122301000Y-57868000D01*
X122301000Y-57890000D01*
X123100250Y-57890000D01*
X123259000Y-57731250D01*
X123259000Y-57638691D01*
X123162327Y-57405302D01*
X123020680Y-57263654D01*
X123081809Y-57222809D01*
X123222157Y-57012765D01*
X123271440Y-56765000D01*
X123271440Y-56492362D01*
X124375501Y-55388301D01*
X124496300Y-55207512D01*
X124496300Y-57097800D01*
G36*
X155645501Y-41741385D02*
X156334512Y-42201769D01*
X156794893Y-42890777D01*
X156969978Y-43770989D01*
X156969978Y-70410260D01*
X156843686Y-70104609D01*
X156313979Y-69573978D01*
X155621531Y-69286448D01*
X154871759Y-69285794D01*
X154178809Y-69572114D01*
X154013300Y-69737335D01*
X154013300Y-68945202D01*
X154538601Y-68419901D01*
X154703348Y-68173340D01*
X154761200Y-67882500D01*
X154761200Y-48555600D01*
X154703348Y-48264761D01*
X154538601Y-48018199D01*
X152717301Y-46196899D01*
X152470739Y-46032152D01*
X152179900Y-45974300D01*
X143158724Y-45974300D01*
X143158879Y-45796929D01*
X143001642Y-45416385D01*
X142710746Y-45124981D01*
X142330477Y-44967080D01*
X141918729Y-44966721D01*
X141643362Y-45080500D01*
X138327900Y-45080500D01*
X138008360Y-45144060D01*
X137737466Y-45325066D01*
X137283850Y-45778682D01*
X137280734Y-45775566D01*
X137251272Y-45755880D01*
X137009841Y-45594561D01*
X136690300Y-45531000D01*
X136680692Y-45531000D01*
X136638846Y-45489081D01*
X136258577Y-45331180D01*
X136197795Y-45331127D01*
X133710234Y-42843566D01*
X133439341Y-42662561D01*
X133119800Y-42599000D01*
X128926845Y-42599000D01*
X128854809Y-42491191D01*
X128644765Y-42350843D01*
X128397000Y-42301560D01*
X127127000Y-42301560D01*
X126879235Y-42350843D01*
X126669191Y-42491191D01*
X126597155Y-42599000D01*
X125116845Y-42599000D01*
X125044809Y-42491191D01*
X124834765Y-42350843D01*
X124587000Y-42301560D01*
X123317000Y-42301560D01*
X123069235Y-42350843D01*
X122859191Y-42491191D01*
X122787155Y-42599000D01*
X121306845Y-42599000D01*
X121234809Y-42491191D01*
X121024765Y-42350843D01*
X120777000Y-42301560D01*
X119507000Y-42301560D01*
X119259235Y-42350843D01*
X119049191Y-42491191D01*
X118908843Y-42701235D01*
X118859560Y-42949000D01*
X118859560Y-43919000D01*
X118889397Y-44069000D01*
X118859560Y-44219000D01*
X118859560Y-45189000D01*
X118886936Y-45326631D01*
X118872000Y-45362690D01*
X118872000Y-45688250D01*
X119030750Y-45847000D01*
X120015000Y-45847000D01*
X120015000Y-45836440D01*
X120269000Y-45836440D01*
X120269000Y-45847000D01*
X120289000Y-45847000D01*
X120289000Y-46101000D01*
X120269000Y-46101000D01*
X120269000Y-46935250D01*
X120427750Y-47094000D01*
X120903309Y-47094000D01*
X121136698Y-46997327D01*
X121315327Y-46818699D01*
X121412000Y-46585310D01*
X121412000Y-46455497D01*
X121680054Y-46724019D01*
X122060323Y-46881920D01*
X122472071Y-46882279D01*
X122756354Y-46764816D01*
X122778673Y-46818699D01*
X122957302Y-46997327D01*
X123190691Y-47094000D01*
X123666250Y-47094000D01*
X123825000Y-46935250D01*
X123825000Y-46101000D01*
X123805000Y-46101000D01*
X123805000Y-45847000D01*
X123825000Y-45847000D01*
X123825000Y-45836440D01*
X124079000Y-45836440D01*
X124079000Y-45847000D01*
X124099000Y-45847000D01*
X124099000Y-46101000D01*
X124079000Y-46101000D01*
X124079000Y-46935250D01*
X124237750Y-47094000D01*
X124713309Y-47094000D01*
X124902169Y-47015771D01*
X125470692Y-47584294D01*
X125469085Y-47584958D01*
X125177681Y-47875854D01*
X125019780Y-48256123D01*
X125019634Y-48423064D01*
X124718899Y-48723799D01*
X124554152Y-48970361D01*
X124496300Y-49261200D01*
X124496300Y-53244359D01*
X124425146Y-53173081D01*
X124044877Y-53015180D01*
X123718418Y-53014895D01*
X123977519Y-52756246D01*
X124135420Y-52375977D01*
X124135779Y-51964229D01*
X123978542Y-51583685D01*
X123687646Y-51292281D01*
X123307377Y-51134380D01*
X123125029Y-51134221D01*
X123259000Y-51000250D01*
X123259000Y-50907691D01*
X123162327Y-50674302D01*
X123020680Y-50532654D01*
X123081809Y-50491809D01*
X123222157Y-50281765D01*
X123271440Y-50034000D01*
X123271440Y-49670041D01*
X123429371Y-49670179D01*
X123809915Y-49512942D01*
X124101319Y-49222046D01*
X124259220Y-48841777D01*
X124259579Y-48430029D01*
X124102342Y-48049485D01*
X123811446Y-47758081D01*
X123431177Y-47600180D01*
X123019429Y-47599821D01*
X122638885Y-47757058D01*
X122347481Y-48047954D01*
X122205419Y-48390079D01*
X121859198Y-48736300D01*
X121384000Y-48736300D01*
X121093160Y-48794152D01*
X121062180Y-48814852D01*
X121018765Y-48785843D01*
X120771000Y-48736560D01*
X120021000Y-48736560D01*
X119773235Y-48785843D01*
X119563191Y-48926191D01*
X119497837Y-49024000D01*
X119447700Y-49024000D01*
X119315765Y-48935843D01*
X119068000Y-48886560D01*
X118168000Y-48886560D01*
X117920235Y-48935843D01*
X117710191Y-49076191D01*
X117569843Y-49286235D01*
X117545846Y-49406877D01*
X117516451Y-49401030D01*
X117349113Y-49150591D01*
X116851123Y-48817845D01*
X116263704Y-48701000D01*
X114368296Y-48701000D01*
X113780877Y-48817845D01*
X113282887Y-49150591D01*
X112950141Y-49648581D01*
X112833296Y-50236000D01*
X112950141Y-50823419D01*
X113282887Y-51321409D01*
X113498473Y-51465459D01*
X111240066Y-53723866D01*
X111059061Y-53994759D01*
X110995500Y-54314300D01*
X110995500Y-69048627D01*
X110965673Y-69018748D01*
X110032454Y-68631241D01*
X109021979Y-68630360D01*
X108088085Y-69016237D01*
X107539978Y-69563388D01*
X107539978Y-47021750D01*
X112881000Y-47021750D01*
X112881000Y-47762309D01*
X112977673Y-47995698D01*
X113156301Y-48174327D01*
X113389690Y-48271000D01*
X115030250Y-48271000D01*
X115189000Y-48112250D01*
X115189000Y-46863000D01*
X115443000Y-46863000D01*
X115443000Y-48112250D01*
X115601750Y-48271000D01*
X117242310Y-48271000D01*
X117475699Y-48174327D01*
X117654327Y-47995698D01*
X117751000Y-47762309D01*
X117751000Y-47021750D01*
X117592250Y-46863000D01*
X115443000Y-46863000D01*
X115189000Y-46863000D01*
X113039750Y-46863000D01*
X112881000Y-47021750D01*
X107539978Y-47021750D01*
X107539978Y-45709691D01*
X112881000Y-45709691D01*
X112881000Y-46450250D01*
X113039750Y-46609000D01*
X115189000Y-46609000D01*
X115189000Y-45359750D01*
X115443000Y-45359750D01*
X115443000Y-46609000D01*
X117592250Y-46609000D01*
X117751000Y-46450250D01*
X117751000Y-46259750D01*
X118872000Y-46259750D01*
X118872000Y-46585310D01*
X118968673Y-46818699D01*
X119147302Y-46997327D01*
X119380691Y-47094000D01*
X119856250Y-47094000D01*
X120015000Y-46935250D01*
X120015000Y-46101000D01*
X119030750Y-46101000D01*
X118872000Y-46259750D01*
X117751000Y-46259750D01*
X117751000Y-45709691D01*
X117654327Y-45476302D01*
X117475699Y-45297673D01*
X117242310Y-45201000D01*
X115601750Y-45201000D01*
X115443000Y-45359750D01*
X115189000Y-45359750D01*
X115030250Y-45201000D01*
X113389690Y-45201000D01*
X113156301Y-45297673D01*
X112977673Y-45476302D01*
X112881000Y-45709691D01*
X107539978Y-45709691D01*
X107539978Y-43770989D01*
X107715063Y-42890777D01*
X108175447Y-42201766D01*
X108864455Y-41741385D01*
X109744667Y-41566300D01*
X154765289Y-41566300D01*
X155645501Y-41741385D01*
X155645501Y-41741385D01*
G37*
X155645501Y-41741385D02*
X156334512Y-42201769D01*
X156794893Y-42890777D01*
X156969978Y-43770989D01*
X156969978Y-70410260D01*
X156843686Y-70104609D01*
X156313979Y-69573978D01*
X155621531Y-69286448D01*
X154871759Y-69285794D01*
X154178809Y-69572114D01*
X154013300Y-69737335D01*
X154013300Y-68945202D01*
X154538601Y-68419901D01*
X154703348Y-68173340D01*
X154761200Y-67882500D01*
X154761200Y-48555600D01*
X154703348Y-48264761D01*
X154538601Y-48018199D01*
X152717301Y-46196899D01*
X152470739Y-46032152D01*
X152179900Y-45974300D01*
X143158724Y-45974300D01*
X143158879Y-45796929D01*
X143001642Y-45416385D01*
X142710746Y-45124981D01*
X142330477Y-44967080D01*
X141918729Y-44966721D01*
X141643362Y-45080500D01*
X138327900Y-45080500D01*
X138008360Y-45144060D01*
X137737466Y-45325066D01*
X137283850Y-45778682D01*
X137280734Y-45775566D01*
X137251272Y-45755880D01*
X137009841Y-45594561D01*
X136690300Y-45531000D01*
X136680692Y-45531000D01*
X136638846Y-45489081D01*
X136258577Y-45331180D01*
X136197795Y-45331127D01*
X133710234Y-42843566D01*
X133439341Y-42662561D01*
X133119800Y-42599000D01*
X128926845Y-42599000D01*
X128854809Y-42491191D01*
X128644765Y-42350843D01*
X128397000Y-42301560D01*
X127127000Y-42301560D01*
X126879235Y-42350843D01*
X126669191Y-42491191D01*
X126597155Y-42599000D01*
X125116845Y-42599000D01*
X125044809Y-42491191D01*
X124834765Y-42350843D01*
X124587000Y-42301560D01*
X123317000Y-42301560D01*
X123069235Y-42350843D01*
X122859191Y-42491191D01*
X122787155Y-42599000D01*
X121306845Y-42599000D01*
X121234809Y-42491191D01*
X121024765Y-42350843D01*
X120777000Y-42301560D01*
X119507000Y-42301560D01*
X119259235Y-42350843D01*
X119049191Y-42491191D01*
X118908843Y-42701235D01*
X118859560Y-42949000D01*
X118859560Y-43919000D01*
X118889397Y-44069000D01*
X118859560Y-44219000D01*
X118859560Y-45189000D01*
X118886936Y-45326631D01*
X118872000Y-45362690D01*
X118872000Y-45688250D01*
X119030750Y-45847000D01*
X120015000Y-45847000D01*
X120015000Y-45836440D01*
X120269000Y-45836440D01*
X120269000Y-45847000D01*
X120289000Y-45847000D01*
X120289000Y-46101000D01*
X120269000Y-46101000D01*
X120269000Y-46935250D01*
X120427750Y-47094000D01*
X120903309Y-47094000D01*
X121136698Y-46997327D01*
X121315327Y-46818699D01*
X121412000Y-46585310D01*
X121412000Y-46455497D01*
X121680054Y-46724019D01*
X122060323Y-46881920D01*
X122472071Y-46882279D01*
X122756354Y-46764816D01*
X122778673Y-46818699D01*
X122957302Y-46997327D01*
X123190691Y-47094000D01*
X123666250Y-47094000D01*
X123825000Y-46935250D01*
X123825000Y-46101000D01*
X123805000Y-46101000D01*
X123805000Y-45847000D01*
X123825000Y-45847000D01*
X123825000Y-45836440D01*
X124079000Y-45836440D01*
X124079000Y-45847000D01*
X124099000Y-45847000D01*
X124099000Y-46101000D01*
X124079000Y-46101000D01*
X124079000Y-46935250D01*
X124237750Y-47094000D01*
X124713309Y-47094000D01*
X124902169Y-47015771D01*
X125470692Y-47584294D01*
X125469085Y-47584958D01*
X125177681Y-47875854D01*
X125019780Y-48256123D01*
X125019634Y-48423064D01*
X124718899Y-48723799D01*
X124554152Y-48970361D01*
X124496300Y-49261200D01*
X124496300Y-53244359D01*
X124425146Y-53173081D01*
X124044877Y-53015180D01*
X123718418Y-53014895D01*
X123977519Y-52756246D01*
X124135420Y-52375977D01*
X124135779Y-51964229D01*
X123978542Y-51583685D01*
X123687646Y-51292281D01*
X123307377Y-51134380D01*
X123125029Y-51134221D01*
X123259000Y-51000250D01*
X123259000Y-50907691D01*
X123162327Y-50674302D01*
X123020680Y-50532654D01*
X123081809Y-50491809D01*
X123222157Y-50281765D01*
X123271440Y-50034000D01*
X123271440Y-49670041D01*
X123429371Y-49670179D01*
X123809915Y-49512942D01*
X124101319Y-49222046D01*
X124259220Y-48841777D01*
X124259579Y-48430029D01*
X124102342Y-48049485D01*
X123811446Y-47758081D01*
X123431177Y-47600180D01*
X123019429Y-47599821D01*
X122638885Y-47757058D01*
X122347481Y-48047954D01*
X122205419Y-48390079D01*
X121859198Y-48736300D01*
X121384000Y-48736300D01*
X121093160Y-48794152D01*
X121062180Y-48814852D01*
X121018765Y-48785843D01*
X120771000Y-48736560D01*
X120021000Y-48736560D01*
X119773235Y-48785843D01*
X119563191Y-48926191D01*
X119497837Y-49024000D01*
X119447700Y-49024000D01*
X119315765Y-48935843D01*
X119068000Y-48886560D01*
X118168000Y-48886560D01*
X117920235Y-48935843D01*
X117710191Y-49076191D01*
X117569843Y-49286235D01*
X117545846Y-49406877D01*
X117516451Y-49401030D01*
X117349113Y-49150591D01*
X116851123Y-48817845D01*
X116263704Y-48701000D01*
X114368296Y-48701000D01*
X113780877Y-48817845D01*
X113282887Y-49150591D01*
X112950141Y-49648581D01*
X112833296Y-50236000D01*
X112950141Y-50823419D01*
X113282887Y-51321409D01*
X113498473Y-51465459D01*
X111240066Y-53723866D01*
X111059061Y-53994759D01*
X110995500Y-54314300D01*
X110995500Y-69048627D01*
X110965673Y-69018748D01*
X110032454Y-68631241D01*
X109021979Y-68630360D01*
X108088085Y-69016237D01*
X107539978Y-69563388D01*
X107539978Y-47021750D01*
X112881000Y-47021750D01*
X112881000Y-47762309D01*
X112977673Y-47995698D01*
X113156301Y-48174327D01*
X113389690Y-48271000D01*
X115030250Y-48271000D01*
X115189000Y-48112250D01*
X115189000Y-46863000D01*
X115443000Y-46863000D01*
X115443000Y-48112250D01*
X115601750Y-48271000D01*
X117242310Y-48271000D01*
X117475699Y-48174327D01*
X117654327Y-47995698D01*
X117751000Y-47762309D01*
X117751000Y-47021750D01*
X117592250Y-46863000D01*
X115443000Y-46863000D01*
X115189000Y-46863000D01*
X113039750Y-46863000D01*
X112881000Y-47021750D01*
X107539978Y-47021750D01*
X107539978Y-45709691D01*
X112881000Y-45709691D01*
X112881000Y-46450250D01*
X113039750Y-46609000D01*
X115189000Y-46609000D01*
X115189000Y-45359750D01*
X115443000Y-45359750D01*
X115443000Y-46609000D01*
X117592250Y-46609000D01*
X117751000Y-46450250D01*
X117751000Y-46259750D01*
X118872000Y-46259750D01*
X118872000Y-46585310D01*
X118968673Y-46818699D01*
X119147302Y-46997327D01*
X119380691Y-47094000D01*
X119856250Y-47094000D01*
X120015000Y-46935250D01*
X120015000Y-46101000D01*
X119030750Y-46101000D01*
X118872000Y-46259750D01*
X117751000Y-46259750D01*
X117751000Y-45709691D01*
X117654327Y-45476302D01*
X117475699Y-45297673D01*
X117242310Y-45201000D01*
X115601750Y-45201000D01*
X115443000Y-45359750D01*
X115189000Y-45359750D01*
X115030250Y-45201000D01*
X113389690Y-45201000D01*
X113156301Y-45297673D01*
X112977673Y-45476302D01*
X112881000Y-45709691D01*
X107539978Y-45709691D01*
X107539978Y-43770989D01*
X107715063Y-42890777D01*
X108175447Y-42201766D01*
X108864455Y-41741385D01*
X109744667Y-41566300D01*
X154765289Y-41566300D01*
X155645501Y-41741385D01*
G36*
X147519298Y-64510657D02*
X148210703Y-65203270D01*
X149114529Y-65578572D01*
X150093177Y-65579426D01*
X150997657Y-65205702D01*
X151016473Y-65186918D01*
X151034144Y-65664460D01*
X151236613Y-66153264D01*
X151503468Y-66251927D01*
X152476395Y-65279000D01*
X152462253Y-65264858D01*
X152641858Y-65085253D01*
X152656000Y-65099395D01*
X152670143Y-65085253D01*
X152849748Y-65264858D01*
X152835605Y-65279000D01*
X152849748Y-65293143D01*
X152670143Y-65472748D01*
X152656000Y-65458605D01*
X151683073Y-66431532D01*
X151781736Y-66698387D01*
X152391461Y-66924908D01*
X153041460Y-66900856D01*
X153241200Y-66818121D01*
X153241200Y-67567698D01*
X152715899Y-68092999D01*
X152551152Y-68339561D01*
X152493300Y-68630400D01*
X152493300Y-68803804D01*
X152299404Y-68609569D01*
X151739472Y-68377065D01*
X151133188Y-68376536D01*
X150572851Y-68608062D01*
X150164664Y-69015537D01*
X149759404Y-68609569D01*
X149199472Y-68377065D01*
X148593188Y-68376536D01*
X148032851Y-68608062D01*
X147624664Y-69015537D01*
X147219404Y-68609569D01*
X146659472Y-68377065D01*
X146053188Y-68376536D01*
X145492851Y-68608062D01*
X145084664Y-69015537D01*
X144679404Y-68609569D01*
X144119472Y-68377065D01*
X143513188Y-68376536D01*
X142952851Y-68608062D01*
X142544664Y-69015537D01*
X142139404Y-68609569D01*
X141579472Y-68377065D01*
X140973188Y-68376536D01*
X140714000Y-68483630D01*
X140714000Y-68125900D01*
X142499500Y-68125900D01*
X142790339Y-68068048D01*
X143036901Y-67903301D01*
X147200674Y-63739528D01*
X147519298Y-64510657D01*
X147519298Y-64510657D01*
G37*
X147519298Y-64510657D02*
X148210703Y-65203270D01*
X149114529Y-65578572D01*
X150093177Y-65579426D01*
X150997657Y-65205702D01*
X151016473Y-65186918D01*
X151034144Y-65664460D01*
X151236613Y-66153264D01*
X151503468Y-66251927D01*
X152476395Y-65279000D01*
X152462253Y-65264858D01*
X152641858Y-65085253D01*
X152656000Y-65099395D01*
X152670143Y-65085253D01*
X152849748Y-65264858D01*
X152835605Y-65279000D01*
X152849748Y-65293143D01*
X152670143Y-65472748D01*
X152656000Y-65458605D01*
X151683073Y-66431532D01*
X151781736Y-66698387D01*
X152391461Y-66924908D01*
X153041460Y-66900856D01*
X153241200Y-66818121D01*
X153241200Y-67567698D01*
X152715899Y-68092999D01*
X152551152Y-68339561D01*
X152493300Y-68630400D01*
X152493300Y-68803804D01*
X152299404Y-68609569D01*
X151739472Y-68377065D01*
X151133188Y-68376536D01*
X150572851Y-68608062D01*
X150164664Y-69015537D01*
X149759404Y-68609569D01*
X149199472Y-68377065D01*
X148593188Y-68376536D01*
X148032851Y-68608062D01*
X147624664Y-69015537D01*
X147219404Y-68609569D01*
X146659472Y-68377065D01*
X146053188Y-68376536D01*
X145492851Y-68608062D01*
X145084664Y-69015537D01*
X144679404Y-68609569D01*
X144119472Y-68377065D01*
X143513188Y-68376536D01*
X142952851Y-68608062D01*
X142544664Y-69015537D01*
X142139404Y-68609569D01*
X141579472Y-68377065D01*
X140973188Y-68376536D01*
X140714000Y-68483630D01*
X140714000Y-68125900D01*
X142499500Y-68125900D01*
X142790339Y-68068048D01*
X143036901Y-67903301D01*
X147200674Y-63739528D01*
X147519298Y-64510657D01*
G36*
X131046758Y-57764115D02*
X131337654Y-58055519D01*
X131717923Y-58213420D01*
X131884864Y-58213566D01*
X134429700Y-60758402D01*
X134429700Y-62980000D01*
X134487552Y-63270839D01*
X134652299Y-63517401D01*
X134898861Y-63682148D01*
X134961507Y-63694609D01*
X135057191Y-63837809D01*
X135267235Y-63978157D01*
X135515000Y-64027440D01*
X136265000Y-64027440D01*
X136512765Y-63978157D01*
X136722809Y-63837809D01*
X136863157Y-63627765D01*
X136912440Y-63380000D01*
X136912440Y-62815662D01*
X137153560Y-62574542D01*
X137153560Y-62642000D01*
X137202843Y-62889765D01*
X137263873Y-62981102D01*
X137262673Y-62982302D01*
X137166000Y-63215691D01*
X137166000Y-63456250D01*
X137324750Y-63615000D01*
X138049000Y-63615000D01*
X138049000Y-63595000D01*
X138303000Y-63595000D01*
X138303000Y-63615000D01*
X138323000Y-63615000D01*
X138323000Y-63869000D01*
X138303000Y-63869000D01*
X138303000Y-63889000D01*
X138049000Y-63889000D01*
X138049000Y-63869000D01*
X137324750Y-63869000D01*
X137166000Y-64027750D01*
X137166000Y-64268309D01*
X137262673Y-64501698D01*
X137441301Y-64680327D01*
X137674690Y-64777000D01*
X137890250Y-64777000D01*
X137932282Y-64734968D01*
X137915000Y-64776690D01*
X137915000Y-64992250D01*
X138073750Y-65151000D01*
X138823000Y-65151000D01*
X138823000Y-65131000D01*
X139077000Y-65131000D01*
X139077000Y-65151000D01*
X139097000Y-65151000D01*
X139097000Y-65405000D01*
X139077000Y-65405000D01*
X139077000Y-66129250D01*
X139235750Y-66288000D01*
X139476309Y-66288000D01*
X139709698Y-66191327D01*
X139710898Y-66190127D01*
X139802235Y-66251157D01*
X140050000Y-66300440D01*
X140850000Y-66300440D01*
X141097765Y-66251157D01*
X141307809Y-66110809D01*
X141448157Y-65900765D01*
X141497440Y-65653000D01*
X141497440Y-64903000D01*
X141481252Y-64821614D01*
X141544191Y-64915809D01*
X141754235Y-65056157D01*
X142002000Y-65105440D01*
X142502000Y-65105440D01*
X142749765Y-65056157D01*
X142959809Y-64915809D01*
X143002000Y-64852666D01*
X143044191Y-64915809D01*
X143254235Y-65056157D01*
X143502000Y-65105440D01*
X143685158Y-65105440D01*
X142184698Y-66605900D01*
X135508202Y-66605900D01*
X134873635Y-65971333D01*
X134873779Y-65806129D01*
X134773631Y-65563750D01*
X137915000Y-65563750D01*
X137915000Y-65779310D01*
X138011673Y-66012699D01*
X138190302Y-66191327D01*
X138423691Y-66288000D01*
X138664250Y-66288000D01*
X138823000Y-66129250D01*
X138823000Y-65405000D01*
X138073750Y-65405000D01*
X137915000Y-65563750D01*
X134773631Y-65563750D01*
X134716542Y-65425585D01*
X134425646Y-65134181D01*
X134045377Y-64976280D01*
X133719600Y-64975996D01*
X133719600Y-64767061D01*
X133836519Y-64650346D01*
X133994420Y-64270077D01*
X133994779Y-63858329D01*
X133837542Y-63477785D01*
X133719600Y-63359637D01*
X133719600Y-61281300D01*
X133675809Y-61061148D01*
X133661748Y-60990460D01*
X133497001Y-60743899D01*
X130948500Y-58195398D01*
X130948500Y-57526312D01*
X131046758Y-57764115D01*
X131046758Y-57764115D01*
G37*
X131046758Y-57764115D02*
X131337654Y-58055519D01*
X131717923Y-58213420D01*
X131884864Y-58213566D01*
X134429700Y-60758402D01*
X134429700Y-62980000D01*
X134487552Y-63270839D01*
X134652299Y-63517401D01*
X134898861Y-63682148D01*
X134961507Y-63694609D01*
X135057191Y-63837809D01*
X135267235Y-63978157D01*
X135515000Y-64027440D01*
X136265000Y-64027440D01*
X136512765Y-63978157D01*
X136722809Y-63837809D01*
X136863157Y-63627765D01*
X136912440Y-63380000D01*
X136912440Y-62815662D01*
X137153560Y-62574542D01*
X137153560Y-62642000D01*
X137202843Y-62889765D01*
X137263873Y-62981102D01*
X137262673Y-62982302D01*
X137166000Y-63215691D01*
X137166000Y-63456250D01*
X137324750Y-63615000D01*
X138049000Y-63615000D01*
X138049000Y-63595000D01*
X138303000Y-63595000D01*
X138303000Y-63615000D01*
X138323000Y-63615000D01*
X138323000Y-63869000D01*
X138303000Y-63869000D01*
X138303000Y-63889000D01*
X138049000Y-63889000D01*
X138049000Y-63869000D01*
X137324750Y-63869000D01*
X137166000Y-64027750D01*
X137166000Y-64268309D01*
X137262673Y-64501698D01*
X137441301Y-64680327D01*
X137674690Y-64777000D01*
X137890250Y-64777000D01*
X137932282Y-64734968D01*
X137915000Y-64776690D01*
X137915000Y-64992250D01*
X138073750Y-65151000D01*
X138823000Y-65151000D01*
X138823000Y-65131000D01*
X139077000Y-65131000D01*
X139077000Y-65151000D01*
X139097000Y-65151000D01*
X139097000Y-65405000D01*
X139077000Y-65405000D01*
X139077000Y-66129250D01*
X139235750Y-66288000D01*
X139476309Y-66288000D01*
X139709698Y-66191327D01*
X139710898Y-66190127D01*
X139802235Y-66251157D01*
X140050000Y-66300440D01*
X140850000Y-66300440D01*
X141097765Y-66251157D01*
X141307809Y-66110809D01*
X141448157Y-65900765D01*
X141497440Y-65653000D01*
X141497440Y-64903000D01*
X141481252Y-64821614D01*
X141544191Y-64915809D01*
X141754235Y-65056157D01*
X142002000Y-65105440D01*
X142502000Y-65105440D01*
X142749765Y-65056157D01*
X142959809Y-64915809D01*
X143002000Y-64852666D01*
X143044191Y-64915809D01*
X143254235Y-65056157D01*
X143502000Y-65105440D01*
X143685158Y-65105440D01*
X142184698Y-66605900D01*
X135508202Y-66605900D01*
X134873635Y-65971333D01*
X134873779Y-65806129D01*
X134773631Y-65563750D01*
X137915000Y-65563750D01*
X137915000Y-65779310D01*
X138011673Y-66012699D01*
X138190302Y-66191327D01*
X138423691Y-66288000D01*
X138664250Y-66288000D01*
X138823000Y-66129250D01*
X138823000Y-65405000D01*
X138073750Y-65405000D01*
X137915000Y-65563750D01*
X134773631Y-65563750D01*
X134716542Y-65425585D01*
X134425646Y-65134181D01*
X134045377Y-64976280D01*
X133719600Y-64975996D01*
X133719600Y-64767061D01*
X133836519Y-64650346D01*
X133994420Y-64270077D01*
X133994779Y-63858329D01*
X133837542Y-63477785D01*
X133719600Y-63359637D01*
X133719600Y-61281300D01*
X133675809Y-61061148D01*
X133661748Y-60990460D01*
X133497001Y-60743899D01*
X130948500Y-58195398D01*
X130948500Y-57526312D01*
X131046758Y-57764115D01*
G36*
X148991000Y-58175502D02*
X148991000Y-58293000D01*
X148969000Y-58293000D01*
X148969000Y-59092250D01*
X148993000Y-59116250D01*
X148993000Y-59817000D01*
X149015000Y-59817000D01*
X149015000Y-60071000D01*
X148993000Y-60071000D01*
X148993000Y-60091000D01*
X148743000Y-60091000D01*
X148743000Y-60071000D01*
X148141750Y-60071000D01*
X148094000Y-60118750D01*
X148046250Y-60071000D01*
X147445000Y-60071000D01*
X147445000Y-60870250D01*
X147603750Y-61029000D01*
X147696309Y-61029000D01*
X147929698Y-60932327D01*
X148094000Y-60768026D01*
X148258302Y-60932327D01*
X148357174Y-60973281D01*
X148214343Y-61032298D01*
X147590150Y-61655403D01*
X147282077Y-61527480D01*
X146870329Y-61527121D01*
X146489785Y-61684358D01*
X146198381Y-61975254D01*
X146040480Y-62355523D01*
X146040136Y-62750462D01*
X144649440Y-64141158D01*
X144649440Y-63558000D01*
X144600157Y-63310235D01*
X144505769Y-63168974D01*
X144454148Y-62909461D01*
X144423569Y-62863697D01*
X144463809Y-62836809D01*
X144604157Y-62626765D01*
X144653440Y-62379000D01*
X144653440Y-61119000D01*
X144829700Y-61119000D01*
X145120539Y-61061148D01*
X145273014Y-60959268D01*
X145322235Y-60992157D01*
X145570000Y-61041440D01*
X146070000Y-61041440D01*
X146317765Y-60992157D01*
X146527809Y-60851809D01*
X146568654Y-60790680D01*
X146710302Y-60932327D01*
X146943691Y-61029000D01*
X147036250Y-61029000D01*
X147195000Y-60870250D01*
X147195000Y-60071000D01*
X147173000Y-60071000D01*
X147173000Y-59817000D01*
X147195000Y-59817000D01*
X147195000Y-58293000D01*
X147445000Y-58293000D01*
X147445000Y-59817000D01*
X148046250Y-59817000D01*
X148094000Y-59769250D01*
X148141750Y-59817000D01*
X148743000Y-59817000D01*
X148743000Y-59017750D01*
X148719000Y-58993750D01*
X148719000Y-58293000D01*
X148117750Y-58293000D01*
X148082000Y-58328750D01*
X148046250Y-58293000D01*
X147445000Y-58293000D01*
X147195000Y-58293000D01*
X147173000Y-58293000D01*
X147173000Y-58212502D01*
X147234902Y-58150600D01*
X148966098Y-58150600D01*
X148991000Y-58175502D01*
X148991000Y-58175502D01*
G37*
X148991000Y-58175502D02*
X148991000Y-58293000D01*
X148969000Y-58293000D01*
X148969000Y-59092250D01*
X148993000Y-59116250D01*
X148993000Y-59817000D01*
X149015000Y-59817000D01*
X149015000Y-60071000D01*
X148993000Y-60071000D01*
X148993000Y-60091000D01*
X148743000Y-60091000D01*
X148743000Y-60071000D01*
X148141750Y-60071000D01*
X148094000Y-60118750D01*
X148046250Y-60071000D01*
X147445000Y-60071000D01*
X147445000Y-60870250D01*
X147603750Y-61029000D01*
X147696309Y-61029000D01*
X147929698Y-60932327D01*
X148094000Y-60768026D01*
X148258302Y-60932327D01*
X148357174Y-60973281D01*
X148214343Y-61032298D01*
X147590150Y-61655403D01*
X147282077Y-61527480D01*
X146870329Y-61527121D01*
X146489785Y-61684358D01*
X146198381Y-61975254D01*
X146040480Y-62355523D01*
X146040136Y-62750462D01*
X144649440Y-64141158D01*
X144649440Y-63558000D01*
X144600157Y-63310235D01*
X144505769Y-63168974D01*
X144454148Y-62909461D01*
X144423569Y-62863697D01*
X144463809Y-62836809D01*
X144604157Y-62626765D01*
X144653440Y-62379000D01*
X144653440Y-61119000D01*
X144829700Y-61119000D01*
X145120539Y-61061148D01*
X145273014Y-60959268D01*
X145322235Y-60992157D01*
X145570000Y-61041440D01*
X146070000Y-61041440D01*
X146317765Y-60992157D01*
X146527809Y-60851809D01*
X146568654Y-60790680D01*
X146710302Y-60932327D01*
X146943691Y-61029000D01*
X147036250Y-61029000D01*
X147195000Y-60870250D01*
X147195000Y-60071000D01*
X147173000Y-60071000D01*
X147173000Y-59817000D01*
X147195000Y-59817000D01*
X147195000Y-58293000D01*
X147445000Y-58293000D01*
X147445000Y-59817000D01*
X148046250Y-59817000D01*
X148094000Y-59769250D01*
X148141750Y-59817000D01*
X148743000Y-59817000D01*
X148743000Y-59017750D01*
X148719000Y-58993750D01*
X148719000Y-58293000D01*
X148117750Y-58293000D01*
X148082000Y-58328750D01*
X148046250Y-58293000D01*
X147445000Y-58293000D01*
X147195000Y-58293000D01*
X147173000Y-58293000D01*
X147173000Y-58212502D01*
X147234902Y-58150600D01*
X148966098Y-58150600D01*
X148991000Y-58175502D01*
G36*
X152391461Y-50734908D02*
X153041460Y-50710856D01*
X153241200Y-50628121D01*
X153241200Y-63752222D01*
X152920539Y-63633092D01*
X152270540Y-63657144D01*
X151999589Y-63769375D01*
X152065572Y-63610471D01*
X152066426Y-62631823D01*
X151692702Y-61727343D01*
X151001297Y-61034730D01*
X150878415Y-60983705D01*
X151014332Y-60892887D01*
X151035123Y-60901520D01*
X151446871Y-60901879D01*
X151827415Y-60744642D01*
X152118819Y-60453746D01*
X152276720Y-60073477D01*
X152277079Y-59661729D01*
X152119842Y-59281185D01*
X151828946Y-58989781D01*
X151448677Y-58831880D01*
X151198543Y-58831662D01*
X151241440Y-58616000D01*
X151241440Y-57716000D01*
X151192157Y-57468235D01*
X151051809Y-57258191D01*
X150901891Y-57158018D01*
X151075809Y-57041809D01*
X151216157Y-56831765D01*
X151265440Y-56584000D01*
X151265440Y-55684000D01*
X151216157Y-55436235D01*
X151076377Y-55227041D01*
X151192157Y-55053765D01*
X151241440Y-54806000D01*
X151241440Y-53906000D01*
X151192157Y-53658235D01*
X151051809Y-53448191D01*
X150927094Y-53364858D01*
X150997657Y-53335702D01*
X151690270Y-52644297D01*
X152065572Y-51740471D01*
X152066426Y-50761823D01*
X151994345Y-50587374D01*
X152391461Y-50734908D01*
X152391461Y-50734908D01*
G37*
X152391461Y-50734908D02*
X153041460Y-50710856D01*
X153241200Y-50628121D01*
X153241200Y-63752222D01*
X152920539Y-63633092D01*
X152270540Y-63657144D01*
X151999589Y-63769375D01*
X152065572Y-63610471D01*
X152066426Y-62631823D01*
X151692702Y-61727343D01*
X151001297Y-61034730D01*
X150878415Y-60983705D01*
X151014332Y-60892887D01*
X151035123Y-60901520D01*
X151446871Y-60901879D01*
X151827415Y-60744642D01*
X152118819Y-60453746D01*
X152276720Y-60073477D01*
X152277079Y-59661729D01*
X152119842Y-59281185D01*
X151828946Y-58989781D01*
X151448677Y-58831880D01*
X151198543Y-58831662D01*
X151241440Y-58616000D01*
X151241440Y-57716000D01*
X151192157Y-57468235D01*
X151051809Y-57258191D01*
X150901891Y-57158018D01*
X151075809Y-57041809D01*
X151216157Y-56831765D01*
X151265440Y-56584000D01*
X151265440Y-55684000D01*
X151216157Y-55436235D01*
X151076377Y-55227041D01*
X151192157Y-55053765D01*
X151241440Y-54806000D01*
X151241440Y-53906000D01*
X151192157Y-53658235D01*
X151051809Y-53448191D01*
X150927094Y-53364858D01*
X150997657Y-53335702D01*
X151690270Y-52644297D01*
X152065572Y-51740471D01*
X152066426Y-50761823D01*
X151994345Y-50587374D01*
X152391461Y-50734908D01*
G36*
X136017000Y-59297000D02*
X136037000Y-59297000D01*
X136037000Y-59551000D01*
X136017000Y-59551000D01*
X136017000Y-59571000D01*
X135763000Y-59571000D01*
X135763000Y-59551000D01*
X135743000Y-59551000D01*
X135743000Y-59297000D01*
X135763000Y-59297000D01*
X135763000Y-59277000D01*
X136017000Y-59277000D01*
X136017000Y-59297000D01*
X136017000Y-59297000D01*
G37*
X136017000Y-59297000D02*
X136037000Y-59297000D01*
X136037000Y-59551000D01*
X136017000Y-59551000D01*
X136017000Y-59571000D01*
X135763000Y-59571000D01*
X135763000Y-59551000D01*
X135743000Y-59551000D01*
X135743000Y-59297000D01*
X135763000Y-59297000D01*
X135763000Y-59277000D01*
X136017000Y-59277000D01*
X136017000Y-59297000D01*
G36*
X132112921Y-54888671D02*
X132270158Y-55269215D01*
X132388100Y-55387363D01*
X132388100Y-55882400D01*
X132445952Y-56173239D01*
X132572316Y-56362357D01*
X132511746Y-56301681D01*
X132131477Y-56143780D01*
X131956829Y-56143628D01*
X131956979Y-55972129D01*
X131799742Y-55591585D01*
X131681800Y-55473437D01*
X131681800Y-55308702D01*
X132112931Y-54877571D01*
X132112921Y-54888671D01*
X132112921Y-54888671D01*
G37*
X132112921Y-54888671D02*
X132270158Y-55269215D01*
X132388100Y-55387363D01*
X132388100Y-55882400D01*
X132445952Y-56173239D01*
X132572316Y-56362357D01*
X132511746Y-56301681D01*
X132131477Y-56143780D01*
X131956829Y-56143628D01*
X131956979Y-55972129D01*
X131799742Y-55591585D01*
X131681800Y-55473437D01*
X131681800Y-55308702D01*
X132112931Y-54877571D01*
X132112921Y-54888671D01*
G36*
X148991000Y-54365502D02*
X148991000Y-54483000D01*
X148969000Y-54483000D01*
X148969000Y-55282250D01*
X148993000Y-55306250D01*
X148993000Y-56007000D01*
X149015000Y-56007000D01*
X149015000Y-56124498D01*
X148990098Y-56149400D01*
X147173000Y-56149400D01*
X147173000Y-56007000D01*
X147195000Y-56007000D01*
X147195000Y-54483000D01*
X147445000Y-54483000D01*
X147445000Y-56007000D01*
X148046250Y-56007000D01*
X148094000Y-55959250D01*
X148141750Y-56007000D01*
X148743000Y-56007000D01*
X148743000Y-55207750D01*
X148719000Y-55183750D01*
X148719000Y-54483000D01*
X148117750Y-54483000D01*
X148082000Y-54518750D01*
X148046250Y-54483000D01*
X147445000Y-54483000D01*
X147195000Y-54483000D01*
X147173000Y-54483000D01*
X147173000Y-54402502D01*
X147234902Y-54340600D01*
X148966098Y-54340600D01*
X148991000Y-54365502D01*
X148991000Y-54365502D01*
G37*
X148991000Y-54365502D02*
X148991000Y-54483000D01*
X148969000Y-54483000D01*
X148969000Y-55282250D01*
X148993000Y-55306250D01*
X148993000Y-56007000D01*
X149015000Y-56007000D01*
X149015000Y-56124498D01*
X148990098Y-56149400D01*
X147173000Y-56149400D01*
X147173000Y-56007000D01*
X147195000Y-56007000D01*
X147195000Y-54483000D01*
X147445000Y-54483000D01*
X147445000Y-56007000D01*
X148046250Y-56007000D01*
X148094000Y-55959250D01*
X148141750Y-56007000D01*
X148743000Y-56007000D01*
X148743000Y-55207750D01*
X148719000Y-55183750D01*
X148719000Y-54483000D01*
X148117750Y-54483000D01*
X148082000Y-54518750D01*
X148046250Y-54483000D01*
X147445000Y-54483000D01*
X147195000Y-54483000D01*
X147173000Y-54483000D01*
X147173000Y-54402502D01*
X147234902Y-54340600D01*
X148966098Y-54340600D01*
X148991000Y-54365502D01*
G36*
X134880000Y-52293691D02*
X134880000Y-52534250D01*
X135038750Y-52693000D01*
X135763000Y-52693000D01*
X135763000Y-52673000D01*
X136017000Y-52673000D01*
X136017000Y-52693000D01*
X136037000Y-52693000D01*
X136037000Y-52947000D01*
X136017000Y-52947000D01*
X136017000Y-53696250D01*
X136168750Y-53848000D01*
X136017000Y-53999750D01*
X136017000Y-54749000D01*
X136037000Y-54749000D01*
X136037000Y-55003000D01*
X136017000Y-55003000D01*
X136017000Y-55023000D01*
X135763000Y-55023000D01*
X135763000Y-55003000D01*
X135743000Y-55003000D01*
X135743000Y-54749000D01*
X135763000Y-54749000D01*
X135763000Y-53999750D01*
X135611250Y-53848000D01*
X135763000Y-53696250D01*
X135763000Y-52947000D01*
X135038750Y-52947000D01*
X134880000Y-53105750D01*
X134880000Y-53346309D01*
X134976673Y-53579698D01*
X135027483Y-53630508D01*
X134911577Y-53582380D01*
X134499829Y-53582021D01*
X134119285Y-53739258D01*
X133893119Y-53965030D01*
X133735146Y-53806781D01*
X133354877Y-53648880D01*
X133341634Y-53648868D01*
X134910502Y-52080000D01*
X134968514Y-52080000D01*
X134880000Y-52293691D01*
X134880000Y-52293691D01*
G37*
X134880000Y-52293691D02*
X134880000Y-52534250D01*
X135038750Y-52693000D01*
X135763000Y-52693000D01*
X135763000Y-52673000D01*
X136017000Y-52673000D01*
X136017000Y-52693000D01*
X136037000Y-52693000D01*
X136037000Y-52947000D01*
X136017000Y-52947000D01*
X136017000Y-53696250D01*
X136168750Y-53848000D01*
X136017000Y-53999750D01*
X136017000Y-54749000D01*
X136037000Y-54749000D01*
X136037000Y-55003000D01*
X136017000Y-55003000D01*
X136017000Y-55023000D01*
X135763000Y-55023000D01*
X135763000Y-55003000D01*
X135743000Y-55003000D01*
X135743000Y-54749000D01*
X135763000Y-54749000D01*
X135763000Y-53999750D01*
X135611250Y-53848000D01*
X135763000Y-53696250D01*
X135763000Y-52947000D01*
X135038750Y-52947000D01*
X134880000Y-53105750D01*
X134880000Y-53346309D01*
X134976673Y-53579698D01*
X135027483Y-53630508D01*
X134911577Y-53582380D01*
X134499829Y-53582021D01*
X134119285Y-53739258D01*
X133893119Y-53965030D01*
X133735146Y-53806781D01*
X133354877Y-53648880D01*
X133341634Y-53648868D01*
X134910502Y-52080000D01*
X134968514Y-52080000D01*
X134880000Y-52293691D01*
G36*
X120523000Y-54459000D02*
X121245750Y-54459000D01*
X121247750Y-54461000D01*
X122047000Y-54461000D01*
X122047000Y-54439000D01*
X122301000Y-54439000D01*
X122301000Y-54461000D01*
X122321000Y-54461000D01*
X122321000Y-54711000D01*
X122301000Y-54711000D01*
X122301000Y-54733000D01*
X122047000Y-54733000D01*
X122047000Y-54711000D01*
X121247750Y-54711000D01*
X121245750Y-54713000D01*
X120523000Y-54713000D01*
X120523000Y-54733000D01*
X120269000Y-54733000D01*
X120269000Y-54713000D01*
X120249000Y-54713000D01*
X120249000Y-54459000D01*
X120269000Y-54459000D01*
X120269000Y-54439000D01*
X120523000Y-54439000D01*
X120523000Y-54459000D01*
X120523000Y-54459000D01*
G37*
X120523000Y-54459000D02*
X121245750Y-54459000D01*
X121247750Y-54461000D01*
X122047000Y-54461000D01*
X122047000Y-54439000D01*
X122301000Y-54439000D01*
X122301000Y-54461000D01*
X122321000Y-54461000D01*
X122321000Y-54711000D01*
X122301000Y-54711000D01*
X122301000Y-54733000D01*
X122047000Y-54733000D01*
X122047000Y-54711000D01*
X121247750Y-54711000D01*
X121245750Y-54713000D01*
X120523000Y-54713000D01*
X120523000Y-54733000D01*
X120269000Y-54733000D01*
X120269000Y-54713000D01*
X120249000Y-54713000D01*
X120249000Y-54459000D01*
X120269000Y-54459000D01*
X120269000Y-54439000D01*
X120523000Y-54439000D01*
X120523000Y-54459000D01*
G36*
X151964647Y-47593849D02*
X151781736Y-47669613D01*
X151683073Y-47936468D01*
X152656000Y-48909395D01*
X152670143Y-48895253D01*
X152849748Y-49074858D01*
X152835605Y-49089000D01*
X152849748Y-49103143D01*
X152670143Y-49282748D01*
X152656000Y-49268605D01*
X152641858Y-49282748D01*
X152462253Y-49103143D01*
X152476395Y-49089000D01*
X151503468Y-48116073D01*
X151236613Y-48214736D01*
X151010092Y-48824461D01*
X151023506Y-49186978D01*
X151001297Y-49164730D01*
X150097471Y-48789428D01*
X149118823Y-48788574D01*
X148214343Y-49162298D01*
X147521730Y-49853703D01*
X147146428Y-50757529D01*
X147145574Y-51736177D01*
X147519298Y-52640657D01*
X147698927Y-52820600D01*
X146920100Y-52820600D01*
X146629260Y-52878452D01*
X146579900Y-52911433D01*
X146579900Y-52693900D01*
X146548143Y-52534250D01*
X146522048Y-52403060D01*
X146357301Y-52156499D01*
X144638001Y-50437199D01*
X144586937Y-50403079D01*
X144607440Y-50300000D01*
X144607440Y-49800000D01*
X144558157Y-49552235D01*
X144417809Y-49342191D01*
X144216945Y-49207977D01*
X144212148Y-49183861D01*
X144047401Y-48937299D01*
X143661101Y-48550999D01*
X143414539Y-48386252D01*
X143123700Y-48328400D01*
X142108829Y-48328400D01*
X142033026Y-48296924D01*
X141712701Y-47976599D01*
X141466139Y-47811852D01*
X141384228Y-47795559D01*
X141307809Y-47681191D01*
X141097765Y-47540843D01*
X140863775Y-47494300D01*
X151865098Y-47494300D01*
X151964647Y-47593849D01*
X151964647Y-47593849D01*
G37*
X151964647Y-47593849D02*
X151781736Y-47669613D01*
X151683073Y-47936468D01*
X152656000Y-48909395D01*
X152670143Y-48895253D01*
X152849748Y-49074858D01*
X152835605Y-49089000D01*
X152849748Y-49103143D01*
X152670143Y-49282748D01*
X152656000Y-49268605D01*
X152641858Y-49282748D01*
X152462253Y-49103143D01*
X152476395Y-49089000D01*
X151503468Y-48116073D01*
X151236613Y-48214736D01*
X151010092Y-48824461D01*
X151023506Y-49186978D01*
X151001297Y-49164730D01*
X150097471Y-48789428D01*
X149118823Y-48788574D01*
X148214343Y-49162298D01*
X147521730Y-49853703D01*
X147146428Y-50757529D01*
X147145574Y-51736177D01*
X147519298Y-52640657D01*
X147698927Y-52820600D01*
X146920100Y-52820600D01*
X146629260Y-52878452D01*
X146579900Y-52911433D01*
X146579900Y-52693900D01*
X146548143Y-52534250D01*
X146522048Y-52403060D01*
X146357301Y-52156499D01*
X144638001Y-50437199D01*
X144586937Y-50403079D01*
X144607440Y-50300000D01*
X144607440Y-49800000D01*
X144558157Y-49552235D01*
X144417809Y-49342191D01*
X144216945Y-49207977D01*
X144212148Y-49183861D01*
X144047401Y-48937299D01*
X143661101Y-48550999D01*
X143414539Y-48386252D01*
X143123700Y-48328400D01*
X142108829Y-48328400D01*
X142033026Y-48296924D01*
X141712701Y-47976599D01*
X141466139Y-47811852D01*
X141384228Y-47795559D01*
X141307809Y-47681191D01*
X141097765Y-47540843D01*
X140863775Y-47494300D01*
X151865098Y-47494300D01*
X151964647Y-47593849D01*
G36*
X136512973Y-47369541D02*
X136512921Y-47428771D01*
X136670158Y-47809315D01*
X136961054Y-48100719D01*
X137341323Y-48258620D01*
X137753071Y-48258979D01*
X137915000Y-48192072D01*
X137915000Y-48228250D01*
X138073750Y-48387000D01*
X138823000Y-48387000D01*
X138823000Y-48367000D01*
X139077000Y-48367000D01*
X139077000Y-48387000D01*
X139097000Y-48387000D01*
X139097000Y-48641000D01*
X139077000Y-48641000D01*
X139077000Y-48661000D01*
X138823000Y-48661000D01*
X138823000Y-48641000D01*
X138073750Y-48641000D01*
X137915000Y-48799750D01*
X137915000Y-49015310D01*
X137932282Y-49057032D01*
X137890250Y-49015000D01*
X137674690Y-49015000D01*
X137441301Y-49111673D01*
X137262673Y-49290302D01*
X137166000Y-49523691D01*
X137166000Y-49764250D01*
X137324750Y-49923000D01*
X138049000Y-49923000D01*
X138049000Y-49903000D01*
X138303000Y-49903000D01*
X138303000Y-49923000D01*
X138323000Y-49923000D01*
X138323000Y-50177000D01*
X138303000Y-50177000D01*
X138303000Y-50197000D01*
X138049000Y-50197000D01*
X138049000Y-50177000D01*
X137324750Y-50177000D01*
X137251126Y-50250624D01*
X137038501Y-50037999D01*
X136791939Y-49873252D01*
X136501100Y-49815400D01*
X134238200Y-49815400D01*
X133947360Y-49873252D01*
X133700799Y-50037999D01*
X131929733Y-51809065D01*
X131824329Y-51808973D01*
X134847167Y-48786135D01*
X135012371Y-48786279D01*
X135392915Y-48629042D01*
X135684319Y-48338146D01*
X135842220Y-47957877D01*
X135842579Y-47546129D01*
X135769598Y-47369501D01*
X135845023Y-47400820D01*
X136256771Y-47401179D01*
X136460452Y-47317020D01*
X136512973Y-47369541D01*
X136512973Y-47369541D01*
G37*
X136512973Y-47369541D02*
X136512921Y-47428771D01*
X136670158Y-47809315D01*
X136961054Y-48100719D01*
X137341323Y-48258620D01*
X137753071Y-48258979D01*
X137915000Y-48192072D01*
X137915000Y-48228250D01*
X138073750Y-48387000D01*
X138823000Y-48387000D01*
X138823000Y-48367000D01*
X139077000Y-48367000D01*
X139077000Y-48387000D01*
X139097000Y-48387000D01*
X139097000Y-48641000D01*
X139077000Y-48641000D01*
X139077000Y-48661000D01*
X138823000Y-48661000D01*
X138823000Y-48641000D01*
X138073750Y-48641000D01*
X137915000Y-48799750D01*
X137915000Y-49015310D01*
X137932282Y-49057032D01*
X137890250Y-49015000D01*
X137674690Y-49015000D01*
X137441301Y-49111673D01*
X137262673Y-49290302D01*
X137166000Y-49523691D01*
X137166000Y-49764250D01*
X137324750Y-49923000D01*
X138049000Y-49923000D01*
X138049000Y-49903000D01*
X138303000Y-49903000D01*
X138303000Y-49923000D01*
X138323000Y-49923000D01*
X138323000Y-50177000D01*
X138303000Y-50177000D01*
X138303000Y-50197000D01*
X138049000Y-50197000D01*
X138049000Y-50177000D01*
X137324750Y-50177000D01*
X137251126Y-50250624D01*
X137038501Y-50037999D01*
X136791939Y-49873252D01*
X136501100Y-49815400D01*
X134238200Y-49815400D01*
X133947360Y-49873252D01*
X133700799Y-50037999D01*
X131929733Y-51809065D01*
X131824329Y-51808973D01*
X134847167Y-48786135D01*
X135012371Y-48786279D01*
X135392915Y-48629042D01*
X135684319Y-48338146D01*
X135842220Y-47957877D01*
X135842579Y-47546129D01*
X135769598Y-47369501D01*
X135845023Y-47400820D01*
X136256771Y-47401179D01*
X136460452Y-47317020D01*
X136512973Y-47369541D01*
G36*
X120523000Y-51157000D02*
X121245750Y-51157000D01*
X121247750Y-51159000D01*
X122047000Y-51159000D01*
X122047000Y-51137000D01*
X122301000Y-51137000D01*
X122301000Y-51159000D01*
X122321000Y-51159000D01*
X122321000Y-51409000D01*
X122301000Y-51409000D01*
X122301000Y-51431000D01*
X122047000Y-51431000D01*
X122047000Y-51409000D01*
X121247750Y-51409000D01*
X121245750Y-51411000D01*
X120523000Y-51411000D01*
X120523000Y-51431000D01*
X120269000Y-51431000D01*
X120269000Y-51411000D01*
X120249000Y-51411000D01*
X120249000Y-51157000D01*
X120269000Y-51157000D01*
X120269000Y-51137000D01*
X120523000Y-51137000D01*
X120523000Y-51157000D01*
X120523000Y-51157000D01*
G37*
X120523000Y-51157000D02*
X121245750Y-51157000D01*
X121247750Y-51159000D01*
X122047000Y-51159000D01*
X122047000Y-51137000D01*
X122301000Y-51137000D01*
X122301000Y-51159000D01*
X122321000Y-51159000D01*
X122321000Y-51409000D01*
X122301000Y-51409000D01*
X122301000Y-51431000D01*
X122047000Y-51431000D01*
X122047000Y-51409000D01*
X121247750Y-51409000D01*
X121245750Y-51411000D01*
X120523000Y-51411000D01*
X120523000Y-51431000D01*
X120269000Y-51431000D01*
X120269000Y-51411000D01*
X120249000Y-51411000D01*
X120249000Y-51157000D01*
X120269000Y-51157000D01*
X120269000Y-51137000D01*
X120523000Y-51137000D01*
X120523000Y-51157000D01*
G36*
X135016673Y-46511741D02*
X135016621Y-46570971D01*
X135089602Y-46747599D01*
X135014177Y-46716280D01*
X134602429Y-46715921D01*
X134266917Y-46854551D01*
X133981346Y-46568481D01*
X133601077Y-46410580D01*
X133189329Y-46410221D01*
X132808785Y-46567458D01*
X132517381Y-46858354D01*
X132359480Y-47238623D01*
X132359334Y-47405564D01*
X129735700Y-50029198D01*
X129735700Y-47494461D01*
X129852619Y-47377746D01*
X130010520Y-46997477D01*
X130010879Y-46585729D01*
X129853642Y-46205185D01*
X129562746Y-45913781D01*
X129182477Y-45755880D01*
X128964560Y-45755690D01*
X129032000Y-45688250D01*
X129032000Y-45362690D01*
X129017064Y-45326631D01*
X129044440Y-45189000D01*
X129044440Y-44269000D01*
X132773932Y-44269000D01*
X135016673Y-46511741D01*
X135016673Y-46511741D01*
G37*
X135016673Y-46511741D02*
X135016621Y-46570971D01*
X135089602Y-46747599D01*
X135014177Y-46716280D01*
X134602429Y-46715921D01*
X134266917Y-46854551D01*
X133981346Y-46568481D01*
X133601077Y-46410580D01*
X133189329Y-46410221D01*
X132808785Y-46567458D01*
X132517381Y-46858354D01*
X132359480Y-47238623D01*
X132359334Y-47405564D01*
X129735700Y-50029198D01*
X129735700Y-47494461D01*
X129852619Y-47377746D01*
X130010520Y-46997477D01*
X130010879Y-46585729D01*
X129853642Y-46205185D01*
X129562746Y-45913781D01*
X129182477Y-45755880D01*
X128964560Y-45755690D01*
X129032000Y-45688250D01*
X129032000Y-45362690D01*
X129017064Y-45326631D01*
X129044440Y-45189000D01*
X129044440Y-44269000D01*
X132773932Y-44269000D01*
X135016673Y-46511741D01*
G36*
X127889000Y-45847000D02*
X127909000Y-45847000D01*
X127909000Y-46052675D01*
X127732729Y-46052521D01*
X127615400Y-46101000D01*
X127615000Y-46101000D01*
X127615000Y-45847000D01*
X127635000Y-45847000D01*
X127635000Y-45836440D01*
X127889000Y-45836440D01*
X127889000Y-45847000D01*
X127889000Y-45847000D01*
G37*
X127889000Y-45847000D02*
X127909000Y-45847000D01*
X127909000Y-46052675D01*
X127732729Y-46052521D01*
X127615400Y-46101000D01*
X127615000Y-46101000D01*
X127615000Y-45847000D01*
X127635000Y-45847000D01*
X127635000Y-45836440D01*
X127889000Y-45836440D01*
X127889000Y-45847000D01*
M02*
