G04 #@! TF.GenerationSoftware,KiCad,Pcbnew,(2018-02-15 revision 29b28de31)-makepkg*
G04 #@! TF.CreationDate,2018-05-29T16:30:00+09:30*
G04 #@! TF.ProjectId,ATM90E3x_fw,41544D39304533785F66772E6B696361,rev?*
G04 #@! TF.SameCoordinates,Original*
G04 #@! TF.FileFunction,Soldermask,Top*
G04 #@! TF.FilePolarity,Negative*
%FSLAX46Y46*%
G04 Gerber Fmt 4.6, Leading zero omitted, Abs format (unit mm)*
G04 Created by KiCad (PCBNEW (2018-02-15 revision 29b28de31)-makepkg) date 05/29/18 16:30:00*
%MOMM*%
%LPD*%
G01*
G04 APERTURE LIST*
%ADD10R,2.100000X2.100000*%
%ADD11C,2.100000*%
%ADD12O,4.000000X2.200000*%
%ADD13R,4.000000X2.200000*%
%ADD14R,1.600000X2.200000*%
%ADD15R,1.000000X1.950000*%
%ADD16R,1.400000X1.650000*%
%ADD17R,2.900000X2.200000*%
%ADD18R,3.399740X1.898600*%
%ADD19R,3.138120X1.408380*%
%ADD20R,2.000000X3.400000*%
%ADD21R,2.900000X4.400000*%
%ADD22R,1.200000X1.150000*%
%ADD23R,1.150000X1.200000*%
%ADD24R,1.370000X1.670000*%
%ADD25R,1.300000X0.800000*%
%ADD26R,1.300000X1.600000*%
%ADD27R,1.200000X1.200000*%
%ADD28R,1.600000X1.300000*%
%ADD29R,0.800000X1.300000*%
%ADD30C,2.178000*%
%ADD31C,4.210000*%
%ADD32C,2.899360*%
%ADD33R,1.550000X1.400000*%
%ADD34R,0.900000X1.300000*%
%ADD35R,1.300000X0.900000*%
%ADD36R,2.900000X2.900000*%
%ADD37C,0.650000*%
%ADD38C,0.100000*%
G04 APERTURE END LIST*
D10*
X144145000Y-51725000D03*
D11*
X144145000Y-54225000D03*
X144145000Y-56725000D03*
X144145000Y-59225000D03*
X146645000Y-51725000D03*
X146645000Y-54225000D03*
X146645000Y-56725000D03*
X146645000Y-59225000D03*
X153825000Y-51725000D03*
X153825000Y-59225000D03*
D12*
X115316000Y-57236000D03*
X115316000Y-53736000D03*
X115316000Y-50236000D03*
D13*
X115316000Y-46736000D03*
D14*
X108192000Y-67041000D03*
X113792000Y-67041000D03*
D15*
X109492000Y-64516000D03*
X110492000Y-64516000D03*
X111492000Y-64516000D03*
X112492000Y-64516000D03*
X122779000Y-64531000D03*
X121779000Y-64531000D03*
X120779000Y-64531000D03*
X119779000Y-64531000D03*
X118779000Y-64531000D03*
X117779000Y-64531000D03*
D14*
X124079000Y-67056000D03*
X116479000Y-67056000D03*
X142494000Y-42418000D03*
X134894000Y-42418000D03*
D15*
X141194000Y-44943000D03*
X140194000Y-44943000D03*
X139194000Y-44943000D03*
X138194000Y-44943000D03*
X137194000Y-44943000D03*
X136194000Y-44943000D03*
D14*
X131318000Y-42418000D03*
X126718000Y-42418000D03*
D15*
X130018000Y-44943000D03*
X129018000Y-44943000D03*
X128018000Y-44943000D03*
D16*
X134144000Y-62992000D03*
X136144000Y-62992000D03*
X131350000Y-51054000D03*
X133350000Y-51054000D03*
D17*
X114236000Y-84328000D03*
X110236000Y-84328000D03*
X114268000Y-80010000D03*
X110268000Y-80010000D03*
X114268000Y-75692000D03*
X110268000Y-75692000D03*
D18*
X155735020Y-85407500D03*
X155735020Y-74609960D03*
D19*
X148236940Y-83009740D03*
X148236940Y-81008220D03*
X148236940Y-79011780D03*
X148236940Y-77010260D03*
D20*
X143002000Y-77048000D03*
X143002000Y-81448000D03*
D21*
X121412000Y-83060000D03*
X121412000Y-76960000D03*
D22*
X142252000Y-85344000D03*
X143752000Y-85344000D03*
D23*
X117856000Y-71894000D03*
X117856000Y-73394000D03*
D24*
X138816000Y-87630000D03*
X137536000Y-87630000D03*
D25*
X137756000Y-49676000D03*
X137756000Y-48876000D03*
X137756000Y-50476000D03*
X137756000Y-48076000D03*
X136056000Y-50476000D03*
X136056000Y-49676000D03*
X136056000Y-48876000D03*
X136056000Y-48076000D03*
D26*
X141098000Y-72898000D03*
X144398000Y-72898000D03*
D27*
X146012000Y-87630000D03*
X147612000Y-87630000D03*
D28*
X141394000Y-87630000D03*
X143594000Y-87630000D03*
D29*
X120034000Y-60364000D03*
X119234000Y-60364000D03*
X120834000Y-60364000D03*
X118434000Y-60364000D03*
X120834000Y-62064000D03*
X120034000Y-62064000D03*
X119234000Y-62064000D03*
X118434000Y-62064000D03*
D30*
X113335000Y-90220800D03*
X115875000Y-90220800D03*
X118415000Y-90220800D03*
X120955000Y-90220800D03*
X123495000Y-90220800D03*
X126035000Y-90220800D03*
X128575000Y-90220800D03*
X131115000Y-90220800D03*
X133655000Y-90220800D03*
X136195000Y-90220800D03*
X138735000Y-90220800D03*
X141275000Y-90220800D03*
X143815000Y-90220800D03*
X146355000Y-90220800D03*
X148895000Y-90220800D03*
X151435000Y-90220800D03*
X151435000Y-69900800D03*
X148895000Y-69900800D03*
X146355000Y-69900800D03*
X143815000Y-69900800D03*
X141275000Y-69900800D03*
X138735000Y-69900800D03*
X136195000Y-69900800D03*
X133655000Y-69900800D03*
X131115000Y-69900800D03*
X128575000Y-69900800D03*
X126035000Y-69900800D03*
X123495000Y-69900800D03*
D31*
X109525000Y-71170800D03*
X109525000Y-88950800D03*
D32*
X155245000Y-71170800D03*
X155245000Y-88950800D03*
D22*
X131342000Y-49022000D03*
X132842000Y-49022000D03*
D23*
X118745000Y-44807000D03*
X118745000Y-43307000D03*
X136652000Y-60936000D03*
X136652000Y-59436000D03*
D22*
X134378000Y-65024000D03*
X135878000Y-65024000D03*
D23*
X130556000Y-65786000D03*
X130556000Y-67286000D03*
X118745000Y-51435000D03*
X118745000Y-49935000D03*
X150000000Y-45750000D03*
X150000000Y-47250000D03*
X136652000Y-56896000D03*
X136652000Y-55396000D03*
X155000000Y-45750000D03*
X155000000Y-47250000D03*
X150000000Y-63750000D03*
X150000000Y-65250000D03*
X155000000Y-63750000D03*
X155000000Y-65250000D03*
X118745000Y-48260000D03*
X118745000Y-46760000D03*
D33*
X120509000Y-53656000D03*
X118759000Y-53656000D03*
X118759000Y-55056000D03*
X120509000Y-55056000D03*
D34*
X151750000Y-63500000D03*
X153250000Y-63500000D03*
X153250000Y-65500000D03*
X151750000Y-65500000D03*
D35*
X120523000Y-43331000D03*
X120523000Y-44831000D03*
X120523000Y-46736000D03*
X120523000Y-48236000D03*
X132588000Y-67310000D03*
X132588000Y-65810000D03*
X120523000Y-50038000D03*
X120523000Y-51538000D03*
D36*
X127492000Y-84344000D03*
X137992000Y-84344000D03*
X137992000Y-73844000D03*
X127492000Y-73844000D03*
D27*
X114338000Y-60452000D03*
X112738000Y-60452000D03*
X109182000Y-60452000D03*
X110782000Y-60452000D03*
X109182000Y-62230000D03*
X110782000Y-62230000D03*
X114338000Y-62103000D03*
X112738000Y-62103000D03*
D34*
X153250000Y-45500000D03*
X151750000Y-45500000D03*
X151750000Y-47500000D03*
X153250000Y-47500000D03*
D37*
X133831458Y-57311429D03*
D38*
G36*
X134202689Y-56480579D02*
X134662308Y-56940198D01*
X133460227Y-58142279D01*
X133000608Y-57682660D01*
X134202689Y-56480579D01*
X134202689Y-56480579D01*
G37*
D37*
X133477905Y-56957876D03*
D38*
G36*
X133849136Y-56127026D02*
X134308755Y-56586645D01*
X133106674Y-57788726D01*
X132647055Y-57329107D01*
X133849136Y-56127026D01*
X133849136Y-56127026D01*
G37*
D37*
X133124351Y-56604322D03*
D38*
G36*
X133495582Y-55773472D02*
X133955201Y-56233091D01*
X132753120Y-57435172D01*
X132293501Y-56975553D01*
X133495582Y-55773472D01*
X133495582Y-55773472D01*
G37*
D37*
X132770798Y-56250769D03*
D38*
G36*
X133142029Y-55419919D02*
X133601648Y-55879538D01*
X132399567Y-57081619D01*
X131939948Y-56622000D01*
X133142029Y-55419919D01*
X133142029Y-55419919D01*
G37*
D37*
X132417245Y-55897216D03*
D38*
G36*
X132788476Y-55066366D02*
X133248095Y-55525985D01*
X132046014Y-56728066D01*
X131586395Y-56268447D01*
X132788476Y-55066366D01*
X132788476Y-55066366D01*
G37*
D37*
X132063691Y-55543662D03*
D38*
G36*
X132434922Y-54712812D02*
X132894541Y-55172431D01*
X131692460Y-56374512D01*
X131232841Y-55914893D01*
X132434922Y-54712812D01*
X132434922Y-54712812D01*
G37*
D37*
X131710138Y-55190109D03*
D38*
G36*
X132081369Y-54359259D02*
X132540988Y-54818878D01*
X131338907Y-56020959D01*
X130879288Y-55561340D01*
X132081369Y-54359259D01*
X132081369Y-54359259D01*
G37*
D37*
X131356584Y-54836555D03*
D38*
G36*
X131727815Y-54005705D02*
X132187434Y-54465324D01*
X130985353Y-55667405D01*
X130525734Y-55207786D01*
X131727815Y-54005705D01*
X131727815Y-54005705D01*
G37*
D37*
X131003031Y-54483002D03*
D38*
G36*
X131374262Y-53652152D02*
X131833881Y-54111771D01*
X130631800Y-55313852D01*
X130172181Y-54854233D01*
X131374262Y-53652152D01*
X131374262Y-53652152D01*
G37*
D37*
X130649478Y-54129449D03*
D38*
G36*
X131020709Y-53298599D02*
X131480328Y-53758218D01*
X130278247Y-54960299D01*
X129818628Y-54500680D01*
X131020709Y-53298599D01*
X131020709Y-53298599D01*
G37*
D37*
X130295924Y-53775895D03*
D38*
G36*
X130667155Y-52945045D02*
X131126774Y-53404664D01*
X129924693Y-54606745D01*
X129465074Y-54147126D01*
X130667155Y-52945045D01*
X130667155Y-52945045D01*
G37*
D37*
X129942371Y-53422342D03*
D38*
G36*
X130313602Y-52591492D02*
X130773221Y-53051111D01*
X129571140Y-54253192D01*
X129111521Y-53793573D01*
X130313602Y-52591492D01*
X130313602Y-52591492D01*
G37*
D37*
X127679629Y-53422342D03*
D38*
G36*
X126848779Y-53051111D02*
X127308398Y-52591492D01*
X128510479Y-53793573D01*
X128050860Y-54253192D01*
X126848779Y-53051111D01*
X126848779Y-53051111D01*
G37*
D37*
X127326076Y-53775895D03*
D38*
G36*
X126495226Y-53404664D02*
X126954845Y-52945045D01*
X128156926Y-54147126D01*
X127697307Y-54606745D01*
X126495226Y-53404664D01*
X126495226Y-53404664D01*
G37*
D37*
X126972522Y-54129449D03*
D38*
G36*
X126141672Y-53758218D02*
X126601291Y-53298599D01*
X127803372Y-54500680D01*
X127343753Y-54960299D01*
X126141672Y-53758218D01*
X126141672Y-53758218D01*
G37*
D37*
X126618969Y-54483002D03*
D38*
G36*
X125788119Y-54111771D02*
X126247738Y-53652152D01*
X127449819Y-54854233D01*
X126990200Y-55313852D01*
X125788119Y-54111771D01*
X125788119Y-54111771D01*
G37*
D37*
X126265416Y-54836555D03*
D38*
G36*
X125434566Y-54465324D02*
X125894185Y-54005705D01*
X127096266Y-55207786D01*
X126636647Y-55667405D01*
X125434566Y-54465324D01*
X125434566Y-54465324D01*
G37*
D37*
X125911862Y-55190109D03*
D38*
G36*
X125081012Y-54818878D02*
X125540631Y-54359259D01*
X126742712Y-55561340D01*
X126283093Y-56020959D01*
X125081012Y-54818878D01*
X125081012Y-54818878D01*
G37*
D37*
X125558309Y-55543662D03*
D38*
G36*
X124727459Y-55172431D02*
X125187078Y-54712812D01*
X126389159Y-55914893D01*
X125929540Y-56374512D01*
X124727459Y-55172431D01*
X124727459Y-55172431D01*
G37*
D37*
X125204755Y-55897216D03*
D38*
G36*
X124373905Y-55525985D02*
X124833524Y-55066366D01*
X126035605Y-56268447D01*
X125575986Y-56728066D01*
X124373905Y-55525985D01*
X124373905Y-55525985D01*
G37*
D37*
X124851202Y-56250769D03*
D38*
G36*
X124020352Y-55879538D02*
X124479971Y-55419919D01*
X125682052Y-56622000D01*
X125222433Y-57081619D01*
X124020352Y-55879538D01*
X124020352Y-55879538D01*
G37*
D37*
X124497649Y-56604322D03*
D38*
G36*
X123666799Y-56233091D02*
X124126418Y-55773472D01*
X125328499Y-56975553D01*
X124868880Y-57435172D01*
X123666799Y-56233091D01*
X123666799Y-56233091D01*
G37*
D37*
X124144095Y-56957876D03*
D38*
G36*
X123313245Y-56586645D02*
X123772864Y-56127026D01*
X124974945Y-57329107D01*
X124515326Y-57788726D01*
X123313245Y-56586645D01*
X123313245Y-56586645D01*
G37*
D37*
X123790542Y-57311429D03*
D38*
G36*
X122959692Y-56940198D02*
X123419311Y-56480579D01*
X124621392Y-57682660D01*
X124161773Y-58142279D01*
X122959692Y-56940198D01*
X122959692Y-56940198D01*
G37*
D37*
X123790542Y-59574171D03*
D38*
G36*
X124161773Y-58743321D02*
X124621392Y-59202940D01*
X123419311Y-60405021D01*
X122959692Y-59945402D01*
X124161773Y-58743321D01*
X124161773Y-58743321D01*
G37*
D37*
X124144095Y-59927724D03*
D38*
G36*
X124515326Y-59096874D02*
X124974945Y-59556493D01*
X123772864Y-60758574D01*
X123313245Y-60298955D01*
X124515326Y-59096874D01*
X124515326Y-59096874D01*
G37*
D37*
X124497649Y-60281278D03*
D38*
G36*
X124868880Y-59450428D02*
X125328499Y-59910047D01*
X124126418Y-61112128D01*
X123666799Y-60652509D01*
X124868880Y-59450428D01*
X124868880Y-59450428D01*
G37*
D37*
X124851202Y-60634831D03*
D38*
G36*
X125222433Y-59803981D02*
X125682052Y-60263600D01*
X124479971Y-61465681D01*
X124020352Y-61006062D01*
X125222433Y-59803981D01*
X125222433Y-59803981D01*
G37*
D37*
X125204755Y-60988384D03*
D38*
G36*
X125575986Y-60157534D02*
X126035605Y-60617153D01*
X124833524Y-61819234D01*
X124373905Y-61359615D01*
X125575986Y-60157534D01*
X125575986Y-60157534D01*
G37*
D37*
X125558309Y-61341938D03*
D38*
G36*
X125929540Y-60511088D02*
X126389159Y-60970707D01*
X125187078Y-62172788D01*
X124727459Y-61713169D01*
X125929540Y-60511088D01*
X125929540Y-60511088D01*
G37*
D37*
X125911862Y-61695491D03*
D38*
G36*
X126283093Y-60864641D02*
X126742712Y-61324260D01*
X125540631Y-62526341D01*
X125081012Y-62066722D01*
X126283093Y-60864641D01*
X126283093Y-60864641D01*
G37*
D37*
X126265416Y-62049045D03*
D38*
G36*
X126636647Y-61218195D02*
X127096266Y-61677814D01*
X125894185Y-62879895D01*
X125434566Y-62420276D01*
X126636647Y-61218195D01*
X126636647Y-61218195D01*
G37*
D37*
X126618969Y-62402598D03*
D38*
G36*
X126990200Y-61571748D02*
X127449819Y-62031367D01*
X126247738Y-63233448D01*
X125788119Y-62773829D01*
X126990200Y-61571748D01*
X126990200Y-61571748D01*
G37*
D37*
X126972522Y-62756151D03*
D38*
G36*
X127343753Y-61925301D02*
X127803372Y-62384920D01*
X126601291Y-63587001D01*
X126141672Y-63127382D01*
X127343753Y-61925301D01*
X127343753Y-61925301D01*
G37*
D37*
X127326076Y-63109705D03*
D38*
G36*
X127697307Y-62278855D02*
X128156926Y-62738474D01*
X126954845Y-63940555D01*
X126495226Y-63480936D01*
X127697307Y-62278855D01*
X127697307Y-62278855D01*
G37*
D37*
X127679629Y-63463258D03*
D38*
G36*
X128050860Y-62632408D02*
X128510479Y-63092027D01*
X127308398Y-64294108D01*
X126848779Y-63834489D01*
X128050860Y-62632408D01*
X128050860Y-62632408D01*
G37*
D37*
X129942371Y-63463258D03*
D38*
G36*
X129111521Y-63092027D02*
X129571140Y-62632408D01*
X130773221Y-63834489D01*
X130313602Y-64294108D01*
X129111521Y-63092027D01*
X129111521Y-63092027D01*
G37*
D37*
X130295924Y-63109705D03*
D38*
G36*
X129465074Y-62738474D02*
X129924693Y-62278855D01*
X131126774Y-63480936D01*
X130667155Y-63940555D01*
X129465074Y-62738474D01*
X129465074Y-62738474D01*
G37*
D37*
X130649478Y-62756151D03*
D38*
G36*
X129818628Y-62384920D02*
X130278247Y-61925301D01*
X131480328Y-63127382D01*
X131020709Y-63587001D01*
X129818628Y-62384920D01*
X129818628Y-62384920D01*
G37*
D37*
X131003031Y-62402598D03*
D38*
G36*
X130172181Y-62031367D02*
X130631800Y-61571748D01*
X131833881Y-62773829D01*
X131374262Y-63233448D01*
X130172181Y-62031367D01*
X130172181Y-62031367D01*
G37*
D37*
X131356584Y-62049045D03*
D38*
G36*
X130525734Y-61677814D02*
X130985353Y-61218195D01*
X132187434Y-62420276D01*
X131727815Y-62879895D01*
X130525734Y-61677814D01*
X130525734Y-61677814D01*
G37*
D37*
X131710138Y-61695491D03*
D38*
G36*
X130879288Y-61324260D02*
X131338907Y-60864641D01*
X132540988Y-62066722D01*
X132081369Y-62526341D01*
X130879288Y-61324260D01*
X130879288Y-61324260D01*
G37*
D37*
X132063691Y-61341938D03*
D38*
G36*
X131232841Y-60970707D02*
X131692460Y-60511088D01*
X132894541Y-61713169D01*
X132434922Y-62172788D01*
X131232841Y-60970707D01*
X131232841Y-60970707D01*
G37*
D37*
X132417245Y-60988384D03*
D38*
G36*
X131586395Y-60617153D02*
X132046014Y-60157534D01*
X133248095Y-61359615D01*
X132788476Y-61819234D01*
X131586395Y-60617153D01*
X131586395Y-60617153D01*
G37*
D37*
X132770798Y-60634831D03*
D38*
G36*
X131939948Y-60263600D02*
X132399567Y-59803981D01*
X133601648Y-61006062D01*
X133142029Y-61465681D01*
X131939948Y-60263600D01*
X131939948Y-60263600D01*
G37*
D37*
X133124351Y-60281278D03*
D38*
G36*
X132293501Y-59910047D02*
X132753120Y-59450428D01*
X133955201Y-60652509D01*
X133495582Y-61112128D01*
X132293501Y-59910047D01*
X132293501Y-59910047D01*
G37*
D37*
X133477905Y-59927724D03*
D38*
G36*
X132647055Y-59556493D02*
X133106674Y-59096874D01*
X134308755Y-60298955D01*
X133849136Y-60758574D01*
X132647055Y-59556493D01*
X132647055Y-59556493D01*
G37*
D37*
X133831458Y-59574171D03*
D38*
G36*
X133000608Y-59202940D02*
X133460227Y-58743321D01*
X134662308Y-59945402D01*
X134202689Y-60405021D01*
X133000608Y-59202940D01*
X133000608Y-59202940D01*
G37*
M02*
