G04 #@! TF.GenerationSoftware,KiCad,Pcbnew,(2017-06-19 revision 6733101c6)-makepkg*
G04 #@! TF.CreationDate,2017-07-31T00:47:17+09:30*
G04 #@! TF.ProjectId,ATM90E3x_fw,41544D39304533785F66772E6B696361,rev?*
G04 #@! TF.SameCoordinates,Original
G04 #@! TF.FileFunction,Soldermask,Bot*
G04 #@! TF.FilePolarity,Negative*
%FSLAX46Y46*%
G04 Gerber Fmt 4.6, Leading zero omitted, Abs format (unit mm)*
G04 Created by KiCad (PCBNEW (2017-06-19 revision 6733101c6)-makepkg) date 07/31/17 00:47:17*
%MOMM*%
%LPD*%
G01*
G04 APERTURE LIST*
%ADD10C,0.100000*%
%ADD11O,4.000000X2.200000*%
%ADD12R,4.000000X2.200000*%
%ADD13R,1.670000X1.370000*%
%ADD14C,2.400000*%
%ADD15C,4.050000*%
%ADD16R,1.900000X1.900000*%
%ADD17C,1.900000*%
%ADD18R,0.900000X1.300000*%
%ADD19R,1.370000X1.670000*%
%ADD20C,2.178000*%
%ADD21C,4.210000*%
%ADD22C,2.899360*%
%ADD23R,1.150000X1.200000*%
%ADD24R,1.200000X1.150000*%
%ADD25R,1.300000X0.900000*%
G04 APERTURE END LIST*
D10*
D11*
X115316000Y-57236000D03*
X115316000Y-53736000D03*
X115316000Y-50236000D03*
D12*
X115316000Y-46736000D03*
D13*
X120142000Y-45974000D03*
X120142000Y-44704000D03*
X120142000Y-43434000D03*
X127762000Y-45974000D03*
X127762000Y-44704000D03*
X127762000Y-43434000D03*
X123952000Y-45974000D03*
X123952000Y-44704000D03*
X123952000Y-43434000D03*
D14*
X152656000Y-65279000D03*
X152656000Y-49089000D03*
D15*
X149606000Y-51249000D03*
X149606000Y-63119000D03*
D16*
X143256000Y-61629000D03*
D17*
X140716000Y-60359000D03*
X143256000Y-59089000D03*
X140716000Y-57819000D03*
X143256000Y-56549000D03*
X140716000Y-55279000D03*
X143256000Y-54009000D03*
X140716000Y-52739000D03*
D18*
X137426000Y-55372000D03*
X138926000Y-55372000D03*
D19*
X138684000Y-73152000D03*
X139954000Y-73152000D03*
X141224000Y-73152000D03*
D20*
X113335000Y-90220800D03*
X115875000Y-90220800D03*
X118415000Y-90220800D03*
X120955000Y-90220800D03*
X123495000Y-90220800D03*
X126035000Y-90220800D03*
X128575000Y-90220800D03*
X131115000Y-90220800D03*
X133655000Y-90220800D03*
X136195000Y-90220800D03*
X138735000Y-90220800D03*
X141275000Y-90220800D03*
X143815000Y-90220800D03*
X146355000Y-90220800D03*
X148895000Y-90220800D03*
X151435000Y-90220800D03*
X151435000Y-69900800D03*
X148895000Y-69900800D03*
X146355000Y-69900800D03*
X143815000Y-69900800D03*
X141275000Y-69900800D03*
X138735000Y-69900800D03*
X136195000Y-69900800D03*
X133655000Y-69900800D03*
X131115000Y-69900800D03*
X128575000Y-69900800D03*
X126035000Y-69900800D03*
X123495000Y-69900800D03*
D21*
X109525000Y-71170800D03*
X109525000Y-88950800D03*
D22*
X155245000Y-71170800D03*
X155245000Y-88950800D03*
D23*
X120396000Y-49784000D03*
X120396000Y-51284000D03*
D24*
X140450000Y-48514000D03*
X138950000Y-48514000D03*
D23*
X138176000Y-63742000D03*
X138176000Y-62242000D03*
D24*
X140450000Y-65278000D03*
X138950000Y-65278000D03*
D23*
X135890000Y-56376000D03*
X135890000Y-54876000D03*
X135890000Y-52820000D03*
X135890000Y-51320000D03*
X120396000Y-56539000D03*
X120396000Y-58039000D03*
X120396000Y-53086000D03*
X120396000Y-54586000D03*
X135890000Y-62980000D03*
X135890000Y-61480000D03*
X135890000Y-59424000D03*
X135890000Y-57924000D03*
X138176000Y-50050000D03*
X138176000Y-51550000D03*
D18*
X137426000Y-60452000D03*
X138926000Y-60452000D03*
X137426000Y-58674000D03*
X138926000Y-58674000D03*
X139966000Y-50292000D03*
X141466000Y-50292000D03*
D25*
X118618000Y-51284000D03*
X118618000Y-49784000D03*
X122174000Y-49784000D03*
X122174000Y-51284000D03*
D18*
X145820000Y-54356000D03*
X147320000Y-54356000D03*
D25*
X143510000Y-50050000D03*
X143510000Y-51550000D03*
D18*
X148844000Y-54356000D03*
X150344000Y-54356000D03*
D25*
X118618000Y-57900000D03*
X118618000Y-56400000D03*
D18*
X145820000Y-58166000D03*
X147320000Y-58166000D03*
D25*
X122174000Y-56515000D03*
X122174000Y-58015000D03*
X118618000Y-54586000D03*
X118618000Y-53086000D03*
X122174000Y-53086000D03*
X122174000Y-54586000D03*
D18*
X148844000Y-58166000D03*
X150344000Y-58166000D03*
X137426000Y-53594000D03*
X138926000Y-53594000D03*
X148868000Y-59944000D03*
X150368000Y-59944000D03*
X145820000Y-59944000D03*
X147320000Y-59944000D03*
X148868000Y-56134000D03*
X150368000Y-56134000D03*
X145820000Y-56134000D03*
X147320000Y-56134000D03*
X142252000Y-64008000D03*
X143752000Y-64008000D03*
D25*
X140208000Y-63488000D03*
X140208000Y-61988000D03*
M02*
